<svg xmlns="http://www.w3.org/2000/svg" width="720" height="140" viewBox="0 0 720 140" font-family="-apple-system,BlinkMacSystemFont,Segoe UI,Helvetica,Arial,sans-serif"><style>svg{--cf-bg:#0d1117;--cf-bg-alt:#161b22;--cf-border:#21262d;--cf-text:#e6edf3;--cf-text-dim:#8b949e;--cf-text-faint:#6e7681;--cf-accent:#5eead4;--cf-accent-soft:rgba(94,234,212,0.16);--cf-green:#3fb950;--cf-amber:#d29922;--cf-red:#f85149;--cf-spark:#5eead4;--cf-spark-bg:rgba(94,234,212,0.18)}@media (prefers-color-scheme: light){svg{--cf-bg:#ffffff;--cf-bg-alt:#f6f8fa;--cf-border:#d0d7de;--cf-text:#1f2328;--cf-text-dim:#656d76;--cf-text-faint:#8c959f;--cf-accent:#0d9488;--cf-accent-soft:rgba(13,148,136,0.12);--cf-green:#1a7f37;--cf-amber:#9a6700;--cf-red:#cf222e;--cf-spark:#0d9488;--cf-spark-bg:rgba(13,148,136,0.12)}}</style><rect width="720" height="140" rx="12" fill="var(--cf-bg)" stroke="var(--cf-border)"/><text x="18" y="26" font-size="13" font-weight="600" fill="var(--cf-text)">braedonsaunders/homerun</text><text x="702" y="26" text-anchor="end" font-size="10" fill="var(--cf-text-faint)" font-family="ui-monospace,SFMono-Regular,Menlo,monospace">@cb46ff2</text><g transform="translate(18,46)"><text x="0" y="0" font-size="9" font-weight="600" fill="var(--cf-text-dim)" letter-spacing="0.8">FILES</text><text x="0" y="28" font-size="22" font-weight="700" fill="var(--cf-text)">867</text><g transform="translate(0,40)"><svg width="64" height="14" viewBox="0 0 64 14" preserveAspectRatio="none"><path d="M0 14 L2.13 14 L4.27 13.44 L6.4 13.44 L8.53 13.44 L10.67 7.84 L12.8 7.84 L14.93 7.84 L17.07 7.84 L19.2 7.28 L21.33 6.72 L23.47 6.72 L25.6 6.72 L27.73 6.72 L29.87 6.72 L32 6.72 L34.13 6.72 L36.27 6.72 L38.4 6.72 L40.53 6.72 L42.67 3.92 L44.8 3.92 L46.93 3.92 L49.07 2.8 L51.2 2.8 L53.33 2.8 L55.47 2.8 L57.6 2.8 L59.73 2.8 L61.87 2.8 L64 0 L64 14 L0 14 Z" fill="var(--cf-spark-bg)" stroke="none"/><path d="M0 14 L2.13 14 L4.27 13.44 L6.4 13.44 L8.53 13.44 L10.67 7.84 L12.8 7.84 L14.93 7.84 L17.07 7.84 L19.2 7.28 L21.33 6.72 L23.47 6.72 L25.6 6.72 L27.73 6.72 L29.87 6.72 L32 6.72 L34.13 6.72 L36.27 6.72 L38.4 6.72 L40.53 6.72 L42.67 3.92 L44.8 3.92 L46.93 3.92 L49.07 2.8 L51.2 2.8 L53.33 2.8 L55.47 2.8 L57.6 2.8 L59.73 2.8 L61.87 2.8 L64 0" fill="none" stroke="var(--cf-spark)" stroke-width="1.4" stroke-linecap="round" stroke-linejoin="round"/></svg></g></g><g transform="translate(154.8,46)"><text x="0" y="0" font-size="9" font-weight="600" fill="var(--cf-text-dim)" letter-spacing="0.8">FNS</text><text x="0" y="28" font-size="22" font-weight="700" fill="var(--cf-text)">12.6K</text><g transform="translate(0,40)"><svg width="64" height="14" viewBox="0 0 64 14" preserveAspectRatio="none"><path d="M0 14 L2.13 14 L4.27 12.56 L6.4 12.56 L8.53 12.49 L10.67 8.91 L12.8 8.85 L14.93 8.85 L17.07 8.85 L19.2 8.73 L21.33 8.6 L23.47 8.6 L25.6 8.6 L27.73 8.29 L29.87 8.22 L32 8.1 L34.13 7.85 L36.27 7.85 L38.4 6.4 L40.53 6.4 L42.67 3.08 L44.8 3.64 L46.93 3.64 L49.07 0.25 L51.2 0.25 L53.33 0.25 L55.47 0.25 L57.6 0.06 L59.73 0.06 L61.87 0 L64 0 L64 14 L0 14 Z" fill="var(--cf-spark-bg)" stroke="none"/><path d="M0 14 L2.13 14 L4.27 12.56 L6.4 12.56 L8.53 12.49 L10.67 8.91 L12.8 8.85 L14.93 8.85 L17.07 8.85 L19.2 8.73 L21.33 8.6 L23.47 8.6 L25.6 8.6 L27.73 8.29 L29.87 8.22 L32 8.1 L34.13 7.85 L36.27 7.85 L38.4 6.4 L40.53 6.4 L42.67 3.08 L44.8 3.64 L46.93 3.64 L49.07 0.25 L51.2 0.25 L53.33 0.25 L55.47 0.25 L57.6 0.06 L59.73 0.06 L61.87 0 L64 0" fill="none" stroke="var(--cf-spark)" stroke-width="1.4" stroke-linecap="round" stroke-linejoin="round"/></svg></g></g><g transform="translate(291.6,46)"><text x="0" y="0" font-size="9" font-weight="600" fill="var(--cf-text-dim)" letter-spacing="0.8">LOC</text><text x="0" y="28" font-size="22" font-weight="700" fill="var(--cf-text)">476.3K</text><g transform="translate(0,40)"><svg width="64" height="14" viewBox="0 0 64 14" preserveAspectRatio="none"><path d="M0 14 L2.13 13.98 L4.27 12.89 L6.4 13.56 L8.53 13.54 L10.67 9.54 L12.8 9.51 L14.93 9.46 L17.07 9.43 L19.2 9.37 L21.33 9.3 L23.47 9.27 L25.6 9.24 L27.73 9.12 L29.87 9.09 L32 9.04 L34.13 8.53 L36.27 8.45 L38.4 6.81 L40.53 6.59 L42.67 3.78 L44.8 3.95 L46.93 3.87 L49.07 1.95 L51.2 1.15 L53.33 1.15 L55.47 1.03 L57.6 0.87 L59.73 0.82 L61.87 0.56 L64 0 L64 14 L0 14 Z" fill="var(--cf-spark-bg)" stroke="none"/><path d="M0 14 L2.13 13.98 L4.27 12.89 L6.4 13.56 L8.53 13.54 L10.67 9.54 L12.8 9.51 L14.93 9.46 L17.07 9.43 L19.2 9.37 L21.33 9.3 L23.47 9.27 L25.6 9.24 L27.73 9.12 L29.87 9.09 L32 9.04 L34.13 8.53 L36.27 8.45 L38.4 6.81 L40.53 6.59 L42.67 3.78 L44.8 3.95 L46.93 3.87 L49.07 1.95 L51.2 1.15 L53.33 1.15 L55.47 1.03 L57.6 0.87 L59.73 0.82 L61.87 0.56 L64 0" fill="none" stroke="var(--cf-spark)" stroke-width="1.4" stroke-linecap="round" stroke-linejoin="round"/></svg></g></g><g transform="translate(428.40000000000003,46)"><text x="0" y="0" font-size="9" font-weight="600" fill="var(--cf-text-dim)" letter-spacing="0.8">LANGS</text><text x="0" y="28" font-size="22" font-weight="700" fill="var(--cf-text)">22</text><g transform="translate(0,40)"><svg width="64" height="14" viewBox="0 0 64 14" preserveAspectRatio="none"><path d="M0 14 L2.13 14 L4.27 14 L6.4 14 L8.53 14 L10.67 14 L12.8 14 L14.93 14 L17.07 14 L19.2 14 L21.33 14 L23.47 14 L25.6 14 L27.73 14 L29.87 14 L32 14 L34.13 14 L36.27 14 L38.4 14 L40.53 14 L42.67 14 L44.8 14 L46.93 14 L49.07 14 L51.2 14 L53.33 14 L55.47 14 L57.6 14 L59.73 14 L61.87 14 L64 0 L64 14 L0 14 Z" fill="var(--cf-spark-bg)" stroke="none"/><path d="M0 14 L2.13 14 L4.27 14 L6.4 14 L8.53 14 L10.67 14 L12.8 14 L14.93 14 L17.07 14 L19.2 14 L21.33 14 L23.47 14 L25.6 14 L27.73 14 L29.87 14 L32 14 L34.13 14 L36.27 14 L38.4 14 L40.53 14 L42.67 14 L44.8 14 L46.93 14 L49.07 14 L51.2 14 L53.33 14 L55.47 14 L57.6 14 L59.73 14 L61.87 14 L64 0" fill="none" stroke="var(--cf-spark)" stroke-width="1.4" stroke-linecap="round" stroke-linejoin="round"/></svg></g></g><g transform="translate(565.2,46)"><text x="0" y="0" font-size="9" font-weight="600" fill="var(--cf-text-dim)" letter-spacing="0.8">TESTS</text><text x="0" y="28" font-size="22" font-weight="700" fill="var(--cf-text)">187</text><g transform="translate(0,40)"><svg width="64" height="14" viewBox="0 0 64 14" preserveAspectRatio="none"><path d="M0 14 L2.13 14 L4.27 14 L6.4 14 L8.53 14 L10.67 14 L12.8 14 L14.93 14 L17.07 14 L19.2 14 L21.33 14 L23.47 14 L25.6 14 L27.73 14 L29.87 14 L32 14 L34.13 14 L36.27 14 L38.4 14 L40.53 14 L42.67 14 L44.8 14 L46.93 14 L49.07 0 L51.2 0 L53.33 0 L55.47 0 L57.6 0 L59.73 0 L61.87 0 L64 0 L64 14 L0 14 Z" fill="var(--cf-spark-bg)" stroke="none"/><path d="M0 14 L2.13 14 L4.27 14 L6.4 14 L8.53 14 L10.67 14 L12.8 14 L14.93 14 L17.07 14 L19.2 14 L21.33 14 L23.47 14 L25.6 14 L27.73 14 L29.87 14 L32 14 L34.13 14 L36.27 14 L38.4 14 L40.53 14 L42.67 14 L44.8 14 L46.93 14 L49.07 0 L51.2 0 L53.33 0 L55.47 0 L57.6 0 L59.73 0 L61.87 0 L64 0" fill="none" stroke="var(--cf-spark)" stroke-width="1.4" stroke-linecap="round" stroke-linejoin="round"/></svg></g></g><a href="https://github.com/braedonsaunders/codeflow" target="_blank"><text x="702" y="130" text-anchor="end" font-size="9" fill="var(--cf-text-faint)">powered by <tspan font-weight="600" fill="var(--cf-accent)">codeflow</tspan></text></a></svg>