<svg xmlns="http://www.w3.org/2000/svg" width="720" height="140" viewBox="0 0 720 140" font-family="-apple-system,BlinkMacSystemFont,Segoe UI,Helvetica,Arial,sans-serif"><style>svg{--cf-bg:#0d1117;--cf-bg-alt:#161b22;--cf-border:#21262d;--cf-text:#e6edf3;--cf-text-dim:#8b949e;--cf-text-faint:#6e7681;--cf-accent:#5eead4;--cf-accent-soft:rgba(94,234,212,0.16);--cf-green:#3fb950;--cf-amber:#d29922;--cf-red:#f85149;--cf-spark:#5eead4;--cf-spark-bg:rgba(94,234,212,0.18)}@media (prefers-color-scheme: light){svg{--cf-bg:#ffffff;--cf-bg-alt:#f6f8fa;--cf-border:#d0d7de;--cf-text:#1f2328;--cf-text-dim:#656d76;--cf-text-faint:#8c959f;--cf-accent:#0d9488;--cf-accent-soft:rgba(13,148,136,0.12);--cf-green:#1a7f37;--cf-amber:#9a6700;--cf-red:#cf222e;--cf-spark:#0d9488;--cf-spark-bg:rgba(13,148,136,0.12)}}</style><rect width="720" height="140" rx="12" fill="var(--cf-bg)" stroke="var(--cf-border)"/><text x="18" y="26" font-size="13" font-weight="600" fill="var(--cf-text)">braedonsaunders/homerun</text><text x="702" y="26" text-anchor="end" font-size="10" fill="var(--cf-text-faint)" font-family="ui-monospace,SFMono-Regular,Menlo,monospace">@b1fdf53</text><g transform="translate(18,46)"><text x="0" y="0" font-size="9" font-weight="600" fill="var(--cf-text-dim)" letter-spacing="0.8">FILES</text><text x="0" y="28" font-size="22" font-weight="700" fill="var(--cf-text)">992</text><g transform="translate(0,40)"><svg width="64" height="14" viewBox="0 0 64 14" preserveAspectRatio="none"><path d="M0 14 L2.13 12.8 L4.27 12.8 L6.4 12.4 L8.53 12.4 L10.67 12.4 L12.8 12.4 L14.93 12.4 L17.07 12.4 L19.2 12.4 L21.33 12.4 L23.47 2.8 L25.6 2.8 L27.73 2 L29.87 1.6 L32 1.2 L34.13 0.8 L36.27 0.8 L38.4 0.8 L40.53 0.8 L42.67 0.8 L44.8 0.8 L46.93 0.8 L49.07 0.8 L51.2 0.8 L53.33 0.4 L55.47 0 L57.6 0 L59.73 0 L61.87 0 L64 0 L64 14 L0 14 Z" fill="var(--cf-spark-bg)" stroke="none"/><path d="M0 14 L2.13 12.8 L4.27 12.8 L6.4 12.4 L8.53 12.4 L10.67 12.4 L12.8 12.4 L14.93 12.4 L17.07 12.4 L19.2 12.4 L21.33 12.4 L23.47 2.8 L25.6 2.8 L27.73 2 L29.87 1.6 L32 1.2 L34.13 0.8 L36.27 0.8 L38.4 0.8 L40.53 0.8 L42.67 0.8 L44.8 0.8 L46.93 0.8 L49.07 0.8 L51.2 0.8 L53.33 0.4 L55.47 0 L57.6 0 L59.73 0 L61.87 0 L64 0" fill="none" stroke="var(--cf-spark)" stroke-width="1.4" stroke-linecap="round" stroke-linejoin="round"/></svg></g></g><g transform="translate(154.8,46)"><text x="0" y="0" font-size="9" font-weight="600" fill="var(--cf-text-dim)" letter-spacing="0.8">FNS</text><text x="0" y="28" font-size="22" font-weight="700" fill="var(--cf-text)">14.3K</text><g transform="translate(0,40)"><svg width="64" height="14" viewBox="0 0 64 14" preserveAspectRatio="none"><path d="M0 14 L2.13 12.19 L4.27 12.19 L6.4 11.94 L8.53 11.94 L10.67 11.94 L12.8 11.94 L14.93 11.9 L17.07 11.9 L19.2 11.68 L21.33 11.68 L23.47 4.06 L25.6 4.06 L27.73 3.56 L29.87 3.4 L32 3.11 L34.13 2.73 L36.27 2.67 L38.4 2.48 L40.53 2.41 L42.67 2.1 L44.8 2.06 L46.93 2 L49.07 1.68 L51.2 1.37 L53.33 0.89 L55.47 0.57 L57.6 0.35 L59.73 0.03 L61.87 0 L64 0 L64 14 L0 14 Z" fill="var(--cf-spark-bg)" stroke="none"/><path d="M0 14 L2.13 12.19 L4.27 12.19 L6.4 11.94 L8.53 11.94 L10.67 11.94 L12.8 11.94 L14.93 11.9 L17.07 11.9 L19.2 11.68 L21.33 11.68 L23.47 4.06 L25.6 4.06 L27.73 3.56 L29.87 3.4 L32 3.11 L34.13 2.73 L36.27 2.67 L38.4 2.48 L40.53 2.41 L42.67 2.1 L44.8 2.06 L46.93 2 L49.07 1.68 L51.2 1.37 L53.33 0.89 L55.47 0.57 L57.6 0.35 L59.73 0.03 L61.87 0 L64 0" fill="none" stroke="var(--cf-spark)" stroke-width="1.4" stroke-linecap="round" stroke-linejoin="round"/></svg></g></g><g transform="translate(291.6,46)"><text x="0" y="0" font-size="9" font-weight="600" fill="var(--cf-text-dim)" letter-spacing="0.8">LOC</text><text x="0" y="28" font-size="22" font-weight="700" fill="var(--cf-text)">590.4K</text><g transform="translate(0,40)"><svg width="64" height="14" viewBox="0 0 64 14" preserveAspectRatio="none"><path d="M0 14 L2.13 12.04 L4.27 12.03 L6.4 11.8 L8.53 11.71 L10.67 11.59 L12.8 11.58 L14.93 11.37 L17.07 11.34 L19.2 10.89 L21.33 10.96 L23.47 3.04 L25.6 3.04 L27.73 2.61 L29.87 2.3 L32 2.21 L34.13 2 L36.27 1.93 L38.4 1.7 L40.53 1.64 L42.67 1.55 L44.8 1.52 L46.93 1.43 L49.07 1.2 L51.2 1.03 L53.33 0.8 L55.47 0.69 L57.6 0.39 L59.73 0.08 L61.87 0.01 L64 0 L64 14 L0 14 Z" fill="var(--cf-spark-bg)" stroke="none"/><path d="M0 14 L2.13 12.04 L4.27 12.03 L6.4 11.8 L8.53 11.71 L10.67 11.59 L12.8 11.58 L14.93 11.37 L17.07 11.34 L19.2 10.89 L21.33 10.96 L23.47 3.04 L25.6 3.04 L27.73 2.61 L29.87 2.3 L32 2.21 L34.13 2 L36.27 1.93 L38.4 1.7 L40.53 1.64 L42.67 1.55 L44.8 1.52 L46.93 1.43 L49.07 1.2 L51.2 1.03 L53.33 0.8 L55.47 0.69 L57.6 0.39 L59.73 0.08 L61.87 0.01 L64 0" fill="none" stroke="var(--cf-spark)" stroke-width="1.4" stroke-linecap="round" stroke-linejoin="round"/></svg></g></g><g transform="translate(428.40000000000003,46)"><text x="0" y="0" font-size="9" font-weight="600" fill="var(--cf-text-dim)" letter-spacing="0.8">LANGS</text><text x="0" y="28" font-size="22" font-weight="700" fill="var(--cf-text)">22</text><g transform="translate(0,40)"><svg width="64" height="14" viewBox="0 0 64 14" preserveAspectRatio="none"><path d="M0 7 L2.13 7 L4.27 7 L6.4 7 L8.53 7 L10.67 7 L12.8 7 L14.93 7 L17.07 7 L19.2 7 L21.33 7 L23.47 7 L25.6 7 L27.73 7 L29.87 7 L32 7 L34.13 7 L36.27 7 L38.4 7 L40.53 7 L42.67 7 L44.8 7 L46.93 7 L49.07 7 L51.2 7 L53.33 7 L55.47 7 L57.6 7 L59.73 7 L61.87 7 L64 7 L64 14 L0 14 Z" fill="var(--cf-spark-bg)" stroke="none"/><path d="M0 7 L2.13 7 L4.27 7 L6.4 7 L8.53 7 L10.67 7 L12.8 7 L14.93 7 L17.07 7 L19.2 7 L21.33 7 L23.47 7 L25.6 7 L27.73 7 L29.87 7 L32 7 L34.13 7 L36.27 7 L38.4 7 L40.53 7 L42.67 7 L44.8 7 L46.93 7 L49.07 7 L51.2 7 L53.33 7 L55.47 7 L57.6 7 L59.73 7 L61.87 7 L64 7" fill="none" stroke="var(--cf-spark)" stroke-width="1.4" stroke-linecap="round" stroke-linejoin="round"/></svg></g></g><g transform="translate(565.2,46)"><text x="0" y="0" font-size="9" font-weight="600" fill="var(--cf-text-dim)" letter-spacing="0.8">TESTS</text><text x="0" y="28" font-size="22" font-weight="700" fill="var(--cf-text)">211</text><g transform="translate(0,40)"><svg width="64" height="14" viewBox="0 0 64 14" preserveAspectRatio="none"><path d="M0 14 L2.13 14 L4.27 14 L6.4 14 L8.53 14 L10.67 14 L12.8 14 L14.93 14 L17.07 14 L19.2 14 L21.33 14 L23.47 7 L25.6 7 L27.73 5.25 L29.87 5.25 L32 3.5 L34.13 1.75 L36.27 1.75 L38.4 1.75 L40.53 1.75 L42.67 1.75 L44.8 1.75 L46.93 1.75 L49.07 1.75 L51.2 1.75 L53.33 1.75 L55.47 0 L57.6 0 L59.73 0 L61.87 0 L64 0 L64 14 L0 14 Z" fill="var(--cf-spark-bg)" stroke="none"/><path d="M0 14 L2.13 14 L4.27 14 L6.4 14 L8.53 14 L10.67 14 L12.8 14 L14.93 14 L17.07 14 L19.2 14 L21.33 14 L23.47 7 L25.6 7 L27.73 5.25 L29.87 5.25 L32 3.5 L34.13 1.75 L36.27 1.75 L38.4 1.75 L40.53 1.75 L42.67 1.75 L44.8 1.75 L46.93 1.75 L49.07 1.75 L51.2 1.75 L53.33 1.75 L55.47 0 L57.6 0 L59.73 0 L61.87 0 L64 0" fill="none" stroke="var(--cf-spark)" stroke-width="1.4" stroke-linecap="round" stroke-linejoin="round"/></svg></g></g><a href="https://github.com/braedonsaunders/codeflow" target="_blank"><text x="702" y="130" text-anchor="end" font-size="9" fill="var(--cf-text-faint)">powered by <tspan font-weight="600" fill="var(--cf-accent)">codeflow</tspan></text></a></svg>