<svg xmlns="http://www.w3.org/2000/svg" width="720" height="140" viewBox="0 0 720 140" font-family="-apple-system,BlinkMacSystemFont,Segoe UI,Helvetica,Arial,sans-serif"><style>svg{--cf-bg:#0d1117;--cf-bg-alt:#161b22;--cf-border:#21262d;--cf-text:#e6edf3;--cf-text-dim:#8b949e;--cf-text-faint:#6e7681;--cf-accent:#5eead4;--cf-accent-soft:rgba(94,234,212,0.16);--cf-green:#3fb950;--cf-amber:#d29922;--cf-red:#f85149;--cf-spark:#5eead4;--cf-spark-bg:rgba(94,234,212,0.18)}@media (prefers-color-scheme: light){svg{--cf-bg:#ffffff;--cf-bg-alt:#f6f8fa;--cf-border:#d0d7de;--cf-text:#1f2328;--cf-text-dim:#656d76;--cf-text-faint:#8c959f;--cf-accent:#0d9488;--cf-accent-soft:rgba(13,148,136,0.12);--cf-green:#1a7f37;--cf-amber:#9a6700;--cf-red:#cf222e;--cf-spark:#0d9488;--cf-spark-bg:rgba(13,148,136,0.12)}}</style><rect width="720" height="140" rx="12" fill="var(--cf-bg)" stroke="var(--cf-border)"/><text x="18" y="26" font-size="13" font-weight="600" fill="var(--cf-text)">braedonsaunders/homerun</text><text x="702" y="26" text-anchor="end" font-size="10" fill="var(--cf-text-faint)" font-family="ui-monospace,SFMono-Regular,Menlo,monospace">@b8ce5f3</text><g transform="translate(18,46)"><text x="0" y="0" font-size="9" font-weight="600" fill="var(--cf-text-dim)" letter-spacing="0.8">FILES</text><text x="0" y="28" font-size="22" font-weight="700" fill="var(--cf-text)">951</text><g transform="translate(0,40)"><svg width="64" height="14" viewBox="0 0 64 14" preserveAspectRatio="none"><path d="M0 14 L2.13 14 L4.27 14 L6.4 14 L8.53 12.41 L10.67 12.41 L12.8 6.68 L14.93 6.68 L17.07 6.68 L19.2 6.68 L21.33 4.77 L23.47 4.77 L25.6 4.77 L27.73 4.77 L29.87 1.59 L32 1.27 L34.13 1.27 L36.27 1.27 L38.4 0.95 L40.53 0 L42.67 0 L44.8 0 L46.93 0 L49.07 0 L51.2 0 L53.33 0 L55.47 0 L57.6 0 L59.73 0 L61.87 0 L64 0 L64 14 L0 14 Z" fill="var(--cf-spark-bg)" stroke="none"/><path d="M0 14 L2.13 14 L4.27 14 L6.4 14 L8.53 12.41 L10.67 12.41 L12.8 6.68 L14.93 6.68 L17.07 6.68 L19.2 6.68 L21.33 4.77 L23.47 4.77 L25.6 4.77 L27.73 4.77 L29.87 1.59 L32 1.27 L34.13 1.27 L36.27 1.27 L38.4 0.95 L40.53 0 L42.67 0 L44.8 0 L46.93 0 L49.07 0 L51.2 0 L53.33 0 L55.47 0 L57.6 0 L59.73 0 L61.87 0 L64 0" fill="none" stroke="var(--cf-spark)" stroke-width="1.4" stroke-linecap="round" stroke-linejoin="round"/></svg></g></g><g transform="translate(154.8,46)"><text x="0" y="0" font-size="9" font-weight="600" fill="var(--cf-text-dim)" letter-spacing="0.8">FNS</text><text x="0" y="28" font-size="22" font-weight="700" fill="var(--cf-text)">13.8K</text><g transform="translate(0,40)"><svg width="64" height="14" viewBox="0 0 64 14" preserveAspectRatio="none"><path d="M0 14 L2.13 14 L4.27 14 L6.4 13.92 L8.53 12.03 L10.67 12.03 L12.8 10.33 L14.93 10.25 L17.07 10.12 L19.2 10.12 L21.33 5.66 L23.47 5.66 L25.6 5.3 L27.73 5.27 L29.87 3.41 L32 2.99 L34.13 2.81 L36.27 2.75 L38.4 2.54 L40.53 0.29 L42.67 0.26 L44.8 0.26 L46.93 0.26 L49.07 0.26 L51.2 0.26 L53.33 0.26 L55.47 0.26 L57.6 0.26 L59.73 0.13 L61.87 0.13 L64 0 L64 14 L0 14 Z" fill="var(--cf-spark-bg)" stroke="none"/><path d="M0 14 L2.13 14 L4.27 14 L6.4 13.92 L8.53 12.03 L10.67 12.03 L12.8 10.33 L14.93 10.25 L17.07 10.12 L19.2 10.12 L21.33 5.66 L23.47 5.66 L25.6 5.3 L27.73 5.27 L29.87 3.41 L32 2.99 L34.13 2.81 L36.27 2.75 L38.4 2.54 L40.53 0.29 L42.67 0.26 L44.8 0.26 L46.93 0.26 L49.07 0.26 L51.2 0.26 L53.33 0.26 L55.47 0.26 L57.6 0.26 L59.73 0.13 L61.87 0.13 L64 0" fill="none" stroke="var(--cf-spark)" stroke-width="1.4" stroke-linecap="round" stroke-linejoin="round"/></svg></g></g><g transform="translate(291.6,46)"><text x="0" y="0" font-size="9" font-weight="600" fill="var(--cf-text-dim)" letter-spacing="0.8">LOC</text><text x="0" y="28" font-size="22" font-weight="700" fill="var(--cf-text)">572.2K</text><g transform="translate(0,40)"><svg width="64" height="14" viewBox="0 0 64 14" preserveAspectRatio="none"><path d="M0 14 L2.13 14 L4.27 13.99 L6.4 13.97 L8.53 13.64 L10.67 13.64 L12.8 11.41 L14.93 11.37 L17.07 11.35 L19.2 11.35 L21.33 9.35 L23.47 9.34 L25.6 9.17 L27.73 9.16 L29.87 8.63 L32 3.12 L34.13 2.75 L36.27 2.42 L38.4 2.36 L40.53 1.16 L42.67 0.31 L44.8 0.3 L46.93 0.3 L49.07 0.3 L51.2 0.28 L53.33 0.22 L55.47 0.2 L57.6 0.19 L59.73 0.13 L61.87 0.12 L64 0 L64 14 L0 14 Z" fill="var(--cf-spark-bg)" stroke="none"/><path d="M0 14 L2.13 14 L4.27 13.99 L6.4 13.97 L8.53 13.64 L10.67 13.64 L12.8 11.41 L14.93 11.37 L17.07 11.35 L19.2 11.35 L21.33 9.35 L23.47 9.34 L25.6 9.17 L27.73 9.16 L29.87 8.63 L32 3.12 L34.13 2.75 L36.27 2.42 L38.4 2.36 L40.53 1.16 L42.67 0.31 L44.8 0.3 L46.93 0.3 L49.07 0.3 L51.2 0.28 L53.33 0.22 L55.47 0.2 L57.6 0.19 L59.73 0.13 L61.87 0.12 L64 0" fill="none" stroke="var(--cf-spark)" stroke-width="1.4" stroke-linecap="round" stroke-linejoin="round"/></svg></g></g><g transform="translate(428.40000000000003,46)"><text x="0" y="0" font-size="9" font-weight="600" fill="var(--cf-text-dim)" letter-spacing="0.8">LANGS</text><text x="0" y="28" font-size="22" font-weight="700" fill="var(--cf-text)">22</text><g transform="translate(0,40)"><svg width="64" height="14" viewBox="0 0 64 14" preserveAspectRatio="none"><path d="M0 7 L2.13 7 L4.27 7 L6.4 7 L8.53 7 L10.67 7 L12.8 7 L14.93 7 L17.07 7 L19.2 7 L21.33 7 L23.47 7 L25.6 7 L27.73 7 L29.87 7 L32 7 L34.13 7 L36.27 7 L38.4 7 L40.53 7 L42.67 7 L44.8 7 L46.93 7 L49.07 7 L51.2 7 L53.33 7 L55.47 7 L57.6 7 L59.73 7 L61.87 7 L64 7 L64 14 L0 14 Z" fill="var(--cf-spark-bg)" stroke="none"/><path d="M0 7 L2.13 7 L4.27 7 L6.4 7 L8.53 7 L10.67 7 L12.8 7 L14.93 7 L17.07 7 L19.2 7 L21.33 7 L23.47 7 L25.6 7 L27.73 7 L29.87 7 L32 7 L34.13 7 L36.27 7 L38.4 7 L40.53 7 L42.67 7 L44.8 7 L46.93 7 L49.07 7 L51.2 7 L53.33 7 L55.47 7 L57.6 7 L59.73 7 L61.87 7 L64 7" fill="none" stroke="var(--cf-spark)" stroke-width="1.4" stroke-linecap="round" stroke-linejoin="round"/></svg></g></g><g transform="translate(565.2,46)"><text x="0" y="0" font-size="9" font-weight="600" fill="var(--cf-text-dim)" letter-spacing="0.8">TESTS</text><text x="0" y="28" font-size="22" font-weight="700" fill="var(--cf-text)">201</text><g transform="translate(0,40)"><svg width="64" height="14" viewBox="0 0 64 14" preserveAspectRatio="none"><path d="M0 14 L2.13 14 L4.27 14 L6.4 14 L8.53 11.45 L10.67 11.45 L12.8 8.91 L14.93 8.91 L17.07 8.91 L19.2 8.91 L21.33 5.09 L23.47 5.09 L25.6 5.09 L27.73 5.09 L29.87 3.82 L32 3.82 L34.13 3.82 L36.27 3.82 L38.4 3.82 L40.53 0 L42.67 0 L44.8 0 L46.93 0 L49.07 0 L51.2 0 L53.33 0 L55.47 0 L57.6 0 L59.73 0 L61.87 0 L64 0 L64 14 L0 14 Z" fill="var(--cf-spark-bg)" stroke="none"/><path d="M0 14 L2.13 14 L4.27 14 L6.4 14 L8.53 11.45 L10.67 11.45 L12.8 8.91 L14.93 8.91 L17.07 8.91 L19.2 8.91 L21.33 5.09 L23.47 5.09 L25.6 5.09 L27.73 5.09 L29.87 3.82 L32 3.82 L34.13 3.82 L36.27 3.82 L38.4 3.82 L40.53 0 L42.67 0 L44.8 0 L46.93 0 L49.07 0 L51.2 0 L53.33 0 L55.47 0 L57.6 0 L59.73 0 L61.87 0 L64 0" fill="none" stroke="var(--cf-spark)" stroke-width="1.4" stroke-linecap="round" stroke-linejoin="round"/></svg></g></g><a href="https://github.com/braedonsaunders/codeflow" target="_blank"><text x="702" y="130" text-anchor="end" font-size="9" fill="var(--cf-text-faint)">powered by <tspan font-weight="600" fill="var(--cf-accent)">codeflow</tspan></text></a></svg>