<svg xmlns="http://www.w3.org/2000/svg" width="720" height="140" viewBox="0 0 720 140" font-family="-apple-system,BlinkMacSystemFont,Segoe UI,Helvetica,Arial,sans-serif"><style>svg{--cf-bg:#0d1117;--cf-bg-alt:#161b22;--cf-border:#21262d;--cf-text:#e6edf3;--cf-text-dim:#8b949e;--cf-text-faint:#6e7681;--cf-accent:#5eead4;--cf-accent-soft:rgba(94,234,212,0.16);--cf-green:#3fb950;--cf-amber:#d29922;--cf-red:#f85149;--cf-spark:#5eead4;--cf-spark-bg:rgba(94,234,212,0.18)}@media (prefers-color-scheme: light){svg{--cf-bg:#ffffff;--cf-bg-alt:#f6f8fa;--cf-border:#d0d7de;--cf-text:#1f2328;--cf-text-dim:#656d76;--cf-text-faint:#8c959f;--cf-accent:#0d9488;--cf-accent-soft:rgba(13,148,136,0.12);--cf-green:#1a7f37;--cf-amber:#9a6700;--cf-red:#cf222e;--cf-spark:#0d9488;--cf-spark-bg:rgba(13,148,136,0.12)}}</style><rect width="720" height="140" rx="12" fill="var(--cf-bg)" stroke="var(--cf-border)"/><text x="18" y="26" font-size="13" font-weight="600" fill="var(--cf-text)">braedonsaunders/homerun</text><text x="702" y="26" text-anchor="end" font-size="10" fill="var(--cf-text-faint)" font-family="ui-monospace,SFMono-Regular,Menlo,monospace">@4493734</text><g transform="translate(18,46)"><text x="0" y="0" font-size="9" font-weight="600" fill="var(--cf-text-dim)" letter-spacing="0.8">FILES</text><text x="0" y="28" font-size="22" font-weight="700" fill="var(--cf-text)">862</text><g transform="translate(0,40)"><svg width="64" height="14" viewBox="0 0 64 14" preserveAspectRatio="none"><path d="M0 14 L2.13 12.73 L4.27 12.73 L6.4 12.73 L8.53 12.73 L10.67 12.73 L12.8 12.09 L14.93 12.09 L17.07 12.09 L19.2 5.73 L21.33 5.73 L23.47 5.73 L25.6 5.73 L27.73 5.09 L29.87 4.45 L32 4.45 L34.13 4.45 L36.27 4.45 L38.4 4.45 L40.53 4.45 L42.67 4.45 L44.8 4.45 L46.93 4.45 L49.07 4.45 L51.2 1.27 L53.33 1.27 L55.47 1.27 L57.6 0 L59.73 0 L61.87 0 L64 0 L64 14 L0 14 Z" fill="var(--cf-spark-bg)" stroke="none"/><path d="M0 14 L2.13 12.73 L4.27 12.73 L6.4 12.73 L8.53 12.73 L10.67 12.73 L12.8 12.09 L14.93 12.09 L17.07 12.09 L19.2 5.73 L21.33 5.73 L23.47 5.73 L25.6 5.73 L27.73 5.09 L29.87 4.45 L32 4.45 L34.13 4.45 L36.27 4.45 L38.4 4.45 L40.53 4.45 L42.67 4.45 L44.8 4.45 L46.93 4.45 L49.07 4.45 L51.2 1.27 L53.33 1.27 L55.47 1.27 L57.6 0 L59.73 0 L61.87 0 L64 0" fill="none" stroke="var(--cf-spark)" stroke-width="1.4" stroke-linecap="round" stroke-linejoin="round"/></svg></g></g><g transform="translate(154.8,46)"><text x="0" y="0" font-size="9" font-weight="600" fill="var(--cf-text-dim)" letter-spacing="0.8">FNS</text><text x="0" y="28" font-size="22" font-weight="700" fill="var(--cf-text)">12.6K</text><g transform="translate(0,40)"><svg width="64" height="14" viewBox="0 0 64 14" preserveAspectRatio="none"><path d="M0 14 L2.13 11.61 L4.27 11.5 L6.4 11.4 L8.53 11.4 L10.67 11.4 L12.8 10.2 L14.93 10.2 L17.07 10.15 L19.2 7.18 L21.33 7.13 L23.47 7.13 L25.6 7.13 L27.73 7.03 L29.87 6.92 L32 6.92 L34.13 6.92 L36.27 6.66 L38.4 6.61 L40.53 6.51 L42.67 6.3 L44.8 6.3 L46.93 5.1 L49.07 5.1 L51.2 2.34 L53.33 2.81 L55.47 2.81 L57.6 0 L59.73 0 L61.87 0 L64 0 L64 14 L0 14 Z" fill="var(--cf-spark-bg)" stroke="none"/><path d="M0 14 L2.13 11.61 L4.27 11.5 L6.4 11.4 L8.53 11.4 L10.67 11.4 L12.8 10.2 L14.93 10.2 L17.07 10.15 L19.2 7.18 L21.33 7.13 L23.47 7.13 L25.6 7.13 L27.73 7.03 L29.87 6.92 L32 6.92 L34.13 6.92 L36.27 6.66 L38.4 6.61 L40.53 6.51 L42.67 6.3 L44.8 6.3 L46.93 5.1 L49.07 5.1 L51.2 2.34 L53.33 2.81 L55.47 2.81 L57.6 0 L59.73 0 L61.87 0 L64 0" fill="none" stroke="var(--cf-spark)" stroke-width="1.4" stroke-linecap="round" stroke-linejoin="round"/></svg></g></g><g transform="translate(291.6,46)"><text x="0" y="0" font-size="9" font-weight="600" fill="var(--cf-text-dim)" letter-spacing="0.8">LOC</text><text x="0" y="28" font-size="22" font-weight="700" fill="var(--cf-text)">475.4K</text><g transform="translate(0,40)"><svg width="64" height="14" viewBox="0 0 64 14" preserveAspectRatio="none"><path d="M0 14 L2.13 11.1 L4.27 11.07 L6.4 10.93 L8.53 10.93 L10.67 10.91 L12.8 9.99 L14.93 10.56 L17.07 10.54 L19.2 7.17 L21.33 7.14 L23.47 7.11 L25.6 7.08 L27.73 7.03 L29.87 6.97 L32 6.95 L34.13 6.91 L36.27 6.82 L38.4 6.79 L40.53 6.75 L42.67 6.32 L44.8 6.25 L46.93 4.87 L49.07 4.69 L51.2 2.31 L53.33 2.46 L55.47 2.39 L57.6 0.77 L59.73 0.1 L61.87 0.1 L64 0 L64 14 L0 14 Z" fill="var(--cf-spark-bg)" stroke="none"/><path d="M0 14 L2.13 11.1 L4.27 11.07 L6.4 10.93 L8.53 10.93 L10.67 10.91 L12.8 9.99 L14.93 10.56 L17.07 10.54 L19.2 7.17 L21.33 7.14 L23.47 7.11 L25.6 7.08 L27.73 7.03 L29.87 6.97 L32 6.95 L34.13 6.91 L36.27 6.82 L38.4 6.79 L40.53 6.75 L42.67 6.32 L44.8 6.25 L46.93 4.87 L49.07 4.69 L51.2 2.31 L53.33 2.46 L55.47 2.39 L57.6 0.77 L59.73 0.1 L61.87 0.1 L64 0" fill="none" stroke="var(--cf-spark)" stroke-width="1.4" stroke-linecap="round" stroke-linejoin="round"/></svg></g></g><g transform="translate(428.40000000000003,46)"><text x="0" y="0" font-size="9" font-weight="600" fill="var(--cf-text-dim)" letter-spacing="0.8">LANGS</text><text x="0" y="28" font-size="22" font-weight="700" fill="var(--cf-text)">19</text><g transform="translate(0,40)"><svg width="64" height="14" viewBox="0 0 64 14" preserveAspectRatio="none"><path d="M0 7 L2.13 7 L4.27 7 L6.4 7 L8.53 7 L10.67 7 L12.8 7 L14.93 7 L17.07 7 L19.2 7 L21.33 7 L23.47 7 L25.6 7 L27.73 7 L29.87 7 L32 7 L34.13 7 L36.27 7 L38.4 7 L40.53 7 L42.67 7 L44.8 7 L46.93 7 L49.07 7 L51.2 7 L53.33 7 L55.47 7 L57.6 7 L59.73 7 L61.87 7 L64 7 L64 14 L0 14 Z" fill="var(--cf-spark-bg)" stroke="none"/><path d="M0 7 L2.13 7 L4.27 7 L6.4 7 L8.53 7 L10.67 7 L12.8 7 L14.93 7 L17.07 7 L19.2 7 L21.33 7 L23.47 7 L25.6 7 L27.73 7 L29.87 7 L32 7 L34.13 7 L36.27 7 L38.4 7 L40.53 7 L42.67 7 L44.8 7 L46.93 7 L49.07 7 L51.2 7 L53.33 7 L55.47 7 L57.6 7 L59.73 7 L61.87 7 L64 7" fill="none" stroke="var(--cf-spark)" stroke-width="1.4" stroke-linecap="round" stroke-linejoin="round"/></svg></g></g><g transform="translate(565.2,46)"><text x="0" y="0" font-size="9" font-weight="600" fill="var(--cf-text-dim)" letter-spacing="0.8">TESTS</text><text x="0" y="28" font-size="22" font-weight="700" fill="var(--cf-text)">187</text><g transform="translate(0,40)"><svg width="64" height="14" viewBox="0 0 64 14" preserveAspectRatio="none"><path d="M0 14 L2.13 14 L4.27 14 L6.4 14 L8.53 14 L10.67 14 L12.8 14 L14.93 14 L17.07 14 L19.2 14 L21.33 14 L23.47 14 L25.6 14 L27.73 14 L29.87 14 L32 14 L34.13 14 L36.27 14 L38.4 14 L40.53 14 L42.67 14 L44.8 14 L46.93 14 L49.07 14 L51.2 14 L53.33 14 L55.47 14 L57.6 0 L59.73 0 L61.87 0 L64 0 L64 14 L0 14 Z" fill="var(--cf-spark-bg)" stroke="none"/><path d="M0 14 L2.13 14 L4.27 14 L6.4 14 L8.53 14 L10.67 14 L12.8 14 L14.93 14 L17.07 14 L19.2 14 L21.33 14 L23.47 14 L25.6 14 L27.73 14 L29.87 14 L32 14 L34.13 14 L36.27 14 L38.4 14 L40.53 14 L42.67 14 L44.8 14 L46.93 14 L49.07 14 L51.2 14 L53.33 14 L55.47 14 L57.6 0 L59.73 0 L61.87 0 L64 0" fill="none" stroke="var(--cf-spark)" stroke-width="1.4" stroke-linecap="round" stroke-linejoin="round"/></svg></g></g><a href="https://github.com/braedonsaunders/codeflow" target="_blank"><text x="702" y="130" text-anchor="end" font-size="9" fill="var(--cf-text-faint)">powered by <tspan font-weight="600" fill="var(--cf-accent)">codeflow</tspan></text></a></svg>