<svg xmlns="http://www.w3.org/2000/svg" width="720" height="140" viewBox="0 0 720 140" font-family="-apple-system,BlinkMacSystemFont,Segoe UI,Helvetica,Arial,sans-serif"><style>svg{--cf-bg:#0d1117;--cf-bg-alt:#161b22;--cf-border:#21262d;--cf-text:#e6edf3;--cf-text-dim:#8b949e;--cf-text-faint:#6e7681;--cf-accent:#5eead4;--cf-accent-soft:rgba(94,234,212,0.16);--cf-green:#3fb950;--cf-amber:#d29922;--cf-red:#f85149;--cf-spark:#5eead4;--cf-spark-bg:rgba(94,234,212,0.18)}@media (prefers-color-scheme: light){svg{--cf-bg:#ffffff;--cf-bg-alt:#f6f8fa;--cf-border:#d0d7de;--cf-text:#1f2328;--cf-text-dim:#656d76;--cf-text-faint:#8c959f;--cf-accent:#0d9488;--cf-accent-soft:rgba(13,148,136,0.12);--cf-green:#1a7f37;--cf-amber:#9a6700;--cf-red:#cf222e;--cf-spark:#0d9488;--cf-spark-bg:rgba(13,148,136,0.12)}}</style><rect width="720" height="140" rx="12" fill="var(--cf-bg)" stroke="var(--cf-border)"/><text x="18" y="26" font-size="13" font-weight="600" fill="var(--cf-text)">braedonsaunders/homerun</text><text x="702" y="26" text-anchor="end" font-size="10" fill="var(--cf-text-faint)" font-family="ui-monospace,SFMono-Regular,Menlo,monospace">@dd0ea32</text><g transform="translate(18,46)"><text x="0" y="0" font-size="9" font-weight="600" fill="var(--cf-text-dim)" letter-spacing="0.8">FILES</text><text x="0" y="28" font-size="22" font-weight="700" fill="var(--cf-text)">947</text><g transform="translate(0,40)"><svg width="64" height="14" viewBox="0 0 64 14" preserveAspectRatio="none"><path d="M0 14 L2.13 14 L4.27 14 L6.4 13.71 L8.53 13.71 L10.67 13.13 L12.8 13.13 L14.93 13.13 L17.07 12.83 L19.2 11.67 L21.33 11.67 L23.47 11.67 L25.6 11.67 L27.73 11.67 L29.87 11.67 L32 11.67 L34.13 11.67 L36.27 10.21 L38.4 10.21 L40.53 4.96 L42.67 4.96 L44.8 4.96 L46.93 4.96 L49.07 3.21 L51.2 3.21 L53.33 3.21 L55.47 3.21 L57.6 0.29 L59.73 0 L61.87 0 L64 0 L64 14 L0 14 Z" fill="var(--cf-spark-bg)" stroke="none"/><path d="M0 14 L2.13 14 L4.27 14 L6.4 13.71 L8.53 13.71 L10.67 13.13 L12.8 13.13 L14.93 13.13 L17.07 12.83 L19.2 11.67 L21.33 11.67 L23.47 11.67 L25.6 11.67 L27.73 11.67 L29.87 11.67 L32 11.67 L34.13 11.67 L36.27 10.21 L38.4 10.21 L40.53 4.96 L42.67 4.96 L44.8 4.96 L46.93 4.96 L49.07 3.21 L51.2 3.21 L53.33 3.21 L55.47 3.21 L57.6 0.29 L59.73 0 L61.87 0 L64 0" fill="none" stroke="var(--cf-spark)" stroke-width="1.4" stroke-linecap="round" stroke-linejoin="round"/></svg></g></g><g transform="translate(154.8,46)"><text x="0" y="0" font-size="9" font-weight="600" fill="var(--cf-text-dim)" letter-spacing="0.8">FNS</text><text x="0" y="28" font-size="22" font-weight="700" fill="var(--cf-text)">13.7K</text><g transform="translate(0,40)"><svg width="64" height="14" viewBox="0 0 64 14" preserveAspectRatio="none"><path d="M0 14 L2.13 13.91 L4.27 13.87 L6.4 13.69 L8.53 13.5 L10.67 11.83 L12.8 11.29 L14.93 11.09 L17.07 10.13 L19.2 9.58 L21.33 9.58 L23.47 9.58 L25.6 9.45 L27.73 9.38 L29.87 9.38 L32 9.38 L34.13 9.32 L36.27 7.74 L38.4 7.74 L40.53 6.32 L42.67 6.26 L44.8 6.15 L46.93 6.15 L49.07 2.43 L51.2 2.43 L53.33 2.12 L55.47 2.1 L57.6 0.55 L59.73 0.2 L61.87 0.04 L64 0 L64 14 L0 14 Z" fill="var(--cf-spark-bg)" stroke="none"/><path d="M0 14 L2.13 13.91 L4.27 13.87 L6.4 13.69 L8.53 13.5 L10.67 11.83 L12.8 11.29 L14.93 11.09 L17.07 10.13 L19.2 9.58 L21.33 9.58 L23.47 9.58 L25.6 9.45 L27.73 9.38 L29.87 9.38 L32 9.38 L34.13 9.32 L36.27 7.74 L38.4 7.74 L40.53 6.32 L42.67 6.26 L44.8 6.15 L46.93 6.15 L49.07 2.43 L51.2 2.43 L53.33 2.12 L55.47 2.1 L57.6 0.55 L59.73 0.2 L61.87 0.04 L64 0" fill="none" stroke="var(--cf-spark)" stroke-width="1.4" stroke-linecap="round" stroke-linejoin="round"/></svg></g></g><g transform="translate(291.6,46)"><text x="0" y="0" font-size="9" font-weight="600" fill="var(--cf-text-dim)" letter-spacing="0.8">LOC</text><text x="0" y="28" font-size="22" font-weight="700" fill="var(--cf-text)">559.8K</text><g transform="translate(0,40)"><svg width="64" height="14" viewBox="0 0 64 14" preserveAspectRatio="none"><path d="M0 14 L2.13 13.96 L4.27 13.95 L6.4 13.88 L8.53 13.77 L10.67 13.5 L12.8 13.45 L14.93 13.38 L17.07 12.96 L19.2 12.6 L21.33 12.6 L23.47 12.6 L25.6 12.49 L27.73 12.47 L29.87 12.46 L32 12.46 L34.13 12.43 L36.27 12.08 L38.4 12.08 L40.53 9.68 L42.67 9.64 L44.8 9.61 L46.93 9.61 L49.07 7.46 L51.2 7.45 L53.33 7.27 L55.47 7.26 L57.6 6.69 L59.73 0.75 L61.87 0.35 L64 0 L64 14 L0 14 Z" fill="var(--cf-spark-bg)" stroke="none"/><path d="M0 14 L2.13 13.96 L4.27 13.95 L6.4 13.88 L8.53 13.77 L10.67 13.5 L12.8 13.45 L14.93 13.38 L17.07 12.96 L19.2 12.6 L21.33 12.6 L23.47 12.6 L25.6 12.49 L27.73 12.47 L29.87 12.46 L32 12.46 L34.13 12.43 L36.27 12.08 L38.4 12.08 L40.53 9.68 L42.67 9.64 L44.8 9.61 L46.93 9.61 L49.07 7.46 L51.2 7.45 L53.33 7.27 L55.47 7.26 L57.6 6.69 L59.73 0.75 L61.87 0.35 L64 0" fill="none" stroke="var(--cf-spark)" stroke-width="1.4" stroke-linecap="round" stroke-linejoin="round"/></svg></g></g><g transform="translate(428.40000000000003,46)"><text x="0" y="0" font-size="9" font-weight="600" fill="var(--cf-text-dim)" letter-spacing="0.8">LANGS</text><text x="0" y="28" font-size="22" font-weight="700" fill="var(--cf-text)">22</text><g transform="translate(0,40)"><svg width="64" height="14" viewBox="0 0 64 14" preserveAspectRatio="none"><path d="M0 7 L2.13 7 L4.27 7 L6.4 7 L8.53 7 L10.67 7 L12.8 7 L14.93 7 L17.07 7 L19.2 7 L21.33 7 L23.47 7 L25.6 7 L27.73 7 L29.87 7 L32 7 L34.13 7 L36.27 7 L38.4 7 L40.53 7 L42.67 7 L44.8 7 L46.93 7 L49.07 7 L51.2 7 L53.33 7 L55.47 7 L57.6 7 L59.73 7 L61.87 7 L64 7 L64 14 L0 14 Z" fill="var(--cf-spark-bg)" stroke="none"/><path d="M0 7 L2.13 7 L4.27 7 L6.4 7 L8.53 7 L10.67 7 L12.8 7 L14.93 7 L17.07 7 L19.2 7 L21.33 7 L23.47 7 L25.6 7 L27.73 7 L29.87 7 L32 7 L34.13 7 L36.27 7 L38.4 7 L40.53 7 L42.67 7 L44.8 7 L46.93 7 L49.07 7 L51.2 7 L53.33 7 L55.47 7 L57.6 7 L59.73 7 L61.87 7 L64 7" fill="none" stroke="var(--cf-spark)" stroke-width="1.4" stroke-linecap="round" stroke-linejoin="round"/></svg></g></g><g transform="translate(565.2,46)"><text x="0" y="0" font-size="9" font-weight="600" fill="var(--cf-text-dim)" letter-spacing="0.8">TESTS</text><text x="0" y="28" font-size="22" font-weight="700" fill="var(--cf-text)">198</text><g transform="translate(0,40)"><svg width="64" height="14" viewBox="0 0 64 14" preserveAspectRatio="none"><path d="M0 14 L2.13 14 L4.27 14 L6.4 14 L8.53 14 L10.67 12.73 L12.8 12.73 L14.93 12.73 L17.07 10.18 L19.2 10.18 L21.33 10.18 L23.47 10.18 L25.6 10.18 L27.73 10.18 L29.87 10.18 L32 10.18 L34.13 10.18 L36.27 7.64 L38.4 7.64 L40.53 5.09 L42.67 5.09 L44.8 5.09 L46.93 5.09 L49.07 1.27 L51.2 1.27 L53.33 1.27 L55.47 1.27 L57.6 0 L59.73 0 L61.87 0 L64 0 L64 14 L0 14 Z" fill="var(--cf-spark-bg)" stroke="none"/><path d="M0 14 L2.13 14 L4.27 14 L6.4 14 L8.53 14 L10.67 12.73 L12.8 12.73 L14.93 12.73 L17.07 10.18 L19.2 10.18 L21.33 10.18 L23.47 10.18 L25.6 10.18 L27.73 10.18 L29.87 10.18 L32 10.18 L34.13 10.18 L36.27 7.64 L38.4 7.64 L40.53 5.09 L42.67 5.09 L44.8 5.09 L46.93 5.09 L49.07 1.27 L51.2 1.27 L53.33 1.27 L55.47 1.27 L57.6 0 L59.73 0 L61.87 0 L64 0" fill="none" stroke="var(--cf-spark)" stroke-width="1.4" stroke-linecap="round" stroke-linejoin="round"/></svg></g></g><a href="https://github.com/braedonsaunders/codeflow" target="_blank"><text x="702" y="130" text-anchor="end" font-size="9" fill="var(--cf-text-faint)">powered by <tspan font-weight="600" fill="var(--cf-accent)">codeflow</tspan></text></a></svg>