<svg xmlns="http://www.w3.org/2000/svg" width="720" height="140" viewBox="0 0 720 140" font-family="-apple-system,BlinkMacSystemFont,Segoe UI,Helvetica,Arial,sans-serif"><style>svg{--cf-bg:#0d1117;--cf-bg-alt:#161b22;--cf-border:#21262d;--cf-text:#e6edf3;--cf-text-dim:#8b949e;--cf-text-faint:#6e7681;--cf-accent:#5eead4;--cf-accent-soft:rgba(94,234,212,0.16);--cf-green:#3fb950;--cf-amber:#d29922;--cf-red:#f85149;--cf-spark:#5eead4;--cf-spark-bg:rgba(94,234,212,0.18)}@media (prefers-color-scheme: light){svg{--cf-bg:#ffffff;--cf-bg-alt:#f6f8fa;--cf-border:#d0d7de;--cf-text:#1f2328;--cf-text-dim:#656d76;--cf-text-faint:#8c959f;--cf-accent:#0d9488;--cf-accent-soft:rgba(13,148,136,0.12);--cf-green:#1a7f37;--cf-amber:#9a6700;--cf-red:#cf222e;--cf-spark:#0d9488;--cf-spark-bg:rgba(13,148,136,0.12)}}</style><rect width="720" height="140" rx="12" fill="var(--cf-bg)" stroke="var(--cf-border)"/><text x="18" y="26" font-size="13" font-weight="600" fill="var(--cf-text)">braedonsaunders/homerun</text><text x="702" y="26" text-anchor="end" font-size="10" fill="var(--cf-text-faint)" font-family="ui-monospace,SFMono-Regular,Menlo,monospace">@a281f63</text><g transform="translate(18,46)"><text x="0" y="0" font-size="9" font-weight="600" fill="var(--cf-text-dim)" letter-spacing="0.8">FILES</text><text x="0" y="28" font-size="22" font-weight="700" fill="var(--cf-text)">1.1K</text><g transform="translate(0,40)"><svg width="64" height="14" viewBox="0 0 64 14" preserveAspectRatio="none"><path d="M0 14 L2.13 8.4 L4.27 8.4 L6.4 8.4 L8.53 8.4 L10.67 8.4 L12.8 8.4 L14.93 8.4 L17.07 8.4 L19.2 8.4 L21.33 8.4 L23.47 8.4 L25.6 8.4 L27.73 8.4 L29.87 8.4 L32 8.4 L34.13 8.4 L36.27 8.4 L38.4 8.4 L40.53 8.4 L42.67 8.4 L44.8 8.4 L46.93 8.4 L49.07 8.4 L51.2 8.4 L53.33 8.4 L55.47 8.4 L57.6 8.4 L59.73 8.4 L61.87 2.8 L64 0 L64 14 L0 14 Z" fill="var(--cf-spark-bg)" stroke="none"/><path d="M0 14 L2.13 8.4 L4.27 8.4 L6.4 8.4 L8.53 8.4 L10.67 8.4 L12.8 8.4 L14.93 8.4 L17.07 8.4 L19.2 8.4 L21.33 8.4 L23.47 8.4 L25.6 8.4 L27.73 8.4 L29.87 8.4 L32 8.4 L34.13 8.4 L36.27 8.4 L38.4 8.4 L40.53 8.4 L42.67 8.4 L44.8 8.4 L46.93 8.4 L49.07 8.4 L51.2 8.4 L53.33 8.4 L55.47 8.4 L57.6 8.4 L59.73 8.4 L61.87 2.8 L64 0" fill="none" stroke="var(--cf-spark)" stroke-width="1.4" stroke-linecap="round" stroke-linejoin="round"/></svg></g></g><g transform="translate(154.8,46)"><text x="0" y="0" font-size="9" font-weight="600" fill="var(--cf-text-dim)" letter-spacing="0.8">FNS</text><text x="0" y="28" font-size="22" font-weight="700" fill="var(--cf-text)">15.3K</text><g transform="translate(0,40)"><svg width="64" height="14" viewBox="0 0 64 14" preserveAspectRatio="none"><path d="M0 14 L2.13 10.08 L4.27 8.96 L6.4 8.96 L8.53 8.96 L10.67 8.77 L12.8 8.03 L14.93 8.03 L17.07 8.03 L19.2 8.03 L21.33 8.03 L23.47 7.84 L25.6 6.91 L27.73 6.72 L29.87 6.35 L32 6.16 L34.13 6.16 L36.27 5.6 L38.4 5.41 L40.53 5.04 L42.67 5.04 L44.8 3.92 L46.93 3.73 L49.07 3.73 L51.2 3.55 L53.33 3.55 L55.47 2.61 L57.6 2.61 L59.73 2.61 L61.87 1.12 L64 0 L64 14 L0 14 Z" fill="var(--cf-spark-bg)" stroke="none"/><path d="M0 14 L2.13 10.08 L4.27 8.96 L6.4 8.96 L8.53 8.96 L10.67 8.77 L12.8 8.03 L14.93 8.03 L17.07 8.03 L19.2 8.03 L21.33 8.03 L23.47 7.84 L25.6 6.91 L27.73 6.72 L29.87 6.35 L32 6.16 L34.13 6.16 L36.27 5.6 L38.4 5.41 L40.53 5.04 L42.67 5.04 L44.8 3.92 L46.93 3.73 L49.07 3.73 L51.2 3.55 L53.33 3.55 L55.47 2.61 L57.6 2.61 L59.73 2.61 L61.87 1.12 L64 0" fill="none" stroke="var(--cf-spark)" stroke-width="1.4" stroke-linecap="round" stroke-linejoin="round"/></svg></g></g><g transform="translate(291.6,46)"><text x="0" y="0" font-size="9" font-weight="600" fill="var(--cf-text-dim)" letter-spacing="0.8">LOC</text><text x="0" y="28" font-size="22" font-weight="700" fill="var(--cf-text)">611.1K</text><g transform="translate(0,40)"><svg width="64" height="14" viewBox="0 0 64 14" preserveAspectRatio="none"><path d="M0 14 L2.13 12.77 L4.27 11.94 L6.4 11.78 L8.53 11.75 L10.67 11.35 L12.8 10.04 L14.93 9.64 L17.07 9.55 L19.2 9.51 L21.33 9.46 L23.47 9.38 L25.6 8.4 L27.73 8.11 L29.87 7.66 L32 7.39 L34.13 7.31 L36.27 6.77 L38.4 6.72 L40.53 6.24 L42.67 6.07 L44.8 5.39 L46.93 5.2 L49.07 5.18 L51.2 4.98 L53.33 4.94 L55.47 4.11 L57.6 4.07 L59.73 4.05 L61.87 1.16 L64 0 L64 14 L0 14 Z" fill="var(--cf-spark-bg)" stroke="none"/><path d="M0 14 L2.13 12.77 L4.27 11.94 L6.4 11.78 L8.53 11.75 L10.67 11.35 L12.8 10.04 L14.93 9.64 L17.07 9.55 L19.2 9.51 L21.33 9.46 L23.47 9.38 L25.6 8.4 L27.73 8.11 L29.87 7.66 L32 7.39 L34.13 7.31 L36.27 6.77 L38.4 6.72 L40.53 6.24 L42.67 6.07 L44.8 5.39 L46.93 5.2 L49.07 5.18 L51.2 4.98 L53.33 4.94 L55.47 4.11 L57.6 4.07 L59.73 4.05 L61.87 1.16 L64 0" fill="none" stroke="var(--cf-spark)" stroke-width="1.4" stroke-linecap="round" stroke-linejoin="round"/></svg></g></g><g transform="translate(428.40000000000003,46)"><text x="0" y="0" font-size="9" font-weight="600" fill="var(--cf-text-dim)" letter-spacing="0.8">LANGS</text><text x="0" y="28" font-size="22" font-weight="700" fill="var(--cf-text)">22</text><g transform="translate(0,40)"><svg width="64" height="14" viewBox="0 0 64 14" preserveAspectRatio="none"><path d="M0 7 L2.13 7 L4.27 7 L6.4 7 L8.53 7 L10.67 7 L12.8 7 L14.93 7 L17.07 7 L19.2 7 L21.33 7 L23.47 7 L25.6 7 L27.73 7 L29.87 7 L32 7 L34.13 7 L36.27 7 L38.4 7 L40.53 7 L42.67 7 L44.8 7 L46.93 7 L49.07 7 L51.2 7 L53.33 7 L55.47 7 L57.6 7 L59.73 7 L61.87 7 L64 7 L64 14 L0 14 Z" fill="var(--cf-spark-bg)" stroke="none"/><path d="M0 7 L2.13 7 L4.27 7 L6.4 7 L8.53 7 L10.67 7 L12.8 7 L14.93 7 L17.07 7 L19.2 7 L21.33 7 L23.47 7 L25.6 7 L27.73 7 L29.87 7 L32 7 L34.13 7 L36.27 7 L38.4 7 L40.53 7 L42.67 7 L44.8 7 L46.93 7 L49.07 7 L51.2 7 L53.33 7 L55.47 7 L57.6 7 L59.73 7 L61.87 7 L64 7" fill="none" stroke="var(--cf-spark)" stroke-width="1.4" stroke-linecap="round" stroke-linejoin="round"/></svg></g></g><g transform="translate(565.2,46)"><text x="0" y="0" font-size="9" font-weight="600" fill="var(--cf-text-dim)" letter-spacing="0.8">TESTS</text><text x="0" y="28" font-size="22" font-weight="700" fill="var(--cf-text)">246</text><g transform="translate(0,40)"><svg width="64" height="14" viewBox="0 0 64 14" preserveAspectRatio="none"><path d="M0 14 L2.13 0 L4.27 0 L6.4 0 L8.53 0 L10.67 0 L12.8 0 L14.93 0 L17.07 0 L19.2 0 L21.33 0 L23.47 0 L25.6 0 L27.73 0 L29.87 0 L32 0 L34.13 0 L36.27 0 L38.4 0 L40.53 0 L42.67 0 L44.8 0 L46.93 0 L49.07 0 L51.2 0 L53.33 0 L55.47 0 L57.6 0 L59.73 0 L61.87 0 L64 0 L64 14 L0 14 Z" fill="var(--cf-spark-bg)" stroke="none"/><path d="M0 14 L2.13 0 L4.27 0 L6.4 0 L8.53 0 L10.67 0 L12.8 0 L14.93 0 L17.07 0 L19.2 0 L21.33 0 L23.47 0 L25.6 0 L27.73 0 L29.87 0 L32 0 L34.13 0 L36.27 0 L38.4 0 L40.53 0 L42.67 0 L44.8 0 L46.93 0 L49.07 0 L51.2 0 L53.33 0 L55.47 0 L57.6 0 L59.73 0 L61.87 0 L64 0" fill="none" stroke="var(--cf-spark)" stroke-width="1.4" stroke-linecap="round" stroke-linejoin="round"/></svg></g></g><a href="https://github.com/braedonsaunders/codeflow" target="_blank"><text x="702" y="130" text-anchor="end" font-size="9" fill="var(--cf-text-faint)">powered by <tspan font-weight="600" fill="var(--cf-accent)">codeflow</tspan></text></a></svg>