<svg xmlns="http://www.w3.org/2000/svg" width="720" height="140" viewBox="0 0 720 140" font-family="-apple-system,BlinkMacSystemFont,Segoe UI,Helvetica,Arial,sans-serif"><style>svg{--cf-bg:#0d1117;--cf-bg-alt:#161b22;--cf-border:#21262d;--cf-text:#e6edf3;--cf-text-dim:#8b949e;--cf-text-faint:#6e7681;--cf-accent:#5eead4;--cf-accent-soft:rgba(94,234,212,0.16);--cf-green:#3fb950;--cf-amber:#d29922;--cf-red:#f85149;--cf-spark:#5eead4;--cf-spark-bg:rgba(94,234,212,0.18)}@media (prefers-color-scheme: light){svg{--cf-bg:#ffffff;--cf-bg-alt:#f6f8fa;--cf-border:#d0d7de;--cf-text:#1f2328;--cf-text-dim:#656d76;--cf-text-faint:#8c959f;--cf-accent:#0d9488;--cf-accent-soft:rgba(13,148,136,0.12);--cf-green:#1a7f37;--cf-amber:#9a6700;--cf-red:#cf222e;--cf-spark:#0d9488;--cf-spark-bg:rgba(13,148,136,0.12)}}</style><rect width="720" height="140" rx="12" fill="var(--cf-bg)" stroke="var(--cf-border)"/><text x="18" y="26" font-size="13" font-weight="600" fill="var(--cf-text)">braedonsaunders/homerun</text><text x="702" y="26" text-anchor="end" font-size="10" fill="var(--cf-text-faint)" font-family="ui-monospace,SFMono-Regular,Menlo,monospace">@534ba5a</text><g transform="translate(18,46)"><text x="0" y="0" font-size="9" font-weight="600" fill="var(--cf-text-dim)" letter-spacing="0.8">FILES</text><text x="0" y="28" font-size="22" font-weight="700" fill="var(--cf-text)">1.1K</text><g transform="translate(0,40)"><svg width="64" height="14" viewBox="0 0 64 14" preserveAspectRatio="none"><path d="M0 14 L2.13 14 L4.27 14 L6.4 14 L8.53 14 L10.67 14 L12.8 9.33 L14.93 7 L17.07 4.67 L19.2 4.67 L21.33 2.33 L23.47 2.33 L25.6 2.33 L27.73 2.33 L29.87 2.33 L32 2.33 L34.13 2.33 L36.27 2.33 L38.4 2.33 L40.53 2.33 L42.67 2.33 L44.8 2.33 L46.93 2.33 L49.07 2.33 L51.2 2.33 L53.33 2.33 L55.47 2.33 L57.6 2.33 L59.73 2.33 L61.87 2.33 L64 0 L64 14 L0 14 Z" fill="var(--cf-spark-bg)" stroke="none"/><path d="M0 14 L2.13 14 L4.27 14 L6.4 14 L8.53 14 L10.67 14 L12.8 9.33 L14.93 7 L17.07 4.67 L19.2 4.67 L21.33 2.33 L23.47 2.33 L25.6 2.33 L27.73 2.33 L29.87 2.33 L32 2.33 L34.13 2.33 L36.27 2.33 L38.4 2.33 L40.53 2.33 L42.67 2.33 L44.8 2.33 L46.93 2.33 L49.07 2.33 L51.2 2.33 L53.33 2.33 L55.47 2.33 L57.6 2.33 L59.73 2.33 L61.87 2.33 L64 0" fill="none" stroke="var(--cf-spark)" stroke-width="1.4" stroke-linecap="round" stroke-linejoin="round"/></svg></g></g><g transform="translate(154.8,46)"><text x="0" y="0" font-size="9" font-weight="600" fill="var(--cf-text-dim)" letter-spacing="0.8">FNS</text><text x="0" y="28" font-size="22" font-weight="700" fill="var(--cf-text)">15.3K</text><g transform="translate(0,40)"><svg width="64" height="14" viewBox="0 0 64 14" preserveAspectRatio="none"><path d="M0 14 L2.13 13.73 L4.27 13.73 L6.4 12.35 L8.53 12.35 L10.67 12.35 L12.8 10.16 L14.93 8.51 L17.07 4.39 L19.2 4.39 L21.33 3.02 L23.47 3.02 L25.6 3.02 L27.73 3.02 L29.87 2.75 L32 2.47 L34.13 2.47 L36.27 2.2 L38.4 2.2 L40.53 2.2 L42.67 2.2 L44.8 2.2 L46.93 1.92 L49.07 1.65 L51.2 1.37 L53.33 1.1 L55.47 1.1 L57.6 1.1 L59.73 1.1 L61.87 0.55 L64 0 L64 14 L0 14 Z" fill="var(--cf-spark-bg)" stroke="none"/><path d="M0 14 L2.13 13.73 L4.27 13.73 L6.4 12.35 L8.53 12.35 L10.67 12.35 L12.8 10.16 L14.93 8.51 L17.07 4.39 L19.2 4.39 L21.33 3.02 L23.47 3.02 L25.6 3.02 L27.73 3.02 L29.87 2.75 L32 2.47 L34.13 2.47 L36.27 2.2 L38.4 2.2 L40.53 2.2 L42.67 2.2 L44.8 2.2 L46.93 1.92 L49.07 1.65 L51.2 1.37 L53.33 1.1 L55.47 1.1 L57.6 1.1 L59.73 1.1 L61.87 0.55 L64 0" fill="none" stroke="var(--cf-spark)" stroke-width="1.4" stroke-linecap="round" stroke-linejoin="round"/></svg></g></g><g transform="translate(291.6,46)"><text x="0" y="0" font-size="9" font-weight="600" fill="var(--cf-text-dim)" letter-spacing="0.8">LOC</text><text x="0" y="28" font-size="22" font-weight="700" fill="var(--cf-text)">612.4K</text><g transform="translate(0,40)"><svg width="64" height="14" viewBox="0 0 64 14" preserveAspectRatio="none"><path d="M0 14 L2.13 13.74 L4.27 13.69 L6.4 12.63 L8.53 12.58 L10.67 12.55 L12.8 8.84 L14.93 7.35 L17.07 4.22 L19.2 4.24 L21.33 3.57 L23.47 3.55 L25.6 3.35 L27.73 3.22 L29.87 3 L32 2.86 L34.13 2.74 L36.27 2.58 L38.4 2.51 L40.53 2.34 L42.67 2.21 L44.8 2.17 L46.93 1.93 L49.07 1.38 L51.2 1.33 L53.33 1.07 L55.47 1.03 L57.6 0.92 L59.73 0.8 L61.87 0.33 L64 0 L64 14 L0 14 Z" fill="var(--cf-spark-bg)" stroke="none"/><path d="M0 14 L2.13 13.74 L4.27 13.69 L6.4 12.63 L8.53 12.58 L10.67 12.55 L12.8 8.84 L14.93 7.35 L17.07 4.22 L19.2 4.24 L21.33 3.57 L23.47 3.55 L25.6 3.35 L27.73 3.22 L29.87 3 L32 2.86 L34.13 2.74 L36.27 2.58 L38.4 2.51 L40.53 2.34 L42.67 2.21 L44.8 2.17 L46.93 1.93 L49.07 1.38 L51.2 1.33 L53.33 1.07 L55.47 1.03 L57.6 0.92 L59.73 0.8 L61.87 0.33 L64 0" fill="none" stroke="var(--cf-spark)" stroke-width="1.4" stroke-linecap="round" stroke-linejoin="round"/></svg></g></g><g transform="translate(428.40000000000003,46)"><text x="0" y="0" font-size="9" font-weight="600" fill="var(--cf-text-dim)" letter-spacing="0.8">LANGS</text><text x="0" y="28" font-size="22" font-weight="700" fill="var(--cf-text)">22</text><g transform="translate(0,40)"><svg width="64" height="14" viewBox="0 0 64 14" preserveAspectRatio="none"><path d="M0 7 L2.13 7 L4.27 7 L6.4 7 L8.53 7 L10.67 7 L12.8 7 L14.93 7 L17.07 7 L19.2 7 L21.33 7 L23.47 7 L25.6 7 L27.73 7 L29.87 7 L32 7 L34.13 7 L36.27 7 L38.4 7 L40.53 7 L42.67 7 L44.8 7 L46.93 7 L49.07 7 L51.2 7 L53.33 7 L55.47 7 L57.6 7 L59.73 7 L61.87 7 L64 7 L64 14 L0 14 Z" fill="var(--cf-spark-bg)" stroke="none"/><path d="M0 7 L2.13 7 L4.27 7 L6.4 7 L8.53 7 L10.67 7 L12.8 7 L14.93 7 L17.07 7 L19.2 7 L21.33 7 L23.47 7 L25.6 7 L27.73 7 L29.87 7 L32 7 L34.13 7 L36.27 7 L38.4 7 L40.53 7 L42.67 7 L44.8 7 L46.93 7 L49.07 7 L51.2 7 L53.33 7 L55.47 7 L57.6 7 L59.73 7 L61.87 7 L64 7" fill="none" stroke="var(--cf-spark)" stroke-width="1.4" stroke-linecap="round" stroke-linejoin="round"/></svg></g></g><g transform="translate(565.2,46)"><text x="0" y="0" font-size="9" font-weight="600" fill="var(--cf-text-dim)" letter-spacing="0.8">TESTS</text><text x="0" y="28" font-size="22" font-weight="700" fill="var(--cf-text)">248</text><g transform="translate(0,40)"><svg width="64" height="14" viewBox="0 0 64 14" preserveAspectRatio="none"><path d="M0 14 L2.13 14 L4.27 14 L6.4 14 L8.53 14 L10.67 14 L12.8 14 L14.93 14 L17.07 7 L19.2 7 L21.33 0 L23.47 0 L25.6 0 L27.73 0 L29.87 0 L32 0 L34.13 0 L36.27 0 L38.4 0 L40.53 0 L42.67 0 L44.8 0 L46.93 0 L49.07 0 L51.2 0 L53.33 0 L55.47 0 L57.6 0 L59.73 0 L61.87 0 L64 0 L64 14 L0 14 Z" fill="var(--cf-spark-bg)" stroke="none"/><path d="M0 14 L2.13 14 L4.27 14 L6.4 14 L8.53 14 L10.67 14 L12.8 14 L14.93 14 L17.07 7 L19.2 7 L21.33 0 L23.47 0 L25.6 0 L27.73 0 L29.87 0 L32 0 L34.13 0 L36.27 0 L38.4 0 L40.53 0 L42.67 0 L44.8 0 L46.93 0 L49.07 0 L51.2 0 L53.33 0 L55.47 0 L57.6 0 L59.73 0 L61.87 0 L64 0" fill="none" stroke="var(--cf-spark)" stroke-width="1.4" stroke-linecap="round" stroke-linejoin="round"/></svg></g></g><a href="https://github.com/braedonsaunders/codeflow" target="_blank"><text x="702" y="130" text-anchor="end" font-size="9" fill="var(--cf-text-faint)">powered by <tspan font-weight="600" fill="var(--cf-accent)">codeflow</tspan></text></a></svg>