<svg xmlns="http://www.w3.org/2000/svg" width="720" height="140" viewBox="0 0 720 140" font-family="-apple-system,BlinkMacSystemFont,Segoe UI,Helvetica,Arial,sans-serif"><style>svg{--cf-bg:#0d1117;--cf-bg-alt:#161b22;--cf-border:#21262d;--cf-text:#e6edf3;--cf-text-dim:#8b949e;--cf-text-faint:#6e7681;--cf-accent:#5eead4;--cf-accent-soft:rgba(94,234,212,0.16);--cf-green:#3fb950;--cf-amber:#d29922;--cf-red:#f85149;--cf-spark:#5eead4;--cf-spark-bg:rgba(94,234,212,0.18)}@media (prefers-color-scheme: light){svg{--cf-bg:#ffffff;--cf-bg-alt:#f6f8fa;--cf-border:#d0d7de;--cf-text:#1f2328;--cf-text-dim:#656d76;--cf-text-faint:#8c959f;--cf-accent:#0d9488;--cf-accent-soft:rgba(13,148,136,0.12);--cf-green:#1a7f37;--cf-amber:#9a6700;--cf-red:#cf222e;--cf-spark:#0d9488;--cf-spark-bg:rgba(13,148,136,0.12)}}</style><rect width="720" height="140" rx="12" fill="var(--cf-bg)" stroke="var(--cf-border)"/><text x="18" y="26" font-size="13" font-weight="600" fill="var(--cf-text)">braedonsaunders/homerun</text><text x="702" y="26" text-anchor="end" font-size="10" fill="var(--cf-text-faint)" font-family="ui-monospace,SFMono-Regular,Menlo,monospace">@a438f49</text><g transform="translate(18,46)"><text x="0" y="0" font-size="9" font-weight="600" fill="var(--cf-text-dim)" letter-spacing="0.8">FILES</text><text x="0" y="28" font-size="22" font-weight="700" fill="var(--cf-text)">990</text><g transform="translate(0,40)"><svg width="64" height="14" viewBox="0 0 64 14" preserveAspectRatio="none"><path d="M0 14 L2.13 14 L4.27 14 L6.4 12.56 L8.53 12.56 L10.67 12.56 L12.8 12.56 L14.93 12.56 L17.07 11.85 L19.2 10.77 L21.33 10.77 L23.47 10.41 L25.6 10.41 L27.73 10.41 L29.87 10.41 L32 10.41 L34.13 10.41 L36.27 10.41 L38.4 10.41 L40.53 1.79 L42.67 1.79 L44.8 1.08 L46.93 0.72 L49.07 0.36 L51.2 0 L53.33 0 L55.47 0 L57.6 0 L59.73 0 L61.87 0 L64 0 L64 14 L0 14 Z" fill="var(--cf-spark-bg)" stroke="none"/><path d="M0 14 L2.13 14 L4.27 14 L6.4 12.56 L8.53 12.56 L10.67 12.56 L12.8 12.56 L14.93 12.56 L17.07 11.85 L19.2 10.77 L21.33 10.77 L23.47 10.41 L25.6 10.41 L27.73 10.41 L29.87 10.41 L32 10.41 L34.13 10.41 L36.27 10.41 L38.4 10.41 L40.53 1.79 L42.67 1.79 L44.8 1.08 L46.93 0.72 L49.07 0.36 L51.2 0 L53.33 0 L55.47 0 L57.6 0 L59.73 0 L61.87 0 L64 0" fill="none" stroke="var(--cf-spark)" stroke-width="1.4" stroke-linecap="round" stroke-linejoin="round"/></svg></g></g><g transform="translate(154.8,46)"><text x="0" y="0" font-size="9" font-weight="600" fill="var(--cf-text-dim)" letter-spacing="0.8">FNS</text><text x="0" y="28" font-size="22" font-weight="700" fill="var(--cf-text)">14.3K</text><g transform="translate(0,40)"><svg width="64" height="14" viewBox="0 0 64 14" preserveAspectRatio="none"><path d="M0 14 L2.13 14 L4.27 14 L6.4 11.96 L8.53 11.96 L10.67 11.96 L12.8 11.79 L14.93 11.79 L17.07 10.87 L19.2 9.23 L21.33 9.23 L23.47 9 L25.6 9 L27.73 9 L29.87 9 L32 8.97 L34.13 8.97 L36.27 8.77 L38.4 8.77 L40.53 1.87 L42.67 1.87 L44.8 1.41 L46.93 1.26 L49.07 1.01 L51.2 0.66 L53.33 0.6 L55.47 0.43 L57.6 0.37 L59.73 0.09 L61.87 0.06 L64 0 L64 14 L0 14 Z" fill="var(--cf-spark-bg)" stroke="none"/><path d="M0 14 L2.13 14 L4.27 14 L6.4 11.96 L8.53 11.96 L10.67 11.96 L12.8 11.79 L14.93 11.79 L17.07 10.87 L19.2 9.23 L21.33 9.23 L23.47 9 L25.6 9 L27.73 9 L29.87 9 L32 8.97 L34.13 8.97 L36.27 8.77 L38.4 8.77 L40.53 1.87 L42.67 1.87 L44.8 1.41 L46.93 1.26 L49.07 1.01 L51.2 0.66 L53.33 0.6 L55.47 0.43 L57.6 0.37 L59.73 0.09 L61.87 0.06 L64 0" fill="none" stroke="var(--cf-spark)" stroke-width="1.4" stroke-linecap="round" stroke-linejoin="round"/></svg></g></g><g transform="translate(291.6,46)"><text x="0" y="0" font-size="9" font-weight="600" fill="var(--cf-text-dim)" letter-spacing="0.8">LOC</text><text x="0" y="28" font-size="22" font-weight="700" fill="var(--cf-text)">588.9K</text><g transform="translate(0,40)"><svg width="64" height="14" viewBox="0 0 64 14" preserveAspectRatio="none"><path d="M0 13.99 L2.13 14 L4.27 13.99 L6.4 11.98 L8.53 11.83 L10.67 11.8 L12.8 11.73 L14.93 11.73 L17.07 10.96 L19.2 9.26 L21.33 9.24 L23.47 9.04 L25.6 8.97 L27.73 8.86 L29.87 8.85 L32 8.67 L34.13 8.64 L36.27 8.25 L38.4 8.31 L40.53 1.41 L42.67 1.41 L44.8 1.02 L46.93 0.76 L49.07 0.68 L51.2 0.5 L53.33 0.43 L55.47 0.23 L57.6 0.18 L59.73 0.1 L61.87 0.08 L64 0 L64 14 L0 14 Z" fill="var(--cf-spark-bg)" stroke="none"/><path d="M0 13.99 L2.13 14 L4.27 13.99 L6.4 11.98 L8.53 11.83 L10.67 11.8 L12.8 11.73 L14.93 11.73 L17.07 10.96 L19.2 9.26 L21.33 9.24 L23.47 9.04 L25.6 8.97 L27.73 8.86 L29.87 8.85 L32 8.67 L34.13 8.64 L36.27 8.25 L38.4 8.31 L40.53 1.41 L42.67 1.41 L44.8 1.02 L46.93 0.76 L49.07 0.68 L51.2 0.5 L53.33 0.43 L55.47 0.23 L57.6 0.18 L59.73 0.1 L61.87 0.08 L64 0" fill="none" stroke="var(--cf-spark)" stroke-width="1.4" stroke-linecap="round" stroke-linejoin="round"/></svg></g></g><g transform="translate(428.40000000000003,46)"><text x="0" y="0" font-size="9" font-weight="600" fill="var(--cf-text-dim)" letter-spacing="0.8">LANGS</text><text x="0" y="28" font-size="22" font-weight="700" fill="var(--cf-text)">22</text><g transform="translate(0,40)"><svg width="64" height="14" viewBox="0 0 64 14" preserveAspectRatio="none"><path d="M0 7 L2.13 7 L4.27 7 L6.4 7 L8.53 7 L10.67 7 L12.8 7 L14.93 7 L17.07 7 L19.2 7 L21.33 7 L23.47 7 L25.6 7 L27.73 7 L29.87 7 L32 7 L34.13 7 L36.27 7 L38.4 7 L40.53 7 L42.67 7 L44.8 7 L46.93 7 L49.07 7 L51.2 7 L53.33 7 L55.47 7 L57.6 7 L59.73 7 L61.87 7 L64 7 L64 14 L0 14 Z" fill="var(--cf-spark-bg)" stroke="none"/><path d="M0 7 L2.13 7 L4.27 7 L6.4 7 L8.53 7 L10.67 7 L12.8 7 L14.93 7 L17.07 7 L19.2 7 L21.33 7 L23.47 7 L25.6 7 L27.73 7 L29.87 7 L32 7 L34.13 7 L36.27 7 L38.4 7 L40.53 7 L42.67 7 L44.8 7 L46.93 7 L49.07 7 L51.2 7 L53.33 7 L55.47 7 L57.6 7 L59.73 7 L61.87 7 L64 7" fill="none" stroke="var(--cf-spark)" stroke-width="1.4" stroke-linecap="round" stroke-linejoin="round"/></svg></g></g><g transform="translate(565.2,46)"><text x="0" y="0" font-size="9" font-weight="600" fill="var(--cf-text-dim)" letter-spacing="0.8">TESTS</text><text x="0" y="28" font-size="22" font-weight="700" fill="var(--cf-text)">210</text><g transform="translate(0,40)"><svg width="64" height="14" viewBox="0 0 64 14" preserveAspectRatio="none"><path d="M0 14 L2.13 14 L4.27 14 L6.4 10.89 L8.53 10.89 L10.67 10.89 L12.8 10.89 L14.93 10.89 L17.07 10.89 L19.2 10.89 L21.33 10.89 L23.47 10.89 L25.6 10.89 L27.73 10.89 L29.87 10.89 L32 10.89 L34.13 10.89 L36.27 10.89 L38.4 10.89 L40.53 4.67 L42.67 4.67 L44.8 3.11 L46.93 3.11 L49.07 1.56 L51.2 0 L53.33 0 L55.47 0 L57.6 0 L59.73 0 L61.87 0 L64 0 L64 14 L0 14 Z" fill="var(--cf-spark-bg)" stroke="none"/><path d="M0 14 L2.13 14 L4.27 14 L6.4 10.89 L8.53 10.89 L10.67 10.89 L12.8 10.89 L14.93 10.89 L17.07 10.89 L19.2 10.89 L21.33 10.89 L23.47 10.89 L25.6 10.89 L27.73 10.89 L29.87 10.89 L32 10.89 L34.13 10.89 L36.27 10.89 L38.4 10.89 L40.53 4.67 L42.67 4.67 L44.8 3.11 L46.93 3.11 L49.07 1.56 L51.2 0 L53.33 0 L55.47 0 L57.6 0 L59.73 0 L61.87 0 L64 0" fill="none" stroke="var(--cf-spark)" stroke-width="1.4" stroke-linecap="round" stroke-linejoin="round"/></svg></g></g><a href="https://github.com/braedonsaunders/codeflow" target="_blank"><text x="702" y="130" text-anchor="end" font-size="9" fill="var(--cf-text-faint)">powered by <tspan font-weight="600" fill="var(--cf-accent)">codeflow</tspan></text></a></svg>