<svg xmlns="http://www.w3.org/2000/svg" width="720" height="140" viewBox="0 0 720 140" font-family="-apple-system,BlinkMacSystemFont,Segoe UI,Helvetica,Arial,sans-serif"><style>svg{--cf-bg:#0d1117;--cf-bg-alt:#161b22;--cf-border:#21262d;--cf-text:#e6edf3;--cf-text-dim:#8b949e;--cf-text-faint:#6e7681;--cf-accent:#5eead4;--cf-accent-soft:rgba(94,234,212,0.16);--cf-green:#3fb950;--cf-amber:#d29922;--cf-red:#f85149;--cf-spark:#5eead4;--cf-spark-bg:rgba(94,234,212,0.18)}@media (prefers-color-scheme: light){svg{--cf-bg:#ffffff;--cf-bg-alt:#f6f8fa;--cf-border:#d0d7de;--cf-text:#1f2328;--cf-text-dim:#656d76;--cf-text-faint:#8c959f;--cf-accent:#0d9488;--cf-accent-soft:rgba(13,148,136,0.12);--cf-green:#1a7f37;--cf-amber:#9a6700;--cf-red:#cf222e;--cf-spark:#0d9488;--cf-spark-bg:rgba(13,148,136,0.12)}}</style><rect width="720" height="140" rx="12" fill="var(--cf-bg)" stroke="var(--cf-border)"/><text x="18" y="26" font-size="13" font-weight="600" fill="var(--cf-text)">braedonsaunders/homerun</text><text x="702" y="26" text-anchor="end" font-size="10" fill="var(--cf-text-faint)" font-family="ui-monospace,SFMono-Regular,Menlo,monospace">@386df55</text><g transform="translate(18,46)"><text x="0" y="0" font-size="9" font-weight="600" fill="var(--cf-text-dim)" letter-spacing="0.8">FILES</text><text x="0" y="28" font-size="22" font-weight="700" fill="var(--cf-text)">900</text><g transform="translate(0,40)"><svg width="64" height="14" viewBox="0 0 64 14" preserveAspectRatio="none"><path d="M0 14 L2.13 14 L4.27 13.3 L6.4 13.3 L8.53 13.3 L10.67 13.3 L12.8 13.3 L14.93 13.3 L17.07 13.3 L19.2 11.55 L21.33 11.55 L23.47 11.55 L25.6 11.55 L27.73 11.55 L29.87 11.2 L32 11.2 L34.13 10.5 L36.27 10.5 L38.4 1.05 L40.53 1.05 L42.67 1.05 L44.8 0.7 L46.93 0.35 L49.07 0.35 L51.2 0.35 L53.33 0.35 L55.47 0.35 L57.6 0.35 L59.73 0.35 L61.87 0 L64 0 L64 14 L0 14 Z" fill="var(--cf-spark-bg)" stroke="none"/><path d="M0 14 L2.13 14 L4.27 13.3 L6.4 13.3 L8.53 13.3 L10.67 13.3 L12.8 13.3 L14.93 13.3 L17.07 13.3 L19.2 11.55 L21.33 11.55 L23.47 11.55 L25.6 11.55 L27.73 11.55 L29.87 11.2 L32 11.2 L34.13 10.5 L36.27 10.5 L38.4 1.05 L40.53 1.05 L42.67 1.05 L44.8 0.7 L46.93 0.35 L49.07 0.35 L51.2 0.35 L53.33 0.35 L55.47 0.35 L57.6 0.35 L59.73 0.35 L61.87 0 L64 0" fill="none" stroke="var(--cf-spark)" stroke-width="1.4" stroke-linecap="round" stroke-linejoin="round"/></svg></g></g><g transform="translate(154.8,46)"><text x="0" y="0" font-size="9" font-weight="600" fill="var(--cf-text-dim)" letter-spacing="0.8">FNS</text><text x="0" y="28" font-size="22" font-weight="700" fill="var(--cf-text)">13K</text><g transform="translate(0,40)"><svg width="64" height="14" viewBox="0 0 64 14" preserveAspectRatio="none"><path d="M0 14 L2.13 14 L4.27 12.53 L6.4 12.53 L8.53 12.53 L10.67 12.53 L12.8 12.45 L14.93 12.45 L17.07 12.43 L19.2 12.43 L21.33 12.1 L23.47 12.1 L25.6 12.07 L27.73 12.07 L29.87 11.97 L32 11.97 L34.13 11.18 L36.27 10.85 L38.4 0.92 L40.53 0.79 L42.67 0.76 L44.8 0.76 L46.93 0.68 L49.07 0.68 L51.2 0.68 L53.33 0.65 L55.47 0.62 L57.6 0.52 L59.73 0.46 L61.87 0.24 L64 0 L64 14 L0 14 Z" fill="var(--cf-spark-bg)" stroke="none"/><path d="M0 14 L2.13 14 L4.27 12.53 L6.4 12.53 L8.53 12.53 L10.67 12.53 L12.8 12.45 L14.93 12.45 L17.07 12.43 L19.2 12.43 L21.33 12.1 L23.47 12.1 L25.6 12.07 L27.73 12.07 L29.87 11.97 L32 11.97 L34.13 11.18 L36.27 10.85 L38.4 0.92 L40.53 0.79 L42.67 0.76 L44.8 0.76 L46.93 0.68 L49.07 0.68 L51.2 0.68 L53.33 0.65 L55.47 0.62 L57.6 0.52 L59.73 0.46 L61.87 0.24 L64 0" fill="none" stroke="var(--cf-spark)" stroke-width="1.4" stroke-linecap="round" stroke-linejoin="round"/></svg></g></g><g transform="translate(291.6,46)"><text x="0" y="0" font-size="9" font-weight="600" fill="var(--cf-text-dim)" letter-spacing="0.8">LOC</text><text x="0" y="28" font-size="22" font-weight="700" fill="var(--cf-text)">494.6K</text><g transform="translate(0,40)"><svg width="64" height="14" viewBox="0 0 64 14" preserveAspectRatio="none"><path d="M0 14 L2.13 13.96 L4.27 12.83 L6.4 12.37 L8.53 12.36 L10.67 12.3 L12.8 12.21 L14.93 12.17 L17.07 12.02 L19.2 11.69 L21.33 11.6 L23.47 11.57 L25.6 11.39 L27.73 11.33 L29.87 11.12 L32 11.12 L34.13 10.4 L36.27 9.77 L38.4 1.38 L40.53 1.05 L42.67 1.05 L44.8 0.98 L46.93 0.84 L49.07 0.83 L51.2 0.83 L53.33 0.75 L55.47 0.7 L57.6 0.59 L59.73 0.55 L61.87 0.34 L64 0 L64 14 L0 14 Z" fill="var(--cf-spark-bg)" stroke="none"/><path d="M0 14 L2.13 13.96 L4.27 12.83 L6.4 12.37 L8.53 12.36 L10.67 12.3 L12.8 12.21 L14.93 12.17 L17.07 12.02 L19.2 11.69 L21.33 11.6 L23.47 11.57 L25.6 11.39 L27.73 11.33 L29.87 11.12 L32 11.12 L34.13 10.4 L36.27 9.77 L38.4 1.38 L40.53 1.05 L42.67 1.05 L44.8 0.98 L46.93 0.84 L49.07 0.83 L51.2 0.83 L53.33 0.75 L55.47 0.7 L57.6 0.59 L59.73 0.55 L61.87 0.34 L64 0" fill="none" stroke="var(--cf-spark)" stroke-width="1.4" stroke-linecap="round" stroke-linejoin="round"/></svg></g></g><g transform="translate(428.40000000000003,46)"><text x="0" y="0" font-size="9" font-weight="600" fill="var(--cf-text-dim)" letter-spacing="0.8">LANGS</text><text x="0" y="28" font-size="22" font-weight="700" fill="var(--cf-text)">22</text><g transform="translate(0,40)"><svg width="64" height="14" viewBox="0 0 64 14" preserveAspectRatio="none"><path d="M0 14 L2.13 14 L4.27 14 L6.4 14 L8.53 14 L10.67 14 L12.8 14 L14.93 14 L17.07 14 L19.2 0 L21.33 0 L23.47 0 L25.6 0 L27.73 0 L29.87 0 L32 0 L34.13 0 L36.27 0 L38.4 0 L40.53 0 L42.67 0 L44.8 0 L46.93 0 L49.07 0 L51.2 0 L53.33 0 L55.47 0 L57.6 0 L59.73 0 L61.87 0 L64 0 L64 14 L0 14 Z" fill="var(--cf-spark-bg)" stroke="none"/><path d="M0 14 L2.13 14 L4.27 14 L6.4 14 L8.53 14 L10.67 14 L12.8 14 L14.93 14 L17.07 14 L19.2 0 L21.33 0 L23.47 0 L25.6 0 L27.73 0 L29.87 0 L32 0 L34.13 0 L36.27 0 L38.4 0 L40.53 0 L42.67 0 L44.8 0 L46.93 0 L49.07 0 L51.2 0 L53.33 0 L55.47 0 L57.6 0 L59.73 0 L61.87 0 L64 0" fill="none" stroke="var(--cf-spark)" stroke-width="1.4" stroke-linecap="round" stroke-linejoin="round"/></svg></g></g><g transform="translate(565.2,46)"><text x="0" y="0" font-size="9" font-weight="600" fill="var(--cf-text-dim)" letter-spacing="0.8">TESTS</text><text x="0" y="28" font-size="22" font-weight="700" fill="var(--cf-text)">187</text><g transform="translate(0,40)"><svg width="64" height="14" viewBox="0 0 64 14" preserveAspectRatio="none"><path d="M0 14 L2.13 14 L4.27 0 L6.4 0 L8.53 0 L10.67 0 L12.8 0 L14.93 0 L17.07 0 L19.2 0 L21.33 0 L23.47 0 L25.6 0 L27.73 0 L29.87 0 L32 0 L34.13 0 L36.27 0 L38.4 0 L40.53 0 L42.67 0 L44.8 0 L46.93 0 L49.07 0 L51.2 0 L53.33 0 L55.47 0 L57.6 0 L59.73 0 L61.87 0 L64 0 L64 14 L0 14 Z" fill="var(--cf-spark-bg)" stroke="none"/><path d="M0 14 L2.13 14 L4.27 0 L6.4 0 L8.53 0 L10.67 0 L12.8 0 L14.93 0 L17.07 0 L19.2 0 L21.33 0 L23.47 0 L25.6 0 L27.73 0 L29.87 0 L32 0 L34.13 0 L36.27 0 L38.4 0 L40.53 0 L42.67 0 L44.8 0 L46.93 0 L49.07 0 L51.2 0 L53.33 0 L55.47 0 L57.6 0 L59.73 0 L61.87 0 L64 0" fill="none" stroke="var(--cf-spark)" stroke-width="1.4" stroke-linecap="round" stroke-linejoin="round"/></svg></g></g><a href="https://github.com/braedonsaunders/codeflow" target="_blank"><text x="702" y="130" text-anchor="end" font-size="9" fill="var(--cf-text-faint)">powered by <tspan font-weight="600" fill="var(--cf-accent)">codeflow</tspan></text></a></svg>