<svg xmlns="http://www.w3.org/2000/svg" width="720" height="140" viewBox="0 0 720 140" font-family="-apple-system,BlinkMacSystemFont,Segoe UI,Helvetica,Arial,sans-serif"><style>svg{--cf-bg:#0d1117;--cf-bg-alt:#161b22;--cf-border:#21262d;--cf-text:#e6edf3;--cf-text-dim:#8b949e;--cf-text-faint:#6e7681;--cf-accent:#5eead4;--cf-accent-soft:rgba(94,234,212,0.16);--cf-green:#3fb950;--cf-amber:#d29922;--cf-red:#f85149;--cf-spark:#5eead4;--cf-spark-bg:rgba(94,234,212,0.18)}@media (prefers-color-scheme: light){svg{--cf-bg:#ffffff;--cf-bg-alt:#f6f8fa;--cf-border:#d0d7de;--cf-text:#1f2328;--cf-text-dim:#656d76;--cf-text-faint:#8c959f;--cf-accent:#0d9488;--cf-accent-soft:rgba(13,148,136,0.12);--cf-green:#1a7f37;--cf-amber:#9a6700;--cf-red:#cf222e;--cf-spark:#0d9488;--cf-spark-bg:rgba(13,148,136,0.12)}}</style><rect width="720" height="140" rx="12" fill="var(--cf-bg)" stroke="var(--cf-border)"/><text x="18" y="26" font-size="13" font-weight="600" fill="var(--cf-text)">braedonsaunders/homerun</text><text x="702" y="26" text-anchor="end" font-size="10" fill="var(--cf-text-faint)" font-family="ui-monospace,SFMono-Regular,Menlo,monospace">@675a0e0</text><g transform="translate(18,46)"><text x="0" y="0" font-size="9" font-weight="600" fill="var(--cf-text-dim)" letter-spacing="0.8">FILES</text><text x="0" y="28" font-size="22" font-weight="700" fill="var(--cf-text)">860</text><g transform="translate(0,40)"><svg width="64" height="14" viewBox="0 0 64 14" preserveAspectRatio="none"><path d="M0 14 L2.13 14 L4.27 14 L6.4 14 L8.53 4.06 L10.67 3.65 L12.8 3.65 L14.93 3.65 L17.07 3.65 L19.2 3.65 L21.33 3.45 L23.47 3.45 L25.6 3.45 L27.73 1.42 L29.87 1.42 L32 1.42 L34.13 1.42 L36.27 1.22 L38.4 1.01 L40.53 1.01 L42.67 1.01 L44.8 1.01 L46.93 1.01 L49.07 1.01 L51.2 1.01 L53.33 1.01 L55.47 1.01 L57.6 1.01 L59.73 0 L61.87 0 L64 0 L64 14 L0 14 Z" fill="var(--cf-spark-bg)" stroke="none"/><path d="M0 14 L2.13 14 L4.27 14 L6.4 14 L8.53 4.06 L10.67 3.65 L12.8 3.65 L14.93 3.65 L17.07 3.65 L19.2 3.65 L21.33 3.45 L23.47 3.45 L25.6 3.45 L27.73 1.42 L29.87 1.42 L32 1.42 L34.13 1.42 L36.27 1.22 L38.4 1.01 L40.53 1.01 L42.67 1.01 L44.8 1.01 L46.93 1.01 L49.07 1.01 L51.2 1.01 L53.33 1.01 L55.47 1.01 L57.6 1.01 L59.73 0 L61.87 0 L64 0" fill="none" stroke="var(--cf-spark)" stroke-width="1.4" stroke-linecap="round" stroke-linejoin="round"/></svg></g></g><g transform="translate(154.8,46)"><text x="0" y="0" font-size="9" font-weight="600" fill="var(--cf-text-dim)" letter-spacing="0.8">FNS</text><text x="0" y="28" font-size="22" font-weight="700" fill="var(--cf-text)">12.5K</text><g transform="translate(0,40)"><svg width="64" height="14" viewBox="0 0 64 14" preserveAspectRatio="none"><path d="M0 14 L2.13 13.95 L4.27 13.93 L6.4 13.93 L8.53 2.74 L10.67 2.18 L12.8 2.15 L14.93 2.13 L17.07 2.13 L19.2 2.13 L21.33 1.85 L23.47 1.85 L25.6 1.84 L27.73 1.14 L29.87 1.13 L32 1.13 L34.13 1.13 L36.27 1.1 L38.4 1.08 L40.53 1.08 L42.67 1.08 L44.8 1.02 L46.93 1 L49.07 0.98 L51.2 0.93 L53.33 0.93 L55.47 0.65 L57.6 0.65 L59.73 0 L61.87 0.11 L64 0.11 L64 14 L0 14 Z" fill="var(--cf-spark-bg)" stroke="none"/><path d="M0 14 L2.13 13.95 L4.27 13.93 L6.4 13.93 L8.53 2.74 L10.67 2.18 L12.8 2.15 L14.93 2.13 L17.07 2.13 L19.2 2.13 L21.33 1.85 L23.47 1.85 L25.6 1.84 L27.73 1.14 L29.87 1.13 L32 1.13 L34.13 1.13 L36.27 1.1 L38.4 1.08 L40.53 1.08 L42.67 1.08 L44.8 1.02 L46.93 1 L49.07 0.98 L51.2 0.93 L53.33 0.93 L55.47 0.65 L57.6 0.65 L59.73 0 L61.87 0.11 L64 0.11" fill="none" stroke="var(--cf-spark)" stroke-width="1.4" stroke-linecap="round" stroke-linejoin="round"/></svg></g></g><g transform="translate(291.6,46)"><text x="0" y="0" font-size="9" font-weight="600" fill="var(--cf-text-dim)" letter-spacing="0.8">LOC</text><text x="0" y="28" font-size="22" font-weight="700" fill="var(--cf-text)">472.8K</text><g transform="translate(0,40)"><svg width="64" height="14" viewBox="0 0 64 14" preserveAspectRatio="none"><path d="M0 13.31 L2.13 14 L4.27 13.93 L6.4 13.93 L8.53 11.19 L10.67 8.41 L12.8 8.38 L14.93 8.25 L17.07 8.25 L19.2 8.23 L21.33 7.35 L23.47 7.89 L25.6 7.88 L27.73 4.65 L29.87 4.62 L32 4.59 L34.13 4.56 L36.27 4.51 L38.4 4.45 L40.53 4.43 L42.67 4.41 L44.8 4.31 L46.93 4.29 L49.07 4.24 L51.2 3.84 L53.33 3.77 L55.47 2.45 L57.6 2.27 L59.73 0 L61.87 0.14 L64 0.08 L64 14 L0 14 Z" fill="var(--cf-spark-bg)" stroke="none"/><path d="M0 13.31 L2.13 14 L4.27 13.93 L6.4 13.93 L8.53 11.19 L10.67 8.41 L12.8 8.38 L14.93 8.25 L17.07 8.25 L19.2 8.23 L21.33 7.35 L23.47 7.89 L25.6 7.88 L27.73 4.65 L29.87 4.62 L32 4.59 L34.13 4.56 L36.27 4.51 L38.4 4.45 L40.53 4.43 L42.67 4.41 L44.8 4.31 L46.93 4.29 L49.07 4.24 L51.2 3.84 L53.33 3.77 L55.47 2.45 L57.6 2.27 L59.73 0 L61.87 0.14 L64 0.08" fill="none" stroke="var(--cf-spark)" stroke-width="1.4" stroke-linecap="round" stroke-linejoin="round"/></svg></g></g><g transform="translate(428.40000000000003,46)"><text x="0" y="0" font-size="9" font-weight="600" fill="var(--cf-text-dim)" letter-spacing="0.8">LANGS</text><text x="0" y="28" font-size="22" font-weight="700" fill="var(--cf-text)">19</text><g transform="translate(0,40)"><svg width="64" height="14" viewBox="0 0 64 14" preserveAspectRatio="none"><path d="M0 7 L2.13 7 L4.27 7 L6.4 7 L8.53 7 L10.67 7 L12.8 7 L14.93 7 L17.07 7 L19.2 7 L21.33 7 L23.47 7 L25.6 7 L27.73 7 L29.87 7 L32 7 L34.13 7 L36.27 7 L38.4 7 L40.53 7 L42.67 7 L44.8 7 L46.93 7 L49.07 7 L51.2 7 L53.33 7 L55.47 7 L57.6 7 L59.73 7 L61.87 7 L64 7 L64 14 L0 14 Z" fill="var(--cf-spark-bg)" stroke="none"/><path d="M0 7 L2.13 7 L4.27 7 L6.4 7 L8.53 7 L10.67 7 L12.8 7 L14.93 7 L17.07 7 L19.2 7 L21.33 7 L23.47 7 L25.6 7 L27.73 7 L29.87 7 L32 7 L34.13 7 L36.27 7 L38.4 7 L40.53 7 L42.67 7 L44.8 7 L46.93 7 L49.07 7 L51.2 7 L53.33 7 L55.47 7 L57.6 7 L59.73 7 L61.87 7 L64 7" fill="none" stroke="var(--cf-spark)" stroke-width="1.4" stroke-linecap="round" stroke-linejoin="round"/></svg></g></g><g transform="translate(565.2,46)"><text x="0" y="0" font-size="9" font-weight="600" fill="var(--cf-text-dim)" letter-spacing="0.8">TESTS</text><text x="0" y="28" font-size="22" font-weight="700" fill="var(--cf-text)">186</text><g transform="translate(0,40)"><svg width="64" height="14" viewBox="0 0 64 14" preserveAspectRatio="none"><path d="M0 14 L2.13 14 L4.27 14 L6.4 14 L8.53 0 L10.67 0 L12.8 0 L14.93 0 L17.07 0 L19.2 0 L21.33 0 L23.47 0 L25.6 0 L27.73 0 L29.87 0 L32 0 L34.13 0 L36.27 0 L38.4 0 L40.53 0 L42.67 0 L44.8 0 L46.93 0 L49.07 0 L51.2 0 L53.33 0 L55.47 0 L57.6 0 L59.73 0 L61.87 0 L64 0 L64 14 L0 14 Z" fill="var(--cf-spark-bg)" stroke="none"/><path d="M0 14 L2.13 14 L4.27 14 L6.4 14 L8.53 0 L10.67 0 L12.8 0 L14.93 0 L17.07 0 L19.2 0 L21.33 0 L23.47 0 L25.6 0 L27.73 0 L29.87 0 L32 0 L34.13 0 L36.27 0 L38.4 0 L40.53 0 L42.67 0 L44.8 0 L46.93 0 L49.07 0 L51.2 0 L53.33 0 L55.47 0 L57.6 0 L59.73 0 L61.87 0 L64 0" fill="none" stroke="var(--cf-spark)" stroke-width="1.4" stroke-linecap="round" stroke-linejoin="round"/></svg></g></g><a href="https://github.com/braedonsaunders/codeflow" target="_blank"><text x="702" y="130" text-anchor="end" font-size="9" fill="var(--cf-text-faint)">powered by <tspan font-weight="600" fill="var(--cf-accent)">codeflow</tspan></text></a></svg>