<svg xmlns="http://www.w3.org/2000/svg" width="720" height="140" viewBox="0 0 720 140" font-family="-apple-system,BlinkMacSystemFont,Segoe UI,Helvetica,Arial,sans-serif"><style>svg{--cf-bg:#0d1117;--cf-bg-alt:#161b22;--cf-border:#21262d;--cf-text:#e6edf3;--cf-text-dim:#8b949e;--cf-text-faint:#6e7681;--cf-accent:#5eead4;--cf-accent-soft:rgba(94,234,212,0.16);--cf-green:#3fb950;--cf-amber:#d29922;--cf-red:#f85149;--cf-spark:#5eead4;--cf-spark-bg:rgba(94,234,212,0.18)}@media (prefers-color-scheme: light){svg{--cf-bg:#ffffff;--cf-bg-alt:#f6f8fa;--cf-border:#d0d7de;--cf-text:#1f2328;--cf-text-dim:#656d76;--cf-text-faint:#8c959f;--cf-accent:#0d9488;--cf-accent-soft:rgba(13,148,136,0.12);--cf-green:#1a7f37;--cf-amber:#9a6700;--cf-red:#cf222e;--cf-spark:#0d9488;--cf-spark-bg:rgba(13,148,136,0.12)}}</style><rect width="720" height="140" rx="12" fill="var(--cf-bg)" stroke="var(--cf-border)"/><text x="18" y="26" font-size="13" font-weight="600" fill="var(--cf-text)">braedonsaunders/homerun</text><text x="702" y="26" text-anchor="end" font-size="10" fill="var(--cf-text-faint)" font-family="ui-monospace,SFMono-Regular,Menlo,monospace">@07b650c</text><g transform="translate(18,46)"><text x="0" y="0" font-size="9" font-weight="600" fill="var(--cf-text-dim)" letter-spacing="0.8">FILES</text><text x="0" y="28" font-size="22" font-weight="700" fill="var(--cf-text)">842</text><g transform="translate(0,40)"><svg width="64" height="14" viewBox="0 0 64 14" preserveAspectRatio="none"><path d="M0 14 L4.92 14 L9.85 14 L14.77 14 L19.69 14 L24.62 11.74 L29.54 11.74 L34.46 11.74 L39.38 11.52 L44.31 11.52 L49.23 11.52 L54.15 11.52 L59.08 0.45 L64 0 L64 14 L0 14 Z" fill="var(--cf-spark-bg)" stroke="none"/><path d="M0 14 L4.92 14 L9.85 14 L14.77 14 L19.69 14 L24.62 11.74 L29.54 11.74 L34.46 11.74 L39.38 11.52 L44.31 11.52 L49.23 11.52 L54.15 11.52 L59.08 0.45 L64 0" fill="none" stroke="var(--cf-spark)" stroke-width="1.4" stroke-linecap="round" stroke-linejoin="round"/></svg></g></g><g transform="translate(154.8,46)"><text x="0" y="0" font-size="9" font-weight="600" fill="var(--cf-text-dim)" letter-spacing="0.8">FNS</text><text x="0" y="28" font-size="22" font-weight="700" fill="var(--cf-text)">12.4K</text><g transform="translate(0,40)"><svg width="64" height="14" viewBox="0 0 64 14" preserveAspectRatio="none"><path d="M0 14 L4.92 14 L9.85 14 L14.77 14 L19.69 14 L24.62 12.2 L29.54 12.2 L34.46 12.2 L39.38 12.09 L44.31 12.04 L49.23 12.01 L54.15 12.01 L59.08 0.58 L64 0 L64 14 L0 14 Z" fill="var(--cf-spark-bg)" stroke="none"/><path d="M0 14 L4.92 14 L9.85 14 L14.77 14 L19.69 14 L24.62 12.2 L29.54 12.2 L34.46 12.2 L39.38 12.09 L44.31 12.04 L49.23 12.01 L54.15 12.01 L59.08 0.58 L64 0" fill="none" stroke="var(--cf-spark)" stroke-width="1.4" stroke-linecap="round" stroke-linejoin="round"/></svg></g></g><g transform="translate(291.6,46)"><text x="0" y="0" font-size="9" font-weight="600" fill="var(--cf-text-dim)" letter-spacing="0.8">LOC</text><text x="0" y="28" font-size="22" font-weight="700" fill="var(--cf-text)">463.3K</text><g transform="translate(0,40)"><svg width="64" height="14" viewBox="0 0 64 14" preserveAspectRatio="none"><path d="M0 13.87 L4.92 13.99 L9.85 14 L14.77 14 L19.69 14 L24.62 6.77 L29.54 6.76 L34.46 6.75 L39.38 6.41 L44.31 7.32 L49.23 7.23 L54.15 7.23 L59.08 3.64 L64 0 L64 14 L0 14 Z" fill="var(--cf-spark-bg)" stroke="none"/><path d="M0 13.87 L4.92 13.99 L9.85 14 L14.77 14 L19.69 14 L24.62 6.77 L29.54 6.76 L34.46 6.75 L39.38 6.41 L44.31 7.32 L49.23 7.23 L54.15 7.23 L59.08 3.64 L64 0" fill="none" stroke="var(--cf-spark)" stroke-width="1.4" stroke-linecap="round" stroke-linejoin="round"/></svg></g></g><g transform="translate(428.40000000000003,46)"><text x="0" y="0" font-size="9" font-weight="600" fill="var(--cf-text-dim)" letter-spacing="0.8">LANGS</text><text x="0" y="28" font-size="22" font-weight="700" fill="var(--cf-text)">19</text><g transform="translate(0,40)"><svg width="64" height="14" viewBox="0 0 64 14" preserveAspectRatio="none"><path d="M0 7 L4.92 7 L9.85 7 L14.77 7 L19.69 7 L24.62 7 L29.54 7 L34.46 7 L39.38 7 L44.31 7 L49.23 7 L54.15 7 L59.08 7 L64 7 L64 14 L0 14 Z" fill="var(--cf-spark-bg)" stroke="none"/><path d="M0 7 L4.92 7 L9.85 7 L14.77 7 L19.69 7 L24.62 7 L29.54 7 L34.46 7 L39.38 7 L44.31 7 L49.23 7 L54.15 7 L59.08 7 L64 7" fill="none" stroke="var(--cf-spark)" stroke-width="1.4" stroke-linecap="round" stroke-linejoin="round"/></svg></g></g><g transform="translate(565.2,46)"><text x="0" y="0" font-size="9" font-weight="600" fill="var(--cf-text-dim)" letter-spacing="0.8">TESTS</text><text x="0" y="28" font-size="22" font-weight="700" fill="var(--cf-text)">186</text><g transform="translate(0,40)"><svg width="64" height="14" viewBox="0 0 64 14" preserveAspectRatio="none"><path d="M0 14 L4.92 14 L9.85 14 L14.77 14 L19.69 14 L24.62 11.67 L29.54 11.67 L34.46 11.67 L39.38 11.67 L44.31 11.67 L49.23 11.67 L54.15 11.67 L59.08 0 L64 0 L64 14 L0 14 Z" fill="var(--cf-spark-bg)" stroke="none"/><path d="M0 14 L4.92 14 L9.85 14 L14.77 14 L19.69 14 L24.62 11.67 L29.54 11.67 L34.46 11.67 L39.38 11.67 L44.31 11.67 L49.23 11.67 L54.15 11.67 L59.08 0 L64 0" fill="none" stroke="var(--cf-spark)" stroke-width="1.4" stroke-linecap="round" stroke-linejoin="round"/></svg></g></g><a href="https://github.com/braedonsaunders/codeflow" target="_blank"><text x="702" y="130" text-anchor="end" font-size="9" fill="var(--cf-text-faint)">powered by <tspan font-weight="600" fill="var(--cf-accent)">codeflow</tspan></text></a></svg>