<svg xmlns="http://www.w3.org/2000/svg" width="720" height="140" viewBox="0 0 720 140" font-family="-apple-system,BlinkMacSystemFont,Segoe UI,Helvetica,Arial,sans-serif"><style>svg{--cf-bg:#0d1117;--cf-bg-alt:#161b22;--cf-border:#21262d;--cf-text:#e6edf3;--cf-text-dim:#8b949e;--cf-text-faint:#6e7681;--cf-accent:#5eead4;--cf-accent-soft:rgba(94,234,212,0.16);--cf-green:#3fb950;--cf-amber:#d29922;--cf-red:#f85149;--cf-spark:#5eead4;--cf-spark-bg:rgba(94,234,212,0.18)}@media (prefers-color-scheme: light){svg{--cf-bg:#ffffff;--cf-bg-alt:#f6f8fa;--cf-border:#d0d7de;--cf-text:#1f2328;--cf-text-dim:#656d76;--cf-text-faint:#8c959f;--cf-accent:#0d9488;--cf-accent-soft:rgba(13,148,136,0.12);--cf-green:#1a7f37;--cf-amber:#9a6700;--cf-red:#cf222e;--cf-spark:#0d9488;--cf-spark-bg:rgba(13,148,136,0.12)}}</style><rect width="720" height="140" rx="12" fill="var(--cf-bg)" stroke="var(--cf-border)"/><text x="18" y="26" font-size="13" font-weight="600" fill="var(--cf-text)">braedonsaunders/homerun</text><text x="702" y="26" text-anchor="end" font-size="10" fill="var(--cf-text-faint)" font-family="ui-monospace,SFMono-Regular,Menlo,monospace">@073ca5e</text><g transform="translate(18,46)"><text x="0" y="0" font-size="9" font-weight="600" fill="var(--cf-text-dim)" letter-spacing="0.8">FILES</text><text x="0" y="28" font-size="22" font-weight="700" fill="var(--cf-text)">899</text><g transform="translate(0,40)"><svg width="64" height="14" viewBox="0 0 64 14" preserveAspectRatio="none"><path d="M0 14 L2.13 14 L4.27 12.41 L6.4 12.41 L8.53 12.41 L10.67 11.77 L12.8 11.77 L14.93 11.77 L17.07 11.77 L19.2 11.77 L21.33 11.77 L23.47 11.77 L25.6 10.18 L27.73 10.18 L29.87 10.18 L32 10.18 L34.13 10.18 L36.27 9.86 L38.4 9.86 L40.53 9.23 L42.67 9.23 L44.8 0.64 L46.93 0.64 L49.07 0.64 L51.2 0.32 L53.33 0 L55.47 0 L57.6 0 L59.73 0 L61.87 0 L64 0 L64 14 L0 14 Z" fill="var(--cf-spark-bg)" stroke="none"/><path d="M0 14 L2.13 14 L4.27 12.41 L6.4 12.41 L8.53 12.41 L10.67 11.77 L12.8 11.77 L14.93 11.77 L17.07 11.77 L19.2 11.77 L21.33 11.77 L23.47 11.77 L25.6 10.18 L27.73 10.18 L29.87 10.18 L32 10.18 L34.13 10.18 L36.27 9.86 L38.4 9.86 L40.53 9.23 L42.67 9.23 L44.8 0.64 L46.93 0.64 L49.07 0.64 L51.2 0.32 L53.33 0 L55.47 0 L57.6 0 L59.73 0 L61.87 0 L64 0" fill="none" stroke="var(--cf-spark)" stroke-width="1.4" stroke-linecap="round" stroke-linejoin="round"/></svg></g></g><g transform="translate(154.8,46)"><text x="0" y="0" font-size="9" font-weight="600" fill="var(--cf-text-dim)" letter-spacing="0.8">FNS</text><text x="0" y="28" font-size="22" font-weight="700" fill="var(--cf-text)">13K</text><g transform="translate(0,40)"><svg width="64" height="14" viewBox="0 0 64 14" preserveAspectRatio="none"><path d="M0 14 L2.13 14 L4.27 12.63 L6.4 12.86 L8.53 12.86 L10.67 11.46 L12.8 11.46 L14.93 11.46 L17.07 11.46 L19.2 11.39 L21.33 11.39 L23.47 11.36 L25.6 11.36 L27.73 11.05 L29.87 11.05 L32 11.02 L34.13 11.02 L36.27 10.92 L38.4 10.92 L40.53 10.17 L42.67 9.86 L44.8 0.39 L46.93 0.26 L49.07 0.23 L51.2 0.23 L53.33 0.16 L55.47 0.16 L57.6 0.16 L59.73 0.13 L61.87 0.1 L64 0 L64 14 L0 14 Z" fill="var(--cf-spark-bg)" stroke="none"/><path d="M0 14 L2.13 14 L4.27 12.63 L6.4 12.86 L8.53 12.86 L10.67 11.46 L12.8 11.46 L14.93 11.46 L17.07 11.46 L19.2 11.39 L21.33 11.39 L23.47 11.36 L25.6 11.36 L27.73 11.05 L29.87 11.05 L32 11.02 L34.13 11.02 L36.27 10.92 L38.4 10.92 L40.53 10.17 L42.67 9.86 L44.8 0.39 L46.93 0.26 L49.07 0.23 L51.2 0.23 L53.33 0.16 L55.47 0.16 L57.6 0.16 L59.73 0.13 L61.87 0.1 L64 0" fill="none" stroke="var(--cf-spark)" stroke-width="1.4" stroke-linecap="round" stroke-linejoin="round"/></svg></g></g><g transform="translate(291.6,46)"><text x="0" y="0" font-size="9" font-weight="600" fill="var(--cf-text-dim)" letter-spacing="0.8">LOC</text><text x="0" y="28" font-size="22" font-weight="700" fill="var(--cf-text)">493.7K</text><g transform="translate(0,40)"><svg width="64" height="14" viewBox="0 0 64 14" preserveAspectRatio="none"><path d="M0 14 L2.13 13.88 L4.27 12.35 L6.4 12.45 L8.53 12.4 L10.67 11.36 L12.8 10.93 L14.93 10.93 L17.07 10.86 L19.2 10.78 L21.33 10.75 L23.47 10.61 L25.6 10.31 L27.73 10.22 L29.87 10.19 L32 10.03 L34.13 9.97 L36.27 9.78 L38.4 9.77 L40.53 9.11 L42.67 8.52 L44.8 0.74 L46.93 0.43 L49.07 0.43 L51.2 0.37 L53.33 0.23 L55.47 0.23 L57.6 0.23 L59.73 0.15 L61.87 0.1 L64 0 L64 14 L0 14 Z" fill="var(--cf-spark-bg)" stroke="none"/><path d="M0 14 L2.13 13.88 L4.27 12.35 L6.4 12.45 L8.53 12.4 L10.67 11.36 L12.8 10.93 L14.93 10.93 L17.07 10.86 L19.2 10.78 L21.33 10.75 L23.47 10.61 L25.6 10.31 L27.73 10.22 L29.87 10.19 L32 10.03 L34.13 9.97 L36.27 9.78 L38.4 9.77 L40.53 9.11 L42.67 8.52 L44.8 0.74 L46.93 0.43 L49.07 0.43 L51.2 0.37 L53.33 0.23 L55.47 0.23 L57.6 0.23 L59.73 0.15 L61.87 0.1 L64 0" fill="none" stroke="var(--cf-spark)" stroke-width="1.4" stroke-linecap="round" stroke-linejoin="round"/></svg></g></g><g transform="translate(428.40000000000003,46)"><text x="0" y="0" font-size="9" font-weight="600" fill="var(--cf-text-dim)" letter-spacing="0.8">LANGS</text><text x="0" y="28" font-size="22" font-weight="700" fill="var(--cf-text)">22</text><g transform="translate(0,40)"><svg width="64" height="14" viewBox="0 0 64 14" preserveAspectRatio="none"><path d="M0 14 L2.13 14 L4.27 14 L6.4 14 L8.53 14 L10.67 14 L12.8 14 L14.93 14 L17.07 14 L19.2 14 L21.33 14 L23.47 14 L25.6 0 L27.73 0 L29.87 0 L32 0 L34.13 0 L36.27 0 L38.4 0 L40.53 0 L42.67 0 L44.8 0 L46.93 0 L49.07 0 L51.2 0 L53.33 0 L55.47 0 L57.6 0 L59.73 0 L61.87 0 L64 0 L64 14 L0 14 Z" fill="var(--cf-spark-bg)" stroke="none"/><path d="M0 14 L2.13 14 L4.27 14 L6.4 14 L8.53 14 L10.67 14 L12.8 14 L14.93 14 L17.07 14 L19.2 14 L21.33 14 L23.47 14 L25.6 0 L27.73 0 L29.87 0 L32 0 L34.13 0 L36.27 0 L38.4 0 L40.53 0 L42.67 0 L44.8 0 L46.93 0 L49.07 0 L51.2 0 L53.33 0 L55.47 0 L57.6 0 L59.73 0 L61.87 0 L64 0" fill="none" stroke="var(--cf-spark)" stroke-width="1.4" stroke-linecap="round" stroke-linejoin="round"/></svg></g></g><g transform="translate(565.2,46)"><text x="0" y="0" font-size="9" font-weight="600" fill="var(--cf-text-dim)" letter-spacing="0.8">TESTS</text><text x="0" y="28" font-size="22" font-weight="700" fill="var(--cf-text)">187</text><g transform="translate(0,40)"><svg width="64" height="14" viewBox="0 0 64 14" preserveAspectRatio="none"><path d="M0 14 L2.13 14 L4.27 14 L6.4 14 L8.53 14 L10.67 0 L12.8 0 L14.93 0 L17.07 0 L19.2 0 L21.33 0 L23.47 0 L25.6 0 L27.73 0 L29.87 0 L32 0 L34.13 0 L36.27 0 L38.4 0 L40.53 0 L42.67 0 L44.8 0 L46.93 0 L49.07 0 L51.2 0 L53.33 0 L55.47 0 L57.6 0 L59.73 0 L61.87 0 L64 0 L64 14 L0 14 Z" fill="var(--cf-spark-bg)" stroke="none"/><path d="M0 14 L2.13 14 L4.27 14 L6.4 14 L8.53 14 L10.67 0 L12.8 0 L14.93 0 L17.07 0 L19.2 0 L21.33 0 L23.47 0 L25.6 0 L27.73 0 L29.87 0 L32 0 L34.13 0 L36.27 0 L38.4 0 L40.53 0 L42.67 0 L44.8 0 L46.93 0 L49.07 0 L51.2 0 L53.33 0 L55.47 0 L57.6 0 L59.73 0 L61.87 0 L64 0" fill="none" stroke="var(--cf-spark)" stroke-width="1.4" stroke-linecap="round" stroke-linejoin="round"/></svg></g></g><a href="https://github.com/braedonsaunders/codeflow" target="_blank"><text x="702" y="130" text-anchor="end" font-size="9" fill="var(--cf-text-faint)">powered by <tspan font-weight="600" fill="var(--cf-accent)">codeflow</tspan></text></a></svg>