<svg xmlns="http://www.w3.org/2000/svg" width="720" height="140" viewBox="0 0 720 140" font-family="-apple-system,BlinkMacSystemFont,Segoe UI,Helvetica,Arial,sans-serif"><style>svg{--cf-bg:#0d1117;--cf-bg-alt:#161b22;--cf-border:#21262d;--cf-text:#e6edf3;--cf-text-dim:#8b949e;--cf-text-faint:#6e7681;--cf-accent:#5eead4;--cf-accent-soft:rgba(94,234,212,0.16);--cf-green:#3fb950;--cf-amber:#d29922;--cf-red:#f85149;--cf-spark:#5eead4;--cf-spark-bg:rgba(94,234,212,0.18)}@media (prefers-color-scheme: light){svg{--cf-bg:#ffffff;--cf-bg-alt:#f6f8fa;--cf-border:#d0d7de;--cf-text:#1f2328;--cf-text-dim:#656d76;--cf-text-faint:#8c959f;--cf-accent:#0d9488;--cf-accent-soft:rgba(13,148,136,0.12);--cf-green:#1a7f37;--cf-amber:#9a6700;--cf-red:#cf222e;--cf-spark:#0d9488;--cf-spark-bg:rgba(13,148,136,0.12)}}</style><rect width="720" height="140" rx="12" fill="var(--cf-bg)" stroke="var(--cf-border)"/><text x="18" y="26" font-size="13" font-weight="600" fill="var(--cf-text)">braedonsaunders/homerun</text><text x="702" y="26" text-anchor="end" font-size="10" fill="var(--cf-text-faint)" font-family="ui-monospace,SFMono-Regular,Menlo,monospace">@48910c1</text><g transform="translate(18,46)"><text x="0" y="0" font-size="9" font-weight="600" fill="var(--cf-text-dim)" letter-spacing="0.8">FILES</text><text x="0" y="28" font-size="22" font-weight="700" fill="var(--cf-text)">855</text><g transform="translate(0,40)"><svg width="64" height="14" viewBox="0 0 64 14" preserveAspectRatio="none"><path d="M0 14 L2.29 14 L4.57 14 L6.86 14 L9.14 14 L11.43 12.13 L13.71 12.13 L16 12.13 L18.29 11.95 L20.57 11.95 L22.86 11.95 L25.14 11.95 L27.43 2.8 L29.71 2.43 L32 2.43 L34.29 2.43 L36.57 2.43 L38.86 2.43 L41.14 2.24 L43.43 2.24 L45.71 2.24 L48 0.37 L50.29 0.37 L52.57 0.37 L54.86 0.37 L57.14 0.19 L59.43 0 L61.71 0 L64 0 L64 14 L0 14 Z" fill="var(--cf-spark-bg)" stroke="none"/><path d="M0 14 L2.29 14 L4.57 14 L6.86 14 L9.14 14 L11.43 12.13 L13.71 12.13 L16 12.13 L18.29 11.95 L20.57 11.95 L22.86 11.95 L25.14 11.95 L27.43 2.8 L29.71 2.43 L32 2.43 L34.29 2.43 L36.57 2.43 L38.86 2.43 L41.14 2.24 L43.43 2.24 L45.71 2.24 L48 0.37 L50.29 0.37 L52.57 0.37 L54.86 0.37 L57.14 0.19 L59.43 0 L61.71 0 L64 0" fill="none" stroke="var(--cf-spark)" stroke-width="1.4" stroke-linecap="round" stroke-linejoin="round"/></svg></g></g><g transform="translate(154.8,46)"><text x="0" y="0" font-size="9" font-weight="600" fill="var(--cf-text-dim)" letter-spacing="0.8">FNS</text><text x="0" y="28" font-size="22" font-weight="700" fill="var(--cf-text)">12.5K</text><g transform="translate(0,40)"><svg width="64" height="14" viewBox="0 0 64 14" preserveAspectRatio="none"><path d="M0 14 L2.29 14 L4.57 14 L6.86 14 L9.14 14 L11.43 12.33 L13.71 12.33 L16 12.33 L18.29 12.23 L20.57 12.18 L22.86 12.16 L25.14 12.16 L27.43 1.57 L29.71 1.04 L32 1.02 L34.29 1 L36.57 1 L38.86 1 L41.14 0.73 L43.43 0.73 L45.71 0.72 L48 0.06 L50.29 0.05 L52.57 0.05 L54.86 0.05 L57.14 0.02 L59.43 0 L61.71 0 L64 0 L64 14 L0 14 Z" fill="var(--cf-spark-bg)" stroke="none"/><path d="M0 14 L2.29 14 L4.57 14 L6.86 14 L9.14 14 L11.43 12.33 L13.71 12.33 L16 12.33 L18.29 12.23 L20.57 12.18 L22.86 12.16 L25.14 12.16 L27.43 1.57 L29.71 1.04 L32 1.02 L34.29 1 L36.57 1 L38.86 1 L41.14 0.73 L43.43 0.73 L45.71 0.72 L48 0.06 L50.29 0.05 L52.57 0.05 L54.86 0.05 L57.14 0.02 L59.43 0 L61.71 0 L64 0" fill="none" stroke="var(--cf-spark)" stroke-width="1.4" stroke-linecap="round" stroke-linejoin="round"/></svg></g></g><g transform="translate(291.6,46)"><text x="0" y="0" font-size="9" font-weight="600" fill="var(--cf-text-dim)" letter-spacing="0.8">LOC</text><text x="0" y="28" font-size="22" font-weight="700" fill="var(--cf-text)">467.9K</text><g transform="translate(0,40)"><svg width="64" height="14" viewBox="0 0 64 14" preserveAspectRatio="none"><path d="M0 13.91 L2.29 13.99 L4.57 14 L6.86 14 L9.14 14 L11.43 8.74 L13.71 8.73 L16 8.72 L18.29 8.48 L20.57 9.14 L22.86 9.07 L25.14 9.08 L27.43 6.46 L29.71 3.82 L32 3.79 L34.29 3.67 L36.57 3.66 L38.86 3.65 L41.14 2.81 L43.43 3.32 L45.71 3.31 L48 0.23 L50.29 0.21 L52.57 0.18 L54.86 0.15 L57.14 0.1 L59.43 0.05 L61.71 0.03 L64 0 L64 14 L0 14 Z" fill="var(--cf-spark-bg)" stroke="none"/><path d="M0 13.91 L2.29 13.99 L4.57 14 L6.86 14 L9.14 14 L11.43 8.74 L13.71 8.73 L16 8.72 L18.29 8.48 L20.57 9.14 L22.86 9.07 L25.14 9.08 L27.43 6.46 L29.71 3.82 L32 3.79 L34.29 3.67 L36.57 3.66 L38.86 3.65 L41.14 2.81 L43.43 3.32 L45.71 3.31 L48 0.23 L50.29 0.21 L52.57 0.18 L54.86 0.15 L57.14 0.1 L59.43 0.05 L61.71 0.03 L64 0" fill="none" stroke="var(--cf-spark)" stroke-width="1.4" stroke-linecap="round" stroke-linejoin="round"/></svg></g></g><g transform="translate(428.40000000000003,46)"><text x="0" y="0" font-size="9" font-weight="600" fill="var(--cf-text-dim)" letter-spacing="0.8">LANGS</text><text x="0" y="28" font-size="22" font-weight="700" fill="var(--cf-text)">19</text><g transform="translate(0,40)"><svg width="64" height="14" viewBox="0 0 64 14" preserveAspectRatio="none"><path d="M0 7 L2.29 7 L4.57 7 L6.86 7 L9.14 7 L11.43 7 L13.71 7 L16 7 L18.29 7 L20.57 7 L22.86 7 L25.14 7 L27.43 7 L29.71 7 L32 7 L34.29 7 L36.57 7 L38.86 7 L41.14 7 L43.43 7 L45.71 7 L48 7 L50.29 7 L52.57 7 L54.86 7 L57.14 7 L59.43 7 L61.71 7 L64 7 L64 14 L0 14 Z" fill="var(--cf-spark-bg)" stroke="none"/><path d="M0 7 L2.29 7 L4.57 7 L6.86 7 L9.14 7 L11.43 7 L13.71 7 L16 7 L18.29 7 L20.57 7 L22.86 7 L25.14 7 L27.43 7 L29.71 7 L32 7 L34.29 7 L36.57 7 L38.86 7 L41.14 7 L43.43 7 L45.71 7 L48 7 L50.29 7 L52.57 7 L54.86 7 L57.14 7 L59.43 7 L61.71 7 L64 7" fill="none" stroke="var(--cf-spark)" stroke-width="1.4" stroke-linecap="round" stroke-linejoin="round"/></svg></g></g><g transform="translate(565.2,46)"><text x="0" y="0" font-size="9" font-weight="600" fill="var(--cf-text-dim)" letter-spacing="0.8">TESTS</text><text x="0" y="28" font-size="22" font-weight="700" fill="var(--cf-text)">186</text><g transform="translate(0,40)"><svg width="64" height="14" viewBox="0 0 64 14" preserveAspectRatio="none"><path d="M0 14 L2.29 14 L4.57 14 L6.86 14 L9.14 14 L11.43 11.67 L13.71 11.67 L16 11.67 L18.29 11.67 L20.57 11.67 L22.86 11.67 L25.14 11.67 L27.43 0 L29.71 0 L32 0 L34.29 0 L36.57 0 L38.86 0 L41.14 0 L43.43 0 L45.71 0 L48 0 L50.29 0 L52.57 0 L54.86 0 L57.14 0 L59.43 0 L61.71 0 L64 0 L64 14 L0 14 Z" fill="var(--cf-spark-bg)" stroke="none"/><path d="M0 14 L2.29 14 L4.57 14 L6.86 14 L9.14 14 L11.43 11.67 L13.71 11.67 L16 11.67 L18.29 11.67 L20.57 11.67 L22.86 11.67 L25.14 11.67 L27.43 0 L29.71 0 L32 0 L34.29 0 L36.57 0 L38.86 0 L41.14 0 L43.43 0 L45.71 0 L48 0 L50.29 0 L52.57 0 L54.86 0 L57.14 0 L59.43 0 L61.71 0 L64 0" fill="none" stroke="var(--cf-spark)" stroke-width="1.4" stroke-linecap="round" stroke-linejoin="round"/></svg></g></g><a href="https://github.com/braedonsaunders/codeflow" target="_blank"><text x="702" y="130" text-anchor="end" font-size="9" fill="var(--cf-text-faint)">powered by <tspan font-weight="600" fill="var(--cf-accent)">codeflow</tspan></text></a></svg>