<svg xmlns="http://www.w3.org/2000/svg" width="720" height="140" viewBox="0 0 720 140" font-family="-apple-system,BlinkMacSystemFont,Segoe UI,Helvetica,Arial,sans-serif"><style>svg{--cf-bg:#0d1117;--cf-bg-alt:#161b22;--cf-border:#21262d;--cf-text:#e6edf3;--cf-text-dim:#8b949e;--cf-text-faint:#6e7681;--cf-accent:#5eead4;--cf-accent-soft:rgba(94,234,212,0.16);--cf-green:#3fb950;--cf-amber:#d29922;--cf-red:#f85149;--cf-spark:#5eead4;--cf-spark-bg:rgba(94,234,212,0.18)}@media (prefers-color-scheme: light){svg{--cf-bg:#ffffff;--cf-bg-alt:#f6f8fa;--cf-border:#d0d7de;--cf-text:#1f2328;--cf-text-dim:#656d76;--cf-text-faint:#8c959f;--cf-accent:#0d9488;--cf-accent-soft:rgba(13,148,136,0.12);--cf-green:#1a7f37;--cf-amber:#9a6700;--cf-red:#cf222e;--cf-spark:#0d9488;--cf-spark-bg:rgba(13,148,136,0.12)}}</style><rect width="720" height="140" rx="12" fill="var(--cf-bg)" stroke="var(--cf-border)"/><text x="18" y="26" font-size="13" font-weight="600" fill="var(--cf-text)">braedonsaunders/homerun</text><text x="702" y="26" text-anchor="end" font-size="10" fill="var(--cf-text-faint)" font-family="ui-monospace,SFMono-Regular,Menlo,monospace">@ab61f7b</text><g transform="translate(18,46)"><text x="0" y="0" font-size="9" font-weight="600" fill="var(--cf-text-dim)" letter-spacing="0.8">FILES</text><text x="0" y="28" font-size="22" font-weight="700" fill="var(--cf-text)">907</text><g transform="translate(0,40)"><svg width="64" height="14" viewBox="0 0 64 14" preserveAspectRatio="none"><path d="M0 14 L2.13 14 L4.27 14 L6.4 14 L8.53 13.65 L10.67 13.65 L12.8 12.95 L14.93 12.95 L17.07 3.5 L19.2 3.5 L21.33 3.5 L23.47 3.15 L25.6 2.8 L27.73 2.8 L29.87 2.8 L32 2.8 L34.13 2.8 L36.27 2.8 L38.4 2.8 L40.53 2.45 L42.67 2.45 L44.8 1.75 L46.93 1.75 L49.07 1.75 L51.2 1.4 L53.33 0 L55.47 0 L57.6 0 L59.73 0 L61.87 0 L64 0 L64 14 L0 14 Z" fill="var(--cf-spark-bg)" stroke="none"/><path d="M0 14 L2.13 14 L4.27 14 L6.4 14 L8.53 13.65 L10.67 13.65 L12.8 12.95 L14.93 12.95 L17.07 3.5 L19.2 3.5 L21.33 3.5 L23.47 3.15 L25.6 2.8 L27.73 2.8 L29.87 2.8 L32 2.8 L34.13 2.8 L36.27 2.8 L38.4 2.8 L40.53 2.45 L42.67 2.45 L44.8 1.75 L46.93 1.75 L49.07 1.75 L51.2 1.4 L53.33 0 L55.47 0 L57.6 0 L59.73 0 L61.87 0 L64 0" fill="none" stroke="var(--cf-spark)" stroke-width="1.4" stroke-linecap="round" stroke-linejoin="round"/></svg></g></g><g transform="translate(154.8,46)"><text x="0" y="0" font-size="9" font-weight="600" fill="var(--cf-text-dim)" letter-spacing="0.8">FNS</text><text x="0" y="28" font-size="22" font-weight="700" fill="var(--cf-text)">13.2K</text><g transform="translate(0,40)"><svg width="64" height="14" viewBox="0 0 64 14" preserveAspectRatio="none"><path d="M0 14 L2.13 14 L4.27 13.98 L6.4 13.98 L8.53 13.89 L10.67 13.89 L12.8 13.25 L14.93 12.98 L17.07 4.9 L19.2 4.79 L21.33 4.77 L23.47 4.77 L25.6 4.7 L27.73 4.7 L29.87 4.7 L32 4.68 L34.13 4.66 L36.27 4.57 L38.4 4.53 L40.53 4.35 L42.67 4.15 L44.8 2.47 L46.93 1.92 L49.07 1.72 L51.2 0.75 L53.33 0.2 L55.47 0.2 L57.6 0.2 L59.73 0.07 L61.87 0 L64 0 L64 14 L0 14 Z" fill="var(--cf-spark-bg)" stroke="none"/><path d="M0 14 L2.13 14 L4.27 13.98 L6.4 13.98 L8.53 13.89 L10.67 13.89 L12.8 13.25 L14.93 12.98 L17.07 4.9 L19.2 4.79 L21.33 4.77 L23.47 4.77 L25.6 4.7 L27.73 4.7 L29.87 4.7 L32 4.68 L34.13 4.66 L36.27 4.57 L38.4 4.53 L40.53 4.35 L42.67 4.15 L44.8 2.47 L46.93 1.92 L49.07 1.72 L51.2 0.75 L53.33 0.2 L55.47 0.2 L57.6 0.2 L59.73 0.07 L61.87 0 L64 0" fill="none" stroke="var(--cf-spark)" stroke-width="1.4" stroke-linecap="round" stroke-linejoin="round"/></svg></g></g><g transform="translate(291.6,46)"><text x="0" y="0" font-size="9" font-weight="600" fill="var(--cf-text-dim)" letter-spacing="0.8">LOC</text><text x="0" y="28" font-size="22" font-weight="700" fill="var(--cf-text)">500.8K</text><g transform="translate(0,40)"><svg width="64" height="14" viewBox="0 0 64 14" preserveAspectRatio="none"><path d="M0 14 L2.13 13.98 L4.27 13.82 L6.4 13.76 L8.53 13.57 L10.67 13.57 L12.8 12.92 L14.93 12.36 L17.07 4.8 L19.2 4.51 L21.33 4.51 L23.47 4.45 L25.6 4.32 L27.73 4.31 L29.87 4.31 L32 4.23 L34.13 4.19 L36.27 4.09 L38.4 4.06 L40.53 3.87 L42.67 3.56 L44.8 2.83 L46.93 2.68 L49.07 2.5 L51.2 1.36 L53.33 0.38 L55.47 0.37 L57.6 0.36 L59.73 0.07 L61.87 0.01 L64 0 L64 14 L0 14 Z" fill="var(--cf-spark-bg)" stroke="none"/><path d="M0 14 L2.13 13.98 L4.27 13.82 L6.4 13.76 L8.53 13.57 L10.67 13.57 L12.8 12.92 L14.93 12.36 L17.07 4.8 L19.2 4.51 L21.33 4.51 L23.47 4.45 L25.6 4.32 L27.73 4.31 L29.87 4.31 L32 4.23 L34.13 4.19 L36.27 4.09 L38.4 4.06 L40.53 3.87 L42.67 3.56 L44.8 2.83 L46.93 2.68 L49.07 2.5 L51.2 1.36 L53.33 0.38 L55.47 0.37 L57.6 0.36 L59.73 0.07 L61.87 0.01 L64 0" fill="none" stroke="var(--cf-spark)" stroke-width="1.4" stroke-linecap="round" stroke-linejoin="round"/></svg></g></g><g transform="translate(428.40000000000003,46)"><text x="0" y="0" font-size="9" font-weight="600" fill="var(--cf-text-dim)" letter-spacing="0.8">LANGS</text><text x="0" y="28" font-size="22" font-weight="700" fill="var(--cf-text)">22</text><g transform="translate(0,40)"><svg width="64" height="14" viewBox="0 0 64 14" preserveAspectRatio="none"><path d="M0 7 L2.13 7 L4.27 7 L6.4 7 L8.53 7 L10.67 7 L12.8 7 L14.93 7 L17.07 7 L19.2 7 L21.33 7 L23.47 7 L25.6 7 L27.73 7 L29.87 7 L32 7 L34.13 7 L36.27 7 L38.4 7 L40.53 7 L42.67 7 L44.8 7 L46.93 7 L49.07 7 L51.2 7 L53.33 7 L55.47 7 L57.6 7 L59.73 7 L61.87 7 L64 7 L64 14 L0 14 Z" fill="var(--cf-spark-bg)" stroke="none"/><path d="M0 7 L2.13 7 L4.27 7 L6.4 7 L8.53 7 L10.67 7 L12.8 7 L14.93 7 L17.07 7 L19.2 7 L21.33 7 L23.47 7 L25.6 7 L27.73 7 L29.87 7 L32 7 L34.13 7 L36.27 7 L38.4 7 L40.53 7 L42.67 7 L44.8 7 L46.93 7 L49.07 7 L51.2 7 L53.33 7 L55.47 7 L57.6 7 L59.73 7 L61.87 7 L64 7" fill="none" stroke="var(--cf-spark)" stroke-width="1.4" stroke-linecap="round" stroke-linejoin="round"/></svg></g></g><g transform="translate(565.2,46)"><text x="0" y="0" font-size="9" font-weight="600" fill="var(--cf-text-dim)" letter-spacing="0.8">TESTS</text><text x="0" y="28" font-size="22" font-weight="700" fill="var(--cf-text)">190</text><g transform="translate(0,40)"><svg width="64" height="14" viewBox="0 0 64 14" preserveAspectRatio="none"><path d="M0 14 L2.13 14 L4.27 14 L6.4 14 L8.53 14 L10.67 14 L12.8 14 L14.93 14 L17.07 14 L19.2 14 L21.33 14 L23.47 14 L25.6 14 L27.73 14 L29.87 14 L32 14 L34.13 14 L36.27 14 L38.4 14 L40.53 14 L42.67 14 L44.8 9.33 L46.93 9.33 L49.07 9.33 L51.2 0 L53.33 0 L55.47 0 L57.6 0 L59.73 0 L61.87 0 L64 0 L64 14 L0 14 Z" fill="var(--cf-spark-bg)" stroke="none"/><path d="M0 14 L2.13 14 L4.27 14 L6.4 14 L8.53 14 L10.67 14 L12.8 14 L14.93 14 L17.07 14 L19.2 14 L21.33 14 L23.47 14 L25.6 14 L27.73 14 L29.87 14 L32 14 L34.13 14 L36.27 14 L38.4 14 L40.53 14 L42.67 14 L44.8 9.33 L46.93 9.33 L49.07 9.33 L51.2 0 L53.33 0 L55.47 0 L57.6 0 L59.73 0 L61.87 0 L64 0" fill="none" stroke="var(--cf-spark)" stroke-width="1.4" stroke-linecap="round" stroke-linejoin="round"/></svg></g></g><a href="https://github.com/braedonsaunders/codeflow" target="_blank"><text x="702" y="130" text-anchor="end" font-size="9" fill="var(--cf-text-faint)">powered by <tspan font-weight="600" fill="var(--cf-accent)">codeflow</tspan></text></a></svg>