<svg xmlns="http://www.w3.org/2000/svg" width="720" height="140" viewBox="0 0 720 140" font-family="-apple-system,BlinkMacSystemFont,Segoe UI,Helvetica,Arial,sans-serif"><style>svg{--cf-bg:#0d1117;--cf-bg-alt:#161b22;--cf-border:#21262d;--cf-text:#e6edf3;--cf-text-dim:#8b949e;--cf-text-faint:#6e7681;--cf-accent:#5eead4;--cf-accent-soft:rgba(94,234,212,0.16);--cf-green:#3fb950;--cf-amber:#d29922;--cf-red:#f85149;--cf-spark:#5eead4;--cf-spark-bg:rgba(94,234,212,0.18)}@media (prefers-color-scheme: light){svg{--cf-bg:#ffffff;--cf-bg-alt:#f6f8fa;--cf-border:#d0d7de;--cf-text:#1f2328;--cf-text-dim:#656d76;--cf-text-faint:#8c959f;--cf-accent:#0d9488;--cf-accent-soft:rgba(13,148,136,0.12);--cf-green:#1a7f37;--cf-amber:#9a6700;--cf-red:#cf222e;--cf-spark:#0d9488;--cf-spark-bg:rgba(13,148,136,0.12)}}</style><rect width="720" height="140" rx="12" fill="var(--cf-bg)" stroke="var(--cf-border)"/><text x="18" y="26" font-size="13" font-weight="600" fill="var(--cf-text)">braedonsaunders/homerun</text><text x="702" y="26" text-anchor="end" font-size="10" fill="var(--cf-text-faint)" font-family="ui-monospace,SFMono-Regular,Menlo,monospace">@656797f</text><g transform="translate(18,46)"><text x="0" y="0" font-size="9" font-weight="600" fill="var(--cf-text-dim)" letter-spacing="0.8">FILES</text><text x="0" y="28" font-size="22" font-weight="700" fill="var(--cf-text)">1.1K</text><g transform="translate(0,40)"><svg width="64" height="14" viewBox="0 0 64 14" preserveAspectRatio="none"><path d="M0 14 L2.13 14 L4.27 14 L6.4 13.47 L8.53 13.21 L10.67 13.21 L12.8 13.21 L14.93 12.94 L17.07 12.94 L19.2 12.68 L21.33 12.68 L23.47 12.68 L25.6 11.36 L27.73 10.83 L29.87 10.3 L32 10.3 L34.13 10.04 L36.27 11.89 L38.4 11.89 L40.53 11.89 L42.67 11.89 L44.8 11.89 L46.93 11.62 L49.07 11.62 L51.2 8.98 L53.33 8.98 L55.47 8.98 L57.6 8.98 L59.73 8.45 L61.87 0 L64 0 L64 14 L0 14 Z" fill="var(--cf-spark-bg)" stroke="none"/><path d="M0 14 L2.13 14 L4.27 14 L6.4 13.47 L8.53 13.21 L10.67 13.21 L12.8 13.21 L14.93 12.94 L17.07 12.94 L19.2 12.68 L21.33 12.68 L23.47 12.68 L25.6 11.36 L27.73 10.83 L29.87 10.3 L32 10.3 L34.13 10.04 L36.27 11.89 L38.4 11.89 L40.53 11.89 L42.67 11.89 L44.8 11.89 L46.93 11.62 L49.07 11.62 L51.2 8.98 L53.33 8.98 L55.47 8.98 L57.6 8.98 L59.73 8.45 L61.87 0 L64 0" fill="none" stroke="var(--cf-spark)" stroke-width="1.4" stroke-linecap="round" stroke-linejoin="round"/></svg></g></g><g transform="translate(154.8,46)"><text x="0" y="0" font-size="9" font-weight="600" fill="var(--cf-text-dim)" letter-spacing="0.8">FNS</text><text x="0" y="28" font-size="22" font-weight="700" fill="var(--cf-text)">15.2K</text><g transform="translate(0,40)"><svg width="64" height="14" viewBox="0 0 64 14" preserveAspectRatio="none"><path d="M0 14 L2.13 13.89 L4.27 13.89 L6.4 13.31 L8.53 13.25 L10.67 13.25 L12.8 13.25 L14.93 12.94 L17.07 12.67 L19.2 12.62 L21.33 12.59 L23.47 12.56 L25.6 10.7 L27.73 9.56 L29.87 8.73 L32 8.73 L34.13 8.2 L36.27 8.6 L38.4 8.6 L40.53 8.6 L42.67 8.6 L44.8 8.57 L46.93 8.28 L49.07 8.28 L51.2 5.19 L53.33 5.19 L55.47 5.32 L57.6 5.32 L59.73 4.55 L61.87 0.05 L64 0 L64 14 L0 14 Z" fill="var(--cf-spark-bg)" stroke="none"/><path d="M0 14 L2.13 13.89 L4.27 13.89 L6.4 13.31 L8.53 13.25 L10.67 13.25 L12.8 13.25 L14.93 12.94 L17.07 12.67 L19.2 12.62 L21.33 12.59 L23.47 12.56 L25.6 10.7 L27.73 9.56 L29.87 8.73 L32 8.73 L34.13 8.2 L36.27 8.6 L38.4 8.6 L40.53 8.6 L42.67 8.6 L44.8 8.57 L46.93 8.28 L49.07 8.28 L51.2 5.19 L53.33 5.19 L55.47 5.32 L57.6 5.32 L59.73 4.55 L61.87 0.05 L64 0" fill="none" stroke="var(--cf-spark)" stroke-width="1.4" stroke-linecap="round" stroke-linejoin="round"/></svg></g></g><g transform="translate(291.6,46)"><text x="0" y="0" font-size="9" font-weight="600" fill="var(--cf-text-dim)" letter-spacing="0.8">LOC</text><text x="0" y="28" font-size="22" font-weight="700" fill="var(--cf-text)">607.7K</text><g transform="translate(0,40)"><svg width="64" height="14" viewBox="0 0 64 14" preserveAspectRatio="none"><path d="M0 13.95 L2.13 14 L4.27 13.97 L6.4 13.18 L8.53 13.06 L10.67 13.05 L12.8 13.05 L14.93 12.74 L17.07 12.44 L19.2 12.33 L21.33 12.22 L23.47 12.18 L25.6 9.72 L27.73 7.79 L29.87 7.05 L32 7.03 L34.13 6.4 L36.27 9.42 L38.4 9.39 L40.53 9.37 L42.67 9.39 L44.8 9.15 L46.93 8.43 L49.07 8.4 L51.2 4.26 L53.33 4.23 L55.47 4.27 L57.6 4.22 L59.73 3.26 L61.87 0.01 L64 0 L64 14 L0 14 Z" fill="var(--cf-spark-bg)" stroke="none"/><path d="M0 13.95 L2.13 14 L4.27 13.97 L6.4 13.18 L8.53 13.06 L10.67 13.05 L12.8 13.05 L14.93 12.74 L17.07 12.44 L19.2 12.33 L21.33 12.22 L23.47 12.18 L25.6 9.72 L27.73 7.79 L29.87 7.05 L32 7.03 L34.13 6.4 L36.27 9.42 L38.4 9.39 L40.53 9.37 L42.67 9.39 L44.8 9.15 L46.93 8.43 L49.07 8.4 L51.2 4.26 L53.33 4.23 L55.47 4.27 L57.6 4.22 L59.73 3.26 L61.87 0.01 L64 0" fill="none" stroke="var(--cf-spark)" stroke-width="1.4" stroke-linecap="round" stroke-linejoin="round"/></svg></g></g><g transform="translate(428.40000000000003,46)"><text x="0" y="0" font-size="9" font-weight="600" fill="var(--cf-text-dim)" letter-spacing="0.8">LANGS</text><text x="0" y="28" font-size="22" font-weight="700" fill="var(--cf-text)">22</text><g transform="translate(0,40)"><svg width="64" height="14" viewBox="0 0 64 14" preserveAspectRatio="none"><path d="M0 7 L2.13 7 L4.27 7 L6.4 7 L8.53 7 L10.67 7 L12.8 7 L14.93 7 L17.07 7 L19.2 7 L21.33 7 L23.47 7 L25.6 7 L27.73 7 L29.87 7 L32 7 L34.13 7 L36.27 7 L38.4 7 L40.53 7 L42.67 7 L44.8 7 L46.93 7 L49.07 7 L51.2 7 L53.33 7 L55.47 7 L57.6 7 L59.73 7 L61.87 7 L64 7 L64 14 L0 14 Z" fill="var(--cf-spark-bg)" stroke="none"/><path d="M0 7 L2.13 7 L4.27 7 L6.4 7 L8.53 7 L10.67 7 L12.8 7 L14.93 7 L17.07 7 L19.2 7 L21.33 7 L23.47 7 L25.6 7 L27.73 7 L29.87 7 L32 7 L34.13 7 L36.27 7 L38.4 7 L40.53 7 L42.67 7 L44.8 7 L46.93 7 L49.07 7 L51.2 7 L53.33 7 L55.47 7 L57.6 7 L59.73 7 L61.87 7 L64 7" fill="none" stroke="var(--cf-spark)" stroke-width="1.4" stroke-linecap="round" stroke-linejoin="round"/></svg></g></g><g transform="translate(565.2,46)"><text x="0" y="0" font-size="9" font-weight="600" fill="var(--cf-text-dim)" letter-spacing="0.8">TESTS</text><text x="0" y="28" font-size="22" font-weight="700" fill="var(--cf-text)">244</text><g transform="translate(0,40)"><svg width="64" height="14" viewBox="0 0 64 14" preserveAspectRatio="none"><path d="M0 14 L2.13 14 L4.27 14 L6.4 12.78 L8.53 12.78 L10.67 12.78 L12.8 12.78 L14.93 12.17 L17.07 12.17 L19.2 12.17 L21.33 12.17 L23.47 12.17 L25.6 10.35 L27.73 9.74 L29.87 9.13 L32 9.13 L34.13 8.52 L36.27 8.52 L38.4 8.52 L40.53 8.52 L42.67 8.52 L44.8 8.52 L46.93 8.52 L49.07 8.52 L51.2 8.52 L53.33 8.52 L55.47 8.52 L57.6 8.52 L59.73 7.91 L61.87 0 L64 0 L64 14 L0 14 Z" fill="var(--cf-spark-bg)" stroke="none"/><path d="M0 14 L2.13 14 L4.27 14 L6.4 12.78 L8.53 12.78 L10.67 12.78 L12.8 12.78 L14.93 12.17 L17.07 12.17 L19.2 12.17 L21.33 12.17 L23.47 12.17 L25.6 10.35 L27.73 9.74 L29.87 9.13 L32 9.13 L34.13 8.52 L36.27 8.52 L38.4 8.52 L40.53 8.52 L42.67 8.52 L44.8 8.52 L46.93 8.52 L49.07 8.52 L51.2 8.52 L53.33 8.52 L55.47 8.52 L57.6 8.52 L59.73 7.91 L61.87 0 L64 0" fill="none" stroke="var(--cf-spark)" stroke-width="1.4" stroke-linecap="round" stroke-linejoin="round"/></svg></g></g><a href="https://github.com/braedonsaunders/codeflow" target="_blank"><text x="702" y="130" text-anchor="end" font-size="9" fill="var(--cf-text-faint)">powered by <tspan font-weight="600" fill="var(--cf-accent)">codeflow</tspan></text></a></svg>