<svg xmlns="http://www.w3.org/2000/svg" width="720" height="140" viewBox="0 0 720 140" font-family="-apple-system,BlinkMacSystemFont,Segoe UI,Helvetica,Arial,sans-serif"><style>svg{--cf-bg:#0d1117;--cf-bg-alt:#161b22;--cf-border:#21262d;--cf-text:#e6edf3;--cf-text-dim:#8b949e;--cf-text-faint:#6e7681;--cf-accent:#5eead4;--cf-accent-soft:rgba(94,234,212,0.16);--cf-green:#3fb950;--cf-amber:#d29922;--cf-red:#f85149;--cf-spark:#5eead4;--cf-spark-bg:rgba(94,234,212,0.18)}@media (prefers-color-scheme: light){svg{--cf-bg:#ffffff;--cf-bg-alt:#f6f8fa;--cf-border:#d0d7de;--cf-text:#1f2328;--cf-text-dim:#656d76;--cf-text-faint:#8c959f;--cf-accent:#0d9488;--cf-accent-soft:rgba(13,148,136,0.12);--cf-green:#1a7f37;--cf-amber:#9a6700;--cf-red:#cf222e;--cf-spark:#0d9488;--cf-spark-bg:rgba(13,148,136,0.12)}}</style><rect width="720" height="140" rx="12" fill="var(--cf-bg)" stroke="var(--cf-border)"/><text x="18" y="26" font-size="13" font-weight="600" fill="var(--cf-text)">braedonsaunders/homerun</text><text x="702" y="26" text-anchor="end" font-size="10" fill="var(--cf-text-faint)" font-family="ui-monospace,SFMono-Regular,Menlo,monospace">@cb62d6e</text><g transform="translate(18,46)"><text x="0" y="0" font-size="9" font-weight="600" fill="var(--cf-text-dim)" letter-spacing="0.8">FILES</text><text x="0" y="28" font-size="22" font-weight="700" fill="var(--cf-text)">990</text><g transform="translate(0,40)"><svg width="64" height="14" viewBox="0 0 64 14" preserveAspectRatio="none"><path d="M0 14 L2.13 14 L4.27 14 L6.4 14 L8.53 12.56 L10.67 12.56 L12.8 12.56 L14.93 12.56 L17.07 12.56 L19.2 11.85 L21.33 10.77 L23.47 10.77 L25.6 10.41 L27.73 10.41 L29.87 10.41 L32 10.41 L34.13 10.41 L36.27 10.41 L38.4 10.41 L40.53 10.41 L42.67 1.79 L44.8 1.79 L46.93 1.08 L49.07 0.72 L51.2 0.36 L53.33 0 L55.47 0 L57.6 0 L59.73 0 L61.87 0 L64 0 L64 14 L0 14 Z" fill="var(--cf-spark-bg)" stroke="none"/><path d="M0 14 L2.13 14 L4.27 14 L6.4 14 L8.53 12.56 L10.67 12.56 L12.8 12.56 L14.93 12.56 L17.07 12.56 L19.2 11.85 L21.33 10.77 L23.47 10.77 L25.6 10.41 L27.73 10.41 L29.87 10.41 L32 10.41 L34.13 10.41 L36.27 10.41 L38.4 10.41 L40.53 10.41 L42.67 1.79 L44.8 1.79 L46.93 1.08 L49.07 0.72 L51.2 0.36 L53.33 0 L55.47 0 L57.6 0 L59.73 0 L61.87 0 L64 0" fill="none" stroke="var(--cf-spark)" stroke-width="1.4" stroke-linecap="round" stroke-linejoin="round"/></svg></g></g><g transform="translate(154.8,46)"><text x="0" y="0" font-size="9" font-weight="600" fill="var(--cf-text-dim)" letter-spacing="0.8">FNS</text><text x="0" y="28" font-size="22" font-weight="700" fill="var(--cf-text)">14.3K</text><g transform="translate(0,40)"><svg width="64" height="14" viewBox="0 0 64 14" preserveAspectRatio="none"><path d="M0 14 L2.13 14 L4.27 14 L6.4 14 L8.53 11.95 L10.67 11.95 L12.8 11.95 L14.93 11.78 L17.07 11.78 L19.2 10.85 L21.33 9.21 L23.47 9.21 L25.6 8.98 L27.73 8.98 L29.87 8.98 L32 8.98 L34.13 8.95 L36.27 8.95 L38.4 8.75 L40.53 8.75 L42.67 1.82 L44.8 1.82 L46.93 1.36 L49.07 1.21 L51.2 0.95 L53.33 0.61 L55.47 0.55 L57.6 0.38 L59.73 0.32 L61.87 0.03 L64 0 L64 14 L0 14 Z" fill="var(--cf-spark-bg)" stroke="none"/><path d="M0 14 L2.13 14 L4.27 14 L6.4 14 L8.53 11.95 L10.67 11.95 L12.8 11.95 L14.93 11.78 L17.07 11.78 L19.2 10.85 L21.33 9.21 L23.47 9.21 L25.6 8.98 L27.73 8.98 L29.87 8.98 L32 8.98 L34.13 8.95 L36.27 8.95 L38.4 8.75 L40.53 8.75 L42.67 1.82 L44.8 1.82 L46.93 1.36 L49.07 1.21 L51.2 0.95 L53.33 0.61 L55.47 0.55 L57.6 0.38 L59.73 0.32 L61.87 0.03 L64 0" fill="none" stroke="var(--cf-spark)" stroke-width="1.4" stroke-linecap="round" stroke-linejoin="round"/></svg></g></g><g transform="translate(291.6,46)"><text x="0" y="0" font-size="9" font-weight="600" fill="var(--cf-text-dim)" letter-spacing="0.8">LOC</text><text x="0" y="28" font-size="22" font-weight="700" fill="var(--cf-text)">588.8K</text><g transform="translate(0,40)"><svg width="64" height="14" viewBox="0 0 64 14" preserveAspectRatio="none"><path d="M0 14 L2.13 13.97 L4.27 13.98 L6.4 13.97 L8.53 11.96 L10.67 11.8 L12.8 11.77 L14.93 11.7 L17.07 11.7 L19.2 10.93 L21.33 9.22 L23.47 9.2 L25.6 9 L27.73 8.93 L29.87 8.82 L32 8.81 L34.13 8.63 L36.27 8.6 L38.4 8.21 L40.53 8.27 L42.67 1.34 L44.8 1.34 L46.93 0.95 L49.07 0.69 L51.2 0.61 L53.33 0.42 L55.47 0.36 L57.6 0.16 L59.73 0.11 L61.87 0.03 L64 0 L64 14 L0 14 Z" fill="var(--cf-spark-bg)" stroke="none"/><path d="M0 14 L2.13 13.97 L4.27 13.98 L6.4 13.97 L8.53 11.96 L10.67 11.8 L12.8 11.77 L14.93 11.7 L17.07 11.7 L19.2 10.93 L21.33 9.22 L23.47 9.2 L25.6 9 L27.73 8.93 L29.87 8.82 L32 8.81 L34.13 8.63 L36.27 8.6 L38.4 8.21 L40.53 8.27 L42.67 1.34 L44.8 1.34 L46.93 0.95 L49.07 0.69 L51.2 0.61 L53.33 0.42 L55.47 0.36 L57.6 0.16 L59.73 0.11 L61.87 0.03 L64 0" fill="none" stroke="var(--cf-spark)" stroke-width="1.4" stroke-linecap="round" stroke-linejoin="round"/></svg></g></g><g transform="translate(428.40000000000003,46)"><text x="0" y="0" font-size="9" font-weight="600" fill="var(--cf-text-dim)" letter-spacing="0.8">LANGS</text><text x="0" y="28" font-size="22" font-weight="700" fill="var(--cf-text)">22</text><g transform="translate(0,40)"><svg width="64" height="14" viewBox="0 0 64 14" preserveAspectRatio="none"><path d="M0 7 L2.13 7 L4.27 7 L6.4 7 L8.53 7 L10.67 7 L12.8 7 L14.93 7 L17.07 7 L19.2 7 L21.33 7 L23.47 7 L25.6 7 L27.73 7 L29.87 7 L32 7 L34.13 7 L36.27 7 L38.4 7 L40.53 7 L42.67 7 L44.8 7 L46.93 7 L49.07 7 L51.2 7 L53.33 7 L55.47 7 L57.6 7 L59.73 7 L61.87 7 L64 7 L64 14 L0 14 Z" fill="var(--cf-spark-bg)" stroke="none"/><path d="M0 7 L2.13 7 L4.27 7 L6.4 7 L8.53 7 L10.67 7 L12.8 7 L14.93 7 L17.07 7 L19.2 7 L21.33 7 L23.47 7 L25.6 7 L27.73 7 L29.87 7 L32 7 L34.13 7 L36.27 7 L38.4 7 L40.53 7 L42.67 7 L44.8 7 L46.93 7 L49.07 7 L51.2 7 L53.33 7 L55.47 7 L57.6 7 L59.73 7 L61.87 7 L64 7" fill="none" stroke="var(--cf-spark)" stroke-width="1.4" stroke-linecap="round" stroke-linejoin="round"/></svg></g></g><g transform="translate(565.2,46)"><text x="0" y="0" font-size="9" font-weight="600" fill="var(--cf-text-dim)" letter-spacing="0.8">TESTS</text><text x="0" y="28" font-size="22" font-weight="700" fill="var(--cf-text)">210</text><g transform="translate(0,40)"><svg width="64" height="14" viewBox="0 0 64 14" preserveAspectRatio="none"><path d="M0 14 L2.13 14 L4.27 14 L6.4 14 L8.53 10.89 L10.67 10.89 L12.8 10.89 L14.93 10.89 L17.07 10.89 L19.2 10.89 L21.33 10.89 L23.47 10.89 L25.6 10.89 L27.73 10.89 L29.87 10.89 L32 10.89 L34.13 10.89 L36.27 10.89 L38.4 10.89 L40.53 10.89 L42.67 4.67 L44.8 4.67 L46.93 3.11 L49.07 3.11 L51.2 1.56 L53.33 0 L55.47 0 L57.6 0 L59.73 0 L61.87 0 L64 0 L64 14 L0 14 Z" fill="var(--cf-spark-bg)" stroke="none"/><path d="M0 14 L2.13 14 L4.27 14 L6.4 14 L8.53 10.89 L10.67 10.89 L12.8 10.89 L14.93 10.89 L17.07 10.89 L19.2 10.89 L21.33 10.89 L23.47 10.89 L25.6 10.89 L27.73 10.89 L29.87 10.89 L32 10.89 L34.13 10.89 L36.27 10.89 L38.4 10.89 L40.53 10.89 L42.67 4.67 L44.8 4.67 L46.93 3.11 L49.07 3.11 L51.2 1.56 L53.33 0 L55.47 0 L57.6 0 L59.73 0 L61.87 0 L64 0" fill="none" stroke="var(--cf-spark)" stroke-width="1.4" stroke-linecap="round" stroke-linejoin="round"/></svg></g></g><a href="https://github.com/braedonsaunders/codeflow" target="_blank"><text x="702" y="130" text-anchor="end" font-size="9" fill="var(--cf-text-faint)">powered by <tspan font-weight="600" fill="var(--cf-accent)">codeflow</tspan></text></a></svg>