<svg xmlns="http://www.w3.org/2000/svg" width="720" height="140" viewBox="0 0 720 140" font-family="-apple-system,BlinkMacSystemFont,Segoe UI,Helvetica,Arial,sans-serif"><style>svg{--cf-bg:#0d1117;--cf-bg-alt:#161b22;--cf-border:#21262d;--cf-text:#e6edf3;--cf-text-dim:#8b949e;--cf-text-faint:#6e7681;--cf-accent:#5eead4;--cf-accent-soft:rgba(94,234,212,0.16);--cf-green:#3fb950;--cf-amber:#d29922;--cf-red:#f85149;--cf-spark:#5eead4;--cf-spark-bg:rgba(94,234,212,0.18)}@media (prefers-color-scheme: light){svg{--cf-bg:#ffffff;--cf-bg-alt:#f6f8fa;--cf-border:#d0d7de;--cf-text:#1f2328;--cf-text-dim:#656d76;--cf-text-faint:#8c959f;--cf-accent:#0d9488;--cf-accent-soft:rgba(13,148,136,0.12);--cf-green:#1a7f37;--cf-amber:#9a6700;--cf-red:#cf222e;--cf-spark:#0d9488;--cf-spark-bg:rgba(13,148,136,0.12)}}</style><rect width="720" height="140" rx="12" fill="var(--cf-bg)" stroke="var(--cf-border)"/><text x="18" y="26" font-size="13" font-weight="600" fill="var(--cf-text)">braedonsaunders/homerun</text><text x="702" y="26" text-anchor="end" font-size="10" fill="var(--cf-text-faint)" font-family="ui-monospace,SFMono-Regular,Menlo,monospace">@48694ab</text><g transform="translate(18,46)"><text x="0" y="0" font-size="9" font-weight="600" fill="var(--cf-text-dim)" letter-spacing="0.8">FILES</text><text x="0" y="28" font-size="22" font-weight="700" fill="var(--cf-text)">930</text><g transform="translate(0,40)"><svg width="64" height="14" viewBox="0 0 64 14" preserveAspectRatio="none"><path d="M0 14 L2.13 7.7 L4.27 7.7 L6.4 7.7 L8.53 7.47 L10.67 7.23 L12.8 7.23 L14.93 7.23 L17.07 7.23 L19.2 7.23 L21.33 7.23 L23.47 7.23 L25.6 7 L27.73 7 L29.87 6.53 L32 6.53 L34.13 6.53 L36.27 6.3 L38.4 5.37 L40.53 5.37 L42.67 5.37 L44.8 5.37 L46.93 5.37 L49.07 5.37 L51.2 5.37 L53.33 5.37 L55.47 4.2 L57.6 4.2 L59.73 0 L61.87 0 L64 0 L64 14 L0 14 Z" fill="var(--cf-spark-bg)" stroke="none"/><path d="M0 14 L2.13 7.7 L4.27 7.7 L6.4 7.7 L8.53 7.47 L10.67 7.23 L12.8 7.23 L14.93 7.23 L17.07 7.23 L19.2 7.23 L21.33 7.23 L23.47 7.23 L25.6 7 L27.73 7 L29.87 6.53 L32 6.53 L34.13 6.53 L36.27 6.3 L38.4 5.37 L40.53 5.37 L42.67 5.37 L44.8 5.37 L46.93 5.37 L49.07 5.37 L51.2 5.37 L53.33 5.37 L55.47 4.2 L57.6 4.2 L59.73 0 L61.87 0 L64 0" fill="none" stroke="var(--cf-spark)" stroke-width="1.4" stroke-linecap="round" stroke-linejoin="round"/></svg></g></g><g transform="translate(154.8,46)"><text x="0" y="0" font-size="9" font-weight="600" fill="var(--cf-text-dim)" letter-spacing="0.8">FNS</text><text x="0" y="28" font-size="22" font-weight="700" fill="var(--cf-text)">13.4K</text><g transform="translate(0,40)"><svg width="64" height="14" viewBox="0 0 64 14" preserveAspectRatio="none"><path d="M0 14 L2.13 7.04 L4.27 6.94 L6.4 6.92 L8.53 6.92 L10.67 6.87 L12.8 6.87 L14.93 6.87 L17.07 6.85 L19.2 6.83 L21.33 6.75 L23.47 6.71 L25.6 6.56 L27.73 6.39 L29.87 4.95 L32 4.47 L34.13 4.3 L36.27 3.46 L38.4 2.99 L40.53 2.99 L42.67 2.99 L44.8 2.87 L46.93 2.82 L49.07 2.82 L51.2 2.82 L53.33 2.76 L55.47 1.39 L57.6 1.39 L59.73 0.15 L61.87 0.1 L64 0 L64 14 L0 14 Z" fill="var(--cf-spark-bg)" stroke="none"/><path d="M0 14 L2.13 7.04 L4.27 6.94 L6.4 6.92 L8.53 6.92 L10.67 6.87 L12.8 6.87 L14.93 6.87 L17.07 6.85 L19.2 6.83 L21.33 6.75 L23.47 6.71 L25.6 6.56 L27.73 6.39 L29.87 4.95 L32 4.47 L34.13 4.3 L36.27 3.46 L38.4 2.99 L40.53 2.99 L42.67 2.99 L44.8 2.87 L46.93 2.82 L49.07 2.82 L51.2 2.82 L53.33 2.76 L55.47 1.39 L57.6 1.39 L59.73 0.15 L61.87 0.1 L64 0" fill="none" stroke="var(--cf-spark)" stroke-width="1.4" stroke-linecap="round" stroke-linejoin="round"/></svg></g></g><g transform="translate(291.6,46)"><text x="0" y="0" font-size="9" font-weight="600" fill="var(--cf-text-dim)" letter-spacing="0.8">LOC</text><text x="0" y="28" font-size="22" font-weight="700" fill="var(--cf-text)">514.3K</text><g transform="translate(0,40)"><svg width="64" height="14" viewBox="0 0 64 14" preserveAspectRatio="none"><path d="M0 14 L2.13 8.75 L4.27 8.54 L6.4 8.54 L8.53 8.5 L10.67 8.41 L12.8 8.4 L14.93 8.4 L17.07 8.35 L19.2 8.32 L21.33 8.25 L23.47 8.23 L25.6 8.1 L27.73 7.88 L29.87 7.38 L32 7.28 L34.13 7.15 L36.27 6.36 L38.4 5.67 L40.53 5.66 L42.67 5.66 L44.8 5.46 L46.93 5.42 L49.07 5.41 L51.2 5.4 L53.33 5.35 L55.47 4.68 L57.6 4.68 L59.73 0.12 L61.87 0.05 L64 0 L64 14 L0 14 Z" fill="var(--cf-spark-bg)" stroke="none"/><path d="M0 14 L2.13 8.75 L4.27 8.54 L6.4 8.54 L8.53 8.5 L10.67 8.41 L12.8 8.4 L14.93 8.4 L17.07 8.35 L19.2 8.32 L21.33 8.25 L23.47 8.23 L25.6 8.1 L27.73 7.88 L29.87 7.38 L32 7.28 L34.13 7.15 L36.27 6.36 L38.4 5.67 L40.53 5.66 L42.67 5.66 L44.8 5.46 L46.93 5.42 L49.07 5.41 L51.2 5.4 L53.33 5.35 L55.47 4.68 L57.6 4.68 L59.73 0.12 L61.87 0.05 L64 0" fill="none" stroke="var(--cf-spark)" stroke-width="1.4" stroke-linecap="round" stroke-linejoin="round"/></svg></g></g><g transform="translate(428.40000000000003,46)"><text x="0" y="0" font-size="9" font-weight="600" fill="var(--cf-text-dim)" letter-spacing="0.8">LANGS</text><text x="0" y="28" font-size="22" font-weight="700" fill="var(--cf-text)">22</text><g transform="translate(0,40)"><svg width="64" height="14" viewBox="0 0 64 14" preserveAspectRatio="none"><path d="M0 7 L2.13 7 L4.27 7 L6.4 7 L8.53 7 L10.67 7 L12.8 7 L14.93 7 L17.07 7 L19.2 7 L21.33 7 L23.47 7 L25.6 7 L27.73 7 L29.87 7 L32 7 L34.13 7 L36.27 7 L38.4 7 L40.53 7 L42.67 7 L44.8 7 L46.93 7 L49.07 7 L51.2 7 L53.33 7 L55.47 7 L57.6 7 L59.73 7 L61.87 7 L64 7 L64 14 L0 14 Z" fill="var(--cf-spark-bg)" stroke="none"/><path d="M0 7 L2.13 7 L4.27 7 L6.4 7 L8.53 7 L10.67 7 L12.8 7 L14.93 7 L17.07 7 L19.2 7 L21.33 7 L23.47 7 L25.6 7 L27.73 7 L29.87 7 L32 7 L34.13 7 L36.27 7 L38.4 7 L40.53 7 L42.67 7 L44.8 7 L46.93 7 L49.07 7 L51.2 7 L53.33 7 L55.47 7 L57.6 7 L59.73 7 L61.87 7 L64 7" fill="none" stroke="var(--cf-spark)" stroke-width="1.4" stroke-linecap="round" stroke-linejoin="round"/></svg></g></g><g transform="translate(565.2,46)"><text x="0" y="0" font-size="9" font-weight="600" fill="var(--cf-text-dim)" letter-spacing="0.8">TESTS</text><text x="0" y="28" font-size="22" font-weight="700" fill="var(--cf-text)">194</text><g transform="translate(0,40)"><svg width="64" height="14" viewBox="0 0 64 14" preserveAspectRatio="none"><path d="M0 14 L2.13 14 L4.27 14 L6.4 14 L8.53 14 L10.67 14 L12.8 14 L14.93 14 L17.07 14 L19.2 14 L21.33 14 L23.47 14 L25.6 14 L27.73 14 L29.87 12 L32 12 L34.13 12 L36.27 8 L38.4 8 L40.53 8 L42.67 8 L44.8 8 L46.93 8 L49.07 8 L51.2 8 L53.33 8 L55.47 4 L57.6 4 L59.73 0 L61.87 0 L64 0 L64 14 L0 14 Z" fill="var(--cf-spark-bg)" stroke="none"/><path d="M0 14 L2.13 14 L4.27 14 L6.4 14 L8.53 14 L10.67 14 L12.8 14 L14.93 14 L17.07 14 L19.2 14 L21.33 14 L23.47 14 L25.6 14 L27.73 14 L29.87 12 L32 12 L34.13 12 L36.27 8 L38.4 8 L40.53 8 L42.67 8 L44.8 8 L46.93 8 L49.07 8 L51.2 8 L53.33 8 L55.47 4 L57.6 4 L59.73 0 L61.87 0 L64 0" fill="none" stroke="var(--cf-spark)" stroke-width="1.4" stroke-linecap="round" stroke-linejoin="round"/></svg></g></g><a href="https://github.com/braedonsaunders/codeflow" target="_blank"><text x="702" y="130" text-anchor="end" font-size="9" fill="var(--cf-text-faint)">powered by <tspan font-weight="600" fill="var(--cf-accent)">codeflow</tspan></text></a></svg>