<svg xmlns="http://www.w3.org/2000/svg" width="720" height="140" viewBox="0 0 720 140" font-family="-apple-system,BlinkMacSystemFont,Segoe UI,Helvetica,Arial,sans-serif"><style>svg{--cf-bg:#0d1117;--cf-bg-alt:#161b22;--cf-border:#21262d;--cf-text:#e6edf3;--cf-text-dim:#8b949e;--cf-text-faint:#6e7681;--cf-accent:#5eead4;--cf-accent-soft:rgba(94,234,212,0.16);--cf-green:#3fb950;--cf-amber:#d29922;--cf-red:#f85149;--cf-spark:#5eead4;--cf-spark-bg:rgba(94,234,212,0.18)}@media (prefers-color-scheme: light){svg{--cf-bg:#ffffff;--cf-bg-alt:#f6f8fa;--cf-border:#d0d7de;--cf-text:#1f2328;--cf-text-dim:#656d76;--cf-text-faint:#8c959f;--cf-accent:#0d9488;--cf-accent-soft:rgba(13,148,136,0.12);--cf-green:#1a7f37;--cf-amber:#9a6700;--cf-red:#cf222e;--cf-spark:#0d9488;--cf-spark-bg:rgba(13,148,136,0.12)}}</style><rect width="720" height="140" rx="12" fill="var(--cf-bg)" stroke="var(--cf-border)"/><text x="18" y="26" font-size="13" font-weight="600" fill="var(--cf-text)">braedonsaunders/homerun</text><text x="702" y="26" text-anchor="end" font-size="10" fill="var(--cf-text-faint)" font-family="ui-monospace,SFMono-Regular,Menlo,monospace">@6e042b6</text><g transform="translate(18,46)"><text x="0" y="0" font-size="9" font-weight="600" fill="var(--cf-text-dim)" letter-spacing="0.8">FILES</text><text x="0" y="28" font-size="22" font-weight="700" fill="var(--cf-text)">1K</text><g transform="translate(0,40)"><svg width="64" height="14" viewBox="0 0 64 14" preserveAspectRatio="none"><path d="M0 14 L2.13 14 L4.27 7 L6.4 7 L8.53 6.42 L10.67 6.13 L12.8 5.83 L14.93 5.54 L17.07 5.54 L19.2 5.54 L21.33 5.54 L23.47 5.54 L25.6 5.54 L27.73 5.54 L29.87 5.54 L32 5.54 L34.13 5.25 L36.27 4.96 L38.4 4.96 L40.53 4.96 L42.67 4.96 L44.8 4.96 L46.93 4.96 L49.07 4.96 L51.2 4.96 L53.33 4.67 L55.47 4.67 L57.6 4.67 L59.73 4.67 L61.87 4.67 L64 0 L64 14 L0 14 Z" fill="var(--cf-spark-bg)" stroke="none"/><path d="M0 14 L2.13 14 L4.27 7 L6.4 7 L8.53 6.42 L10.67 6.13 L12.8 5.83 L14.93 5.54 L17.07 5.54 L19.2 5.54 L21.33 5.54 L23.47 5.54 L25.6 5.54 L27.73 5.54 L29.87 5.54 L32 5.54 L34.13 5.25 L36.27 4.96 L38.4 4.96 L40.53 4.96 L42.67 4.96 L44.8 4.96 L46.93 4.96 L49.07 4.96 L51.2 4.96 L53.33 4.67 L55.47 4.67 L57.6 4.67 L59.73 4.67 L61.87 4.67 L64 0" fill="none" stroke="var(--cf-spark)" stroke-width="1.4" stroke-linecap="round" stroke-linejoin="round"/></svg></g></g><g transform="translate(154.8,46)"><text x="0" y="0" font-size="9" font-weight="600" fill="var(--cf-text-dim)" letter-spacing="0.8">FNS</text><text x="0" y="28" font-size="22" font-weight="700" fill="var(--cf-text)">14.6K</text><g transform="translate(0,40)"><svg width="64" height="14" viewBox="0 0 64 14" preserveAspectRatio="none"><path d="M0 14 L2.13 14 L4.27 9.12 L6.4 9.12 L8.53 8.8 L10.67 8.7 L12.8 8.51 L14.93 8.27 L17.07 8.23 L19.2 8.11 L21.33 8.07 L23.47 7.86 L25.6 7.84 L27.73 7.8 L29.87 7.6 L32 7.4 L34.13 7.09 L36.27 6.89 L38.4 6.75 L40.53 6.54 L42.67 6.52 L44.8 6.52 L46.93 6.42 L49.07 6.42 L51.2 6.4 L53.33 6.2 L55.47 6.2 L57.6 6.18 L59.73 6.14 L61.87 5.91 L64 0 L64 14 L0 14 Z" fill="var(--cf-spark-bg)" stroke="none"/><path d="M0 14 L2.13 14 L4.27 9.12 L6.4 9.12 L8.53 8.8 L10.67 8.7 L12.8 8.51 L14.93 8.27 L17.07 8.23 L19.2 8.11 L21.33 8.07 L23.47 7.86 L25.6 7.84 L27.73 7.8 L29.87 7.6 L32 7.4 L34.13 7.09 L36.27 6.89 L38.4 6.75 L40.53 6.54 L42.67 6.52 L44.8 6.52 L46.93 6.42 L49.07 6.42 L51.2 6.4 L53.33 6.2 L55.47 6.2 L57.6 6.18 L59.73 6.14 L61.87 5.91 L64 0" fill="none" stroke="var(--cf-spark)" stroke-width="1.4" stroke-linecap="round" stroke-linejoin="round"/></svg></g></g><g transform="translate(291.6,46)"><text x="0" y="0" font-size="9" font-weight="600" fill="var(--cf-text-dim)" letter-spacing="0.8">LOC</text><text x="0" y="28" font-size="22" font-weight="700" fill="var(--cf-text)">598.7K</text><g transform="translate(0,40)"><svg width="64" height="14" viewBox="0 0 64 14" preserveAspectRatio="none"><path d="M0 13.95 L2.13 14 L4.27 8.16 L6.4 8.16 L8.53 7.84 L10.67 7.62 L12.8 7.55 L14.93 7.39 L17.07 7.34 L19.2 7.17 L21.33 7.13 L23.47 7.06 L25.6 7.04 L27.73 6.97 L29.87 6.81 L32 6.68 L34.13 6.51 L36.27 6.43 L38.4 6.21 L40.53 5.98 L42.67 5.92 L44.8 5.92 L46.93 5.91 L49.07 5.91 L51.2 5.88 L53.33 5.72 L55.47 5.72 L57.6 5.64 L59.73 5.59 L61.87 5.37 L64 0 L64 14 L0 14 Z" fill="var(--cf-spark-bg)" stroke="none"/><path d="M0 13.95 L2.13 14 L4.27 8.16 L6.4 8.16 L8.53 7.84 L10.67 7.62 L12.8 7.55 L14.93 7.39 L17.07 7.34 L19.2 7.17 L21.33 7.13 L23.47 7.06 L25.6 7.04 L27.73 6.97 L29.87 6.81 L32 6.68 L34.13 6.51 L36.27 6.43 L38.4 6.21 L40.53 5.98 L42.67 5.92 L44.8 5.92 L46.93 5.91 L49.07 5.91 L51.2 5.88 L53.33 5.72 L55.47 5.72 L57.6 5.64 L59.73 5.59 L61.87 5.37 L64 0" fill="none" stroke="var(--cf-spark)" stroke-width="1.4" stroke-linecap="round" stroke-linejoin="round"/></svg></g></g><g transform="translate(428.40000000000003,46)"><text x="0" y="0" font-size="9" font-weight="600" fill="var(--cf-text-dim)" letter-spacing="0.8">LANGS</text><text x="0" y="28" font-size="22" font-weight="700" fill="var(--cf-text)">22</text><g transform="translate(0,40)"><svg width="64" height="14" viewBox="0 0 64 14" preserveAspectRatio="none"><path d="M0 7 L2.13 7 L4.27 7 L6.4 7 L8.53 7 L10.67 7 L12.8 7 L14.93 7 L17.07 7 L19.2 7 L21.33 7 L23.47 7 L25.6 7 L27.73 7 L29.87 7 L32 7 L34.13 7 L36.27 7 L38.4 7 L40.53 7 L42.67 7 L44.8 7 L46.93 7 L49.07 7 L51.2 7 L53.33 7 L55.47 7 L57.6 7 L59.73 7 L61.87 7 L64 7 L64 14 L0 14 Z" fill="var(--cf-spark-bg)" stroke="none"/><path d="M0 7 L2.13 7 L4.27 7 L6.4 7 L8.53 7 L10.67 7 L12.8 7 L14.93 7 L17.07 7 L19.2 7 L21.33 7 L23.47 7 L25.6 7 L27.73 7 L29.87 7 L32 7 L34.13 7 L36.27 7 L38.4 7 L40.53 7 L42.67 7 L44.8 7 L46.93 7 L49.07 7 L51.2 7 L53.33 7 L55.47 7 L57.6 7 L59.73 7 L61.87 7 L64 7" fill="none" stroke="var(--cf-spark)" stroke-width="1.4" stroke-linecap="round" stroke-linejoin="round"/></svg></g></g><g transform="translate(565.2,46)"><text x="0" y="0" font-size="9" font-weight="600" fill="var(--cf-text-dim)" letter-spacing="0.8">TESTS</text><text x="0" y="28" font-size="22" font-weight="700" fill="var(--cf-text)">221</text><g transform="translate(0,40)"><svg width="64" height="14" viewBox="0 0 64 14" preserveAspectRatio="none"><path d="M0 14 L2.13 14 L4.27 10.89 L6.4 10.89 L8.53 10.11 L10.67 10.11 L12.8 9.33 L14.93 8.56 L17.07 8.56 L19.2 8.56 L21.33 8.56 L23.47 8.56 L25.6 8.56 L27.73 8.56 L29.87 8.56 L32 8.56 L34.13 8.56 L36.27 7.78 L38.4 7.78 L40.53 7.78 L42.67 7.78 L44.8 7.78 L46.93 7.78 L49.07 7.78 L51.2 7.78 L53.33 7.78 L55.47 7.78 L57.6 7.78 L59.73 7.78 L61.87 7.78 L64 0 L64 14 L0 14 Z" fill="var(--cf-spark-bg)" stroke="none"/><path d="M0 14 L2.13 14 L4.27 10.89 L6.4 10.89 L8.53 10.11 L10.67 10.11 L12.8 9.33 L14.93 8.56 L17.07 8.56 L19.2 8.56 L21.33 8.56 L23.47 8.56 L25.6 8.56 L27.73 8.56 L29.87 8.56 L32 8.56 L34.13 8.56 L36.27 7.78 L38.4 7.78 L40.53 7.78 L42.67 7.78 L44.8 7.78 L46.93 7.78 L49.07 7.78 L51.2 7.78 L53.33 7.78 L55.47 7.78 L57.6 7.78 L59.73 7.78 L61.87 7.78 L64 0" fill="none" stroke="var(--cf-spark)" stroke-width="1.4" stroke-linecap="round" stroke-linejoin="round"/></svg></g></g><a href="https://github.com/braedonsaunders/codeflow" target="_blank"><text x="702" y="130" text-anchor="end" font-size="9" fill="var(--cf-text-faint)">powered by <tspan font-weight="600" fill="var(--cf-accent)">codeflow</tspan></text></a></svg>