<svg xmlns="http://www.w3.org/2000/svg" width="720" height="140" viewBox="0 0 720 140" font-family="-apple-system,BlinkMacSystemFont,Segoe UI,Helvetica,Arial,sans-serif"><style>svg{--cf-bg:#0d1117;--cf-bg-alt:#161b22;--cf-border:#21262d;--cf-text:#e6edf3;--cf-text-dim:#8b949e;--cf-text-faint:#6e7681;--cf-accent:#5eead4;--cf-accent-soft:rgba(94,234,212,0.16);--cf-green:#3fb950;--cf-amber:#d29922;--cf-red:#f85149;--cf-spark:#5eead4;--cf-spark-bg:rgba(94,234,212,0.18)}@media (prefers-color-scheme: light){svg{--cf-bg:#ffffff;--cf-bg-alt:#f6f8fa;--cf-border:#d0d7de;--cf-text:#1f2328;--cf-text-dim:#656d76;--cf-text-faint:#8c959f;--cf-accent:#0d9488;--cf-accent-soft:rgba(13,148,136,0.12);--cf-green:#1a7f37;--cf-amber:#9a6700;--cf-red:#cf222e;--cf-spark:#0d9488;--cf-spark-bg:rgba(13,148,136,0.12)}}</style><rect width="720" height="140" rx="12" fill="var(--cf-bg)" stroke="var(--cf-border)"/><text x="18" y="26" font-size="13" font-weight="600" fill="var(--cf-text)">braedonsaunders/homerun</text><text x="702" y="26" text-anchor="end" font-size="10" fill="var(--cf-text-faint)" font-family="ui-monospace,SFMono-Regular,Menlo,monospace">@437a968</text><g transform="translate(18,46)"><text x="0" y="0" font-size="9" font-weight="600" fill="var(--cf-text-dim)" letter-spacing="0.8">FILES</text><text x="0" y="28" font-size="22" font-weight="700" fill="var(--cf-text)">1.1K</text><g transform="translate(0,40)"><svg width="64" height="14" viewBox="0 0 64 14" preserveAspectRatio="none"><path d="M0 14 L2.13 12.73 L4.27 11.45 L6.4 11.45 L8.53 10.18 L10.67 10.18 L12.8 10.18 L14.93 10.18 L17.07 10.18 L19.2 10.18 L21.33 10.18 L23.47 10.18 L25.6 10.18 L27.73 10.18 L29.87 10.18 L32 10.18 L34.13 10.18 L36.27 10.18 L38.4 10.18 L40.53 10.18 L42.67 10.18 L44.8 10.18 L46.93 10.18 L49.07 10.18 L51.2 8.91 L53.33 8.91 L55.47 8.91 L57.6 8.91 L59.73 0 L61.87 0 L64 0 L64 14 L0 14 Z" fill="var(--cf-spark-bg)" stroke="none"/><path d="M0 14 L2.13 12.73 L4.27 11.45 L6.4 11.45 L8.53 10.18 L10.67 10.18 L12.8 10.18 L14.93 10.18 L17.07 10.18 L19.2 10.18 L21.33 10.18 L23.47 10.18 L25.6 10.18 L27.73 10.18 L29.87 10.18 L32 10.18 L34.13 10.18 L36.27 10.18 L38.4 10.18 L40.53 10.18 L42.67 10.18 L44.8 10.18 L46.93 10.18 L49.07 10.18 L51.2 8.91 L53.33 8.91 L55.47 8.91 L57.6 8.91 L59.73 0 L61.87 0 L64 0" fill="none" stroke="var(--cf-spark)" stroke-width="1.4" stroke-linecap="round" stroke-linejoin="round"/></svg></g></g><g transform="translate(154.8,46)"><text x="0" y="0" font-size="9" font-weight="600" fill="var(--cf-text-dim)" letter-spacing="0.8">FNS</text><text x="0" y="28" font-size="22" font-weight="700" fill="var(--cf-text)">15.4K</text><g transform="translate(0,40)"><svg width="64" height="14" viewBox="0 0 64 14" preserveAspectRatio="none"><path d="M0 14 L2.13 13.48 L4.27 12.17 L6.4 12.17 L8.53 11.74 L10.67 11.74 L12.8 11.74 L14.93 11.74 L17.07 11.65 L19.2 11.57 L21.33 11.57 L23.47 11.48 L25.6 11.48 L27.73 11.48 L29.87 11.48 L32 11.48 L34.13 11.39 L36.27 11.3 L38.4 11.22 L40.53 11.13 L42.67 11.13 L44.8 11.13 L46.93 11.13 L49.07 10.96 L51.2 10.78 L53.33 10.78 L55.47 10.61 L57.6 10.43 L59.73 1.13 L61.87 0.78 L64 0 L64 14 L0 14 Z" fill="var(--cf-spark-bg)" stroke="none"/><path d="M0 14 L2.13 13.48 L4.27 12.17 L6.4 12.17 L8.53 11.74 L10.67 11.74 L12.8 11.74 L14.93 11.74 L17.07 11.65 L19.2 11.57 L21.33 11.57 L23.47 11.48 L25.6 11.48 L27.73 11.48 L29.87 11.48 L32 11.48 L34.13 11.39 L36.27 11.3 L38.4 11.22 L40.53 11.13 L42.67 11.13 L44.8 11.13 L46.93 11.13 L49.07 10.96 L51.2 10.78 L53.33 10.78 L55.47 10.61 L57.6 10.43 L59.73 1.13 L61.87 0.78 L64 0" fill="none" stroke="var(--cf-spark)" stroke-width="1.4" stroke-linecap="round" stroke-linejoin="round"/></svg></g></g><g transform="translate(291.6,46)"><text x="0" y="0" font-size="9" font-weight="600" fill="var(--cf-text-dim)" letter-spacing="0.8">LOC</text><text x="0" y="28" font-size="22" font-weight="700" fill="var(--cf-text)">616.9K</text><g transform="translate(0,40)"><svg width="64" height="14" viewBox="0 0 64 14" preserveAspectRatio="none"><path d="M0 14 L2.13 13.4 L4.27 12.14 L6.4 12.15 L8.53 11.88 L10.67 11.88 L12.8 11.8 L14.93 11.74 L17.07 11.66 L19.2 11.6 L21.33 11.55 L23.47 11.49 L25.6 11.46 L27.73 11.39 L29.87 11.34 L32 11.32 L34.13 11.23 L36.27 11 L38.4 10.99 L40.53 10.88 L42.67 10.87 L44.8 10.82 L46.93 10.77 L49.07 10.59 L51.2 10.45 L53.33 10.26 L55.47 10.18 L57.6 10.05 L59.73 0.7 L61.87 0.48 L64 0 L64 14 L0 14 Z" fill="var(--cf-spark-bg)" stroke="none"/><path d="M0 14 L2.13 13.4 L4.27 12.14 L6.4 12.15 L8.53 11.88 L10.67 11.88 L12.8 11.8 L14.93 11.74 L17.07 11.66 L19.2 11.6 L21.33 11.55 L23.47 11.49 L25.6 11.46 L27.73 11.39 L29.87 11.34 L32 11.32 L34.13 11.23 L36.27 11 L38.4 10.99 L40.53 10.88 L42.67 10.87 L44.8 10.82 L46.93 10.77 L49.07 10.59 L51.2 10.45 L53.33 10.26 L55.47 10.18 L57.6 10.05 L59.73 0.7 L61.87 0.48 L64 0" fill="none" stroke="var(--cf-spark)" stroke-width="1.4" stroke-linecap="round" stroke-linejoin="round"/></svg></g></g><g transform="translate(428.40000000000003,46)"><text x="0" y="0" font-size="9" font-weight="600" fill="var(--cf-text-dim)" letter-spacing="0.8">LANGS</text><text x="0" y="28" font-size="22" font-weight="700" fill="var(--cf-text)">22</text><g transform="translate(0,40)"><svg width="64" height="14" viewBox="0 0 64 14" preserveAspectRatio="none"><path d="M0 7 L2.13 7 L4.27 7 L6.4 7 L8.53 7 L10.67 7 L12.8 7 L14.93 7 L17.07 7 L19.2 7 L21.33 7 L23.47 7 L25.6 7 L27.73 7 L29.87 7 L32 7 L34.13 7 L36.27 7 L38.4 7 L40.53 7 L42.67 7 L44.8 7 L46.93 7 L49.07 7 L51.2 7 L53.33 7 L55.47 7 L57.6 7 L59.73 7 L61.87 7 L64 7 L64 14 L0 14 Z" fill="var(--cf-spark-bg)" stroke="none"/><path d="M0 7 L2.13 7 L4.27 7 L6.4 7 L8.53 7 L10.67 7 L12.8 7 L14.93 7 L17.07 7 L19.2 7 L21.33 7 L23.47 7 L25.6 7 L27.73 7 L29.87 7 L32 7 L34.13 7 L36.27 7 L38.4 7 L40.53 7 L42.67 7 L44.8 7 L46.93 7 L49.07 7 L51.2 7 L53.33 7 L55.47 7 L57.6 7 L59.73 7 L61.87 7 L64 7" fill="none" stroke="var(--cf-spark)" stroke-width="1.4" stroke-linecap="round" stroke-linejoin="round"/></svg></g></g><g transform="translate(565.2,46)"><text x="0" y="0" font-size="9" font-weight="600" fill="var(--cf-text-dim)" letter-spacing="0.8">TESTS</text><text x="0" y="28" font-size="22" font-weight="700" fill="var(--cf-text)">249</text><g transform="translate(0,40)"><svg width="64" height="14" viewBox="0 0 64 14" preserveAspectRatio="none"><path d="M0 14 L2.13 14 L4.27 9.33 L6.4 9.33 L8.53 4.67 L10.67 4.67 L12.8 4.67 L14.93 4.67 L17.07 4.67 L19.2 4.67 L21.33 4.67 L23.47 4.67 L25.6 4.67 L27.73 4.67 L29.87 4.67 L32 4.67 L34.13 4.67 L36.27 4.67 L38.4 4.67 L40.53 4.67 L42.67 4.67 L44.8 4.67 L46.93 4.67 L49.07 4.67 L51.2 4.67 L53.33 4.67 L55.47 4.67 L57.6 4.67 L59.73 0 L61.87 0 L64 0 L64 14 L0 14 Z" fill="var(--cf-spark-bg)" stroke="none"/><path d="M0 14 L2.13 14 L4.27 9.33 L6.4 9.33 L8.53 4.67 L10.67 4.67 L12.8 4.67 L14.93 4.67 L17.07 4.67 L19.2 4.67 L21.33 4.67 L23.47 4.67 L25.6 4.67 L27.73 4.67 L29.87 4.67 L32 4.67 L34.13 4.67 L36.27 4.67 L38.4 4.67 L40.53 4.67 L42.67 4.67 L44.8 4.67 L46.93 4.67 L49.07 4.67 L51.2 4.67 L53.33 4.67 L55.47 4.67 L57.6 4.67 L59.73 0 L61.87 0 L64 0" fill="none" stroke="var(--cf-spark)" stroke-width="1.4" stroke-linecap="round" stroke-linejoin="round"/></svg></g></g><a href="https://github.com/braedonsaunders/codeflow" target="_blank"><text x="702" y="130" text-anchor="end" font-size="9" fill="var(--cf-text-faint)">powered by <tspan font-weight="600" fill="var(--cf-accent)">codeflow</tspan></text></a></svg>