<svg xmlns="http://www.w3.org/2000/svg" width="720" height="140" viewBox="0 0 720 140" font-family="-apple-system,BlinkMacSystemFont,Segoe UI,Helvetica,Arial,sans-serif"><style>svg{--cf-bg:#0d1117;--cf-bg-alt:#161b22;--cf-border:#21262d;--cf-text:#e6edf3;--cf-text-dim:#8b949e;--cf-text-faint:#6e7681;--cf-accent:#5eead4;--cf-accent-soft:rgba(94,234,212,0.16);--cf-green:#3fb950;--cf-amber:#d29922;--cf-red:#f85149;--cf-spark:#5eead4;--cf-spark-bg:rgba(94,234,212,0.18)}@media (prefers-color-scheme: light){svg{--cf-bg:#ffffff;--cf-bg-alt:#f6f8fa;--cf-border:#d0d7de;--cf-text:#1f2328;--cf-text-dim:#656d76;--cf-text-faint:#8c959f;--cf-accent:#0d9488;--cf-accent-soft:rgba(13,148,136,0.12);--cf-green:#1a7f37;--cf-amber:#9a6700;--cf-red:#cf222e;--cf-spark:#0d9488;--cf-spark-bg:rgba(13,148,136,0.12)}}</style><rect width="720" height="140" rx="12" fill="var(--cf-bg)" stroke="var(--cf-border)"/><text x="18" y="26" font-size="13" font-weight="600" fill="var(--cf-text)">braedonsaunders/homerun</text><text x="702" y="26" text-anchor="end" font-size="10" fill="var(--cf-text-faint)" font-family="ui-monospace,SFMono-Regular,Menlo,monospace">@8aba560</text><g transform="translate(18,46)"><text x="0" y="0" font-size="9" font-weight="600" fill="var(--cf-text-dim)" letter-spacing="0.8">FILES</text><text x="0" y="28" font-size="22" font-weight="700" fill="var(--cf-text)">947</text><g transform="translate(0,40)"><svg width="64" height="14" viewBox="0 0 64 14" preserveAspectRatio="none"><path d="M0 14 L2.13 14 L4.27 14 L6.4 14 L8.53 14 L10.67 13.71 L12.8 13.71 L14.93 13.13 L17.07 13.13 L19.2 13.13 L21.33 12.83 L23.47 11.67 L25.6 11.67 L27.73 11.67 L29.87 11.67 L32 11.67 L34.13 11.67 L36.27 11.67 L38.4 11.67 L40.53 10.21 L42.67 10.21 L44.8 4.96 L46.93 4.96 L49.07 4.96 L51.2 4.96 L53.33 3.21 L55.47 3.21 L57.6 3.21 L59.73 3.21 L61.87 0.29 L64 0 L64 14 L0 14 Z" fill="var(--cf-spark-bg)" stroke="none"/><path d="M0 14 L2.13 14 L4.27 14 L6.4 14 L8.53 14 L10.67 13.71 L12.8 13.71 L14.93 13.13 L17.07 13.13 L19.2 13.13 L21.33 12.83 L23.47 11.67 L25.6 11.67 L27.73 11.67 L29.87 11.67 L32 11.67 L34.13 11.67 L36.27 11.67 L38.4 11.67 L40.53 10.21 L42.67 10.21 L44.8 4.96 L46.93 4.96 L49.07 4.96 L51.2 4.96 L53.33 3.21 L55.47 3.21 L57.6 3.21 L59.73 3.21 L61.87 0.29 L64 0" fill="none" stroke="var(--cf-spark)" stroke-width="1.4" stroke-linecap="round" stroke-linejoin="round"/></svg></g></g><g transform="translate(154.8,46)"><text x="0" y="0" font-size="9" font-weight="600" fill="var(--cf-text-dim)" letter-spacing="0.8">FNS</text><text x="0" y="28" font-size="22" font-weight="700" fill="var(--cf-text)">13.7K</text><g transform="translate(0,40)"><svg width="64" height="14" viewBox="0 0 64 14" preserveAspectRatio="none"><path d="M0 14 L2.13 13.98 L4.27 13.96 L6.4 13.87 L8.53 13.82 L10.67 13.65 L12.8 13.45 L14.93 11.77 L17.07 11.21 L19.2 11.01 L21.33 10.04 L23.47 9.49 L25.6 9.49 L27.73 9.49 L29.87 9.36 L32 9.29 L34.13 9.29 L36.27 9.29 L38.4 9.22 L40.53 7.63 L42.67 7.63 L44.8 6.19 L46.93 6.13 L49.07 6.02 L51.2 6.02 L53.33 2.26 L55.47 2.26 L57.6 1.95 L59.73 1.92 L61.87 0.35 L64 0 L64 14 L0 14 Z" fill="var(--cf-spark-bg)" stroke="none"/><path d="M0 14 L2.13 13.98 L4.27 13.96 L6.4 13.87 L8.53 13.82 L10.67 13.65 L12.8 13.45 L14.93 11.77 L17.07 11.21 L19.2 11.01 L21.33 10.04 L23.47 9.49 L25.6 9.49 L27.73 9.49 L29.87 9.36 L32 9.29 L34.13 9.29 L36.27 9.29 L38.4 9.22 L40.53 7.63 L42.67 7.63 L44.8 6.19 L46.93 6.13 L49.07 6.02 L51.2 6.02 L53.33 2.26 L55.47 2.26 L57.6 1.95 L59.73 1.92 L61.87 0.35 L64 0" fill="none" stroke="var(--cf-spark)" stroke-width="1.4" stroke-linecap="round" stroke-linejoin="round"/></svg></g></g><g transform="translate(291.6,46)"><text x="0" y="0" font-size="9" font-weight="600" fill="var(--cf-text-dim)" letter-spacing="0.8">LOC</text><text x="0" y="28" font-size="22" font-weight="700" fill="var(--cf-text)">556.3K</text><g transform="translate(0,40)"><svg width="64" height="14" viewBox="0 0 64 14" preserveAspectRatio="none"><path d="M0 14 L2.13 13.97 L4.27 13.95 L6.4 13.92 L8.53 13.9 L10.67 13.83 L12.8 13.71 L14.93 13.43 L17.07 13.37 L19.2 13.3 L21.33 12.86 L23.47 12.48 L25.6 12.48 L27.73 12.47 L29.87 12.36 L32 12.34 L34.13 12.34 L36.27 12.33 L38.4 12.3 L40.53 11.93 L42.67 11.93 L44.8 9.4 L46.93 9.36 L49.07 9.33 L51.2 9.33 L53.33 7.07 L55.47 7.06 L57.6 6.87 L59.73 6.86 L61.87 6.25 L64 0 L64 14 L0 14 Z" fill="var(--cf-spark-bg)" stroke="none"/><path d="M0 14 L2.13 13.97 L4.27 13.95 L6.4 13.92 L8.53 13.9 L10.67 13.83 L12.8 13.71 L14.93 13.43 L17.07 13.37 L19.2 13.3 L21.33 12.86 L23.47 12.48 L25.6 12.48 L27.73 12.47 L29.87 12.36 L32 12.34 L34.13 12.34 L36.27 12.33 L38.4 12.3 L40.53 11.93 L42.67 11.93 L44.8 9.4 L46.93 9.36 L49.07 9.33 L51.2 9.33 L53.33 7.07 L55.47 7.06 L57.6 6.87 L59.73 6.86 L61.87 6.25 L64 0" fill="none" stroke="var(--cf-spark)" stroke-width="1.4" stroke-linecap="round" stroke-linejoin="round"/></svg></g></g><g transform="translate(428.40000000000003,46)"><text x="0" y="0" font-size="9" font-weight="600" fill="var(--cf-text-dim)" letter-spacing="0.8">LANGS</text><text x="0" y="28" font-size="22" font-weight="700" fill="var(--cf-text)">22</text><g transform="translate(0,40)"><svg width="64" height="14" viewBox="0 0 64 14" preserveAspectRatio="none"><path d="M0 7 L2.13 7 L4.27 7 L6.4 7 L8.53 7 L10.67 7 L12.8 7 L14.93 7 L17.07 7 L19.2 7 L21.33 7 L23.47 7 L25.6 7 L27.73 7 L29.87 7 L32 7 L34.13 7 L36.27 7 L38.4 7 L40.53 7 L42.67 7 L44.8 7 L46.93 7 L49.07 7 L51.2 7 L53.33 7 L55.47 7 L57.6 7 L59.73 7 L61.87 7 L64 7 L64 14 L0 14 Z" fill="var(--cf-spark-bg)" stroke="none"/><path d="M0 7 L2.13 7 L4.27 7 L6.4 7 L8.53 7 L10.67 7 L12.8 7 L14.93 7 L17.07 7 L19.2 7 L21.33 7 L23.47 7 L25.6 7 L27.73 7 L29.87 7 L32 7 L34.13 7 L36.27 7 L38.4 7 L40.53 7 L42.67 7 L44.8 7 L46.93 7 L49.07 7 L51.2 7 L53.33 7 L55.47 7 L57.6 7 L59.73 7 L61.87 7 L64 7" fill="none" stroke="var(--cf-spark)" stroke-width="1.4" stroke-linecap="round" stroke-linejoin="round"/></svg></g></g><g transform="translate(565.2,46)"><text x="0" y="0" font-size="9" font-weight="600" fill="var(--cf-text-dim)" letter-spacing="0.8">TESTS</text><text x="0" y="28" font-size="22" font-weight="700" fill="var(--cf-text)">198</text><g transform="translate(0,40)"><svg width="64" height="14" viewBox="0 0 64 14" preserveAspectRatio="none"><path d="M0 14 L2.13 14 L4.27 14 L6.4 14 L8.53 14 L10.67 14 L12.8 14 L14.93 12.73 L17.07 12.73 L19.2 12.73 L21.33 10.18 L23.47 10.18 L25.6 10.18 L27.73 10.18 L29.87 10.18 L32 10.18 L34.13 10.18 L36.27 10.18 L38.4 10.18 L40.53 7.64 L42.67 7.64 L44.8 5.09 L46.93 5.09 L49.07 5.09 L51.2 5.09 L53.33 1.27 L55.47 1.27 L57.6 1.27 L59.73 1.27 L61.87 0 L64 0 L64 14 L0 14 Z" fill="var(--cf-spark-bg)" stroke="none"/><path d="M0 14 L2.13 14 L4.27 14 L6.4 14 L8.53 14 L10.67 14 L12.8 14 L14.93 12.73 L17.07 12.73 L19.2 12.73 L21.33 10.18 L23.47 10.18 L25.6 10.18 L27.73 10.18 L29.87 10.18 L32 10.18 L34.13 10.18 L36.27 10.18 L38.4 10.18 L40.53 7.64 L42.67 7.64 L44.8 5.09 L46.93 5.09 L49.07 5.09 L51.2 5.09 L53.33 1.27 L55.47 1.27 L57.6 1.27 L59.73 1.27 L61.87 0 L64 0" fill="none" stroke="var(--cf-spark)" stroke-width="1.4" stroke-linecap="round" stroke-linejoin="round"/></svg></g></g><a href="https://github.com/braedonsaunders/codeflow" target="_blank"><text x="702" y="130" text-anchor="end" font-size="9" fill="var(--cf-text-faint)">powered by <tspan font-weight="600" fill="var(--cf-accent)">codeflow</tspan></text></a></svg>