<svg xmlns="http://www.w3.org/2000/svg" width="720" height="140" viewBox="0 0 720 140" font-family="-apple-system,BlinkMacSystemFont,Segoe UI,Helvetica,Arial,sans-serif"><style>svg{--cf-bg:#0d1117;--cf-bg-alt:#161b22;--cf-border:#21262d;--cf-text:#e6edf3;--cf-text-dim:#8b949e;--cf-text-faint:#6e7681;--cf-accent:#5eead4;--cf-accent-soft:rgba(94,234,212,0.16);--cf-green:#3fb950;--cf-amber:#d29922;--cf-red:#f85149;--cf-spark:#5eead4;--cf-spark-bg:rgba(94,234,212,0.18)}@media (prefers-color-scheme: light){svg{--cf-bg:#ffffff;--cf-bg-alt:#f6f8fa;--cf-border:#d0d7de;--cf-text:#1f2328;--cf-text-dim:#656d76;--cf-text-faint:#8c959f;--cf-accent:#0d9488;--cf-accent-soft:rgba(13,148,136,0.12);--cf-green:#1a7f37;--cf-amber:#9a6700;--cf-red:#cf222e;--cf-spark:#0d9488;--cf-spark-bg:rgba(13,148,136,0.12)}}</style><rect width="720" height="140" rx="12" fill="var(--cf-bg)" stroke="var(--cf-border)"/><text x="18" y="26" font-size="13" font-weight="600" fill="var(--cf-text)">braedonsaunders/homerun</text><text x="702" y="26" text-anchor="end" font-size="10" fill="var(--cf-text-faint)" font-family="ui-monospace,SFMono-Regular,Menlo,monospace">@412dfa7</text><g transform="translate(18,46)"><text x="0" y="0" font-size="9" font-weight="600" fill="var(--cf-text-dim)" letter-spacing="0.8">FILES</text><text x="0" y="28" font-size="22" font-weight="700" fill="var(--cf-text)">992</text><g transform="translate(0,40)"><svg width="64" height="14" viewBox="0 0 64 14" preserveAspectRatio="none"><path d="M0 14 L2.13 14 L4.27 13.24 L6.4 12.11 L8.53 12.11 L10.67 11.73 L12.8 11.73 L14.93 11.73 L17.07 11.73 L19.2 11.73 L21.33 11.73 L23.47 11.73 L25.6 11.73 L27.73 2.65 L29.87 2.65 L32 1.89 L34.13 1.51 L36.27 1.14 L38.4 0.76 L40.53 0.76 L42.67 0.76 L44.8 0.76 L46.93 0.76 L49.07 0.76 L51.2 0.76 L53.33 0.76 L55.47 0.76 L57.6 0.38 L59.73 0 L61.87 0 L64 0 L64 14 L0 14 Z" fill="var(--cf-spark-bg)" stroke="none"/><path d="M0 14 L2.13 14 L4.27 13.24 L6.4 12.11 L8.53 12.11 L10.67 11.73 L12.8 11.73 L14.93 11.73 L17.07 11.73 L19.2 11.73 L21.33 11.73 L23.47 11.73 L25.6 11.73 L27.73 2.65 L29.87 2.65 L32 1.89 L34.13 1.51 L36.27 1.14 L38.4 0.76 L40.53 0.76 L42.67 0.76 L44.8 0.76 L46.93 0.76 L49.07 0.76 L51.2 0.76 L53.33 0.76 L55.47 0.76 L57.6 0.38 L59.73 0 L61.87 0 L64 0" fill="none" stroke="var(--cf-spark)" stroke-width="1.4" stroke-linecap="round" stroke-linejoin="round"/></svg></g></g><g transform="translate(154.8,46)"><text x="0" y="0" font-size="9" font-weight="600" fill="var(--cf-text-dim)" letter-spacing="0.8">FNS</text><text x="0" y="28" font-size="22" font-weight="700" fill="var(--cf-text)">14.3K</text><g transform="translate(0,40)"><svg width="64" height="14" viewBox="0 0 64 14" preserveAspectRatio="none"><path d="M0 14 L2.13 14 L4.27 13.05 L6.4 11.36 L8.53 11.36 L10.67 11.12 L12.8 11.12 L14.93 11.12 L17.07 11.12 L19.2 11.09 L21.33 11.09 L23.47 10.89 L25.6 10.89 L27.73 3.77 L29.87 3.77 L32 3.29 L34.13 3.14 L36.27 2.88 L38.4 2.52 L40.53 2.46 L42.67 2.28 L44.8 2.22 L46.93 1.93 L49.07 1.9 L51.2 1.84 L53.33 1.54 L55.47 1.25 L57.6 0.8 L59.73 0.5 L61.87 0.3 L64 0 L64 14 L0 14 Z" fill="var(--cf-spark-bg)" stroke="none"/><path d="M0 14 L2.13 14 L4.27 13.05 L6.4 11.36 L8.53 11.36 L10.67 11.12 L12.8 11.12 L14.93 11.12 L17.07 11.12 L19.2 11.09 L21.33 11.09 L23.47 10.89 L25.6 10.89 L27.73 3.77 L29.87 3.77 L32 3.29 L34.13 3.14 L36.27 2.88 L38.4 2.52 L40.53 2.46 L42.67 2.28 L44.8 2.22 L46.93 1.93 L49.07 1.9 L51.2 1.84 L53.33 1.54 L55.47 1.25 L57.6 0.8 L59.73 0.5 L61.87 0.3 L64 0" fill="none" stroke="var(--cf-spark)" stroke-width="1.4" stroke-linecap="round" stroke-linejoin="round"/></svg></g></g><g transform="translate(291.6,46)"><text x="0" y="0" font-size="9" font-weight="600" fill="var(--cf-text-dim)" letter-spacing="0.8">LOC</text><text x="0" y="28" font-size="22" font-weight="700" fill="var(--cf-text)">590.3K</text><g transform="translate(0,40)"><svg width="64" height="14" viewBox="0 0 64 14" preserveAspectRatio="none"><path d="M0 14 L2.13 13.99 L4.27 13.16 L6.4 11.31 L8.53 11.3 L10.67 11.08 L12.8 11 L14.93 10.89 L17.07 10.88 L19.2 10.68 L21.33 10.65 L23.47 10.23 L25.6 10.29 L27.73 2.81 L29.87 2.81 L32 2.39 L34.13 2.1 L36.27 2.02 L38.4 1.82 L40.53 1.75 L42.67 1.53 L44.8 1.48 L46.93 1.39 L49.07 1.36 L51.2 1.28 L53.33 1.07 L55.47 0.9 L57.6 0.68 L59.73 0.58 L61.87 0.3 L64 0 L64 14 L0 14 Z" fill="var(--cf-spark-bg)" stroke="none"/><path d="M0 14 L2.13 13.99 L4.27 13.16 L6.4 11.31 L8.53 11.3 L10.67 11.08 L12.8 11 L14.93 10.89 L17.07 10.88 L19.2 10.68 L21.33 10.65 L23.47 10.23 L25.6 10.29 L27.73 2.81 L29.87 2.81 L32 2.39 L34.13 2.1 L36.27 2.02 L38.4 1.82 L40.53 1.75 L42.67 1.53 L44.8 1.48 L46.93 1.39 L49.07 1.36 L51.2 1.28 L53.33 1.07 L55.47 0.9 L57.6 0.68 L59.73 0.58 L61.87 0.3 L64 0" fill="none" stroke="var(--cf-spark)" stroke-width="1.4" stroke-linecap="round" stroke-linejoin="round"/></svg></g></g><g transform="translate(428.40000000000003,46)"><text x="0" y="0" font-size="9" font-weight="600" fill="var(--cf-text-dim)" letter-spacing="0.8">LANGS</text><text x="0" y="28" font-size="22" font-weight="700" fill="var(--cf-text)">22</text><g transform="translate(0,40)"><svg width="64" height="14" viewBox="0 0 64 14" preserveAspectRatio="none"><path d="M0 7 L2.13 7 L4.27 7 L6.4 7 L8.53 7 L10.67 7 L12.8 7 L14.93 7 L17.07 7 L19.2 7 L21.33 7 L23.47 7 L25.6 7 L27.73 7 L29.87 7 L32 7 L34.13 7 L36.27 7 L38.4 7 L40.53 7 L42.67 7 L44.8 7 L46.93 7 L49.07 7 L51.2 7 L53.33 7 L55.47 7 L57.6 7 L59.73 7 L61.87 7 L64 7 L64 14 L0 14 Z" fill="var(--cf-spark-bg)" stroke="none"/><path d="M0 7 L2.13 7 L4.27 7 L6.4 7 L8.53 7 L10.67 7 L12.8 7 L14.93 7 L17.07 7 L19.2 7 L21.33 7 L23.47 7 L25.6 7 L27.73 7 L29.87 7 L32 7 L34.13 7 L36.27 7 L38.4 7 L40.53 7 L42.67 7 L44.8 7 L46.93 7 L49.07 7 L51.2 7 L53.33 7 L55.47 7 L57.6 7 L59.73 7 L61.87 7 L64 7" fill="none" stroke="var(--cf-spark)" stroke-width="1.4" stroke-linecap="round" stroke-linejoin="round"/></svg></g></g><g transform="translate(565.2,46)"><text x="0" y="0" font-size="9" font-weight="600" fill="var(--cf-text-dim)" letter-spacing="0.8">TESTS</text><text x="0" y="28" font-size="22" font-weight="700" fill="var(--cf-text)">211</text><g transform="translate(0,40)"><svg width="64" height="14" viewBox="0 0 64 14" preserveAspectRatio="none"><path d="M0 14 L2.13 14 L4.27 14 L6.4 14 L8.53 14 L10.67 14 L12.8 14 L14.93 14 L17.07 14 L19.2 14 L21.33 14 L23.47 14 L25.6 14 L27.73 7 L29.87 7 L32 5.25 L34.13 5.25 L36.27 3.5 L38.4 1.75 L40.53 1.75 L42.67 1.75 L44.8 1.75 L46.93 1.75 L49.07 1.75 L51.2 1.75 L53.33 1.75 L55.47 1.75 L57.6 1.75 L59.73 0 L61.87 0 L64 0 L64 14 L0 14 Z" fill="var(--cf-spark-bg)" stroke="none"/><path d="M0 14 L2.13 14 L4.27 14 L6.4 14 L8.53 14 L10.67 14 L12.8 14 L14.93 14 L17.07 14 L19.2 14 L21.33 14 L23.47 14 L25.6 14 L27.73 7 L29.87 7 L32 5.25 L34.13 5.25 L36.27 3.5 L38.4 1.75 L40.53 1.75 L42.67 1.75 L44.8 1.75 L46.93 1.75 L49.07 1.75 L51.2 1.75 L53.33 1.75 L55.47 1.75 L57.6 1.75 L59.73 0 L61.87 0 L64 0" fill="none" stroke="var(--cf-spark)" stroke-width="1.4" stroke-linecap="round" stroke-linejoin="round"/></svg></g></g><a href="https://github.com/braedonsaunders/codeflow" target="_blank"><text x="702" y="130" text-anchor="end" font-size="9" fill="var(--cf-text-faint)">powered by <tspan font-weight="600" fill="var(--cf-accent)">codeflow</tspan></text></a></svg>