<svg xmlns="http://www.w3.org/2000/svg" width="720" height="140" viewBox="0 0 720 140" font-family="-apple-system,BlinkMacSystemFont,Segoe UI,Helvetica,Arial,sans-serif"><style>svg{--cf-bg:#0d1117;--cf-bg-alt:#161b22;--cf-border:#21262d;--cf-text:#e6edf3;--cf-text-dim:#8b949e;--cf-text-faint:#6e7681;--cf-accent:#5eead4;--cf-accent-soft:rgba(94,234,212,0.16);--cf-green:#3fb950;--cf-amber:#d29922;--cf-red:#f85149;--cf-spark:#5eead4;--cf-spark-bg:rgba(94,234,212,0.18)}@media (prefers-color-scheme: light){svg{--cf-bg:#ffffff;--cf-bg-alt:#f6f8fa;--cf-border:#d0d7de;--cf-text:#1f2328;--cf-text-dim:#656d76;--cf-text-faint:#8c959f;--cf-accent:#0d9488;--cf-accent-soft:rgba(13,148,136,0.12);--cf-green:#1a7f37;--cf-amber:#9a6700;--cf-red:#cf222e;--cf-spark:#0d9488;--cf-spark-bg:rgba(13,148,136,0.12)}}</style><rect width="720" height="140" rx="12" fill="var(--cf-bg)" stroke="var(--cf-border)"/><text x="18" y="26" font-size="13" font-weight="600" fill="var(--cf-text)">braedonsaunders/homerun</text><text x="702" y="26" text-anchor="end" font-size="10" fill="var(--cf-text-faint)" font-family="ui-monospace,SFMono-Regular,Menlo,monospace">@aa8c017</text><g transform="translate(18,46)"><text x="0" y="0" font-size="9" font-weight="600" fill="var(--cf-text-dim)" letter-spacing="0.8">FILES</text><text x="0" y="28" font-size="22" font-weight="700" fill="var(--cf-text)">853</text><g transform="translate(0,40)"><svg width="64" height="14" viewBox="0 0 64 14" preserveAspectRatio="none"><path d="M0 14 L2.91 14 L5.82 14 L8.73 14 L11.64 14 L14.55 12.08 L17.45 12.08 L20.36 12.08 L23.27 11.89 L26.18 11.89 L29.09 11.89 L32 11.89 L34.91 2.49 L37.82 2.11 L40.73 2.11 L43.64 2.11 L46.55 2.11 L49.45 2.11 L52.36 1.92 L55.27 1.92 L58.18 1.92 L61.09 0 L64 0 L64 14 L0 14 Z" fill="var(--cf-spark-bg)" stroke="none"/><path d="M0 14 L2.91 14 L5.82 14 L8.73 14 L11.64 14 L14.55 12.08 L17.45 12.08 L20.36 12.08 L23.27 11.89 L26.18 11.89 L29.09 11.89 L32 11.89 L34.91 2.49 L37.82 2.11 L40.73 2.11 L43.64 2.11 L46.55 2.11 L49.45 2.11 L52.36 1.92 L55.27 1.92 L58.18 1.92 L61.09 0 L64 0" fill="none" stroke="var(--cf-spark)" stroke-width="1.4" stroke-linecap="round" stroke-linejoin="round"/></svg></g></g><g transform="translate(154.8,46)"><text x="0" y="0" font-size="9" font-weight="600" fill="var(--cf-text-dim)" letter-spacing="0.8">FNS</text><text x="0" y="28" font-size="22" font-weight="700" fill="var(--cf-text)">12.4K</text><g transform="translate(0,40)"><svg width="64" height="14" viewBox="0 0 64 14" preserveAspectRatio="none"><path d="M0 14 L2.91 14 L5.82 14 L8.73 14 L11.64 14 L14.55 12.33 L17.45 12.33 L20.36 12.33 L23.27 12.22 L26.18 12.18 L29.09 12.15 L32 12.15 L34.91 1.53 L37.82 1 L40.73 0.98 L43.64 0.95 L46.55 0.95 L49.45 0.95 L52.36 0.69 L55.27 0.69 L58.18 0.67 L61.09 0.01 L64 0 L64 14 L0 14 Z" fill="var(--cf-spark-bg)" stroke="none"/><path d="M0 14 L2.91 14 L5.82 14 L8.73 14 L11.64 14 L14.55 12.33 L17.45 12.33 L20.36 12.33 L23.27 12.22 L26.18 12.18 L29.09 12.15 L32 12.15 L34.91 1.53 L37.82 1 L40.73 0.98 L43.64 0.95 L46.55 0.95 L49.45 0.95 L52.36 0.69 L55.27 0.69 L58.18 0.67 L61.09 0.01 L64 0" fill="none" stroke="var(--cf-spark)" stroke-width="1.4" stroke-linecap="round" stroke-linejoin="round"/></svg></g></g><g transform="translate(291.6,46)"><text x="0" y="0" font-size="9" font-weight="600" fill="var(--cf-text-dim)" letter-spacing="0.8">LOC</text><text x="0" y="28" font-size="22" font-weight="700" fill="var(--cf-text)">467.6K</text><g transform="translate(0,40)"><svg width="64" height="14" viewBox="0 0 64 14" preserveAspectRatio="none"><path d="M0 13.9 L2.91 13.99 L5.82 14 L8.73 14 L11.64 14 L14.55 8.66 L17.45 8.65 L20.36 8.64 L23.27 8.4 L26.18 9.07 L29.09 9 L32 9 L34.91 6.35 L37.82 3.66 L40.73 3.63 L43.64 3.51 L46.55 3.51 L49.45 3.49 L52.36 2.64 L55.27 3.16 L58.18 3.15 L61.09 0.03 L64 0 L64 14 L0 14 Z" fill="var(--cf-spark-bg)" stroke="none"/><path d="M0 13.9 L2.91 13.99 L5.82 14 L8.73 14 L11.64 14 L14.55 8.66 L17.45 8.65 L20.36 8.64 L23.27 8.4 L26.18 9.07 L29.09 9 L32 9 L34.91 6.35 L37.82 3.66 L40.73 3.63 L43.64 3.51 L46.55 3.51 L49.45 3.49 L52.36 2.64 L55.27 3.16 L58.18 3.15 L61.09 0.03 L64 0" fill="none" stroke="var(--cf-spark)" stroke-width="1.4" stroke-linecap="round" stroke-linejoin="round"/></svg></g></g><g transform="translate(428.40000000000003,46)"><text x="0" y="0" font-size="9" font-weight="600" fill="var(--cf-text-dim)" letter-spacing="0.8">LANGS</text><text x="0" y="28" font-size="22" font-weight="700" fill="var(--cf-text)">19</text><g transform="translate(0,40)"><svg width="64" height="14" viewBox="0 0 64 14" preserveAspectRatio="none"><path d="M0 7 L2.91 7 L5.82 7 L8.73 7 L11.64 7 L14.55 7 L17.45 7 L20.36 7 L23.27 7 L26.18 7 L29.09 7 L32 7 L34.91 7 L37.82 7 L40.73 7 L43.64 7 L46.55 7 L49.45 7 L52.36 7 L55.27 7 L58.18 7 L61.09 7 L64 7 L64 14 L0 14 Z" fill="var(--cf-spark-bg)" stroke="none"/><path d="M0 7 L2.91 7 L5.82 7 L8.73 7 L11.64 7 L14.55 7 L17.45 7 L20.36 7 L23.27 7 L26.18 7 L29.09 7 L32 7 L34.91 7 L37.82 7 L40.73 7 L43.64 7 L46.55 7 L49.45 7 L52.36 7 L55.27 7 L58.18 7 L61.09 7 L64 7" fill="none" stroke="var(--cf-spark)" stroke-width="1.4" stroke-linecap="round" stroke-linejoin="round"/></svg></g></g><g transform="translate(565.2,46)"><text x="0" y="0" font-size="9" font-weight="600" fill="var(--cf-text-dim)" letter-spacing="0.8">TESTS</text><text x="0" y="28" font-size="22" font-weight="700" fill="var(--cf-text)">186</text><g transform="translate(0,40)"><svg width="64" height="14" viewBox="0 0 64 14" preserveAspectRatio="none"><path d="M0 14 L2.91 14 L5.82 14 L8.73 14 L11.64 14 L14.55 11.67 L17.45 11.67 L20.36 11.67 L23.27 11.67 L26.18 11.67 L29.09 11.67 L32 11.67 L34.91 0 L37.82 0 L40.73 0 L43.64 0 L46.55 0 L49.45 0 L52.36 0 L55.27 0 L58.18 0 L61.09 0 L64 0 L64 14 L0 14 Z" fill="var(--cf-spark-bg)" stroke="none"/><path d="M0 14 L2.91 14 L5.82 14 L8.73 14 L11.64 14 L14.55 11.67 L17.45 11.67 L20.36 11.67 L23.27 11.67 L26.18 11.67 L29.09 11.67 L32 11.67 L34.91 0 L37.82 0 L40.73 0 L43.64 0 L46.55 0 L49.45 0 L52.36 0 L55.27 0 L58.18 0 L61.09 0 L64 0" fill="none" stroke="var(--cf-spark)" stroke-width="1.4" stroke-linecap="round" stroke-linejoin="round"/></svg></g></g><a href="https://github.com/braedonsaunders/codeflow" target="_blank"><text x="702" y="130" text-anchor="end" font-size="9" fill="var(--cf-text-faint)">powered by <tspan font-weight="600" fill="var(--cf-accent)">codeflow</tspan></text></a></svg>