<svg xmlns="http://www.w3.org/2000/svg" width="720" height="140" viewBox="0 0 720 140" font-family="-apple-system,BlinkMacSystemFont,Segoe UI,Helvetica,Arial,sans-serif"><style>svg{--cf-bg:#0d1117;--cf-bg-alt:#161b22;--cf-border:#21262d;--cf-text:#e6edf3;--cf-text-dim:#8b949e;--cf-text-faint:#6e7681;--cf-accent:#5eead4;--cf-accent-soft:rgba(94,234,212,0.16);--cf-green:#3fb950;--cf-amber:#d29922;--cf-red:#f85149;--cf-spark:#5eead4;--cf-spark-bg:rgba(94,234,212,0.18)}@media (prefers-color-scheme: light){svg{--cf-bg:#ffffff;--cf-bg-alt:#f6f8fa;--cf-border:#d0d7de;--cf-text:#1f2328;--cf-text-dim:#656d76;--cf-text-faint:#8c959f;--cf-accent:#0d9488;--cf-accent-soft:rgba(13,148,136,0.12);--cf-green:#1a7f37;--cf-amber:#9a6700;--cf-red:#cf222e;--cf-spark:#0d9488;--cf-spark-bg:rgba(13,148,136,0.12)}}</style><rect width="720" height="140" rx="12" fill="var(--cf-bg)" stroke="var(--cf-border)"/><text x="18" y="26" font-size="13" font-weight="600" fill="var(--cf-text)">braedonsaunders/homerun</text><text x="702" y="26" text-anchor="end" font-size="10" fill="var(--cf-text-faint)" font-family="ui-monospace,SFMono-Regular,Menlo,monospace">@929dd09</text><g transform="translate(18,46)"><text x="0" y="0" font-size="9" font-weight="600" fill="var(--cf-text-dim)" letter-spacing="0.8">FILES</text><text x="0" y="28" font-size="22" font-weight="700" fill="var(--cf-text)">1K</text><g transform="translate(0,40)"><svg width="64" height="14" viewBox="0 0 64 14" preserveAspectRatio="none"><path d="M0 14 L2.13 14 L4.27 14 L6.4 13.56 L8.53 13.56 L10.67 13.56 L12.8 13.56 L14.93 13.56 L17.07 6.56 L19.2 6.56 L21.33 6.56 L23.47 5.69 L25.6 5.25 L27.73 5.25 L29.87 5.25 L32 4.81 L34.13 4.81 L36.27 4.38 L38.4 4.38 L40.53 4.38 L42.67 2.19 L44.8 1.31 L46.93 0.44 L49.07 0.44 L51.2 0 L53.33 3.06 L55.47 3.06 L57.6 3.06 L59.73 3.06 L61.87 3.06 L64 2.63 L64 14 L0 14 Z" fill="var(--cf-spark-bg)" stroke="none"/><path d="M0 14 L2.13 14 L4.27 14 L6.4 13.56 L8.53 13.56 L10.67 13.56 L12.8 13.56 L14.93 13.56 L17.07 6.56 L19.2 6.56 L21.33 6.56 L23.47 5.69 L25.6 5.25 L27.73 5.25 L29.87 5.25 L32 4.81 L34.13 4.81 L36.27 4.38 L38.4 4.38 L40.53 4.38 L42.67 2.19 L44.8 1.31 L46.93 0.44 L49.07 0.44 L51.2 0 L53.33 3.06 L55.47 3.06 L57.6 3.06 L59.73 3.06 L61.87 3.06 L64 2.63" fill="none" stroke="var(--cf-spark)" stroke-width="1.4" stroke-linecap="round" stroke-linejoin="round"/></svg></g></g><g transform="translate(154.8,46)"><text x="0" y="0" font-size="9" font-weight="600" fill="var(--cf-text-dim)" letter-spacing="0.8">FNS</text><text x="0" y="28" font-size="22" font-weight="700" fill="var(--cf-text)">14.9K</text><g transform="translate(0,40)"><svg width="64" height="14" viewBox="0 0 64 14" preserveAspectRatio="none"><path d="M0 14 L2.13 14 L4.27 13.97 L6.4 13.71 L8.53 13.71 L10.67 13.69 L12.8 13.63 L14.93 13.34 L17.07 5.72 L19.2 5.61 L21.33 5.61 L23.47 5.03 L25.6 4.98 L27.73 4.98 L29.87 4.98 L32 4.67 L34.13 4.4 L36.27 4.35 L38.4 4.33 L40.53 4.3 L42.67 2.46 L44.8 1.34 L46.93 0.52 L49.07 0.52 L51.2 0 L53.33 0.39 L55.47 0.39 L57.6 0.39 L59.73 0.39 L61.87 0.37 L64 0.08 L64 14 L0 14 Z" fill="var(--cf-spark-bg)" stroke="none"/><path d="M0 14 L2.13 14 L4.27 13.97 L6.4 13.71 L8.53 13.71 L10.67 13.69 L12.8 13.63 L14.93 13.34 L17.07 5.72 L19.2 5.61 L21.33 5.61 L23.47 5.03 L25.6 4.98 L27.73 4.98 L29.87 4.98 L32 4.67 L34.13 4.4 L36.27 4.35 L38.4 4.33 L40.53 4.3 L42.67 2.46 L44.8 1.34 L46.93 0.52 L49.07 0.52 L51.2 0 L53.33 0.39 L55.47 0.39 L57.6 0.39 L59.73 0.39 L61.87 0.37 L64 0.08" fill="none" stroke="var(--cf-spark)" stroke-width="1.4" stroke-linecap="round" stroke-linejoin="round"/></svg></g></g><g transform="translate(291.6,46)"><text x="0" y="0" font-size="9" font-weight="600" fill="var(--cf-text-dim)" letter-spacing="0.8">LOC</text><text x="0" y="28" font-size="22" font-weight="700" fill="var(--cf-text)">602.2K</text><g transform="translate(0,40)"><svg width="64" height="14" viewBox="0 0 64 14" preserveAspectRatio="none"><path d="M0 14 L2.13 14 L4.27 13.96 L6.4 13.71 L8.53 13.72 L10.67 13.6 L12.8 13.53 L14.93 13.2 L17.07 5.18 L19.2 5.21 L21.33 5.19 L23.47 4.65 L25.6 4.56 L27.73 4.56 L29.87 4.56 L32 4.35 L34.13 4.14 L36.27 4.07 L38.4 3.99 L40.53 3.96 L42.67 2.28 L44.8 0.95 L46.93 0.44 L49.07 0.43 L51.2 0 L53.33 2.07 L55.47 2.05 L57.6 2.04 L59.73 2.05 L61.87 1.89 L64 1.39 L64 14 L0 14 Z" fill="var(--cf-spark-bg)" stroke="none"/><path d="M0 14 L2.13 14 L4.27 13.96 L6.4 13.71 L8.53 13.72 L10.67 13.6 L12.8 13.53 L14.93 13.2 L17.07 5.18 L19.2 5.21 L21.33 5.19 L23.47 4.65 L25.6 4.56 L27.73 4.56 L29.87 4.56 L32 4.35 L34.13 4.14 L36.27 4.07 L38.4 3.99 L40.53 3.96 L42.67 2.28 L44.8 0.95 L46.93 0.44 L49.07 0.43 L51.2 0 L53.33 2.07 L55.47 2.05 L57.6 2.04 L59.73 2.05 L61.87 1.89 L64 1.39" fill="none" stroke="var(--cf-spark)" stroke-width="1.4" stroke-linecap="round" stroke-linejoin="round"/></svg></g></g><g transform="translate(428.40000000000003,46)"><text x="0" y="0" font-size="9" font-weight="600" fill="var(--cf-text-dim)" letter-spacing="0.8">LANGS</text><text x="0" y="28" font-size="22" font-weight="700" fill="var(--cf-text)">22</text><g transform="translate(0,40)"><svg width="64" height="14" viewBox="0 0 64 14" preserveAspectRatio="none"><path d="M0 7 L2.13 7 L4.27 7 L6.4 7 L8.53 7 L10.67 7 L12.8 7 L14.93 7 L17.07 7 L19.2 7 L21.33 7 L23.47 7 L25.6 7 L27.73 7 L29.87 7 L32 7 L34.13 7 L36.27 7 L38.4 7 L40.53 7 L42.67 7 L44.8 7 L46.93 7 L49.07 7 L51.2 7 L53.33 7 L55.47 7 L57.6 7 L59.73 7 L61.87 7 L64 7 L64 14 L0 14 Z" fill="var(--cf-spark-bg)" stroke="none"/><path d="M0 7 L2.13 7 L4.27 7 L6.4 7 L8.53 7 L10.67 7 L12.8 7 L14.93 7 L17.07 7 L19.2 7 L21.33 7 L23.47 7 L25.6 7 L27.73 7 L29.87 7 L32 7 L34.13 7 L36.27 7 L38.4 7 L40.53 7 L42.67 7 L44.8 7 L46.93 7 L49.07 7 L51.2 7 L53.33 7 L55.47 7 L57.6 7 L59.73 7 L61.87 7 L64 7" fill="none" stroke="var(--cf-spark)" stroke-width="1.4" stroke-linecap="round" stroke-linejoin="round"/></svg></g></g><g transform="translate(565.2,46)"><text x="0" y="0" font-size="9" font-weight="600" fill="var(--cf-text-dim)" letter-spacing="0.8">TESTS</text><text x="0" y="28" font-size="22" font-weight="700" fill="var(--cf-text)">230</text><g transform="translate(0,40)"><svg width="64" height="14" viewBox="0 0 64 14" preserveAspectRatio="none"><path d="M0 14 L2.13 14 L4.27 14 L6.4 14 L8.53 14 L10.67 14 L12.8 14 L14.93 14 L17.07 6.63 L19.2 6.63 L21.33 6.63 L23.47 5.16 L25.6 5.16 L27.73 5.16 L29.87 5.16 L32 4.42 L34.13 4.42 L36.27 4.42 L38.4 4.42 L40.53 4.42 L42.67 2.21 L44.8 1.47 L46.93 0.74 L49.07 0.74 L51.2 0 L53.33 0 L55.47 0 L57.6 0 L59.73 0 L61.87 0 L64 0 L64 14 L0 14 Z" fill="var(--cf-spark-bg)" stroke="none"/><path d="M0 14 L2.13 14 L4.27 14 L6.4 14 L8.53 14 L10.67 14 L12.8 14 L14.93 14 L17.07 6.63 L19.2 6.63 L21.33 6.63 L23.47 5.16 L25.6 5.16 L27.73 5.16 L29.87 5.16 L32 4.42 L34.13 4.42 L36.27 4.42 L38.4 4.42 L40.53 4.42 L42.67 2.21 L44.8 1.47 L46.93 0.74 L49.07 0.74 L51.2 0 L53.33 0 L55.47 0 L57.6 0 L59.73 0 L61.87 0 L64 0" fill="none" stroke="var(--cf-spark)" stroke-width="1.4" stroke-linecap="round" stroke-linejoin="round"/></svg></g></g><a href="https://github.com/braedonsaunders/codeflow" target="_blank"><text x="702" y="130" text-anchor="end" font-size="9" fill="var(--cf-text-faint)">powered by <tspan font-weight="600" fill="var(--cf-accent)">codeflow</tspan></text></a></svg>