<svg xmlns="http://www.w3.org/2000/svg" width="720" height="140" viewBox="0 0 720 140" font-family="-apple-system,BlinkMacSystemFont,Segoe UI,Helvetica,Arial,sans-serif"><style>svg{--cf-bg:#0d1117;--cf-bg-alt:#161b22;--cf-border:#21262d;--cf-text:#e6edf3;--cf-text-dim:#8b949e;--cf-text-faint:#6e7681;--cf-accent:#5eead4;--cf-accent-soft:rgba(94,234,212,0.16);--cf-green:#3fb950;--cf-amber:#d29922;--cf-red:#f85149;--cf-spark:#5eead4;--cf-spark-bg:rgba(94,234,212,0.18)}@media (prefers-color-scheme: light){svg{--cf-bg:#ffffff;--cf-bg-alt:#f6f8fa;--cf-border:#d0d7de;--cf-text:#1f2328;--cf-text-dim:#656d76;--cf-text-faint:#8c959f;--cf-accent:#0d9488;--cf-accent-soft:rgba(13,148,136,0.12);--cf-green:#1a7f37;--cf-amber:#9a6700;--cf-red:#cf222e;--cf-spark:#0d9488;--cf-spark-bg:rgba(13,148,136,0.12)}}</style><rect width="720" height="140" rx="12" fill="var(--cf-bg)" stroke="var(--cf-border)"/><text x="18" y="26" font-size="13" font-weight="600" fill="var(--cf-text)">braedonsaunders/homerun</text><text x="702" y="26" text-anchor="end" font-size="10" fill="var(--cf-text-faint)" font-family="ui-monospace,SFMono-Regular,Menlo,monospace">@e21161c</text><g transform="translate(18,46)"><text x="0" y="0" font-size="9" font-weight="600" fill="var(--cf-text-dim)" letter-spacing="0.8">FILES</text><text x="0" y="28" font-size="22" font-weight="700" fill="var(--cf-text)">1K</text><g transform="translate(0,40)"><svg width="64" height="14" viewBox="0 0 64 14" preserveAspectRatio="none"><path d="M0 14 L2.13 13.58 L4.27 13.15 L6.4 13.15 L8.53 13.15 L10.67 13.15 L12.8 13.15 L14.93 13.15 L17.07 13.15 L19.2 13.15 L21.33 12.73 L23.47 12.73 L25.6 12.73 L27.73 12.73 L29.87 12.73 L32 5.94 L34.13 5.94 L36.27 5.94 L38.4 5.09 L40.53 4.67 L42.67 4.67 L44.8 4.67 L46.93 4.24 L49.07 4.24 L51.2 3.82 L53.33 3.82 L55.47 3.82 L57.6 1.7 L59.73 0.85 L61.87 0 L64 0 L64 14 L0 14 Z" fill="var(--cf-spark-bg)" stroke="none"/><path d="M0 14 L2.13 13.58 L4.27 13.15 L6.4 13.15 L8.53 13.15 L10.67 13.15 L12.8 13.15 L14.93 13.15 L17.07 13.15 L19.2 13.15 L21.33 12.73 L23.47 12.73 L25.6 12.73 L27.73 12.73 L29.87 12.73 L32 5.94 L34.13 5.94 L36.27 5.94 L38.4 5.09 L40.53 4.67 L42.67 4.67 L44.8 4.67 L46.93 4.24 L49.07 4.24 L51.2 3.82 L53.33 3.82 L55.47 3.82 L57.6 1.7 L59.73 0.85 L61.87 0 L64 0" fill="none" stroke="var(--cf-spark)" stroke-width="1.4" stroke-linecap="round" stroke-linejoin="round"/></svg></g></g><g transform="translate(154.8,46)"><text x="0" y="0" font-size="9" font-weight="600" fill="var(--cf-text-dim)" letter-spacing="0.8">FNS</text><text x="0" y="28" font-size="22" font-weight="700" fill="var(--cf-text)">14.8K</text><g transform="translate(0,40)"><svg width="64" height="14" viewBox="0 0 64 14" preserveAspectRatio="none"><path d="M0 14 L2.13 13.63 L4.27 13.38 L6.4 13.2 L8.53 12.95 L10.67 12.93 L12.8 12.93 L14.93 12.8 L17.07 12.8 L19.2 12.78 L21.33 12.53 L23.47 12.53 L25.6 12.51 L27.73 12.46 L29.87 12.18 L32 4.93 L34.13 4.83 L36.27 4.83 L38.4 4.28 L40.53 4.23 L42.67 4.23 L44.8 4.23 L46.93 3.94 L49.07 3.69 L51.2 3.64 L53.33 3.61 L55.47 3.59 L57.6 1.84 L59.73 0.77 L61.87 0 L64 0 L64 14 L0 14 Z" fill="var(--cf-spark-bg)" stroke="none"/><path d="M0 14 L2.13 13.63 L4.27 13.38 L6.4 13.2 L8.53 12.95 L10.67 12.93 L12.8 12.93 L14.93 12.8 L17.07 12.8 L19.2 12.78 L21.33 12.53 L23.47 12.53 L25.6 12.51 L27.73 12.46 L29.87 12.18 L32 4.93 L34.13 4.83 L36.27 4.83 L38.4 4.28 L40.53 4.23 L42.67 4.23 L44.8 4.23 L46.93 3.94 L49.07 3.69 L51.2 3.64 L53.33 3.61 L55.47 3.59 L57.6 1.84 L59.73 0.77 L61.87 0 L64 0" fill="none" stroke="var(--cf-spark)" stroke-width="1.4" stroke-linecap="round" stroke-linejoin="round"/></svg></g></g><g transform="translate(291.6,46)"><text x="0" y="0" font-size="9" font-weight="600" fill="var(--cf-text-dim)" letter-spacing="0.8">LOC</text><text x="0" y="28" font-size="22" font-weight="700" fill="var(--cf-text)">603.1K</text><g transform="translate(0,40)"><svg width="64" height="14" viewBox="0 0 64 14" preserveAspectRatio="none"><path d="M0 14 L2.13 13.76 L4.27 13.64 L6.4 13.33 L8.53 13 L10.67 12.93 L12.8 12.92 L14.93 12.9 L17.07 12.9 L19.2 12.86 L21.33 12.63 L23.47 12.63 L25.6 12.52 L27.73 12.45 L29.87 12.14 L32 4.52 L34.13 4.55 L36.27 4.53 L38.4 4.02 L40.53 3.93 L42.67 3.93 L44.8 3.93 L46.93 3.73 L49.07 3.53 L51.2 3.46 L53.33 3.39 L55.47 3.36 L57.6 1.76 L59.73 0.5 L61.87 0.01 L64 0 L64 14 L0 14 Z" fill="var(--cf-spark-bg)" stroke="none"/><path d="M0 14 L2.13 13.76 L4.27 13.64 L6.4 13.33 L8.53 13 L10.67 12.93 L12.8 12.92 L14.93 12.9 L17.07 12.9 L19.2 12.86 L21.33 12.63 L23.47 12.63 L25.6 12.52 L27.73 12.45 L29.87 12.14 L32 4.52 L34.13 4.55 L36.27 4.53 L38.4 4.02 L40.53 3.93 L42.67 3.93 L44.8 3.93 L46.93 3.73 L49.07 3.53 L51.2 3.46 L53.33 3.39 L55.47 3.36 L57.6 1.76 L59.73 0.5 L61.87 0.01 L64 0" fill="none" stroke="var(--cf-spark)" stroke-width="1.4" stroke-linecap="round" stroke-linejoin="round"/></svg></g></g><g transform="translate(428.40000000000003,46)"><text x="0" y="0" font-size="9" font-weight="600" fill="var(--cf-text-dim)" letter-spacing="0.8">LANGS</text><text x="0" y="28" font-size="22" font-weight="700" fill="var(--cf-text)">22</text><g transform="translate(0,40)"><svg width="64" height="14" viewBox="0 0 64 14" preserveAspectRatio="none"><path d="M0 7 L2.13 7 L4.27 7 L6.4 7 L8.53 7 L10.67 7 L12.8 7 L14.93 7 L17.07 7 L19.2 7 L21.33 7 L23.47 7 L25.6 7 L27.73 7 L29.87 7 L32 7 L34.13 7 L36.27 7 L38.4 7 L40.53 7 L42.67 7 L44.8 7 L46.93 7 L49.07 7 L51.2 7 L53.33 7 L55.47 7 L57.6 7 L59.73 7 L61.87 7 L64 7 L64 14 L0 14 Z" fill="var(--cf-spark-bg)" stroke="none"/><path d="M0 7 L2.13 7 L4.27 7 L6.4 7 L8.53 7 L10.67 7 L12.8 7 L14.93 7 L17.07 7 L19.2 7 L21.33 7 L23.47 7 L25.6 7 L27.73 7 L29.87 7 L32 7 L34.13 7 L36.27 7 L38.4 7 L40.53 7 L42.67 7 L44.8 7 L46.93 7 L49.07 7 L51.2 7 L53.33 7 L55.47 7 L57.6 7 L59.73 7 L61.87 7 L64 7" fill="none" stroke="var(--cf-spark)" stroke-width="1.4" stroke-linecap="round" stroke-linejoin="round"/></svg></g></g><g transform="translate(565.2,46)"><text x="0" y="0" font-size="9" font-weight="600" fill="var(--cf-text-dim)" letter-spacing="0.8">TESTS</text><text x="0" y="28" font-size="22" font-weight="700" fill="var(--cf-text)">229</text><g transform="translate(0,40)"><svg width="64" height="14" viewBox="0 0 64 14" preserveAspectRatio="none"><path d="M0 14 L2.13 14 L4.27 13.26 L6.4 13.26 L8.53 13.26 L10.67 13.26 L12.8 13.26 L14.93 13.26 L17.07 13.26 L19.2 13.26 L21.33 13.26 L23.47 13.26 L25.6 13.26 L27.73 13.26 L29.87 13.26 L32 5.89 L34.13 5.89 L36.27 5.89 L38.4 4.42 L40.53 4.42 L42.67 4.42 L44.8 4.42 L46.93 3.68 L49.07 3.68 L51.2 3.68 L53.33 3.68 L55.47 3.68 L57.6 1.47 L59.73 0.74 L61.87 0 L64 0 L64 14 L0 14 Z" fill="var(--cf-spark-bg)" stroke="none"/><path d="M0 14 L2.13 14 L4.27 13.26 L6.4 13.26 L8.53 13.26 L10.67 13.26 L12.8 13.26 L14.93 13.26 L17.07 13.26 L19.2 13.26 L21.33 13.26 L23.47 13.26 L25.6 13.26 L27.73 13.26 L29.87 13.26 L32 5.89 L34.13 5.89 L36.27 5.89 L38.4 4.42 L40.53 4.42 L42.67 4.42 L44.8 4.42 L46.93 3.68 L49.07 3.68 L51.2 3.68 L53.33 3.68 L55.47 3.68 L57.6 1.47 L59.73 0.74 L61.87 0 L64 0" fill="none" stroke="var(--cf-spark)" stroke-width="1.4" stroke-linecap="round" stroke-linejoin="round"/></svg></g></g><a href="https://github.com/braedonsaunders/codeflow" target="_blank"><text x="702" y="130" text-anchor="end" font-size="9" fill="var(--cf-text-faint)">powered by <tspan font-weight="600" fill="var(--cf-accent)">codeflow</tspan></text></a></svg>