<svg xmlns="http://www.w3.org/2000/svg" width="720" height="140" viewBox="0 0 720 140" font-family="-apple-system,BlinkMacSystemFont,Segoe UI,Helvetica,Arial,sans-serif"><style>svg{--cf-bg:#0d1117;--cf-bg-alt:#161b22;--cf-border:#21262d;--cf-text:#e6edf3;--cf-text-dim:#8b949e;--cf-text-faint:#6e7681;--cf-accent:#5eead4;--cf-accent-soft:rgba(94,234,212,0.16);--cf-green:#3fb950;--cf-amber:#d29922;--cf-red:#f85149;--cf-spark:#5eead4;--cf-spark-bg:rgba(94,234,212,0.18)}@media (prefers-color-scheme: light){svg{--cf-bg:#ffffff;--cf-bg-alt:#f6f8fa;--cf-border:#d0d7de;--cf-text:#1f2328;--cf-text-dim:#656d76;--cf-text-faint:#8c959f;--cf-accent:#0d9488;--cf-accent-soft:rgba(13,148,136,0.12);--cf-green:#1a7f37;--cf-amber:#9a6700;--cf-red:#cf222e;--cf-spark:#0d9488;--cf-spark-bg:rgba(13,148,136,0.12)}}</style><rect width="720" height="140" rx="12" fill="var(--cf-bg)" stroke="var(--cf-border)"/><text x="18" y="26" font-size="13" font-weight="600" fill="var(--cf-text)">braedonsaunders/homerun</text><text x="702" y="26" text-anchor="end" font-size="10" fill="var(--cf-text-faint)" font-family="ui-monospace,SFMono-Regular,Menlo,monospace">@e14ceaf</text><g transform="translate(18,46)"><text x="0" y="0" font-size="9" font-weight="600" fill="var(--cf-text-dim)" letter-spacing="0.8">FILES</text><text x="0" y="28" font-size="22" font-weight="700" fill="var(--cf-text)">899</text><g transform="translate(0,40)"><svg width="64" height="14" viewBox="0 0 64 14" preserveAspectRatio="none"><path d="M0 14 L2.13 14 L4.27 14 L6.4 14 L8.53 14 L10.67 14 L12.8 14 L14.93 12.41 L17.07 12.41 L19.2 12.41 L21.33 11.77 L23.47 11.77 L25.6 11.77 L27.73 11.77 L29.87 11.77 L32 11.77 L34.13 11.77 L36.27 10.18 L38.4 10.18 L40.53 10.18 L42.67 10.18 L44.8 10.18 L46.93 9.86 L49.07 9.86 L51.2 9.23 L53.33 9.23 L55.47 0.64 L57.6 0.64 L59.73 0.64 L61.87 0.32 L64 0 L64 14 L0 14 Z" fill="var(--cf-spark-bg)" stroke="none"/><path d="M0 14 L2.13 14 L4.27 14 L6.4 14 L8.53 14 L10.67 14 L12.8 14 L14.93 12.41 L17.07 12.41 L19.2 12.41 L21.33 11.77 L23.47 11.77 L25.6 11.77 L27.73 11.77 L29.87 11.77 L32 11.77 L34.13 11.77 L36.27 10.18 L38.4 10.18 L40.53 10.18 L42.67 10.18 L44.8 10.18 L46.93 9.86 L49.07 9.86 L51.2 9.23 L53.33 9.23 L55.47 0.64 L57.6 0.64 L59.73 0.64 L61.87 0.32 L64 0" fill="none" stroke="var(--cf-spark)" stroke-width="1.4" stroke-linecap="round" stroke-linejoin="round"/></svg></g></g><g transform="translate(154.8,46)"><text x="0" y="0" font-size="9" font-weight="600" fill="var(--cf-text-dim)" letter-spacing="0.8">FNS</text><text x="0" y="28" font-size="22" font-weight="700" fill="var(--cf-text)">13K</text><g transform="translate(0,40)"><svg width="64" height="14" viewBox="0 0 64 14" preserveAspectRatio="none"><path d="M0 14 L2.13 13.98 L4.27 13.93 L6.4 13.83 L8.53 13.83 L10.67 13.26 L12.8 13.26 L14.93 11.94 L17.07 12.17 L19.2 12.17 L21.33 10.83 L23.47 10.83 L25.6 10.83 L27.73 10.83 L29.87 10.75 L32 10.75 L34.13 10.73 L36.27 10.73 L38.4 10.43 L40.53 10.43 L42.67 10.41 L44.8 10.41 L46.93 10.31 L49.07 10.31 L51.2 9.59 L53.33 9.29 L55.47 0.22 L57.6 0.1 L59.73 0.07 L61.87 0.07 L64 0 L64 14 L0 14 Z" fill="var(--cf-spark-bg)" stroke="none"/><path d="M0 14 L2.13 13.98 L4.27 13.93 L6.4 13.83 L8.53 13.83 L10.67 13.26 L12.8 13.26 L14.93 11.94 L17.07 12.17 L19.2 12.17 L21.33 10.83 L23.47 10.83 L25.6 10.83 L27.73 10.83 L29.87 10.75 L32 10.75 L34.13 10.73 L36.27 10.73 L38.4 10.43 L40.53 10.43 L42.67 10.41 L44.8 10.41 L46.93 10.31 L49.07 10.31 L51.2 9.59 L53.33 9.29 L55.47 0.22 L57.6 0.1 L59.73 0.07 L61.87 0.07 L64 0" fill="none" stroke="var(--cf-spark)" stroke-width="1.4" stroke-linecap="round" stroke-linejoin="round"/></svg></g></g><g transform="translate(291.6,46)"><text x="0" y="0" font-size="9" font-weight="600" fill="var(--cf-text-dim)" letter-spacing="0.8">LOC</text><text x="0" y="28" font-size="22" font-weight="700" fill="var(--cf-text)">493.3K</text><g transform="translate(0,40)"><svg width="64" height="14" viewBox="0 0 64 14" preserveAspectRatio="none"><path d="M0 14 L2.13 13.99 L4.27 13.96 L6.4 13.7 L8.53 13.66 L10.67 12.83 L12.8 12.72 L14.93 11.3 L17.07 11.38 L19.2 11.35 L21.33 10.37 L23.47 9.97 L25.6 9.97 L27.73 9.91 L29.87 9.83 L32 9.8 L34.13 9.68 L36.27 9.39 L38.4 9.31 L40.53 9.28 L42.67 9.13 L44.8 9.07 L46.93 8.9 L49.07 8.89 L51.2 8.27 L53.33 7.73 L55.47 0.47 L57.6 0.19 L59.73 0.18 L61.87 0.13 L64 0 L64 14 L0 14 Z" fill="var(--cf-spark-bg)" stroke="none"/><path d="M0 14 L2.13 13.99 L4.27 13.96 L6.4 13.7 L8.53 13.66 L10.67 12.83 L12.8 12.72 L14.93 11.3 L17.07 11.38 L19.2 11.35 L21.33 10.37 L23.47 9.97 L25.6 9.97 L27.73 9.91 L29.87 9.83 L32 9.8 L34.13 9.68 L36.27 9.39 L38.4 9.31 L40.53 9.28 L42.67 9.13 L44.8 9.07 L46.93 8.9 L49.07 8.89 L51.2 8.27 L53.33 7.73 L55.47 0.47 L57.6 0.19 L59.73 0.18 L61.87 0.13 L64 0" fill="none" stroke="var(--cf-spark)" stroke-width="1.4" stroke-linecap="round" stroke-linejoin="round"/></svg></g></g><g transform="translate(428.40000000000003,46)"><text x="0" y="0" font-size="9" font-weight="600" fill="var(--cf-text-dim)" letter-spacing="0.8">LANGS</text><text x="0" y="28" font-size="22" font-weight="700" fill="var(--cf-text)">22</text><g transform="translate(0,40)"><svg width="64" height="14" viewBox="0 0 64 14" preserveAspectRatio="none"><path d="M0 14 L2.13 14 L4.27 14 L6.4 14 L8.53 14 L10.67 14 L12.8 14 L14.93 14 L17.07 14 L19.2 14 L21.33 14 L23.47 14 L25.6 14 L27.73 14 L29.87 14 L32 14 L34.13 14 L36.27 0 L38.4 0 L40.53 0 L42.67 0 L44.8 0 L46.93 0 L49.07 0 L51.2 0 L53.33 0 L55.47 0 L57.6 0 L59.73 0 L61.87 0 L64 0 L64 14 L0 14 Z" fill="var(--cf-spark-bg)" stroke="none"/><path d="M0 14 L2.13 14 L4.27 14 L6.4 14 L8.53 14 L10.67 14 L12.8 14 L14.93 14 L17.07 14 L19.2 14 L21.33 14 L23.47 14 L25.6 14 L27.73 14 L29.87 14 L32 14 L34.13 14 L36.27 0 L38.4 0 L40.53 0 L42.67 0 L44.8 0 L46.93 0 L49.07 0 L51.2 0 L53.33 0 L55.47 0 L57.6 0 L59.73 0 L61.87 0 L64 0" fill="none" stroke="var(--cf-spark)" stroke-width="1.4" stroke-linecap="round" stroke-linejoin="round"/></svg></g></g><g transform="translate(565.2,46)"><text x="0" y="0" font-size="9" font-weight="600" fill="var(--cf-text-dim)" letter-spacing="0.8">TESTS</text><text x="0" y="28" font-size="22" font-weight="700" fill="var(--cf-text)">187</text><g transform="translate(0,40)"><svg width="64" height="14" viewBox="0 0 64 14" preserveAspectRatio="none"><path d="M0 14 L2.13 14 L4.27 14 L6.4 14 L8.53 14 L10.67 14 L12.8 14 L14.93 14 L17.07 14 L19.2 14 L21.33 0 L23.47 0 L25.6 0 L27.73 0 L29.87 0 L32 0 L34.13 0 L36.27 0 L38.4 0 L40.53 0 L42.67 0 L44.8 0 L46.93 0 L49.07 0 L51.2 0 L53.33 0 L55.47 0 L57.6 0 L59.73 0 L61.87 0 L64 0 L64 14 L0 14 Z" fill="var(--cf-spark-bg)" stroke="none"/><path d="M0 14 L2.13 14 L4.27 14 L6.4 14 L8.53 14 L10.67 14 L12.8 14 L14.93 14 L17.07 14 L19.2 14 L21.33 0 L23.47 0 L25.6 0 L27.73 0 L29.87 0 L32 0 L34.13 0 L36.27 0 L38.4 0 L40.53 0 L42.67 0 L44.8 0 L46.93 0 L49.07 0 L51.2 0 L53.33 0 L55.47 0 L57.6 0 L59.73 0 L61.87 0 L64 0" fill="none" stroke="var(--cf-spark)" stroke-width="1.4" stroke-linecap="round" stroke-linejoin="round"/></svg></g></g><a href="https://github.com/braedonsaunders/codeflow" target="_blank"><text x="702" y="130" text-anchor="end" font-size="9" fill="var(--cf-text-faint)">powered by <tspan font-weight="600" fill="var(--cf-accent)">codeflow</tspan></text></a></svg>