<svg xmlns="http://www.w3.org/2000/svg" width="720" height="140" viewBox="0 0 720 140" font-family="-apple-system,BlinkMacSystemFont,Segoe UI,Helvetica,Arial,sans-serif"><style>svg{--cf-bg:#0d1117;--cf-bg-alt:#161b22;--cf-border:#21262d;--cf-text:#e6edf3;--cf-text-dim:#8b949e;--cf-text-faint:#6e7681;--cf-accent:#5eead4;--cf-accent-soft:rgba(94,234,212,0.16);--cf-green:#3fb950;--cf-amber:#d29922;--cf-red:#f85149;--cf-spark:#5eead4;--cf-spark-bg:rgba(94,234,212,0.18)}@media (prefers-color-scheme: light){svg{--cf-bg:#ffffff;--cf-bg-alt:#f6f8fa;--cf-border:#d0d7de;--cf-text:#1f2328;--cf-text-dim:#656d76;--cf-text-faint:#8c959f;--cf-accent:#0d9488;--cf-accent-soft:rgba(13,148,136,0.12);--cf-green:#1a7f37;--cf-amber:#9a6700;--cf-red:#cf222e;--cf-spark:#0d9488;--cf-spark-bg:rgba(13,148,136,0.12)}}</style><rect width="720" height="140" rx="12" fill="var(--cf-bg)" stroke="var(--cf-border)"/><text x="18" y="26" font-size="13" font-weight="600" fill="var(--cf-text)">braedonsaunders/homerun</text><text x="702" y="26" text-anchor="end" font-size="10" fill="var(--cf-text-faint)" font-family="ui-monospace,SFMono-Regular,Menlo,monospace">@6e3c9eb</text><g transform="translate(18,46)"><text x="0" y="0" font-size="9" font-weight="600" fill="var(--cf-text-dim)" letter-spacing="0.8">FILES</text><text x="0" y="28" font-size="22" font-weight="700" fill="var(--cf-text)">955</text><g transform="translate(0,40)"><svg width="64" height="14" viewBox="0 0 64 14" preserveAspectRatio="none"><path d="M0 14 L2.13 10.64 L4.27 10.64 L6.4 10.64 L8.53 10.64 L10.67 5.04 L12.8 4.48 L14.93 4.48 L17.07 4.48 L19.2 3.92 L21.33 2.24 L23.47 2.24 L25.6 2.24 L27.73 2.24 L29.87 2.24 L32 2.24 L34.13 2.24 L36.27 2.24 L38.4 2.24 L40.53 2.24 L42.67 2.24 L44.8 2.24 L46.93 2.24 L49.07 2.24 L51.2 2.24 L53.33 2.24 L55.47 0 L57.6 0 L59.73 0 L61.87 0 L64 0 L64 14 L0 14 Z" fill="var(--cf-spark-bg)" stroke="none"/><path d="M0 14 L2.13 10.64 L4.27 10.64 L6.4 10.64 L8.53 10.64 L10.67 5.04 L12.8 4.48 L14.93 4.48 L17.07 4.48 L19.2 3.92 L21.33 2.24 L23.47 2.24 L25.6 2.24 L27.73 2.24 L29.87 2.24 L32 2.24 L34.13 2.24 L36.27 2.24 L38.4 2.24 L40.53 2.24 L42.67 2.24 L44.8 2.24 L46.93 2.24 L49.07 2.24 L51.2 2.24 L53.33 2.24 L55.47 0 L57.6 0 L59.73 0 L61.87 0 L64 0" fill="none" stroke="var(--cf-spark)" stroke-width="1.4" stroke-linecap="round" stroke-linejoin="round"/></svg></g></g><g transform="translate(154.8,46)"><text x="0" y="0" font-size="9" font-weight="600" fill="var(--cf-text-dim)" letter-spacing="0.8">FNS</text><text x="0" y="28" font-size="22" font-weight="700" fill="var(--cf-text)">13.9K</text><g transform="translate(0,40)"><svg width="64" height="14" viewBox="0 0 64 14" preserveAspectRatio="none"><path d="M0 14 L2.13 8.89 L4.27 8.89 L6.4 8.47 L8.53 8.44 L10.67 6.31 L12.8 5.83 L14.93 5.62 L17.07 5.56 L19.2 5.32 L21.33 2.73 L23.47 2.7 L25.6 2.7 L27.73 2.7 L29.87 2.7 L32 2.7 L34.13 2.7 L36.27 2.7 L38.4 2.7 L40.53 2.55 L42.67 2.55 L44.8 2.4 L46.93 2.31 L49.07 2.31 L51.2 2.31 L53.33 2.31 L55.47 0.18 L57.6 0.18 L59.73 0.18 L61.87 0 L64 0 L64 14 L0 14 Z" fill="var(--cf-spark-bg)" stroke="none"/><path d="M0 14 L2.13 8.89 L4.27 8.89 L6.4 8.47 L8.53 8.44 L10.67 6.31 L12.8 5.83 L14.93 5.62 L17.07 5.56 L19.2 5.32 L21.33 2.73 L23.47 2.7 L25.6 2.7 L27.73 2.7 L29.87 2.7 L32 2.7 L34.13 2.7 L36.27 2.7 L38.4 2.7 L40.53 2.55 L42.67 2.55 L44.8 2.4 L46.93 2.31 L49.07 2.31 L51.2 2.31 L53.33 2.31 L55.47 0.18 L57.6 0.18 L59.73 0.18 L61.87 0 L64 0" fill="none" stroke="var(--cf-spark)" stroke-width="1.4" stroke-linecap="round" stroke-linejoin="round"/></svg></g></g><g transform="translate(291.6,46)"><text x="0" y="0" font-size="9" font-weight="600" fill="var(--cf-text-dim)" letter-spacing="0.8">LOC</text><text x="0" y="28" font-size="22" font-weight="700" fill="var(--cf-text)">575.1K</text><g transform="translate(0,40)"><svg width="64" height="14" viewBox="0 0 64 14" preserveAspectRatio="none"><path d="M0 14 L2.13 11.66 L4.27 11.64 L6.4 11.44 L8.53 11.44 L10.67 10.81 L12.8 4.33 L14.93 3.9 L17.07 3.51 L19.2 3.44 L21.33 2.03 L23.47 1.03 L25.6 1.02 L27.73 1.02 L29.87 1.03 L32 1 L34.13 0.93 L36.27 0.9 L38.4 0.89 L40.53 0.83 L42.67 0.81 L44.8 0.67 L46.93 0.62 L49.07 0.62 L51.2 0.62 L53.33 0.62 L55.47 0.07 L57.6 0.03 L59.73 0.02 L61.87 0 L64 0 L64 14 L0 14 Z" fill="var(--cf-spark-bg)" stroke="none"/><path d="M0 14 L2.13 11.66 L4.27 11.64 L6.4 11.44 L8.53 11.44 L10.67 10.81 L12.8 4.33 L14.93 3.9 L17.07 3.51 L19.2 3.44 L21.33 2.03 L23.47 1.03 L25.6 1.02 L27.73 1.02 L29.87 1.03 L32 1 L34.13 0.93 L36.27 0.9 L38.4 0.89 L40.53 0.83 L42.67 0.81 L44.8 0.67 L46.93 0.62 L49.07 0.62 L51.2 0.62 L53.33 0.62 L55.47 0.07 L57.6 0.03 L59.73 0.02 L61.87 0 L64 0" fill="none" stroke="var(--cf-spark)" stroke-width="1.4" stroke-linecap="round" stroke-linejoin="round"/></svg></g></g><g transform="translate(428.40000000000003,46)"><text x="0" y="0" font-size="9" font-weight="600" fill="var(--cf-text-dim)" letter-spacing="0.8">LANGS</text><text x="0" y="28" font-size="22" font-weight="700" fill="var(--cf-text)">22</text><g transform="translate(0,40)"><svg width="64" height="14" viewBox="0 0 64 14" preserveAspectRatio="none"><path d="M0 7 L2.13 7 L4.27 7 L6.4 7 L8.53 7 L10.67 7 L12.8 7 L14.93 7 L17.07 7 L19.2 7 L21.33 7 L23.47 7 L25.6 7 L27.73 7 L29.87 7 L32 7 L34.13 7 L36.27 7 L38.4 7 L40.53 7 L42.67 7 L44.8 7 L46.93 7 L49.07 7 L51.2 7 L53.33 7 L55.47 7 L57.6 7 L59.73 7 L61.87 7 L64 7 L64 14 L0 14 Z" fill="var(--cf-spark-bg)" stroke="none"/><path d="M0 7 L2.13 7 L4.27 7 L6.4 7 L8.53 7 L10.67 7 L12.8 7 L14.93 7 L17.07 7 L19.2 7 L21.33 7 L23.47 7 L25.6 7 L27.73 7 L29.87 7 L32 7 L34.13 7 L36.27 7 L38.4 7 L40.53 7 L42.67 7 L44.8 7 L46.93 7 L49.07 7 L51.2 7 L53.33 7 L55.47 7 L57.6 7 L59.73 7 L61.87 7 L64 7" fill="none" stroke="var(--cf-spark)" stroke-width="1.4" stroke-linecap="round" stroke-linejoin="round"/></svg></g></g><g transform="translate(565.2,46)"><text x="0" y="0" font-size="9" font-weight="600" fill="var(--cf-text-dim)" letter-spacing="0.8">TESTS</text><text x="0" y="28" font-size="22" font-weight="700" fill="var(--cf-text)">203</text><g transform="translate(0,40)"><svg width="64" height="14" viewBox="0 0 64 14" preserveAspectRatio="none"><path d="M0 14 L2.13 9.33 L4.27 9.33 L6.4 9.33 L8.53 9.33 L10.67 7.78 L12.8 7.78 L14.93 7.78 L17.07 7.78 L19.2 7.78 L21.33 3.11 L23.47 3.11 L25.6 3.11 L27.73 3.11 L29.87 3.11 L32 3.11 L34.13 3.11 L36.27 3.11 L38.4 3.11 L40.53 3.11 L42.67 3.11 L44.8 3.11 L46.93 3.11 L49.07 3.11 L51.2 3.11 L53.33 3.11 L55.47 0 L57.6 0 L59.73 0 L61.87 0 L64 0 L64 14 L0 14 Z" fill="var(--cf-spark-bg)" stroke="none"/><path d="M0 14 L2.13 9.33 L4.27 9.33 L6.4 9.33 L8.53 9.33 L10.67 7.78 L12.8 7.78 L14.93 7.78 L17.07 7.78 L19.2 7.78 L21.33 3.11 L23.47 3.11 L25.6 3.11 L27.73 3.11 L29.87 3.11 L32 3.11 L34.13 3.11 L36.27 3.11 L38.4 3.11 L40.53 3.11 L42.67 3.11 L44.8 3.11 L46.93 3.11 L49.07 3.11 L51.2 3.11 L53.33 3.11 L55.47 0 L57.6 0 L59.73 0 L61.87 0 L64 0" fill="none" stroke="var(--cf-spark)" stroke-width="1.4" stroke-linecap="round" stroke-linejoin="round"/></svg></g></g><a href="https://github.com/braedonsaunders/codeflow" target="_blank"><text x="702" y="130" text-anchor="end" font-size="9" fill="var(--cf-text-faint)">powered by <tspan font-weight="600" fill="var(--cf-accent)">codeflow</tspan></text></a></svg>