<svg xmlns="http://www.w3.org/2000/svg" width="720" height="140" viewBox="0 0 720 140" font-family="-apple-system,BlinkMacSystemFont,Segoe UI,Helvetica,Arial,sans-serif"><style>svg{--cf-bg:#0d1117;--cf-bg-alt:#161b22;--cf-border:#21262d;--cf-text:#e6edf3;--cf-text-dim:#8b949e;--cf-text-faint:#6e7681;--cf-accent:#5eead4;--cf-accent-soft:rgba(94,234,212,0.16);--cf-green:#3fb950;--cf-amber:#d29922;--cf-red:#f85149;--cf-spark:#5eead4;--cf-spark-bg:rgba(94,234,212,0.18)}@media (prefers-color-scheme: light){svg{--cf-bg:#ffffff;--cf-bg-alt:#f6f8fa;--cf-border:#d0d7de;--cf-text:#1f2328;--cf-text-dim:#656d76;--cf-text-faint:#8c959f;--cf-accent:#0d9488;--cf-accent-soft:rgba(13,148,136,0.12);--cf-green:#1a7f37;--cf-amber:#9a6700;--cf-red:#cf222e;--cf-spark:#0d9488;--cf-spark-bg:rgba(13,148,136,0.12)}}</style><rect width="720" height="140" rx="12" fill="var(--cf-bg)" stroke="var(--cf-border)"/><text x="18" y="26" font-size="13" font-weight="600" fill="var(--cf-text)">braedonsaunders/homerun</text><text x="702" y="26" text-anchor="end" font-size="10" fill="var(--cf-text-faint)" font-family="ui-monospace,SFMono-Regular,Menlo,monospace">@107e6eb</text><g transform="translate(18,46)"><text x="0" y="0" font-size="9" font-weight="600" fill="var(--cf-text-dim)" letter-spacing="0.8">FILES</text><text x="0" y="28" font-size="22" font-weight="700" fill="var(--cf-text)">862</text><g transform="translate(0,40)"><svg width="64" height="14" viewBox="0 0 64 14" preserveAspectRatio="none"><path d="M0 14 L2.13 4.34 L4.27 3.94 L6.4 3.94 L8.53 3.94 L10.67 3.94 L12.8 3.94 L14.93 3.75 L17.07 3.75 L19.2 3.75 L21.33 1.77 L23.47 1.77 L25.6 1.77 L27.73 1.77 L29.87 1.58 L32 1.38 L34.13 1.38 L36.27 1.38 L38.4 1.38 L40.53 1.38 L42.67 1.38 L44.8 1.38 L46.93 1.38 L49.07 1.38 L51.2 1.38 L53.33 0.39 L55.47 0.39 L57.6 0.39 L59.73 0 L61.87 0 L64 0 L64 14 L0 14 Z" fill="var(--cf-spark-bg)" stroke="none"/><path d="M0 14 L2.13 4.34 L4.27 3.94 L6.4 3.94 L8.53 3.94 L10.67 3.94 L12.8 3.94 L14.93 3.75 L17.07 3.75 L19.2 3.75 L21.33 1.77 L23.47 1.77 L25.6 1.77 L27.73 1.77 L29.87 1.58 L32 1.38 L34.13 1.38 L36.27 1.38 L38.4 1.38 L40.53 1.38 L42.67 1.38 L44.8 1.38 L46.93 1.38 L49.07 1.38 L51.2 1.38 L53.33 0.39 L55.47 0.39 L57.6 0.39 L59.73 0 L61.87 0 L64 0" fill="none" stroke="var(--cf-spark)" stroke-width="1.4" stroke-linecap="round" stroke-linejoin="round"/></svg></g></g><g transform="translate(154.8,46)"><text x="0" y="0" font-size="9" font-weight="600" fill="var(--cf-text-dim)" letter-spacing="0.8">FNS</text><text x="0" y="28" font-size="22" font-weight="700" fill="var(--cf-text)">12.6K</text><g transform="translate(0,40)"><svg width="64" height="14" viewBox="0 0 64 14" preserveAspectRatio="none"><path d="M0 14 L2.13 3.18 L4.27 2.64 L6.4 2.62 L8.53 2.59 L10.67 2.59 L12.8 2.59 L14.93 2.32 L17.07 2.32 L19.2 2.31 L21.33 1.63 L23.47 1.62 L25.6 1.62 L27.73 1.62 L29.87 1.6 L32 1.57 L34.13 1.57 L36.27 1.57 L38.4 1.51 L40.53 1.5 L42.67 1.48 L44.8 1.43 L46.93 1.43 L49.07 1.16 L51.2 1.16 L53.33 0.53 L55.47 0.64 L57.6 0.64 L59.73 0 L61.87 0 L64 0 L64 14 L0 14 Z" fill="var(--cf-spark-bg)" stroke="none"/><path d="M0 14 L2.13 3.18 L4.27 2.64 L6.4 2.62 L8.53 2.59 L10.67 2.59 L12.8 2.59 L14.93 2.32 L17.07 2.32 L19.2 2.31 L21.33 1.63 L23.47 1.62 L25.6 1.62 L27.73 1.62 L29.87 1.6 L32 1.57 L34.13 1.57 L36.27 1.57 L38.4 1.51 L40.53 1.5 L42.67 1.48 L44.8 1.43 L46.93 1.43 L49.07 1.16 L51.2 1.16 L53.33 0.53 L55.47 0.64 L57.6 0.64 L59.73 0 L61.87 0 L64 0" fill="none" stroke="var(--cf-spark)" stroke-width="1.4" stroke-linecap="round" stroke-linejoin="round"/></svg></g></g><g transform="translate(291.6,46)"><text x="0" y="0" font-size="9" font-weight="600" fill="var(--cf-text-dim)" letter-spacing="0.8">LOC</text><text x="0" y="28" font-size="22" font-weight="700" fill="var(--cf-text)">475.3K</text><g transform="translate(0,40)"><svg width="64" height="14" viewBox="0 0 64 14" preserveAspectRatio="none"><path d="M0 14 L2.13 11.61 L4.27 9.19 L6.4 9.16 L8.53 9.05 L10.67 9.04 L12.8 9.03 L14.93 8.26 L17.07 8.73 L19.2 8.72 L21.33 5.91 L23.47 5.88 L25.6 5.85 L27.73 5.83 L29.87 5.79 L32 5.73 L34.13 5.72 L36.27 5.69 L38.4 5.61 L40.53 5.59 L42.67 5.55 L44.8 5.2 L46.93 5.14 L49.07 3.99 L51.2 3.83 L53.33 1.85 L55.47 1.97 L57.6 1.92 L59.73 0.56 L61.87 0 L64 0 L64 14 L0 14 Z" fill="var(--cf-spark-bg)" stroke="none"/><path d="M0 14 L2.13 11.61 L4.27 9.19 L6.4 9.16 L8.53 9.05 L10.67 9.04 L12.8 9.03 L14.93 8.26 L17.07 8.73 L19.2 8.72 L21.33 5.91 L23.47 5.88 L25.6 5.85 L27.73 5.83 L29.87 5.79 L32 5.73 L34.13 5.72 L36.27 5.69 L38.4 5.61 L40.53 5.59 L42.67 5.55 L44.8 5.2 L46.93 5.14 L49.07 3.99 L51.2 3.83 L53.33 1.85 L55.47 1.97 L57.6 1.92 L59.73 0.56 L61.87 0 L64 0" fill="none" stroke="var(--cf-spark)" stroke-width="1.4" stroke-linecap="round" stroke-linejoin="round"/></svg></g></g><g transform="translate(428.40000000000003,46)"><text x="0" y="0" font-size="9" font-weight="600" fill="var(--cf-text-dim)" letter-spacing="0.8">LANGS</text><text x="0" y="28" font-size="22" font-weight="700" fill="var(--cf-text)">19</text><g transform="translate(0,40)"><svg width="64" height="14" viewBox="0 0 64 14" preserveAspectRatio="none"><path d="M0 7 L2.13 7 L4.27 7 L6.4 7 L8.53 7 L10.67 7 L12.8 7 L14.93 7 L17.07 7 L19.2 7 L21.33 7 L23.47 7 L25.6 7 L27.73 7 L29.87 7 L32 7 L34.13 7 L36.27 7 L38.4 7 L40.53 7 L42.67 7 L44.8 7 L46.93 7 L49.07 7 L51.2 7 L53.33 7 L55.47 7 L57.6 7 L59.73 7 L61.87 7 L64 7 L64 14 L0 14 Z" fill="var(--cf-spark-bg)" stroke="none"/><path d="M0 7 L2.13 7 L4.27 7 L6.4 7 L8.53 7 L10.67 7 L12.8 7 L14.93 7 L17.07 7 L19.2 7 L21.33 7 L23.47 7 L25.6 7 L27.73 7 L29.87 7 L32 7 L34.13 7 L36.27 7 L38.4 7 L40.53 7 L42.67 7 L44.8 7 L46.93 7 L49.07 7 L51.2 7 L53.33 7 L55.47 7 L57.6 7 L59.73 7 L61.87 7 L64 7" fill="none" stroke="var(--cf-spark)" stroke-width="1.4" stroke-linecap="round" stroke-linejoin="round"/></svg></g></g><g transform="translate(565.2,46)"><text x="0" y="0" font-size="9" font-weight="600" fill="var(--cf-text-dim)" letter-spacing="0.8">TESTS</text><text x="0" y="28" font-size="22" font-weight="700" fill="var(--cf-text)">187</text><g transform="translate(0,40)"><svg width="64" height="14" viewBox="0 0 64 14" preserveAspectRatio="none"><path d="M0 14 L2.13 1.27 L4.27 1.27 L6.4 1.27 L8.53 1.27 L10.67 1.27 L12.8 1.27 L14.93 1.27 L17.07 1.27 L19.2 1.27 L21.33 1.27 L23.47 1.27 L25.6 1.27 L27.73 1.27 L29.87 1.27 L32 1.27 L34.13 1.27 L36.27 1.27 L38.4 1.27 L40.53 1.27 L42.67 1.27 L44.8 1.27 L46.93 1.27 L49.07 1.27 L51.2 1.27 L53.33 1.27 L55.47 1.27 L57.6 1.27 L59.73 0 L61.87 0 L64 0 L64 14 L0 14 Z" fill="var(--cf-spark-bg)" stroke="none"/><path d="M0 14 L2.13 1.27 L4.27 1.27 L6.4 1.27 L8.53 1.27 L10.67 1.27 L12.8 1.27 L14.93 1.27 L17.07 1.27 L19.2 1.27 L21.33 1.27 L23.47 1.27 L25.6 1.27 L27.73 1.27 L29.87 1.27 L32 1.27 L34.13 1.27 L36.27 1.27 L38.4 1.27 L40.53 1.27 L42.67 1.27 L44.8 1.27 L46.93 1.27 L49.07 1.27 L51.2 1.27 L53.33 1.27 L55.47 1.27 L57.6 1.27 L59.73 0 L61.87 0 L64 0" fill="none" stroke="var(--cf-spark)" stroke-width="1.4" stroke-linecap="round" stroke-linejoin="round"/></svg></g></g><a href="https://github.com/braedonsaunders/codeflow" target="_blank"><text x="702" y="130" text-anchor="end" font-size="9" fill="var(--cf-text-faint)">powered by <tspan font-weight="600" fill="var(--cf-accent)">codeflow</tspan></text></a></svg>