<svg xmlns="http://www.w3.org/2000/svg" width="720" height="140" viewBox="0 0 720 140" font-family="-apple-system,BlinkMacSystemFont,Segoe UI,Helvetica,Arial,sans-serif"><style>svg{--cf-bg:#0d1117;--cf-bg-alt:#161b22;--cf-border:#21262d;--cf-text:#e6edf3;--cf-text-dim:#8b949e;--cf-text-faint:#6e7681;--cf-accent:#5eead4;--cf-accent-soft:rgba(94,234,212,0.16);--cf-green:#3fb950;--cf-amber:#d29922;--cf-red:#f85149;--cf-spark:#5eead4;--cf-spark-bg:rgba(94,234,212,0.18)}@media (prefers-color-scheme: light){svg{--cf-bg:#ffffff;--cf-bg-alt:#f6f8fa;--cf-border:#d0d7de;--cf-text:#1f2328;--cf-text-dim:#656d76;--cf-text-faint:#8c959f;--cf-accent:#0d9488;--cf-accent-soft:rgba(13,148,136,0.12);--cf-green:#1a7f37;--cf-amber:#9a6700;--cf-red:#cf222e;--cf-spark:#0d9488;--cf-spark-bg:rgba(13,148,136,0.12)}}</style><rect width="720" height="140" rx="12" fill="var(--cf-bg)" stroke="var(--cf-border)"/><text x="18" y="26" font-size="13" font-weight="600" fill="var(--cf-text)">braedonsaunders/homerun</text><text x="702" y="26" text-anchor="end" font-size="10" fill="var(--cf-text-faint)" font-family="ui-monospace,SFMono-Regular,Menlo,monospace">@8f18e35</text><g transform="translate(18,46)"><text x="0" y="0" font-size="9" font-weight="600" fill="var(--cf-text-dim)" letter-spacing="0.8">FILES</text><text x="0" y="28" font-size="22" font-weight="700" fill="var(--cf-text)">907</text><g transform="translate(0,40)"><svg width="64" height="14" viewBox="0 0 64 14" preserveAspectRatio="none"><path d="M0 14 L2.13 14 L4.27 14 L6.4 14 L8.53 12.44 L10.67 12.44 L12.8 12.44 L14.93 12.44 L17.07 12.44 L19.2 12.13 L21.33 12.13 L23.47 11.51 L25.6 11.51 L27.73 3.11 L29.87 3.11 L32 3.11 L34.13 2.8 L36.27 2.49 L38.4 2.49 L40.53 2.49 L42.67 2.49 L44.8 2.49 L46.93 2.49 L49.07 2.49 L51.2 2.18 L53.33 2.18 L55.47 1.56 L57.6 1.56 L59.73 1.56 L61.87 1.24 L64 0 L64 14 L0 14 Z" fill="var(--cf-spark-bg)" stroke="none"/><path d="M0 14 L2.13 14 L4.27 14 L6.4 14 L8.53 12.44 L10.67 12.44 L12.8 12.44 L14.93 12.44 L17.07 12.44 L19.2 12.13 L21.33 12.13 L23.47 11.51 L25.6 11.51 L27.73 3.11 L29.87 3.11 L32 3.11 L34.13 2.8 L36.27 2.49 L38.4 2.49 L40.53 2.49 L42.67 2.49 L44.8 2.49 L46.93 2.49 L49.07 2.49 L51.2 2.18 L53.33 2.18 L55.47 1.56 L57.6 1.56 L59.73 1.56 L61.87 1.24 L64 0" fill="none" stroke="var(--cf-spark)" stroke-width="1.4" stroke-linecap="round" stroke-linejoin="round"/></svg></g></g><g transform="translate(154.8,46)"><text x="0" y="0" font-size="9" font-weight="600" fill="var(--cf-text-dim)" letter-spacing="0.8">FNS</text><text x="0" y="28" font-size="22" font-weight="700" fill="var(--cf-text)">13.2K</text><g transform="translate(0,40)"><svg width="64" height="14" viewBox="0 0 64 14" preserveAspectRatio="none"><path d="M0 14 L2.13 13.93 L4.27 13.93 L6.4 13.91 L8.53 13.91 L10.67 13.65 L12.8 13.65 L14.93 13.63 L17.07 13.63 L19.2 13.54 L21.33 13.54 L23.47 12.91 L25.6 12.65 L27.73 4.65 L29.87 4.54 L32 4.52 L34.13 4.52 L36.27 4.46 L38.4 4.46 L40.53 4.46 L42.67 4.43 L44.8 4.41 L46.93 4.32 L49.07 4.28 L51.2 4.11 L53.33 3.91 L55.47 2.25 L57.6 1.7 L59.73 1.51 L61.87 0.55 L64 0 L64 14 L0 14 Z" fill="var(--cf-spark-bg)" stroke="none"/><path d="M0 14 L2.13 13.93 L4.27 13.93 L6.4 13.91 L8.53 13.91 L10.67 13.65 L12.8 13.65 L14.93 13.63 L17.07 13.63 L19.2 13.54 L21.33 13.54 L23.47 12.91 L25.6 12.65 L27.73 4.65 L29.87 4.54 L32 4.52 L34.13 4.52 L36.27 4.46 L38.4 4.46 L40.53 4.46 L42.67 4.43 L44.8 4.41 L46.93 4.32 L49.07 4.28 L51.2 4.11 L53.33 3.91 L55.47 2.25 L57.6 1.7 L59.73 1.51 L61.87 0.55 L64 0" fill="none" stroke="var(--cf-spark)" stroke-width="1.4" stroke-linecap="round" stroke-linejoin="round"/></svg></g></g><g transform="translate(291.6,46)"><text x="0" y="0" font-size="9" font-weight="600" fill="var(--cf-text-dim)" letter-spacing="0.8">LOC</text><text x="0" y="28" font-size="22" font-weight="700" fill="var(--cf-text)">500.1K</text><g transform="translate(0,40)"><svg width="64" height="14" viewBox="0 0 64 14" preserveAspectRatio="none"><path d="M0 14 L2.13 13.92 L4.27 13.89 L6.4 13.76 L8.53 13.47 L10.67 13.38 L12.8 13.36 L14.93 13.2 L17.07 13.14 L19.2 12.96 L21.33 12.96 L23.47 12.32 L25.6 11.77 L27.73 4.35 L29.87 4.06 L32 4.05 L34.13 3.99 L36.27 3.87 L38.4 3.86 L40.53 3.86 L42.67 3.79 L44.8 3.74 L46.93 3.64 L49.07 3.61 L51.2 3.43 L53.33 3.12 L55.47 2.41 L57.6 2.26 L59.73 2.09 L61.87 0.97 L64 0 L64 14 L0 14 Z" fill="var(--cf-spark-bg)" stroke="none"/><path d="M0 14 L2.13 13.92 L4.27 13.89 L6.4 13.76 L8.53 13.47 L10.67 13.38 L12.8 13.36 L14.93 13.2 L17.07 13.14 L19.2 12.96 L21.33 12.96 L23.47 12.32 L25.6 11.77 L27.73 4.35 L29.87 4.06 L32 4.05 L34.13 3.99 L36.27 3.87 L38.4 3.86 L40.53 3.86 L42.67 3.79 L44.8 3.74 L46.93 3.64 L49.07 3.61 L51.2 3.43 L53.33 3.12 L55.47 2.41 L57.6 2.26 L59.73 2.09 L61.87 0.97 L64 0" fill="none" stroke="var(--cf-spark)" stroke-width="1.4" stroke-linecap="round" stroke-linejoin="round"/></svg></g></g><g transform="translate(428.40000000000003,46)"><text x="0" y="0" font-size="9" font-weight="600" fill="var(--cf-text-dim)" letter-spacing="0.8">LANGS</text><text x="0" y="28" font-size="22" font-weight="700" fill="var(--cf-text)">22</text><g transform="translate(0,40)"><svg width="64" height="14" viewBox="0 0 64 14" preserveAspectRatio="none"><path d="M0 14 L2.13 14 L4.27 14 L6.4 14 L8.53 0 L10.67 0 L12.8 0 L14.93 0 L17.07 0 L19.2 0 L21.33 0 L23.47 0 L25.6 0 L27.73 0 L29.87 0 L32 0 L34.13 0 L36.27 0 L38.4 0 L40.53 0 L42.67 0 L44.8 0 L46.93 0 L49.07 0 L51.2 0 L53.33 0 L55.47 0 L57.6 0 L59.73 0 L61.87 0 L64 0 L64 14 L0 14 Z" fill="var(--cf-spark-bg)" stroke="none"/><path d="M0 14 L2.13 14 L4.27 14 L6.4 14 L8.53 0 L10.67 0 L12.8 0 L14.93 0 L17.07 0 L19.2 0 L21.33 0 L23.47 0 L25.6 0 L27.73 0 L29.87 0 L32 0 L34.13 0 L36.27 0 L38.4 0 L40.53 0 L42.67 0 L44.8 0 L46.93 0 L49.07 0 L51.2 0 L53.33 0 L55.47 0 L57.6 0 L59.73 0 L61.87 0 L64 0" fill="none" stroke="var(--cf-spark)" stroke-width="1.4" stroke-linecap="round" stroke-linejoin="round"/></svg></g></g><g transform="translate(565.2,46)"><text x="0" y="0" font-size="9" font-weight="600" fill="var(--cf-text-dim)" letter-spacing="0.8">TESTS</text><text x="0" y="28" font-size="22" font-weight="700" fill="var(--cf-text)">190</text><g transform="translate(0,40)"><svg width="64" height="14" viewBox="0 0 64 14" preserveAspectRatio="none"><path d="M0 14 L2.13 14 L4.27 14 L6.4 14 L8.53 14 L10.67 14 L12.8 14 L14.93 14 L17.07 14 L19.2 14 L21.33 14 L23.47 14 L25.6 14 L27.73 14 L29.87 14 L32 14 L34.13 14 L36.27 14 L38.4 14 L40.53 14 L42.67 14 L44.8 14 L46.93 14 L49.07 14 L51.2 14 L53.33 14 L55.47 9.33 L57.6 9.33 L59.73 9.33 L61.87 0 L64 0 L64 14 L0 14 Z" fill="var(--cf-spark-bg)" stroke="none"/><path d="M0 14 L2.13 14 L4.27 14 L6.4 14 L8.53 14 L10.67 14 L12.8 14 L14.93 14 L17.07 14 L19.2 14 L21.33 14 L23.47 14 L25.6 14 L27.73 14 L29.87 14 L32 14 L34.13 14 L36.27 14 L38.4 14 L40.53 14 L42.67 14 L44.8 14 L46.93 14 L49.07 14 L51.2 14 L53.33 14 L55.47 9.33 L57.6 9.33 L59.73 9.33 L61.87 0 L64 0" fill="none" stroke="var(--cf-spark)" stroke-width="1.4" stroke-linecap="round" stroke-linejoin="round"/></svg></g></g><a href="https://github.com/braedonsaunders/codeflow" target="_blank"><text x="702" y="130" text-anchor="end" font-size="9" fill="var(--cf-text-faint)">powered by <tspan font-weight="600" fill="var(--cf-accent)">codeflow</tspan></text></a></svg>