<svg xmlns="http://www.w3.org/2000/svg" width="720" height="140" viewBox="0 0 720 140" font-family="-apple-system,BlinkMacSystemFont,Segoe UI,Helvetica,Arial,sans-serif"><style>svg{--cf-bg:#0d1117;--cf-bg-alt:#161b22;--cf-border:#21262d;--cf-text:#e6edf3;--cf-text-dim:#8b949e;--cf-text-faint:#6e7681;--cf-accent:#5eead4;--cf-accent-soft:rgba(94,234,212,0.16);--cf-green:#3fb950;--cf-amber:#d29922;--cf-red:#f85149;--cf-spark:#5eead4;--cf-spark-bg:rgba(94,234,212,0.18)}@media (prefers-color-scheme: light){svg{--cf-bg:#ffffff;--cf-bg-alt:#f6f8fa;--cf-border:#d0d7de;--cf-text:#1f2328;--cf-text-dim:#656d76;--cf-text-faint:#8c959f;--cf-accent:#0d9488;--cf-accent-soft:rgba(13,148,136,0.12);--cf-green:#1a7f37;--cf-amber:#9a6700;--cf-red:#cf222e;--cf-spark:#0d9488;--cf-spark-bg:rgba(13,148,136,0.12)}}</style><rect width="720" height="140" rx="12" fill="var(--cf-bg)" stroke="var(--cf-border)"/><text x="18" y="26" font-size="13" font-weight="600" fill="var(--cf-text)">braedonsaunders/homerun</text><text x="702" y="26" text-anchor="end" font-size="10" fill="var(--cf-text-faint)" font-family="ui-monospace,SFMono-Regular,Menlo,monospace">@8c033fb</text><g transform="translate(18,46)"><text x="0" y="0" font-size="9" font-weight="600" fill="var(--cf-text-dim)" letter-spacing="0.8">FILES</text><text x="0" y="28" font-size="22" font-weight="700" fill="var(--cf-text)">1K</text><g transform="translate(0,40)"><svg width="64" height="14" viewBox="0 0 64 14" preserveAspectRatio="none"><path d="M0 14 L2.13 14 L4.27 14 L6.4 7.6 L8.53 7.6 L10.67 7.6 L12.8 6.8 L14.93 6.4 L17.07 6.4 L19.2 6.4 L21.33 6 L23.47 6 L25.6 5.6 L27.73 5.6 L29.87 5.6 L32 3.6 L34.13 2.8 L36.27 2 L38.4 2 L40.53 1.6 L42.67 4.4 L44.8 4.4 L46.93 4.4 L49.07 4.4 L51.2 4.4 L53.33 4 L55.47 4 L57.6 0 L59.73 0 L61.87 0 L64 0 L64 14 L0 14 Z" fill="var(--cf-spark-bg)" stroke="none"/><path d="M0 14 L2.13 14 L4.27 14 L6.4 7.6 L8.53 7.6 L10.67 7.6 L12.8 6.8 L14.93 6.4 L17.07 6.4 L19.2 6.4 L21.33 6 L23.47 6 L25.6 5.6 L27.73 5.6 L29.87 5.6 L32 3.6 L34.13 2.8 L36.27 2 L38.4 2 L40.53 1.6 L42.67 4.4 L44.8 4.4 L46.93 4.4 L49.07 4.4 L51.2 4.4 L53.33 4 L55.47 4 L57.6 0 L59.73 0 L61.87 0 L64 0" fill="none" stroke="var(--cf-spark)" stroke-width="1.4" stroke-linecap="round" stroke-linejoin="round"/></svg></g></g><g transform="translate(154.8,46)"><text x="0" y="0" font-size="9" font-weight="600" fill="var(--cf-text-dim)" letter-spacing="0.8">FNS</text><text x="0" y="28" font-size="22" font-weight="700" fill="var(--cf-text)">15K</text><g transform="translate(0,40)"><svg width="64" height="14" viewBox="0 0 64 14" preserveAspectRatio="none"><path d="M0 14 L2.13 13.96 L4.27 13.71 L6.4 7.3 L8.53 7.21 L10.67 7.21 L12.8 6.72 L14.93 6.68 L17.07 6.68 L19.2 6.68 L21.33 6.42 L23.47 6.2 L25.6 6.15 L27.73 6.13 L29.87 6.11 L32 4.56 L34.13 3.62 L36.27 2.93 L38.4 2.93 L40.53 2.49 L42.67 2.82 L44.8 2.82 L46.93 2.82 L49.07 2.82 L51.2 2.8 L53.33 2.56 L55.47 2.56 L57.6 0 L59.73 0 L61.87 0.11 L64 0.11 L64 14 L0 14 Z" fill="var(--cf-spark-bg)" stroke="none"/><path d="M0 14 L2.13 13.96 L4.27 13.71 L6.4 7.3 L8.53 7.21 L10.67 7.21 L12.8 6.72 L14.93 6.68 L17.07 6.68 L19.2 6.68 L21.33 6.42 L23.47 6.2 L25.6 6.15 L27.73 6.13 L29.87 6.11 L32 4.56 L34.13 3.62 L36.27 2.93 L38.4 2.93 L40.53 2.49 L42.67 2.82 L44.8 2.82 L46.93 2.82 L49.07 2.82 L51.2 2.8 L53.33 2.56 L55.47 2.56 L57.6 0 L59.73 0 L61.87 0.11 L64 0.11" fill="none" stroke="var(--cf-spark)" stroke-width="1.4" stroke-linecap="round" stroke-linejoin="round"/></svg></g></g><g transform="translate(291.6,46)"><text x="0" y="0" font-size="9" font-weight="600" fill="var(--cf-text-dim)" letter-spacing="0.8">LOC</text><text x="0" y="28" font-size="22" font-weight="700" fill="var(--cf-text)">604.9K</text><g transform="translate(0,40)"><svg width="64" height="14" viewBox="0 0 64 14" preserveAspectRatio="none"><path d="M0 14 L2.13 13.94 L4.27 13.64 L6.4 6.19 L8.53 6.22 L10.67 6.2 L12.8 5.71 L14.93 5.62 L17.07 5.62 L19.2 5.62 L21.33 5.42 L23.47 5.23 L25.6 5.16 L27.73 5.1 L29.87 5.07 L32 3.5 L34.13 2.28 L36.27 1.8 L38.4 1.79 L40.53 1.39 L42.67 3.31 L44.8 3.29 L46.93 3.28 L49.07 3.29 L51.2 3.14 L53.33 2.68 L55.47 2.66 L57.6 0.03 L59.73 0.01 L61.87 0.03 L64 0 L64 14 L0 14 Z" fill="var(--cf-spark-bg)" stroke="none"/><path d="M0 14 L2.13 13.94 L4.27 13.64 L6.4 6.19 L8.53 6.22 L10.67 6.2 L12.8 5.71 L14.93 5.62 L17.07 5.62 L19.2 5.62 L21.33 5.42 L23.47 5.23 L25.6 5.16 L27.73 5.1 L29.87 5.07 L32 3.5 L34.13 2.28 L36.27 1.8 L38.4 1.79 L40.53 1.39 L42.67 3.31 L44.8 3.29 L46.93 3.28 L49.07 3.29 L51.2 3.14 L53.33 2.68 L55.47 2.66 L57.6 0.03 L59.73 0.01 L61.87 0.03 L64 0" fill="none" stroke="var(--cf-spark)" stroke-width="1.4" stroke-linecap="round" stroke-linejoin="round"/></svg></g></g><g transform="translate(428.40000000000003,46)"><text x="0" y="0" font-size="9" font-weight="600" fill="var(--cf-text-dim)" letter-spacing="0.8">LANGS</text><text x="0" y="28" font-size="22" font-weight="700" fill="var(--cf-text)">22</text><g transform="translate(0,40)"><svg width="64" height="14" viewBox="0 0 64 14" preserveAspectRatio="none"><path d="M0 7 L2.13 7 L4.27 7 L6.4 7 L8.53 7 L10.67 7 L12.8 7 L14.93 7 L17.07 7 L19.2 7 L21.33 7 L23.47 7 L25.6 7 L27.73 7 L29.87 7 L32 7 L34.13 7 L36.27 7 L38.4 7 L40.53 7 L42.67 7 L44.8 7 L46.93 7 L49.07 7 L51.2 7 L53.33 7 L55.47 7 L57.6 7 L59.73 7 L61.87 7 L64 7 L64 14 L0 14 Z" fill="var(--cf-spark-bg)" stroke="none"/><path d="M0 7 L2.13 7 L4.27 7 L6.4 7 L8.53 7 L10.67 7 L12.8 7 L14.93 7 L17.07 7 L19.2 7 L21.33 7 L23.47 7 L25.6 7 L27.73 7 L29.87 7 L32 7 L34.13 7 L36.27 7 L38.4 7 L40.53 7 L42.67 7 L44.8 7 L46.93 7 L49.07 7 L51.2 7 L53.33 7 L55.47 7 L57.6 7 L59.73 7 L61.87 7 L64 7" fill="none" stroke="var(--cf-spark)" stroke-width="1.4" stroke-linecap="round" stroke-linejoin="round"/></svg></g></g><g transform="translate(565.2,46)"><text x="0" y="0" font-size="9" font-weight="600" fill="var(--cf-text-dim)" letter-spacing="0.8">TESTS</text><text x="0" y="28" font-size="22" font-weight="700" fill="var(--cf-text)">230</text><g transform="translate(0,40)"><svg width="64" height="14" viewBox="0 0 64 14" preserveAspectRatio="none"><path d="M0 14 L2.13 14 L4.27 14 L6.4 6.63 L8.53 6.63 L10.67 6.63 L12.8 5.16 L14.93 5.16 L17.07 5.16 L19.2 5.16 L21.33 4.42 L23.47 4.42 L25.6 4.42 L27.73 4.42 L29.87 4.42 L32 2.21 L34.13 1.47 L36.27 0.74 L38.4 0.74 L40.53 0 L42.67 0 L44.8 0 L46.93 0 L49.07 0 L51.2 0 L53.33 0 L55.47 0 L57.6 0 L59.73 0 L61.87 0 L64 0 L64 14 L0 14 Z" fill="var(--cf-spark-bg)" stroke="none"/><path d="M0 14 L2.13 14 L4.27 14 L6.4 6.63 L8.53 6.63 L10.67 6.63 L12.8 5.16 L14.93 5.16 L17.07 5.16 L19.2 5.16 L21.33 4.42 L23.47 4.42 L25.6 4.42 L27.73 4.42 L29.87 4.42 L32 2.21 L34.13 1.47 L36.27 0.74 L38.4 0.74 L40.53 0 L42.67 0 L44.8 0 L46.93 0 L49.07 0 L51.2 0 L53.33 0 L55.47 0 L57.6 0 L59.73 0 L61.87 0 L64 0" fill="none" stroke="var(--cf-spark)" stroke-width="1.4" stroke-linecap="round" stroke-linejoin="round"/></svg></g></g><a href="https://github.com/braedonsaunders/codeflow" target="_blank"><text x="702" y="130" text-anchor="end" font-size="9" fill="var(--cf-text-faint)">powered by <tspan font-weight="600" fill="var(--cf-accent)">codeflow</tspan></text></a></svg>