<svg xmlns="http://www.w3.org/2000/svg" width="720" height="140" viewBox="0 0 720 140" font-family="-apple-system,BlinkMacSystemFont,Segoe UI,Helvetica,Arial,sans-serif"><style>svg{--cf-bg:#0d1117;--cf-bg-alt:#161b22;--cf-border:#21262d;--cf-text:#e6edf3;--cf-text-dim:#8b949e;--cf-text-faint:#6e7681;--cf-accent:#5eead4;--cf-accent-soft:rgba(94,234,212,0.16);--cf-green:#3fb950;--cf-amber:#d29922;--cf-red:#f85149;--cf-spark:#5eead4;--cf-spark-bg:rgba(94,234,212,0.18)}@media (prefers-color-scheme: light){svg{--cf-bg:#ffffff;--cf-bg-alt:#f6f8fa;--cf-border:#d0d7de;--cf-text:#1f2328;--cf-text-dim:#656d76;--cf-text-faint:#8c959f;--cf-accent:#0d9488;--cf-accent-soft:rgba(13,148,136,0.12);--cf-green:#1a7f37;--cf-amber:#9a6700;--cf-red:#cf222e;--cf-spark:#0d9488;--cf-spark-bg:rgba(13,148,136,0.12)}}</style><rect width="720" height="140" rx="12" fill="var(--cf-bg)" stroke="var(--cf-border)"/><text x="18" y="26" font-size="13" font-weight="600" fill="var(--cf-text)">braedonsaunders/homerun</text><text x="702" y="26" text-anchor="end" font-size="10" fill="var(--cf-text-faint)" font-family="ui-monospace,SFMono-Regular,Menlo,monospace">@123496e</text><g transform="translate(18,46)"><text x="0" y="0" font-size="9" font-weight="600" fill="var(--cf-text-dim)" letter-spacing="0.8">FILES</text><text x="0" y="28" font-size="22" font-weight="700" fill="var(--cf-text)">1.1K</text><g transform="translate(0,40)"><svg width="64" height="14" viewBox="0 0 64 14" preserveAspectRatio="none"><path d="M0 12.83 L2.13 12.25 L4.27 12.25 L6.4 11.96 L8.53 14 L10.67 14 L12.8 14 L14.93 14 L17.07 14 L19.2 13.71 L21.33 13.71 L23.47 10.79 L25.6 10.79 L27.73 10.79 L29.87 10.79 L32 10.21 L34.13 0.88 L36.27 0.88 L38.4 0.88 L40.53 0.88 L42.67 0.88 L44.8 0.88 L46.93 0.58 L49.07 0 L51.2 0 L53.33 0 L55.47 0 L57.6 0 L59.73 0 L61.87 0 L64 0 L64 14 L0 14 Z" fill="var(--cf-spark-bg)" stroke="none"/><path d="M0 12.83 L2.13 12.25 L4.27 12.25 L6.4 11.96 L8.53 14 L10.67 14 L12.8 14 L14.93 14 L17.07 14 L19.2 13.71 L21.33 13.71 L23.47 10.79 L25.6 10.79 L27.73 10.79 L29.87 10.79 L32 10.21 L34.13 0.88 L36.27 0.88 L38.4 0.88 L40.53 0.88 L42.67 0.88 L44.8 0.88 L46.93 0.58 L49.07 0 L51.2 0 L53.33 0 L55.47 0 L57.6 0 L59.73 0 L61.87 0 L64 0" fill="none" stroke="var(--cf-spark)" stroke-width="1.4" stroke-linecap="round" stroke-linejoin="round"/></svg></g></g><g transform="translate(154.8,46)"><text x="0" y="0" font-size="9" font-weight="600" fill="var(--cf-text-dim)" letter-spacing="0.8">FNS</text><text x="0" y="28" font-size="22" font-weight="700" fill="var(--cf-text)">15.2K</text><g transform="translate(0,40)"><svg width="64" height="14" viewBox="0 0 64 14" preserveAspectRatio="none"><path d="M0 14 L2.13 12.93 L4.27 12.93 L6.4 12.25 L8.53 12.76 L10.67 12.76 L12.8 12.76 L14.93 12.76 L17.07 12.73 L19.2 12.35 L21.33 12.35 L23.47 8.36 L25.6 8.36 L27.73 8.53 L29.87 8.53 L32 7.53 L34.13 1.72 L36.27 1.65 L38.4 1.62 L40.53 1.27 L42.67 1.31 L44.8 1.31 L46.93 1.1 L49.07 0.38 L51.2 0.17 L53.33 0.17 L55.47 0.17 L57.6 0.14 L59.73 0 L61.87 0 L64 0 L64 14 L0 14 Z" fill="var(--cf-spark-bg)" stroke="none"/><path d="M0 14 L2.13 12.93 L4.27 12.93 L6.4 12.25 L8.53 12.76 L10.67 12.76 L12.8 12.76 L14.93 12.76 L17.07 12.73 L19.2 12.35 L21.33 12.35 L23.47 8.36 L25.6 8.36 L27.73 8.53 L29.87 8.53 L32 7.53 L34.13 1.72 L36.27 1.65 L38.4 1.62 L40.53 1.27 L42.67 1.31 L44.8 1.31 L46.93 1.1 L49.07 0.38 L51.2 0.17 L53.33 0.17 L55.47 0.17 L57.6 0.14 L59.73 0 L61.87 0 L64 0" fill="none" stroke="var(--cf-spark)" stroke-width="1.4" stroke-linecap="round" stroke-linejoin="round"/></svg></g></g><g transform="translate(291.6,46)"><text x="0" y="0" font-size="9" font-weight="600" fill="var(--cf-text-dim)" letter-spacing="0.8">LOC</text><text x="0" y="28" font-size="22" font-weight="700" fill="var(--cf-text)">609K</text><g transform="translate(0,40)"><svg width="64" height="14" viewBox="0 0 64 14" preserveAspectRatio="none"><path d="M0 12.02 L2.13 11.11 L4.27 11.08 L6.4 10.32 L8.53 14 L10.67 13.96 L12.8 13.94 L14.93 13.96 L17.07 13.68 L19.2 12.79 L21.33 12.75 L23.47 7.7 L25.6 7.67 L27.73 7.72 L29.87 7.65 L32 6.49 L34.13 2.51 L36.27 2.5 L38.4 2.43 L40.53 2.25 L42.67 2.26 L44.8 2.09 L46.93 1.88 L49.07 1.36 L51.2 1.01 L53.33 0.94 L55.47 0.93 L57.6 0.76 L59.73 0.21 L61.87 0.04 L64 0 L64 14 L0 14 Z" fill="var(--cf-spark-bg)" stroke="none"/><path d="M0 12.02 L2.13 11.11 L4.27 11.08 L6.4 10.32 L8.53 14 L10.67 13.96 L12.8 13.94 L14.93 13.96 L17.07 13.68 L19.2 12.79 L21.33 12.75 L23.47 7.7 L25.6 7.67 L27.73 7.72 L29.87 7.65 L32 6.49 L34.13 2.51 L36.27 2.5 L38.4 2.43 L40.53 2.25 L42.67 2.26 L44.8 2.09 L46.93 1.88 L49.07 1.36 L51.2 1.01 L53.33 0.94 L55.47 0.93 L57.6 0.76 L59.73 0.21 L61.87 0.04 L64 0" fill="none" stroke="var(--cf-spark)" stroke-width="1.4" stroke-linecap="round" stroke-linejoin="round"/></svg></g></g><g transform="translate(428.40000000000003,46)"><text x="0" y="0" font-size="9" font-weight="600" fill="var(--cf-text-dim)" letter-spacing="0.8">LANGS</text><text x="0" y="28" font-size="22" font-weight="700" fill="var(--cf-text)">22</text><g transform="translate(0,40)"><svg width="64" height="14" viewBox="0 0 64 14" preserveAspectRatio="none"><path d="M0 7 L2.13 7 L4.27 7 L6.4 7 L8.53 7 L10.67 7 L12.8 7 L14.93 7 L17.07 7 L19.2 7 L21.33 7 L23.47 7 L25.6 7 L27.73 7 L29.87 7 L32 7 L34.13 7 L36.27 7 L38.4 7 L40.53 7 L42.67 7 L44.8 7 L46.93 7 L49.07 7 L51.2 7 L53.33 7 L55.47 7 L57.6 7 L59.73 7 L61.87 7 L64 7 L64 14 L0 14 Z" fill="var(--cf-spark-bg)" stroke="none"/><path d="M0 7 L2.13 7 L4.27 7 L6.4 7 L8.53 7 L10.67 7 L12.8 7 L14.93 7 L17.07 7 L19.2 7 L21.33 7 L23.47 7 L25.6 7 L27.73 7 L29.87 7 L32 7 L34.13 7 L36.27 7 L38.4 7 L40.53 7 L42.67 7 L44.8 7 L46.93 7 L49.07 7 L51.2 7 L53.33 7 L55.47 7 L57.6 7 L59.73 7 L61.87 7 L64 7" fill="none" stroke="var(--cf-spark)" stroke-width="1.4" stroke-linecap="round" stroke-linejoin="round"/></svg></g></g><g transform="translate(565.2,46)"><text x="0" y="0" font-size="9" font-weight="600" fill="var(--cf-text-dim)" letter-spacing="0.8">TESTS</text><text x="0" y="28" font-size="22" font-weight="700" fill="var(--cf-text)">246</text><g transform="translate(0,40)"><svg width="64" height="14" viewBox="0 0 64 14" preserveAspectRatio="none"><path d="M0 14 L2.13 13.22 L4.27 13.22 L6.4 12.44 L8.53 12.44 L10.67 12.44 L12.8 12.44 L14.93 12.44 L17.07 12.44 L19.2 12.44 L21.33 12.44 L23.47 12.44 L25.6 12.44 L27.73 12.44 L29.87 12.44 L32 11.67 L34.13 1.56 L36.27 1.56 L38.4 1.56 L40.53 1.56 L42.67 1.56 L44.8 1.56 L46.93 0.78 L49.07 0 L51.2 0 L53.33 0 L55.47 0 L57.6 0 L59.73 0 L61.87 0 L64 0 L64 14 L0 14 Z" fill="var(--cf-spark-bg)" stroke="none"/><path d="M0 14 L2.13 13.22 L4.27 13.22 L6.4 12.44 L8.53 12.44 L10.67 12.44 L12.8 12.44 L14.93 12.44 L17.07 12.44 L19.2 12.44 L21.33 12.44 L23.47 12.44 L25.6 12.44 L27.73 12.44 L29.87 12.44 L32 11.67 L34.13 1.56 L36.27 1.56 L38.4 1.56 L40.53 1.56 L42.67 1.56 L44.8 1.56 L46.93 0.78 L49.07 0 L51.2 0 L53.33 0 L55.47 0 L57.6 0 L59.73 0 L61.87 0 L64 0" fill="none" stroke="var(--cf-spark)" stroke-width="1.4" stroke-linecap="round" stroke-linejoin="round"/></svg></g></g><a href="https://github.com/braedonsaunders/codeflow" target="_blank"><text x="702" y="130" text-anchor="end" font-size="9" fill="var(--cf-text-faint)">powered by <tspan font-weight="600" fill="var(--cf-accent)">codeflow</tspan></text></a></svg>