<svg xmlns="http://www.w3.org/2000/svg" width="720" height="140" viewBox="0 0 720 140" font-family="-apple-system,BlinkMacSystemFont,Segoe UI,Helvetica,Arial,sans-serif"><style>svg{--cf-bg:#0d1117;--cf-bg-alt:#161b22;--cf-border:#21262d;--cf-text:#e6edf3;--cf-text-dim:#8b949e;--cf-text-faint:#6e7681;--cf-accent:#5eead4;--cf-accent-soft:rgba(94,234,212,0.16);--cf-green:#3fb950;--cf-amber:#d29922;--cf-red:#f85149;--cf-spark:#5eead4;--cf-spark-bg:rgba(94,234,212,0.18)}@media (prefers-color-scheme: light){svg{--cf-bg:#ffffff;--cf-bg-alt:#f6f8fa;--cf-border:#d0d7de;--cf-text:#1f2328;--cf-text-dim:#656d76;--cf-text-faint:#8c959f;--cf-accent:#0d9488;--cf-accent-soft:rgba(13,148,136,0.12);--cf-green:#1a7f37;--cf-amber:#9a6700;--cf-red:#cf222e;--cf-spark:#0d9488;--cf-spark-bg:rgba(13,148,136,0.12)}}</style><rect width="720" height="140" rx="12" fill="var(--cf-bg)" stroke="var(--cf-border)"/><text x="18" y="26" font-size="13" font-weight="600" fill="var(--cf-text)">braedonsaunders/homerun</text><text x="702" y="26" text-anchor="end" font-size="10" fill="var(--cf-text-faint)" font-family="ui-monospace,SFMono-Regular,Menlo,monospace">@118feb4</text><g transform="translate(18,46)"><text x="0" y="0" font-size="9" font-weight="600" fill="var(--cf-text-dim)" letter-spacing="0.8">FILES</text><text x="0" y="28" font-size="22" font-weight="700" fill="var(--cf-text)">870</text><g transform="translate(0,40)"><svg width="64" height="14" viewBox="0 0 64 14" preserveAspectRatio="none"><path d="M0 14 L2.13 13.18 L4.27 12.35 L6.4 12.35 L8.53 12.35 L10.67 12.35 L12.8 12.35 L14.93 12.35 L17.07 12.35 L19.2 12.35 L21.33 12.35 L23.47 12.35 L25.6 8.24 L27.73 8.24 L29.87 8.24 L32 6.59 L34.13 6.59 L36.27 6.59 L38.4 6.59 L40.53 6.59 L42.67 6.59 L44.8 6.59 L46.93 2.47 L49.07 2.47 L51.2 2.47 L53.33 2.47 L55.47 2.47 L57.6 1.65 L59.73 1.65 L61.87 0 L64 0 L64 14 L0 14 Z" fill="var(--cf-spark-bg)" stroke="none"/><path d="M0 14 L2.13 13.18 L4.27 12.35 L6.4 12.35 L8.53 12.35 L10.67 12.35 L12.8 12.35 L14.93 12.35 L17.07 12.35 L19.2 12.35 L21.33 12.35 L23.47 12.35 L25.6 8.24 L27.73 8.24 L29.87 8.24 L32 6.59 L34.13 6.59 L36.27 6.59 L38.4 6.59 L40.53 6.59 L42.67 6.59 L44.8 6.59 L46.93 2.47 L49.07 2.47 L51.2 2.47 L53.33 2.47 L55.47 2.47 L57.6 1.65 L59.73 1.65 L61.87 0 L64 0" fill="none" stroke="var(--cf-spark)" stroke-width="1.4" stroke-linecap="round" stroke-linejoin="round"/></svg></g></g><g transform="translate(154.8,46)"><text x="0" y="0" font-size="9" font-weight="600" fill="var(--cf-text-dim)" letter-spacing="0.8">FNS</text><text x="0" y="28" font-size="22" font-weight="700" fill="var(--cf-text)">12.6K</text><g transform="translate(0,40)"><svg width="64" height="14" viewBox="0 0 64 14" preserveAspectRatio="none"><path d="M0 14 L2.13 13.86 L4.27 13.72 L6.4 13.72 L8.53 13.72 L10.67 13.37 L12.8 13.3 L14.93 13.16 L17.07 12.87 L19.2 12.87 L21.33 11.26 L23.47 11.26 L25.6 7.53 L27.73 8.16 L29.87 8.16 L32 4.36 L34.13 4.36 L36.27 4.36 L38.4 4.36 L40.53 4.15 L42.67 4.15 L44.8 4.08 L46.93 4.08 L49.07 3.24 L51.2 3.24 L53.33 3.17 L55.47 3.17 L57.6 2.88 L59.73 2.88 L61.87 0.84 L64 0 L64 14 L0 14 Z" fill="var(--cf-spark-bg)" stroke="none"/><path d="M0 14 L2.13 13.86 L4.27 13.72 L6.4 13.72 L8.53 13.72 L10.67 13.37 L12.8 13.3 L14.93 13.16 L17.07 12.87 L19.2 12.87 L21.33 11.26 L23.47 11.26 L25.6 7.53 L27.73 8.16 L29.87 8.16 L32 4.36 L34.13 4.36 L36.27 4.36 L38.4 4.36 L40.53 4.15 L42.67 4.15 L44.8 4.08 L46.93 4.08 L49.07 3.24 L51.2 3.24 L53.33 3.17 L55.47 3.17 L57.6 2.88 L59.73 2.88 L61.87 0.84 L64 0" fill="none" stroke="var(--cf-spark)" stroke-width="1.4" stroke-linecap="round" stroke-linejoin="round"/></svg></g></g><g transform="translate(291.6,46)"><text x="0" y="0" font-size="9" font-weight="600" fill="var(--cf-text-dim)" letter-spacing="0.8">LOC</text><text x="0" y="28" font-size="22" font-weight="700" fill="var(--cf-text)">479.3K</text><g transform="translate(0,40)"><svg width="64" height="14" viewBox="0 0 64 14" preserveAspectRatio="none"><path d="M0 14 L2.13 13.93 L4.27 13.85 L6.4 13.82 L8.53 13.78 L10.67 13.66 L12.8 13.63 L14.93 13.56 L17.07 13.01 L19.2 12.92 L21.33 11.12 L23.47 10.87 L25.6 7.78 L27.73 7.96 L29.87 7.88 L32 5.76 L34.13 4.89 L36.27 4.88 L38.4 4.75 L40.53 4.58 L42.67 4.52 L44.8 4.24 L46.93 3.62 L49.07 3.44 L51.2 3.39 L53.33 3.05 L55.47 2.93 L57.6 2.54 L59.73 2.54 L61.87 1.18 L64 0 L64 14 L0 14 Z" fill="var(--cf-spark-bg)" stroke="none"/><path d="M0 14 L2.13 13.93 L4.27 13.85 L6.4 13.82 L8.53 13.78 L10.67 13.66 L12.8 13.63 L14.93 13.56 L17.07 13.01 L19.2 12.92 L21.33 11.12 L23.47 10.87 L25.6 7.78 L27.73 7.96 L29.87 7.88 L32 5.76 L34.13 4.89 L36.27 4.88 L38.4 4.75 L40.53 4.58 L42.67 4.52 L44.8 4.24 L46.93 3.62 L49.07 3.44 L51.2 3.39 L53.33 3.05 L55.47 2.93 L57.6 2.54 L59.73 2.54 L61.87 1.18 L64 0" fill="none" stroke="var(--cf-spark)" stroke-width="1.4" stroke-linecap="round" stroke-linejoin="round"/></svg></g></g><g transform="translate(428.40000000000003,46)"><text x="0" y="0" font-size="9" font-weight="600" fill="var(--cf-text-dim)" letter-spacing="0.8">LANGS</text><text x="0" y="28" font-size="22" font-weight="700" fill="var(--cf-text)">22</text><g transform="translate(0,40)"><svg width="64" height="14" viewBox="0 0 64 14" preserveAspectRatio="none"><path d="M0 14 L2.13 14 L4.27 14 L6.4 14 L8.53 14 L10.67 14 L12.8 14 L14.93 14 L17.07 14 L19.2 14 L21.33 14 L23.47 14 L25.6 14 L27.73 14 L29.87 14 L32 14 L34.13 14 L36.27 14 L38.4 14 L40.53 14 L42.67 14 L44.8 14 L46.93 0 L49.07 0 L51.2 0 L53.33 0 L55.47 0 L57.6 0 L59.73 0 L61.87 0 L64 0 L64 14 L0 14 Z" fill="var(--cf-spark-bg)" stroke="none"/><path d="M0 14 L2.13 14 L4.27 14 L6.4 14 L8.53 14 L10.67 14 L12.8 14 L14.93 14 L17.07 14 L19.2 14 L21.33 14 L23.47 14 L25.6 14 L27.73 14 L29.87 14 L32 14 L34.13 14 L36.27 14 L38.4 14 L40.53 14 L42.67 14 L44.8 14 L46.93 0 L49.07 0 L51.2 0 L53.33 0 L55.47 0 L57.6 0 L59.73 0 L61.87 0 L64 0" fill="none" stroke="var(--cf-spark)" stroke-width="1.4" stroke-linecap="round" stroke-linejoin="round"/></svg></g></g><g transform="translate(565.2,46)"><text x="0" y="0" font-size="9" font-weight="600" fill="var(--cf-text-dim)" letter-spacing="0.8">TESTS</text><text x="0" y="28" font-size="22" font-weight="700" fill="var(--cf-text)">187</text><g transform="translate(0,40)"><svg width="64" height="14" viewBox="0 0 64 14" preserveAspectRatio="none"><path d="M0 14 L2.13 14 L4.27 14 L6.4 14 L8.53 14 L10.67 14 L12.8 14 L14.93 14 L17.07 14 L19.2 14 L21.33 14 L23.47 14 L25.6 14 L27.73 14 L29.87 14 L32 0 L34.13 0 L36.27 0 L38.4 0 L40.53 0 L42.67 0 L44.8 0 L46.93 0 L49.07 0 L51.2 0 L53.33 0 L55.47 0 L57.6 0 L59.73 0 L61.87 0 L64 0 L64 14 L0 14 Z" fill="var(--cf-spark-bg)" stroke="none"/><path d="M0 14 L2.13 14 L4.27 14 L6.4 14 L8.53 14 L10.67 14 L12.8 14 L14.93 14 L17.07 14 L19.2 14 L21.33 14 L23.47 14 L25.6 14 L27.73 14 L29.87 14 L32 0 L34.13 0 L36.27 0 L38.4 0 L40.53 0 L42.67 0 L44.8 0 L46.93 0 L49.07 0 L51.2 0 L53.33 0 L55.47 0 L57.6 0 L59.73 0 L61.87 0 L64 0" fill="none" stroke="var(--cf-spark)" stroke-width="1.4" stroke-linecap="round" stroke-linejoin="round"/></svg></g></g><a href="https://github.com/braedonsaunders/codeflow" target="_blank"><text x="702" y="130" text-anchor="end" font-size="9" fill="var(--cf-text-faint)">powered by <tspan font-weight="600" fill="var(--cf-accent)">codeflow</tspan></text></a></svg>