<svg xmlns="http://www.w3.org/2000/svg" width="720" height="140" viewBox="0 0 720 140" font-family="-apple-system,BlinkMacSystemFont,Segoe UI,Helvetica,Arial,sans-serif"><style>svg{--cf-bg:#0d1117;--cf-bg-alt:#161b22;--cf-border:#21262d;--cf-text:#e6edf3;--cf-text-dim:#8b949e;--cf-text-faint:#6e7681;--cf-accent:#5eead4;--cf-accent-soft:rgba(94,234,212,0.16);--cf-green:#3fb950;--cf-amber:#d29922;--cf-red:#f85149;--cf-spark:#5eead4;--cf-spark-bg:rgba(94,234,212,0.18)}@media (prefers-color-scheme: light){svg{--cf-bg:#ffffff;--cf-bg-alt:#f6f8fa;--cf-border:#d0d7de;--cf-text:#1f2328;--cf-text-dim:#656d76;--cf-text-faint:#8c959f;--cf-accent:#0d9488;--cf-accent-soft:rgba(13,148,136,0.12);--cf-green:#1a7f37;--cf-amber:#9a6700;--cf-red:#cf222e;--cf-spark:#0d9488;--cf-spark-bg:rgba(13,148,136,0.12)}}</style><rect width="720" height="140" rx="12" fill="var(--cf-bg)" stroke="var(--cf-border)"/><text x="18" y="26" font-size="13" font-weight="600" fill="var(--cf-text)">braedonsaunders/homerun</text><text x="702" y="26" text-anchor="end" font-size="10" fill="var(--cf-text-faint)" font-family="ui-monospace,SFMono-Regular,Menlo,monospace">@be34603</text><g transform="translate(18,46)"><text x="0" y="0" font-size="9" font-weight="600" fill="var(--cf-text-dim)" letter-spacing="0.8">FILES</text><text x="0" y="28" font-size="22" font-weight="700" fill="var(--cf-text)">1.1K</text><g transform="translate(0,40)"><svg width="64" height="14" viewBox="0 0 64 14" preserveAspectRatio="none"><path d="M0 14 L2.13 10.75 L4.27 10.75 L6.4 10.75 L8.53 10.35 L10.67 10.14 L12.8 10.14 L14.93 10.14 L17.07 9.94 L19.2 9.94 L21.33 9.74 L23.47 9.74 L25.6 9.74 L27.73 8.72 L29.87 8.32 L32 7.91 L34.13 7.91 L36.27 7.71 L38.4 9.13 L40.53 9.13 L42.67 9.13 L44.8 9.13 L46.93 9.13 L49.07 8.93 L51.2 8.93 L53.33 6.9 L55.47 6.9 L57.6 6.9 L59.73 6.9 L61.87 6.49 L64 0 L64 14 L0 14 Z" fill="var(--cf-spark-bg)" stroke="none"/><path d="M0 14 L2.13 10.75 L4.27 10.75 L6.4 10.75 L8.53 10.35 L10.67 10.14 L12.8 10.14 L14.93 10.14 L17.07 9.94 L19.2 9.94 L21.33 9.74 L23.47 9.74 L25.6 9.74 L27.73 8.72 L29.87 8.32 L32 7.91 L34.13 7.91 L36.27 7.71 L38.4 9.13 L40.53 9.13 L42.67 9.13 L44.8 9.13 L46.93 9.13 L49.07 8.93 L51.2 8.93 L53.33 6.9 L55.47 6.9 L57.6 6.9 L59.73 6.9 L61.87 6.49 L64 0" fill="none" stroke="var(--cf-spark)" stroke-width="1.4" stroke-linecap="round" stroke-linejoin="round"/></svg></g></g><g transform="translate(154.8,46)"><text x="0" y="0" font-size="9" font-weight="600" fill="var(--cf-text-dim)" letter-spacing="0.8">FNS</text><text x="0" y="28" font-size="22" font-weight="700" fill="var(--cf-text)">15.2K</text><g transform="translate(0,40)"><svg width="64" height="14" viewBox="0 0 64 14" preserveAspectRatio="none"><path d="M0 14 L2.13 9 L4.27 8.93 L6.4 8.93 L8.53 8.55 L10.67 8.52 L12.8 8.52 L14.93 8.52 L17.07 8.31 L19.2 8.14 L21.33 8.11 L23.47 8.09 L25.6 8.07 L27.73 6.87 L29.87 6.13 L32 5.6 L34.13 5.6 L36.27 5.26 L38.4 5.51 L40.53 5.51 L42.67 5.51 L44.8 5.51 L46.93 5.5 L49.07 5.31 L51.2 5.31 L53.33 3.32 L55.47 3.32 L57.6 3.4 L59.73 3.4 L61.87 2.9 L64 0 L64 14 L0 14 Z" fill="var(--cf-spark-bg)" stroke="none"/><path d="M0 14 L2.13 9 L4.27 8.93 L6.4 8.93 L8.53 8.55 L10.67 8.52 L12.8 8.52 L14.93 8.52 L17.07 8.31 L19.2 8.14 L21.33 8.11 L23.47 8.09 L25.6 8.07 L27.73 6.87 L29.87 6.13 L32 5.6 L34.13 5.6 L36.27 5.26 L38.4 5.51 L40.53 5.51 L42.67 5.51 L44.8 5.51 L46.93 5.5 L49.07 5.31 L51.2 5.31 L53.33 3.32 L55.47 3.32 L57.6 3.4 L59.73 3.4 L61.87 2.9 L64 0" fill="none" stroke="var(--cf-spark)" stroke-width="1.4" stroke-linecap="round" stroke-linejoin="round"/></svg></g></g><g transform="translate(291.6,46)"><text x="0" y="0" font-size="9" font-weight="600" fill="var(--cf-text-dim)" letter-spacing="0.8">LOC</text><text x="0" y="28" font-size="22" font-weight="700" fill="var(--cf-text)">607.7K</text><g transform="translate(0,40)"><svg width="64" height="14" viewBox="0 0 64 14" preserveAspectRatio="none"><path d="M0 14 L2.13 7.61 L4.27 7.64 L6.4 7.62 L8.53 7.19 L10.67 7.12 L12.8 7.12 L14.93 7.12 L17.07 6.95 L19.2 6.79 L21.33 6.73 L23.47 6.67 L25.6 6.65 L27.73 5.31 L29.87 4.25 L32 3.85 L34.13 3.83 L36.27 3.49 L38.4 5.14 L40.53 5.12 L42.67 5.11 L44.8 5.12 L46.93 4.99 L49.07 4.6 L51.2 4.58 L53.33 2.32 L55.47 2.31 L57.6 2.33 L59.73 2.3 L61.87 1.78 L64 0 L64 14 L0 14 Z" fill="var(--cf-spark-bg)" stroke="none"/><path d="M0 14 L2.13 7.61 L4.27 7.64 L6.4 7.62 L8.53 7.19 L10.67 7.12 L12.8 7.12 L14.93 7.12 L17.07 6.95 L19.2 6.79 L21.33 6.73 L23.47 6.67 L25.6 6.65 L27.73 5.31 L29.87 4.25 L32 3.85 L34.13 3.83 L36.27 3.49 L38.4 5.14 L40.53 5.12 L42.67 5.11 L44.8 5.12 L46.93 4.99 L49.07 4.6 L51.2 4.58 L53.33 2.32 L55.47 2.31 L57.6 2.33 L59.73 2.3 L61.87 1.78 L64 0" fill="none" stroke="var(--cf-spark)" stroke-width="1.4" stroke-linecap="round" stroke-linejoin="round"/></svg></g></g><g transform="translate(428.40000000000003,46)"><text x="0" y="0" font-size="9" font-weight="600" fill="var(--cf-text-dim)" letter-spacing="0.8">LANGS</text><text x="0" y="28" font-size="22" font-weight="700" fill="var(--cf-text)">22</text><g transform="translate(0,40)"><svg width="64" height="14" viewBox="0 0 64 14" preserveAspectRatio="none"><path d="M0 7 L2.13 7 L4.27 7 L6.4 7 L8.53 7 L10.67 7 L12.8 7 L14.93 7 L17.07 7 L19.2 7 L21.33 7 L23.47 7 L25.6 7 L27.73 7 L29.87 7 L32 7 L34.13 7 L36.27 7 L38.4 7 L40.53 7 L42.67 7 L44.8 7 L46.93 7 L49.07 7 L51.2 7 L53.33 7 L55.47 7 L57.6 7 L59.73 7 L61.87 7 L64 7 L64 14 L0 14 Z" fill="var(--cf-spark-bg)" stroke="none"/><path d="M0 7 L2.13 7 L4.27 7 L6.4 7 L8.53 7 L10.67 7 L12.8 7 L14.93 7 L17.07 7 L19.2 7 L21.33 7 L23.47 7 L25.6 7 L27.73 7 L29.87 7 L32 7 L34.13 7 L36.27 7 L38.4 7 L40.53 7 L42.67 7 L44.8 7 L46.93 7 L49.07 7 L51.2 7 L53.33 7 L55.47 7 L57.6 7 L59.73 7 L61.87 7 L64 7" fill="none" stroke="var(--cf-spark)" stroke-width="1.4" stroke-linecap="round" stroke-linejoin="round"/></svg></g></g><g transform="translate(565.2,46)"><text x="0" y="0" font-size="9" font-weight="600" fill="var(--cf-text-dim)" letter-spacing="0.8">TESTS</text><text x="0" y="28" font-size="22" font-weight="700" fill="var(--cf-text)">244</text><g transform="translate(0,40)"><svg width="64" height="14" viewBox="0 0 64 14" preserveAspectRatio="none"><path d="M0 14 L2.13 9.76 L4.27 9.76 L6.4 9.76 L8.53 8.91 L10.67 8.91 L12.8 8.91 L14.93 8.91 L17.07 8.48 L19.2 8.48 L21.33 8.48 L23.47 8.48 L25.6 8.48 L27.73 7.21 L29.87 6.79 L32 6.36 L34.13 6.36 L36.27 5.94 L38.4 5.94 L40.53 5.94 L42.67 5.94 L44.8 5.94 L46.93 5.94 L49.07 5.94 L51.2 5.94 L53.33 5.94 L55.47 5.94 L57.6 5.94 L59.73 5.94 L61.87 5.52 L64 0 L64 14 L0 14 Z" fill="var(--cf-spark-bg)" stroke="none"/><path d="M0 14 L2.13 9.76 L4.27 9.76 L6.4 9.76 L8.53 8.91 L10.67 8.91 L12.8 8.91 L14.93 8.91 L17.07 8.48 L19.2 8.48 L21.33 8.48 L23.47 8.48 L25.6 8.48 L27.73 7.21 L29.87 6.79 L32 6.36 L34.13 6.36 L36.27 5.94 L38.4 5.94 L40.53 5.94 L42.67 5.94 L44.8 5.94 L46.93 5.94 L49.07 5.94 L51.2 5.94 L53.33 5.94 L55.47 5.94 L57.6 5.94 L59.73 5.94 L61.87 5.52 L64 0" fill="none" stroke="var(--cf-spark)" stroke-width="1.4" stroke-linecap="round" stroke-linejoin="round"/></svg></g></g><a href="https://github.com/braedonsaunders/codeflow" target="_blank"><text x="702" y="130" text-anchor="end" font-size="9" fill="var(--cf-text-faint)">powered by <tspan font-weight="600" fill="var(--cf-accent)">codeflow</tspan></text></a></svg>