<svg xmlns="http://www.w3.org/2000/svg" width="720" height="140" viewBox="0 0 720 140" font-family="-apple-system,BlinkMacSystemFont,Segoe UI,Helvetica,Arial,sans-serif"><style>svg{--cf-bg:#0d1117;--cf-bg-alt:#161b22;--cf-border:#21262d;--cf-text:#e6edf3;--cf-text-dim:#8b949e;--cf-text-faint:#6e7681;--cf-accent:#5eead4;--cf-accent-soft:rgba(94,234,212,0.16);--cf-green:#3fb950;--cf-amber:#d29922;--cf-red:#f85149;--cf-spark:#5eead4;--cf-spark-bg:rgba(94,234,212,0.18)}@media (prefers-color-scheme: light){svg{--cf-bg:#ffffff;--cf-bg-alt:#f6f8fa;--cf-border:#d0d7de;--cf-text:#1f2328;--cf-text-dim:#656d76;--cf-text-faint:#8c959f;--cf-accent:#0d9488;--cf-accent-soft:rgba(13,148,136,0.12);--cf-green:#1a7f37;--cf-amber:#9a6700;--cf-red:#cf222e;--cf-spark:#0d9488;--cf-spark-bg:rgba(13,148,136,0.12)}}</style><rect width="720" height="140" rx="12" fill="var(--cf-bg)" stroke="var(--cf-border)"/><text x="18" y="26" font-size="13" font-weight="600" fill="var(--cf-text)">braedonsaunders/homerun</text><text x="702" y="26" text-anchor="end" font-size="10" fill="var(--cf-text-faint)" font-family="ui-monospace,SFMono-Regular,Menlo,monospace">@e47c4ca</text><g transform="translate(18,46)"><text x="0" y="0" font-size="9" font-weight="600" fill="var(--cf-text-dim)" letter-spacing="0.8">FILES</text><text x="0" y="28" font-size="22" font-weight="700" fill="var(--cf-text)">853</text><g transform="translate(0,40)"><svg width="64" height="14" viewBox="0 0 64 14" preserveAspectRatio="none"><path d="M0 14 L2.78 14 L5.57 14 L8.35 14 L11.13 14 L13.91 12.08 L16.7 12.08 L19.48 12.08 L22.26 11.89 L25.04 11.89 L27.83 11.89 L30.61 11.89 L33.39 2.49 L36.17 2.11 L38.96 2.11 L41.74 2.11 L44.52 2.11 L47.3 2.11 L50.09 1.92 L52.87 1.92 L55.65 1.92 L58.43 0 L61.22 0 L64 0 L64 14 L0 14 Z" fill="var(--cf-spark-bg)" stroke="none"/><path d="M0 14 L2.78 14 L5.57 14 L8.35 14 L11.13 14 L13.91 12.08 L16.7 12.08 L19.48 12.08 L22.26 11.89 L25.04 11.89 L27.83 11.89 L30.61 11.89 L33.39 2.49 L36.17 2.11 L38.96 2.11 L41.74 2.11 L44.52 2.11 L47.3 2.11 L50.09 1.92 L52.87 1.92 L55.65 1.92 L58.43 0 L61.22 0 L64 0" fill="none" stroke="var(--cf-spark)" stroke-width="1.4" stroke-linecap="round" stroke-linejoin="round"/></svg></g></g><g transform="translate(154.8,46)"><text x="0" y="0" font-size="9" font-weight="600" fill="var(--cf-text-dim)" letter-spacing="0.8">FNS</text><text x="0" y="28" font-size="22" font-weight="700" fill="var(--cf-text)">12.4K</text><g transform="translate(0,40)"><svg width="64" height="14" viewBox="0 0 64 14" preserveAspectRatio="none"><path d="M0 14 L2.78 14 L5.57 14 L8.35 14 L11.13 14 L13.91 12.33 L16.7 12.33 L19.48 12.33 L22.26 12.22 L25.04 12.18 L27.83 12.15 L30.61 12.15 L33.39 1.53 L36.17 1 L38.96 0.98 L41.74 0.95 L44.52 0.95 L47.3 0.95 L50.09 0.69 L52.87 0.69 L55.65 0.67 L58.43 0.01 L61.22 0 L64 0 L64 14 L0 14 Z" fill="var(--cf-spark-bg)" stroke="none"/><path d="M0 14 L2.78 14 L5.57 14 L8.35 14 L11.13 14 L13.91 12.33 L16.7 12.33 L19.48 12.33 L22.26 12.22 L25.04 12.18 L27.83 12.15 L30.61 12.15 L33.39 1.53 L36.17 1 L38.96 0.98 L41.74 0.95 L44.52 0.95 L47.3 0.95 L50.09 0.69 L52.87 0.69 L55.65 0.67 L58.43 0.01 L61.22 0 L64 0" fill="none" stroke="var(--cf-spark)" stroke-width="1.4" stroke-linecap="round" stroke-linejoin="round"/></svg></g></g><g transform="translate(291.6,46)"><text x="0" y="0" font-size="9" font-weight="600" fill="var(--cf-text-dim)" letter-spacing="0.8">LOC</text><text x="0" y="28" font-size="22" font-weight="700" fill="var(--cf-text)">467.7K</text><g transform="translate(0,40)"><svg width="64" height="14" viewBox="0 0 64 14" preserveAspectRatio="none"><path d="M0 13.9 L2.78 13.99 L5.57 14 L8.35 14 L11.13 14 L13.91 8.68 L16.7 8.67 L19.48 8.66 L22.26 8.41 L25.04 9.08 L27.83 9.01 L30.61 9.01 L33.39 6.37 L36.17 3.69 L38.96 3.66 L41.74 3.53 L44.52 3.53 L47.3 3.52 L50.09 2.67 L52.87 3.19 L55.65 3.17 L58.43 0.06 L61.22 0.03 L64 0 L64 14 L0 14 Z" fill="var(--cf-spark-bg)" stroke="none"/><path d="M0 13.9 L2.78 13.99 L5.57 14 L8.35 14 L11.13 14 L13.91 8.68 L16.7 8.67 L19.48 8.66 L22.26 8.41 L25.04 9.08 L27.83 9.01 L30.61 9.01 L33.39 6.37 L36.17 3.69 L38.96 3.66 L41.74 3.53 L44.52 3.53 L47.3 3.52 L50.09 2.67 L52.87 3.19 L55.65 3.17 L58.43 0.06 L61.22 0.03 L64 0" fill="none" stroke="var(--cf-spark)" stroke-width="1.4" stroke-linecap="round" stroke-linejoin="round"/></svg></g></g><g transform="translate(428.40000000000003,46)"><text x="0" y="0" font-size="9" font-weight="600" fill="var(--cf-text-dim)" letter-spacing="0.8">LANGS</text><text x="0" y="28" font-size="22" font-weight="700" fill="var(--cf-text)">19</text><g transform="translate(0,40)"><svg width="64" height="14" viewBox="0 0 64 14" preserveAspectRatio="none"><path d="M0 7 L2.78 7 L5.57 7 L8.35 7 L11.13 7 L13.91 7 L16.7 7 L19.48 7 L22.26 7 L25.04 7 L27.83 7 L30.61 7 L33.39 7 L36.17 7 L38.96 7 L41.74 7 L44.52 7 L47.3 7 L50.09 7 L52.87 7 L55.65 7 L58.43 7 L61.22 7 L64 7 L64 14 L0 14 Z" fill="var(--cf-spark-bg)" stroke="none"/><path d="M0 7 L2.78 7 L5.57 7 L8.35 7 L11.13 7 L13.91 7 L16.7 7 L19.48 7 L22.26 7 L25.04 7 L27.83 7 L30.61 7 L33.39 7 L36.17 7 L38.96 7 L41.74 7 L44.52 7 L47.3 7 L50.09 7 L52.87 7 L55.65 7 L58.43 7 L61.22 7 L64 7" fill="none" stroke="var(--cf-spark)" stroke-width="1.4" stroke-linecap="round" stroke-linejoin="round"/></svg></g></g><g transform="translate(565.2,46)"><text x="0" y="0" font-size="9" font-weight="600" fill="var(--cf-text-dim)" letter-spacing="0.8">TESTS</text><text x="0" y="28" font-size="22" font-weight="700" fill="var(--cf-text)">186</text><g transform="translate(0,40)"><svg width="64" height="14" viewBox="0 0 64 14" preserveAspectRatio="none"><path d="M0 14 L2.78 14 L5.57 14 L8.35 14 L11.13 14 L13.91 11.67 L16.7 11.67 L19.48 11.67 L22.26 11.67 L25.04 11.67 L27.83 11.67 L30.61 11.67 L33.39 0 L36.17 0 L38.96 0 L41.74 0 L44.52 0 L47.3 0 L50.09 0 L52.87 0 L55.65 0 L58.43 0 L61.22 0 L64 0 L64 14 L0 14 Z" fill="var(--cf-spark-bg)" stroke="none"/><path d="M0 14 L2.78 14 L5.57 14 L8.35 14 L11.13 14 L13.91 11.67 L16.7 11.67 L19.48 11.67 L22.26 11.67 L25.04 11.67 L27.83 11.67 L30.61 11.67 L33.39 0 L36.17 0 L38.96 0 L41.74 0 L44.52 0 L47.3 0 L50.09 0 L52.87 0 L55.65 0 L58.43 0 L61.22 0 L64 0" fill="none" stroke="var(--cf-spark)" stroke-width="1.4" stroke-linecap="round" stroke-linejoin="round"/></svg></g></g><a href="https://github.com/braedonsaunders/codeflow" target="_blank"><text x="702" y="130" text-anchor="end" font-size="9" fill="var(--cf-text-faint)">powered by <tspan font-weight="600" fill="var(--cf-accent)">codeflow</tspan></text></a></svg>