<svg xmlns="http://www.w3.org/2000/svg" width="720" height="140" viewBox="0 0 720 140" font-family="-apple-system,BlinkMacSystemFont,Segoe UI,Helvetica,Arial,sans-serif"><style>svg{--cf-bg:#0d1117;--cf-bg-alt:#161b22;--cf-border:#21262d;--cf-text:#e6edf3;--cf-text-dim:#8b949e;--cf-text-faint:#6e7681;--cf-accent:#5eead4;--cf-accent-soft:rgba(94,234,212,0.16);--cf-green:#3fb950;--cf-amber:#d29922;--cf-red:#f85149;--cf-spark:#5eead4;--cf-spark-bg:rgba(94,234,212,0.18)}@media (prefers-color-scheme: light){svg{--cf-bg:#ffffff;--cf-bg-alt:#f6f8fa;--cf-border:#d0d7de;--cf-text:#1f2328;--cf-text-dim:#656d76;--cf-text-faint:#8c959f;--cf-accent:#0d9488;--cf-accent-soft:rgba(13,148,136,0.12);--cf-green:#1a7f37;--cf-amber:#9a6700;--cf-red:#cf222e;--cf-spark:#0d9488;--cf-spark-bg:rgba(13,148,136,0.12)}}</style><rect width="720" height="140" rx="12" fill="var(--cf-bg)" stroke="var(--cf-border)"/><text x="18" y="26" font-size="13" font-weight="600" fill="var(--cf-text)">braedonsaunders/homerun</text><text x="702" y="26" text-anchor="end" font-size="10" fill="var(--cf-text-faint)" font-family="ui-monospace,SFMono-Regular,Menlo,monospace">@15e9628</text><g transform="translate(18,46)"><text x="0" y="0" font-size="9" font-weight="600" fill="var(--cf-text-dim)" letter-spacing="0.8">FILES</text><text x="0" y="28" font-size="22" font-weight="700" fill="var(--cf-text)">843</text><g transform="translate(0,40)"><svg width="64" height="14" viewBox="0 0 64 14" preserveAspectRatio="none"><path d="M0 14 L3.37 14 L6.74 14 L10.11 14 L13.47 14 L16.84 11.78 L20.21 11.78 L23.58 11.78 L26.95 11.56 L30.32 11.56 L33.68 11.56 L37.05 11.56 L40.42 0.67 L43.79 0.22 L47.16 0.22 L50.53 0.22 L53.89 0.22 L57.26 0.22 L60.63 0 L64 0 L64 14 L0 14 Z" fill="var(--cf-spark-bg)" stroke="none"/><path d="M0 14 L3.37 14 L6.74 14 L10.11 14 L13.47 14 L16.84 11.78 L20.21 11.78 L23.58 11.78 L26.95 11.56 L30.32 11.56 L33.68 11.56 L37.05 11.56 L40.42 0.67 L43.79 0.22 L47.16 0.22 L50.53 0.22 L53.89 0.22 L57.26 0.22 L60.63 0 L64 0" fill="none" stroke="var(--cf-spark)" stroke-width="1.4" stroke-linecap="round" stroke-linejoin="round"/></svg></g></g><g transform="translate(154.8,46)"><text x="0" y="0" font-size="9" font-weight="600" fill="var(--cf-text-dim)" letter-spacing="0.8">FNS</text><text x="0" y="28" font-size="22" font-weight="700" fill="var(--cf-text)">12.4K</text><g transform="translate(0,40)"><svg width="64" height="14" viewBox="0 0 64 14" preserveAspectRatio="none"><path d="M0 14 L3.37 14 L6.74 14 L10.11 14 L13.47 14 L16.84 12.24 L20.21 12.24 L23.58 12.24 L26.95 12.13 L30.32 12.08 L33.68 12.06 L37.05 12.06 L40.42 0.89 L43.79 0.33 L47.16 0.31 L50.53 0.28 L53.89 0.28 L57.26 0.28 L60.63 0 L64 0 L64 14 L0 14 Z" fill="var(--cf-spark-bg)" stroke="none"/><path d="M0 14 L3.37 14 L6.74 14 L10.11 14 L13.47 14 L16.84 12.24 L20.21 12.24 L23.58 12.24 L26.95 12.13 L30.32 12.08 L33.68 12.06 L37.05 12.06 L40.42 0.89 L43.79 0.33 L47.16 0.31 L50.53 0.28 L53.89 0.28 L57.26 0.28 L60.63 0 L64 0" fill="none" stroke="var(--cf-spark)" stroke-width="1.4" stroke-linecap="round" stroke-linejoin="round"/></svg></g></g><g transform="translate(291.6,46)"><text x="0" y="0" font-size="9" font-weight="600" fill="var(--cf-text-dim)" letter-spacing="0.8">LOC</text><text x="0" y="28" font-size="22" font-weight="700" fill="var(--cf-text)">463.9K</text><g transform="translate(0,40)"><svg width="64" height="14" viewBox="0 0 64 14" preserveAspectRatio="none"><path d="M0 13.88 L3.37 13.99 L6.74 14 L10.11 14 L13.47 14 L16.84 7.42 L20.21 7.41 L23.58 7.4 L26.95 7.1 L30.32 7.92 L33.68 7.84 L37.05 7.84 L40.42 4.57 L43.79 1.26 L47.16 1.22 L50.53 1.07 L53.89 1.07 L57.26 1.05 L60.63 0 L64 0.64 L64 14 L0 14 Z" fill="var(--cf-spark-bg)" stroke="none"/><path d="M0 13.88 L3.37 13.99 L6.74 14 L10.11 14 L13.47 14 L16.84 7.42 L20.21 7.41 L23.58 7.4 L26.95 7.1 L30.32 7.92 L33.68 7.84 L37.05 7.84 L40.42 4.57 L43.79 1.26 L47.16 1.22 L50.53 1.07 L53.89 1.07 L57.26 1.05 L60.63 0 L64 0.64" fill="none" stroke="var(--cf-spark)" stroke-width="1.4" stroke-linecap="round" stroke-linejoin="round"/></svg></g></g><g transform="translate(428.40000000000003,46)"><text x="0" y="0" font-size="9" font-weight="600" fill="var(--cf-text-dim)" letter-spacing="0.8">LANGS</text><text x="0" y="28" font-size="22" font-weight="700" fill="var(--cf-text)">19</text><g transform="translate(0,40)"><svg width="64" height="14" viewBox="0 0 64 14" preserveAspectRatio="none"><path d="M0 7 L3.37 7 L6.74 7 L10.11 7 L13.47 7 L16.84 7 L20.21 7 L23.58 7 L26.95 7 L30.32 7 L33.68 7 L37.05 7 L40.42 7 L43.79 7 L47.16 7 L50.53 7 L53.89 7 L57.26 7 L60.63 7 L64 7 L64 14 L0 14 Z" fill="var(--cf-spark-bg)" stroke="none"/><path d="M0 7 L3.37 7 L6.74 7 L10.11 7 L13.47 7 L16.84 7 L20.21 7 L23.58 7 L26.95 7 L30.32 7 L33.68 7 L37.05 7 L40.42 7 L43.79 7 L47.16 7 L50.53 7 L53.89 7 L57.26 7 L60.63 7 L64 7" fill="none" stroke="var(--cf-spark)" stroke-width="1.4" stroke-linecap="round" stroke-linejoin="round"/></svg></g></g><g transform="translate(565.2,46)"><text x="0" y="0" font-size="9" font-weight="600" fill="var(--cf-text-dim)" letter-spacing="0.8">TESTS</text><text x="0" y="28" font-size="22" font-weight="700" fill="var(--cf-text)">186</text><g transform="translate(0,40)"><svg width="64" height="14" viewBox="0 0 64 14" preserveAspectRatio="none"><path d="M0 14 L3.37 14 L6.74 14 L10.11 14 L13.47 14 L16.84 11.67 L20.21 11.67 L23.58 11.67 L26.95 11.67 L30.32 11.67 L33.68 11.67 L37.05 11.67 L40.42 0 L43.79 0 L47.16 0 L50.53 0 L53.89 0 L57.26 0 L60.63 0 L64 0 L64 14 L0 14 Z" fill="var(--cf-spark-bg)" stroke="none"/><path d="M0 14 L3.37 14 L6.74 14 L10.11 14 L13.47 14 L16.84 11.67 L20.21 11.67 L23.58 11.67 L26.95 11.67 L30.32 11.67 L33.68 11.67 L37.05 11.67 L40.42 0 L43.79 0 L47.16 0 L50.53 0 L53.89 0 L57.26 0 L60.63 0 L64 0" fill="none" stroke="var(--cf-spark)" stroke-width="1.4" stroke-linecap="round" stroke-linejoin="round"/></svg></g></g><a href="https://github.com/braedonsaunders/codeflow" target="_blank"><text x="702" y="130" text-anchor="end" font-size="9" fill="var(--cf-text-faint)">powered by <tspan font-weight="600" fill="var(--cf-accent)">codeflow</tspan></text></a></svg>