<svg xmlns="http://www.w3.org/2000/svg" width="720" height="140" viewBox="0 0 720 140" font-family="-apple-system,BlinkMacSystemFont,Segoe UI,Helvetica,Arial,sans-serif"><style>svg{--cf-bg:#0d1117;--cf-bg-alt:#161b22;--cf-border:#21262d;--cf-text:#e6edf3;--cf-text-dim:#8b949e;--cf-text-faint:#6e7681;--cf-accent:#5eead4;--cf-accent-soft:rgba(94,234,212,0.16);--cf-green:#3fb950;--cf-amber:#d29922;--cf-red:#f85149;--cf-spark:#5eead4;--cf-spark-bg:rgba(94,234,212,0.18)}@media (prefers-color-scheme: light){svg{--cf-bg:#ffffff;--cf-bg-alt:#f6f8fa;--cf-border:#d0d7de;--cf-text:#1f2328;--cf-text-dim:#656d76;--cf-text-faint:#8c959f;--cf-accent:#0d9488;--cf-accent-soft:rgba(13,148,136,0.12);--cf-green:#1a7f37;--cf-amber:#9a6700;--cf-red:#cf222e;--cf-spark:#0d9488;--cf-spark-bg:rgba(13,148,136,0.12)}}</style><rect width="720" height="140" rx="12" fill="var(--cf-bg)" stroke="var(--cf-border)"/><text x="18" y="26" font-size="13" font-weight="600" fill="var(--cf-text)">braedonsaunders/homerun</text><text x="702" y="26" text-anchor="end" font-size="10" fill="var(--cf-text-faint)" font-family="ui-monospace,SFMono-Regular,Menlo,monospace">@7d86db5</text><g transform="translate(18,46)"><text x="0" y="0" font-size="9" font-weight="600" fill="var(--cf-text-dim)" letter-spacing="0.8">FILES</text><text x="0" y="28" font-size="22" font-weight="700" fill="var(--cf-text)">855</text><g transform="translate(0,40)"><svg width="64" height="14" viewBox="0 0 64 14" preserveAspectRatio="none"><path d="M0 14 L2.46 14 L4.92 14 L7.38 14 L9.85 14 L12.31 12.13 L14.77 12.13 L17.23 12.13 L19.69 11.95 L22.15 11.95 L24.62 11.95 L27.08 11.95 L29.54 2.8 L32 2.43 L34.46 2.43 L36.92 2.43 L39.38 2.43 L41.85 2.43 L44.31 2.24 L46.77 2.24 L49.23 2.24 L51.69 0.37 L54.15 0.37 L56.62 0.37 L59.08 0.37 L61.54 0.19 L64 0 L64 14 L0 14 Z" fill="var(--cf-spark-bg)" stroke="none"/><path d="M0 14 L2.46 14 L4.92 14 L7.38 14 L9.85 14 L12.31 12.13 L14.77 12.13 L17.23 12.13 L19.69 11.95 L22.15 11.95 L24.62 11.95 L27.08 11.95 L29.54 2.8 L32 2.43 L34.46 2.43 L36.92 2.43 L39.38 2.43 L41.85 2.43 L44.31 2.24 L46.77 2.24 L49.23 2.24 L51.69 0.37 L54.15 0.37 L56.62 0.37 L59.08 0.37 L61.54 0.19 L64 0" fill="none" stroke="var(--cf-spark)" stroke-width="1.4" stroke-linecap="round" stroke-linejoin="round"/></svg></g></g><g transform="translate(154.8,46)"><text x="0" y="0" font-size="9" font-weight="600" fill="var(--cf-text-dim)" letter-spacing="0.8">FNS</text><text x="0" y="28" font-size="22" font-weight="700" fill="var(--cf-text)">12.5K</text><g transform="translate(0,40)"><svg width="64" height="14" viewBox="0 0 64 14" preserveAspectRatio="none"><path d="M0 14 L2.46 14 L4.92 14 L7.38 14 L9.85 14 L12.31 12.33 L14.77 12.33 L17.23 12.33 L19.69 12.23 L22.15 12.18 L24.62 12.16 L27.08 12.16 L29.54 1.57 L32 1.04 L34.46 1.02 L36.92 1 L39.38 1 L41.85 1 L44.31 0.73 L46.77 0.73 L49.23 0.72 L51.69 0.06 L54.15 0.05 L56.62 0.05 L59.08 0.05 L61.54 0.02 L64 0 L64 14 L0 14 Z" fill="var(--cf-spark-bg)" stroke="none"/><path d="M0 14 L2.46 14 L4.92 14 L7.38 14 L9.85 14 L12.31 12.33 L14.77 12.33 L17.23 12.33 L19.69 12.23 L22.15 12.18 L24.62 12.16 L27.08 12.16 L29.54 1.57 L32 1.04 L34.46 1.02 L36.92 1 L39.38 1 L41.85 1 L44.31 0.73 L46.77 0.73 L49.23 0.72 L51.69 0.06 L54.15 0.05 L56.62 0.05 L59.08 0.05 L61.54 0.02 L64 0" fill="none" stroke="var(--cf-spark)" stroke-width="1.4" stroke-linecap="round" stroke-linejoin="round"/></svg></g></g><g transform="translate(291.6,46)"><text x="0" y="0" font-size="9" font-weight="600" fill="var(--cf-text-dim)" letter-spacing="0.8">LOC</text><text x="0" y="28" font-size="22" font-weight="700" fill="var(--cf-text)">467.8K</text><g transform="translate(0,40)"><svg width="64" height="14" viewBox="0 0 64 14" preserveAspectRatio="none"><path d="M0 13.91 L2.46 13.99 L4.92 14 L7.38 14 L9.85 14 L12.31 8.72 L14.77 8.71 L17.23 8.71 L19.69 8.46 L22.15 9.12 L24.62 9.06 L27.08 9.06 L29.54 6.44 L32 3.78 L34.46 3.75 L36.92 3.63 L39.38 3.63 L41.85 3.61 L44.31 2.77 L46.77 3.29 L49.23 3.27 L51.69 0.19 L54.15 0.16 L56.62 0.13 L59.08 0.1 L61.54 0.06 L64 0 L64 14 L0 14 Z" fill="var(--cf-spark-bg)" stroke="none"/><path d="M0 13.91 L2.46 13.99 L4.92 14 L7.38 14 L9.85 14 L12.31 8.72 L14.77 8.71 L17.23 8.71 L19.69 8.46 L22.15 9.12 L24.62 9.06 L27.08 9.06 L29.54 6.44 L32 3.78 L34.46 3.75 L36.92 3.63 L39.38 3.63 L41.85 3.61 L44.31 2.77 L46.77 3.29 L49.23 3.27 L51.69 0.19 L54.15 0.16 L56.62 0.13 L59.08 0.1 L61.54 0.06 L64 0" fill="none" stroke="var(--cf-spark)" stroke-width="1.4" stroke-linecap="round" stroke-linejoin="round"/></svg></g></g><g transform="translate(428.40000000000003,46)"><text x="0" y="0" font-size="9" font-weight="600" fill="var(--cf-text-dim)" letter-spacing="0.8">LANGS</text><text x="0" y="28" font-size="22" font-weight="700" fill="var(--cf-text)">19</text><g transform="translate(0,40)"><svg width="64" height="14" viewBox="0 0 64 14" preserveAspectRatio="none"><path d="M0 7 L2.46 7 L4.92 7 L7.38 7 L9.85 7 L12.31 7 L14.77 7 L17.23 7 L19.69 7 L22.15 7 L24.62 7 L27.08 7 L29.54 7 L32 7 L34.46 7 L36.92 7 L39.38 7 L41.85 7 L44.31 7 L46.77 7 L49.23 7 L51.69 7 L54.15 7 L56.62 7 L59.08 7 L61.54 7 L64 7 L64 14 L0 14 Z" fill="var(--cf-spark-bg)" stroke="none"/><path d="M0 7 L2.46 7 L4.92 7 L7.38 7 L9.85 7 L12.31 7 L14.77 7 L17.23 7 L19.69 7 L22.15 7 L24.62 7 L27.08 7 L29.54 7 L32 7 L34.46 7 L36.92 7 L39.38 7 L41.85 7 L44.31 7 L46.77 7 L49.23 7 L51.69 7 L54.15 7 L56.62 7 L59.08 7 L61.54 7 L64 7" fill="none" stroke="var(--cf-spark)" stroke-width="1.4" stroke-linecap="round" stroke-linejoin="round"/></svg></g></g><g transform="translate(565.2,46)"><text x="0" y="0" font-size="9" font-weight="600" fill="var(--cf-text-dim)" letter-spacing="0.8">TESTS</text><text x="0" y="28" font-size="22" font-weight="700" fill="var(--cf-text)">186</text><g transform="translate(0,40)"><svg width="64" height="14" viewBox="0 0 64 14" preserveAspectRatio="none"><path d="M0 14 L2.46 14 L4.92 14 L7.38 14 L9.85 14 L12.31 11.67 L14.77 11.67 L17.23 11.67 L19.69 11.67 L22.15 11.67 L24.62 11.67 L27.08 11.67 L29.54 0 L32 0 L34.46 0 L36.92 0 L39.38 0 L41.85 0 L44.31 0 L46.77 0 L49.23 0 L51.69 0 L54.15 0 L56.62 0 L59.08 0 L61.54 0 L64 0 L64 14 L0 14 Z" fill="var(--cf-spark-bg)" stroke="none"/><path d="M0 14 L2.46 14 L4.92 14 L7.38 14 L9.85 14 L12.31 11.67 L14.77 11.67 L17.23 11.67 L19.69 11.67 L22.15 11.67 L24.62 11.67 L27.08 11.67 L29.54 0 L32 0 L34.46 0 L36.92 0 L39.38 0 L41.85 0 L44.31 0 L46.77 0 L49.23 0 L51.69 0 L54.15 0 L56.62 0 L59.08 0 L61.54 0 L64 0" fill="none" stroke="var(--cf-spark)" stroke-width="1.4" stroke-linecap="round" stroke-linejoin="round"/></svg></g></g><a href="https://github.com/braedonsaunders/codeflow" target="_blank"><text x="702" y="130" text-anchor="end" font-size="9" fill="var(--cf-text-faint)">powered by <tspan font-weight="600" fill="var(--cf-accent)">codeflow</tspan></text></a></svg>