<svg xmlns="http://www.w3.org/2000/svg" width="720" height="140" viewBox="0 0 720 140" font-family="-apple-system,BlinkMacSystemFont,Segoe UI,Helvetica,Arial,sans-serif"><style>svg{--cf-bg:#0d1117;--cf-bg-alt:#161b22;--cf-border:#21262d;--cf-text:#e6edf3;--cf-text-dim:#8b949e;--cf-text-faint:#6e7681;--cf-accent:#5eead4;--cf-accent-soft:rgba(94,234,212,0.16);--cf-green:#3fb950;--cf-amber:#d29922;--cf-red:#f85149;--cf-spark:#5eead4;--cf-spark-bg:rgba(94,234,212,0.18)}@media (prefers-color-scheme: light){svg{--cf-bg:#ffffff;--cf-bg-alt:#f6f8fa;--cf-border:#d0d7de;--cf-text:#1f2328;--cf-text-dim:#656d76;--cf-text-faint:#8c959f;--cf-accent:#0d9488;--cf-accent-soft:rgba(13,148,136,0.12);--cf-green:#1a7f37;--cf-amber:#9a6700;--cf-red:#cf222e;--cf-spark:#0d9488;--cf-spark-bg:rgba(13,148,136,0.12)}}</style><rect width="720" height="140" rx="12" fill="var(--cf-bg)" stroke="var(--cf-border)"/><text x="18" y="26" font-size="13" font-weight="600" fill="var(--cf-text)">braedonsaunders/homerun</text><text x="702" y="26" text-anchor="end" font-size="10" fill="var(--cf-text-faint)" font-family="ui-monospace,SFMono-Regular,Menlo,monospace">@6bf1daf</text><g transform="translate(18,46)"><text x="0" y="0" font-size="9" font-weight="600" fill="var(--cf-text-dim)" letter-spacing="0.8">FILES</text><text x="0" y="28" font-size="22" font-weight="700" fill="var(--cf-text)">897</text><g transform="translate(0,40)"><svg width="64" height="14" viewBox="0 0 64 14" preserveAspectRatio="none"><path d="M0 14 L2.13 13.67 L4.27 13.67 L6.4 13.67 L8.53 13.67 L10.67 13.67 L12.8 13.67 L14.93 13.67 L17.07 13.67 L19.2 13.67 L21.33 13.67 L23.47 12.05 L25.6 12.05 L27.73 12.05 L29.87 11.4 L32 11.4 L34.13 11.4 L36.27 11.4 L38.4 11.4 L40.53 11.4 L42.67 11.4 L44.8 9.77 L46.93 9.77 L49.07 9.77 L51.2 9.77 L53.33 9.77 L55.47 9.44 L57.6 9.44 L59.73 8.79 L61.87 8.79 L64 0 L64 14 L0 14 Z" fill="var(--cf-spark-bg)" stroke="none"/><path d="M0 14 L2.13 13.67 L4.27 13.67 L6.4 13.67 L8.53 13.67 L10.67 13.67 L12.8 13.67 L14.93 13.67 L17.07 13.67 L19.2 13.67 L21.33 13.67 L23.47 12.05 L25.6 12.05 L27.73 12.05 L29.87 11.4 L32 11.4 L34.13 11.4 L36.27 11.4 L38.4 11.4 L40.53 11.4 L42.67 11.4 L44.8 9.77 L46.93 9.77 L49.07 9.77 L51.2 9.77 L53.33 9.77 L55.47 9.44 L57.6 9.44 L59.73 8.79 L61.87 8.79 L64 0" fill="none" stroke="var(--cf-spark)" stroke-width="1.4" stroke-linecap="round" stroke-linejoin="round"/></svg></g></g><g transform="translate(154.8,46)"><text x="0" y="0" font-size="9" font-weight="600" fill="var(--cf-text-dim)" letter-spacing="0.8">FNS</text><text x="0" y="28" font-size="22" font-weight="700" fill="var(--cf-text)">13K</text><g transform="translate(0,40)"><svg width="64" height="14" viewBox="0 0 64 14" preserveAspectRatio="none"><path d="M0 14 L2.13 13.95 L4.27 13.95 L6.4 13.95 L8.53 13.83 L10.67 13.8 L12.8 13.75 L14.93 13.65 L17.07 13.65 L19.2 13.08 L21.33 13.08 L23.47 11.76 L25.6 11.99 L27.73 11.99 L29.87 10.64 L32 10.64 L34.13 10.64 L36.27 10.64 L38.4 10.57 L40.53 10.57 L42.67 10.54 L44.8 10.54 L46.93 10.25 L49.07 10.25 L51.2 10.22 L53.33 10.22 L55.47 10.12 L57.6 10.12 L59.73 9.4 L61.87 9.1 L64 0 L64 14 L0 14 Z" fill="var(--cf-spark-bg)" stroke="none"/><path d="M0 14 L2.13 13.95 L4.27 13.95 L6.4 13.95 L8.53 13.83 L10.67 13.8 L12.8 13.75 L14.93 13.65 L17.07 13.65 L19.2 13.08 L21.33 13.08 L23.47 11.76 L25.6 11.99 L27.73 11.99 L29.87 10.64 L32 10.64 L34.13 10.64 L36.27 10.64 L38.4 10.57 L40.53 10.57 L42.67 10.54 L44.8 10.54 L46.93 10.25 L49.07 10.25 L51.2 10.22 L53.33 10.22 L55.47 10.12 L57.6 10.12 L59.73 9.4 L61.87 9.1 L64 0" fill="none" stroke="var(--cf-spark)" stroke-width="1.4" stroke-linecap="round" stroke-linejoin="round"/></svg></g></g><g transform="translate(291.6,46)"><text x="0" y="0" font-size="9" font-weight="600" fill="var(--cf-text-dim)" letter-spacing="0.8">LOC</text><text x="0" y="28" font-size="22" font-weight="700" fill="var(--cf-text)">492.4K</text><g transform="translate(0,40)"><svg width="64" height="14" viewBox="0 0 64 14" preserveAspectRatio="none"><path d="M0 14 L2.13 13.96 L4.27 13.95 L6.4 13.93 L8.53 13.87 L10.67 13.86 L12.8 13.83 L14.93 13.57 L17.07 13.52 L19.2 12.68 L21.33 12.56 L23.47 11.1 L25.6 11.19 L27.73 11.15 L29.87 10.15 L32 9.74 L34.13 9.74 L36.27 9.68 L38.4 9.6 L40.53 9.57 L42.67 9.44 L44.8 9.15 L46.93 9.06 L49.07 9.04 L51.2 8.88 L53.33 8.82 L55.47 8.64 L57.6 8.64 L59.73 8 L61.87 7.44 L64 0 L64 14 L0 14 Z" fill="var(--cf-spark-bg)" stroke="none"/><path d="M0 14 L2.13 13.96 L4.27 13.95 L6.4 13.93 L8.53 13.87 L10.67 13.86 L12.8 13.83 L14.93 13.57 L17.07 13.52 L19.2 12.68 L21.33 12.56 L23.47 11.1 L25.6 11.19 L27.73 11.15 L29.87 10.15 L32 9.74 L34.13 9.74 L36.27 9.68 L38.4 9.6 L40.53 9.57 L42.67 9.44 L44.8 9.15 L46.93 9.06 L49.07 9.04 L51.2 8.88 L53.33 8.82 L55.47 8.64 L57.6 8.64 L59.73 8 L61.87 7.44 L64 0" fill="none" stroke="var(--cf-spark)" stroke-width="1.4" stroke-linecap="round" stroke-linejoin="round"/></svg></g></g><g transform="translate(428.40000000000003,46)"><text x="0" y="0" font-size="9" font-weight="600" fill="var(--cf-text-dim)" letter-spacing="0.8">LANGS</text><text x="0" y="28" font-size="22" font-weight="700" fill="var(--cf-text)">22</text><g transform="translate(0,40)"><svg width="64" height="14" viewBox="0 0 64 14" preserveAspectRatio="none"><path d="M0 14 L2.13 14 L4.27 14 L6.4 14 L8.53 14 L10.67 14 L12.8 14 L14.93 14 L17.07 14 L19.2 14 L21.33 14 L23.47 14 L25.6 14 L27.73 14 L29.87 14 L32 14 L34.13 14 L36.27 14 L38.4 14 L40.53 14 L42.67 14 L44.8 0 L46.93 0 L49.07 0 L51.2 0 L53.33 0 L55.47 0 L57.6 0 L59.73 0 L61.87 0 L64 0 L64 14 L0 14 Z" fill="var(--cf-spark-bg)" stroke="none"/><path d="M0 14 L2.13 14 L4.27 14 L6.4 14 L8.53 14 L10.67 14 L12.8 14 L14.93 14 L17.07 14 L19.2 14 L21.33 14 L23.47 14 L25.6 14 L27.73 14 L29.87 14 L32 14 L34.13 14 L36.27 14 L38.4 14 L40.53 14 L42.67 14 L44.8 0 L46.93 0 L49.07 0 L51.2 0 L53.33 0 L55.47 0 L57.6 0 L59.73 0 L61.87 0 L64 0" fill="none" stroke="var(--cf-spark)" stroke-width="1.4" stroke-linecap="round" stroke-linejoin="round"/></svg></g></g><g transform="translate(565.2,46)"><text x="0" y="0" font-size="9" font-weight="600" fill="var(--cf-text-dim)" letter-spacing="0.8">TESTS</text><text x="0" y="28" font-size="22" font-weight="700" fill="var(--cf-text)">187</text><g transform="translate(0,40)"><svg width="64" height="14" viewBox="0 0 64 14" preserveAspectRatio="none"><path d="M0 14 L2.13 14 L4.27 14 L6.4 14 L8.53 14 L10.67 14 L12.8 14 L14.93 14 L17.07 14 L19.2 14 L21.33 14 L23.47 14 L25.6 14 L27.73 14 L29.87 0 L32 0 L34.13 0 L36.27 0 L38.4 0 L40.53 0 L42.67 0 L44.8 0 L46.93 0 L49.07 0 L51.2 0 L53.33 0 L55.47 0 L57.6 0 L59.73 0 L61.87 0 L64 0 L64 14 L0 14 Z" fill="var(--cf-spark-bg)" stroke="none"/><path d="M0 14 L2.13 14 L4.27 14 L6.4 14 L8.53 14 L10.67 14 L12.8 14 L14.93 14 L17.07 14 L19.2 14 L21.33 14 L23.47 14 L25.6 14 L27.73 14 L29.87 0 L32 0 L34.13 0 L36.27 0 L38.4 0 L40.53 0 L42.67 0 L44.8 0 L46.93 0 L49.07 0 L51.2 0 L53.33 0 L55.47 0 L57.6 0 L59.73 0 L61.87 0 L64 0" fill="none" stroke="var(--cf-spark)" stroke-width="1.4" stroke-linecap="round" stroke-linejoin="round"/></svg></g></g><a href="https://github.com/braedonsaunders/codeflow" target="_blank"><text x="702" y="130" text-anchor="end" font-size="9" fill="var(--cf-text-faint)">powered by <tspan font-weight="600" fill="var(--cf-accent)">codeflow</tspan></text></a></svg>