<svg xmlns="http://www.w3.org/2000/svg" width="720" height="140" viewBox="0 0 720 140" font-family="-apple-system,BlinkMacSystemFont,Segoe UI,Helvetica,Arial,sans-serif"><style>svg{--cf-bg:#0d1117;--cf-bg-alt:#161b22;--cf-border:#21262d;--cf-text:#e6edf3;--cf-text-dim:#8b949e;--cf-text-faint:#6e7681;--cf-accent:#5eead4;--cf-accent-soft:rgba(94,234,212,0.16);--cf-green:#3fb950;--cf-amber:#d29922;--cf-red:#f85149;--cf-spark:#5eead4;--cf-spark-bg:rgba(94,234,212,0.18)}@media (prefers-color-scheme: light){svg{--cf-bg:#ffffff;--cf-bg-alt:#f6f8fa;--cf-border:#d0d7de;--cf-text:#1f2328;--cf-text-dim:#656d76;--cf-text-faint:#8c959f;--cf-accent:#0d9488;--cf-accent-soft:rgba(13,148,136,0.12);--cf-green:#1a7f37;--cf-amber:#9a6700;--cf-red:#cf222e;--cf-spark:#0d9488;--cf-spark-bg:rgba(13,148,136,0.12)}}</style><rect width="720" height="140" rx="12" fill="var(--cf-bg)" stroke="var(--cf-border)"/><text x="18" y="26" font-size="13" font-weight="600" fill="var(--cf-text)">braedonsaunders/homerun</text><text x="702" y="26" text-anchor="end" font-size="10" fill="var(--cf-text-faint)" font-family="ui-monospace,SFMono-Regular,Menlo,monospace">@252a75b</text><g transform="translate(18,46)"><text x="0" y="0" font-size="9" font-weight="600" fill="var(--cf-text-dim)" letter-spacing="0.8">FILES</text><text x="0" y="28" font-size="22" font-weight="700" fill="var(--cf-text)">1K</text><g transform="translate(0,40)"><svg width="64" height="14" viewBox="0 0 64 14" preserveAspectRatio="none"><path d="M0 14 L2.13 14 L4.27 14 L6.4 13.55 L8.53 13.1 L10.67 13.1 L12.8 13.1 L14.93 13.1 L17.07 13.1 L19.2 13.1 L21.33 13.1 L23.47 13.1 L25.6 12.65 L27.73 12.65 L29.87 12.65 L32 12.65 L34.13 12.65 L36.27 5.42 L38.4 5.42 L40.53 5.42 L42.67 4.52 L44.8 4.06 L46.93 4.06 L49.07 4.06 L51.2 3.61 L53.33 3.61 L55.47 3.16 L57.6 3.16 L59.73 3.16 L61.87 0.9 L64 0 L64 14 L0 14 Z" fill="var(--cf-spark-bg)" stroke="none"/><path d="M0 14 L2.13 14 L4.27 14 L6.4 13.55 L8.53 13.1 L10.67 13.1 L12.8 13.1 L14.93 13.1 L17.07 13.1 L19.2 13.1 L21.33 13.1 L23.47 13.1 L25.6 12.65 L27.73 12.65 L29.87 12.65 L32 12.65 L34.13 12.65 L36.27 5.42 L38.4 5.42 L40.53 5.42 L42.67 4.52 L44.8 4.06 L46.93 4.06 L49.07 4.06 L51.2 3.61 L53.33 3.61 L55.47 3.16 L57.6 3.16 L59.73 3.16 L61.87 0.9 L64 0" fill="none" stroke="var(--cf-spark)" stroke-width="1.4" stroke-linecap="round" stroke-linejoin="round"/></svg></g></g><g transform="translate(154.8,46)"><text x="0" y="0" font-size="9" font-weight="600" fill="var(--cf-text-dim)" letter-spacing="0.8">FNS</text><text x="0" y="28" font-size="22" font-weight="700" fill="var(--cf-text)">14.8K</text><g transform="translate(0,40)"><svg width="64" height="14" viewBox="0 0 64 14" preserveAspectRatio="none"><path d="M0 14 L2.13 13.75 L4.27 13.49 L6.4 13.11 L8.53 12.86 L10.67 12.68 L12.8 12.42 L14.93 12.4 L17.07 12.4 L19.2 12.27 L21.33 12.27 L23.47 12.25 L25.6 11.99 L27.73 11.99 L29.87 11.97 L32 11.92 L34.13 11.64 L36.27 4.24 L38.4 4.14 L40.53 4.14 L42.67 3.58 L44.8 3.53 L46.93 3.53 L49.07 3.53 L51.2 3.23 L53.33 2.97 L55.47 2.92 L57.6 2.9 L59.73 2.87 L61.87 1.09 L64 0 L64 14 L0 14 Z" fill="var(--cf-spark-bg)" stroke="none"/><path d="M0 14 L2.13 13.75 L4.27 13.49 L6.4 13.11 L8.53 12.86 L10.67 12.68 L12.8 12.42 L14.93 12.4 L17.07 12.4 L19.2 12.27 L21.33 12.27 L23.47 12.25 L25.6 11.99 L27.73 11.99 L29.87 11.97 L32 11.92 L34.13 11.64 L36.27 4.24 L38.4 4.14 L40.53 4.14 L42.67 3.58 L44.8 3.53 L46.93 3.53 L49.07 3.53 L51.2 3.23 L53.33 2.97 L55.47 2.92 L57.6 2.9 L59.73 2.87 L61.87 1.09 L64 0" fill="none" stroke="var(--cf-spark)" stroke-width="1.4" stroke-linecap="round" stroke-linejoin="round"/></svg></g></g><g transform="translate(291.6,46)"><text x="0" y="0" font-size="9" font-weight="600" fill="var(--cf-text-dim)" letter-spacing="0.8">LOC</text><text x="0" y="28" font-size="22" font-weight="700" fill="var(--cf-text)">602.6K</text><g transform="translate(0,40)"><svg width="64" height="14" viewBox="0 0 64 14" preserveAspectRatio="none"><path d="M0 14 L2.13 13.76 L4.27 13.58 L6.4 13.34 L8.53 13.22 L10.67 12.9 L12.8 12.57 L14.93 12.5 L17.07 12.49 L19.2 12.48 L21.33 12.48 L23.47 12.44 L25.6 12.2 L27.73 12.21 L29.87 12.09 L32 12.03 L34.13 11.71 L36.27 4.04 L38.4 4.07 L40.53 4.05 L42.67 3.54 L44.8 3.45 L46.93 3.45 L49.07 3.45 L51.2 3.25 L53.33 3.05 L55.47 2.98 L57.6 2.91 L59.73 2.88 L61.87 1.27 L64 0 L64 14 L0 14 Z" fill="var(--cf-spark-bg)" stroke="none"/><path d="M0 14 L2.13 13.76 L4.27 13.58 L6.4 13.34 L8.53 13.22 L10.67 12.9 L12.8 12.57 L14.93 12.5 L17.07 12.49 L19.2 12.48 L21.33 12.48 L23.47 12.44 L25.6 12.2 L27.73 12.21 L29.87 12.09 L32 12.03 L34.13 11.71 L36.27 4.04 L38.4 4.07 L40.53 4.05 L42.67 3.54 L44.8 3.45 L46.93 3.45 L49.07 3.45 L51.2 3.25 L53.33 3.05 L55.47 2.98 L57.6 2.91 L59.73 2.88 L61.87 1.27 L64 0" fill="none" stroke="var(--cf-spark)" stroke-width="1.4" stroke-linecap="round" stroke-linejoin="round"/></svg></g></g><g transform="translate(428.40000000000003,46)"><text x="0" y="0" font-size="9" font-weight="600" fill="var(--cf-text-dim)" letter-spacing="0.8">LANGS</text><text x="0" y="28" font-size="22" font-weight="700" fill="var(--cf-text)">22</text><g transform="translate(0,40)"><svg width="64" height="14" viewBox="0 0 64 14" preserveAspectRatio="none"><path d="M0 7 L2.13 7 L4.27 7 L6.4 7 L8.53 7 L10.67 7 L12.8 7 L14.93 7 L17.07 7 L19.2 7 L21.33 7 L23.47 7 L25.6 7 L27.73 7 L29.87 7 L32 7 L34.13 7 L36.27 7 L38.4 7 L40.53 7 L42.67 7 L44.8 7 L46.93 7 L49.07 7 L51.2 7 L53.33 7 L55.47 7 L57.6 7 L59.73 7 L61.87 7 L64 7 L64 14 L0 14 Z" fill="var(--cf-spark-bg)" stroke="none"/><path d="M0 7 L2.13 7 L4.27 7 L6.4 7 L8.53 7 L10.67 7 L12.8 7 L14.93 7 L17.07 7 L19.2 7 L21.33 7 L23.47 7 L25.6 7 L27.73 7 L29.87 7 L32 7 L34.13 7 L36.27 7 L38.4 7 L40.53 7 L42.67 7 L44.8 7 L46.93 7 L49.07 7 L51.2 7 L53.33 7 L55.47 7 L57.6 7 L59.73 7 L61.87 7 L64 7" fill="none" stroke="var(--cf-spark)" stroke-width="1.4" stroke-linecap="round" stroke-linejoin="round"/></svg></g></g><g transform="translate(565.2,46)"><text x="0" y="0" font-size="9" font-weight="600" fill="var(--cf-text-dim)" letter-spacing="0.8">TESTS</text><text x="0" y="28" font-size="22" font-weight="700" fill="var(--cf-text)">228</text><g transform="translate(0,40)"><svg width="64" height="14" viewBox="0 0 64 14" preserveAspectRatio="none"><path d="M0 14 L2.13 14 L4.27 14 L6.4 14 L8.53 13.22 L10.67 13.22 L12.8 13.22 L14.93 13.22 L17.07 13.22 L19.2 13.22 L21.33 13.22 L23.47 13.22 L25.6 13.22 L27.73 13.22 L29.87 13.22 L32 13.22 L34.13 13.22 L36.27 5.44 L38.4 5.44 L40.53 5.44 L42.67 3.89 L44.8 3.89 L46.93 3.89 L49.07 3.89 L51.2 3.11 L53.33 3.11 L55.47 3.11 L57.6 3.11 L59.73 3.11 L61.87 0.78 L64 0 L64 14 L0 14 Z" fill="var(--cf-spark-bg)" stroke="none"/><path d="M0 14 L2.13 14 L4.27 14 L6.4 14 L8.53 13.22 L10.67 13.22 L12.8 13.22 L14.93 13.22 L17.07 13.22 L19.2 13.22 L21.33 13.22 L23.47 13.22 L25.6 13.22 L27.73 13.22 L29.87 13.22 L32 13.22 L34.13 13.22 L36.27 5.44 L38.4 5.44 L40.53 5.44 L42.67 3.89 L44.8 3.89 L46.93 3.89 L49.07 3.89 L51.2 3.11 L53.33 3.11 L55.47 3.11 L57.6 3.11 L59.73 3.11 L61.87 0.78 L64 0" fill="none" stroke="var(--cf-spark)" stroke-width="1.4" stroke-linecap="round" stroke-linejoin="round"/></svg></g></g><a href="https://github.com/braedonsaunders/codeflow" target="_blank"><text x="702" y="130" text-anchor="end" font-size="9" fill="var(--cf-text-faint)">powered by <tspan font-weight="600" fill="var(--cf-accent)">codeflow</tspan></text></a></svg>