<svg xmlns="http://www.w3.org/2000/svg" width="720" height="140" viewBox="0 0 720 140" font-family="-apple-system,BlinkMacSystemFont,Segoe UI,Helvetica,Arial,sans-serif"><style>svg{--cf-bg:#0d1117;--cf-bg-alt:#161b22;--cf-border:#21262d;--cf-text:#e6edf3;--cf-text-dim:#8b949e;--cf-text-faint:#6e7681;--cf-accent:#5eead4;--cf-accent-soft:rgba(94,234,212,0.16);--cf-green:#3fb950;--cf-amber:#d29922;--cf-red:#f85149;--cf-spark:#5eead4;--cf-spark-bg:rgba(94,234,212,0.18)}@media (prefers-color-scheme: light){svg{--cf-bg:#ffffff;--cf-bg-alt:#f6f8fa;--cf-border:#d0d7de;--cf-text:#1f2328;--cf-text-dim:#656d76;--cf-text-faint:#8c959f;--cf-accent:#0d9488;--cf-accent-soft:rgba(13,148,136,0.12);--cf-green:#1a7f37;--cf-amber:#9a6700;--cf-red:#cf222e;--cf-spark:#0d9488;--cf-spark-bg:rgba(13,148,136,0.12)}}</style><rect width="720" height="140" rx="12" fill="var(--cf-bg)" stroke="var(--cf-border)"/><text x="18" y="26" font-size="13" font-weight="600" fill="var(--cf-text)">braedonsaunders/homerun</text><text x="702" y="26" text-anchor="end" font-size="10" fill="var(--cf-text-faint)" font-family="ui-monospace,SFMono-Regular,Menlo,monospace">@9343d7e</text><g transform="translate(18,46)"><text x="0" y="0" font-size="9" font-weight="600" fill="var(--cf-text-dim)" letter-spacing="0.8">FILES</text><text x="0" y="28" font-size="22" font-weight="700" fill="var(--cf-text)">870</text><g transform="translate(0,40)"><svg width="64" height="14" viewBox="0 0 64 14" preserveAspectRatio="none"><path d="M0 14 L2.13 14 L4.27 13.18 L6.4 12.35 L8.53 12.35 L10.67 12.35 L12.8 12.35 L14.93 12.35 L17.07 12.35 L19.2 12.35 L21.33 12.35 L23.47 12.35 L25.6 12.35 L27.73 8.24 L29.87 8.24 L32 8.24 L34.13 6.59 L36.27 6.59 L38.4 6.59 L40.53 6.59 L42.67 6.59 L44.8 6.59 L46.93 6.59 L49.07 2.47 L51.2 2.47 L53.33 2.47 L55.47 2.47 L57.6 2.47 L59.73 1.65 L61.87 1.65 L64 0 L64 14 L0 14 Z" fill="var(--cf-spark-bg)" stroke="none"/><path d="M0 14 L2.13 14 L4.27 13.18 L6.4 12.35 L8.53 12.35 L10.67 12.35 L12.8 12.35 L14.93 12.35 L17.07 12.35 L19.2 12.35 L21.33 12.35 L23.47 12.35 L25.6 12.35 L27.73 8.24 L29.87 8.24 L32 8.24 L34.13 6.59 L36.27 6.59 L38.4 6.59 L40.53 6.59 L42.67 6.59 L44.8 6.59 L46.93 6.59 L49.07 2.47 L51.2 2.47 L53.33 2.47 L55.47 2.47 L57.6 2.47 L59.73 1.65 L61.87 1.65 L64 0" fill="none" stroke="var(--cf-spark)" stroke-width="1.4" stroke-linecap="round" stroke-linejoin="round"/></svg></g></g><g transform="translate(154.8,46)"><text x="0" y="0" font-size="9" font-weight="600" fill="var(--cf-text-dim)" letter-spacing="0.8">FNS</text><text x="0" y="28" font-size="22" font-weight="700" fill="var(--cf-text)">12.6K</text><g transform="translate(0,40)"><svg width="64" height="14" viewBox="0 0 64 14" preserveAspectRatio="none"><path d="M0 14 L2.13 14 L4.27 13.85 L6.4 13.7 L8.53 13.7 L10.67 13.7 L12.8 13.33 L14.93 13.25 L17.07 13.1 L19.2 12.8 L21.33 12.8 L23.47 11.08 L25.6 11.08 L27.73 7.11 L29.87 7.79 L32 7.79 L34.13 3.74 L36.27 3.74 L38.4 3.74 L40.53 3.74 L42.67 3.52 L44.8 3.52 L46.93 3.44 L49.07 3.44 L51.2 2.55 L53.33 2.55 L55.47 2.47 L57.6 2.47 L59.73 2.17 L61.87 2.17 L64 0 L64 14 L0 14 Z" fill="var(--cf-spark-bg)" stroke="none"/><path d="M0 14 L2.13 14 L4.27 13.85 L6.4 13.7 L8.53 13.7 L10.67 13.7 L12.8 13.33 L14.93 13.25 L17.07 13.1 L19.2 12.8 L21.33 12.8 L23.47 11.08 L25.6 11.08 L27.73 7.11 L29.87 7.79 L32 7.79 L34.13 3.74 L36.27 3.74 L38.4 3.74 L40.53 3.74 L42.67 3.52 L44.8 3.52 L46.93 3.44 L49.07 3.44 L51.2 2.55 L53.33 2.55 L55.47 2.47 L57.6 2.47 L59.73 2.17 L61.87 2.17 L64 0" fill="none" stroke="var(--cf-spark)" stroke-width="1.4" stroke-linecap="round" stroke-linejoin="round"/></svg></g></g><g transform="translate(291.6,46)"><text x="0" y="0" font-size="9" font-weight="600" fill="var(--cf-text-dim)" letter-spacing="0.8">LOC</text><text x="0" y="28" font-size="22" font-weight="700" fill="var(--cf-text)">478.3K</text><g transform="translate(0,40)"><svg width="64" height="14" viewBox="0 0 64 14" preserveAspectRatio="none"><path d="M0 14 L2.13 13.96 L4.27 13.89 L6.4 13.8 L8.53 13.77 L10.67 13.73 L12.8 13.59 L14.93 13.55 L17.07 13.49 L19.2 12.88 L21.33 12.79 L23.47 10.82 L25.6 10.56 L27.73 7.18 L29.87 7.38 L32 7.29 L34.13 4.99 L36.27 4.03 L38.4 4.03 L40.53 3.89 L42.67 3.7 L44.8 3.64 L46.93 3.33 L49.07 2.65 L51.2 2.45 L53.33 2.4 L55.47 2.04 L57.6 1.9 L59.73 1.48 L61.87 1.47 L64 0 L64 14 L0 14 Z" fill="var(--cf-spark-bg)" stroke="none"/><path d="M0 14 L2.13 13.96 L4.27 13.89 L6.4 13.8 L8.53 13.77 L10.67 13.73 L12.8 13.59 L14.93 13.55 L17.07 13.49 L19.2 12.88 L21.33 12.79 L23.47 10.82 L25.6 10.56 L27.73 7.18 L29.87 7.38 L32 7.29 L34.13 4.99 L36.27 4.03 L38.4 4.03 L40.53 3.89 L42.67 3.7 L44.8 3.64 L46.93 3.33 L49.07 2.65 L51.2 2.45 L53.33 2.4 L55.47 2.04 L57.6 1.9 L59.73 1.48 L61.87 1.47 L64 0" fill="none" stroke="var(--cf-spark)" stroke-width="1.4" stroke-linecap="round" stroke-linejoin="round"/></svg></g></g><g transform="translate(428.40000000000003,46)"><text x="0" y="0" font-size="9" font-weight="600" fill="var(--cf-text-dim)" letter-spacing="0.8">LANGS</text><text x="0" y="28" font-size="22" font-weight="700" fill="var(--cf-text)">22</text><g transform="translate(0,40)"><svg width="64" height="14" viewBox="0 0 64 14" preserveAspectRatio="none"><path d="M0 14 L2.13 14 L4.27 14 L6.4 14 L8.53 14 L10.67 14 L12.8 14 L14.93 14 L17.07 14 L19.2 14 L21.33 14 L23.47 14 L25.6 14 L27.73 14 L29.87 14 L32 14 L34.13 14 L36.27 14 L38.4 14 L40.53 14 L42.67 14 L44.8 14 L46.93 14 L49.07 0 L51.2 0 L53.33 0 L55.47 0 L57.6 0 L59.73 0 L61.87 0 L64 0 L64 14 L0 14 Z" fill="var(--cf-spark-bg)" stroke="none"/><path d="M0 14 L2.13 14 L4.27 14 L6.4 14 L8.53 14 L10.67 14 L12.8 14 L14.93 14 L17.07 14 L19.2 14 L21.33 14 L23.47 14 L25.6 14 L27.73 14 L29.87 14 L32 14 L34.13 14 L36.27 14 L38.4 14 L40.53 14 L42.67 14 L44.8 14 L46.93 14 L49.07 0 L51.2 0 L53.33 0 L55.47 0 L57.6 0 L59.73 0 L61.87 0 L64 0" fill="none" stroke="var(--cf-spark)" stroke-width="1.4" stroke-linecap="round" stroke-linejoin="round"/></svg></g></g><g transform="translate(565.2,46)"><text x="0" y="0" font-size="9" font-weight="600" fill="var(--cf-text-dim)" letter-spacing="0.8">TESTS</text><text x="0" y="28" font-size="22" font-weight="700" fill="var(--cf-text)">187</text><g transform="translate(0,40)"><svg width="64" height="14" viewBox="0 0 64 14" preserveAspectRatio="none"><path d="M0 14 L2.13 14 L4.27 14 L6.4 14 L8.53 14 L10.67 14 L12.8 14 L14.93 14 L17.07 14 L19.2 14 L21.33 14 L23.47 14 L25.6 14 L27.73 14 L29.87 14 L32 14 L34.13 0 L36.27 0 L38.4 0 L40.53 0 L42.67 0 L44.8 0 L46.93 0 L49.07 0 L51.2 0 L53.33 0 L55.47 0 L57.6 0 L59.73 0 L61.87 0 L64 0 L64 14 L0 14 Z" fill="var(--cf-spark-bg)" stroke="none"/><path d="M0 14 L2.13 14 L4.27 14 L6.4 14 L8.53 14 L10.67 14 L12.8 14 L14.93 14 L17.07 14 L19.2 14 L21.33 14 L23.47 14 L25.6 14 L27.73 14 L29.87 14 L32 14 L34.13 0 L36.27 0 L38.4 0 L40.53 0 L42.67 0 L44.8 0 L46.93 0 L49.07 0 L51.2 0 L53.33 0 L55.47 0 L57.6 0 L59.73 0 L61.87 0 L64 0" fill="none" stroke="var(--cf-spark)" stroke-width="1.4" stroke-linecap="round" stroke-linejoin="round"/></svg></g></g><a href="https://github.com/braedonsaunders/codeflow" target="_blank"><text x="702" y="130" text-anchor="end" font-size="9" fill="var(--cf-text-faint)">powered by <tspan font-weight="600" fill="var(--cf-accent)">codeflow</tspan></text></a></svg>