<svg xmlns="http://www.w3.org/2000/svg" width="720" height="140" viewBox="0 0 720 140" font-family="-apple-system,BlinkMacSystemFont,Segoe UI,Helvetica,Arial,sans-serif"><style>svg{--cf-bg:#0d1117;--cf-bg-alt:#161b22;--cf-border:#21262d;--cf-text:#e6edf3;--cf-text-dim:#8b949e;--cf-text-faint:#6e7681;--cf-accent:#5eead4;--cf-accent-soft:rgba(94,234,212,0.16);--cf-green:#3fb950;--cf-amber:#d29922;--cf-red:#f85149;--cf-spark:#5eead4;--cf-spark-bg:rgba(94,234,212,0.18)}@media (prefers-color-scheme: light){svg{--cf-bg:#ffffff;--cf-bg-alt:#f6f8fa;--cf-border:#d0d7de;--cf-text:#1f2328;--cf-text-dim:#656d76;--cf-text-faint:#8c959f;--cf-accent:#0d9488;--cf-accent-soft:rgba(13,148,136,0.12);--cf-green:#1a7f37;--cf-amber:#9a6700;--cf-red:#cf222e;--cf-spark:#0d9488;--cf-spark-bg:rgba(13,148,136,0.12)}}</style><rect width="720" height="140" rx="12" fill="var(--cf-bg)" stroke="var(--cf-border)"/><text x="18" y="26" font-size="13" font-weight="600" fill="var(--cf-text)">braedonsaunders/homerun</text><text x="702" y="26" text-anchor="end" font-size="10" fill="var(--cf-text-faint)" font-family="ui-monospace,SFMono-Regular,Menlo,monospace">@d39c11a</text><g transform="translate(18,46)"><text x="0" y="0" font-size="9" font-weight="600" fill="var(--cf-text-dim)" letter-spacing="0.8">FILES</text><text x="0" y="28" font-size="22" font-weight="700" fill="var(--cf-text)">1K</text><g transform="translate(0,40)"><svg width="64" height="14" viewBox="0 0 64 14" preserveAspectRatio="none"><path d="M0 14 L2.13 14 L4.27 7.95 L6.4 7.95 L8.53 7.95 L10.67 7.19 L12.8 6.81 L14.93 6.81 L17.07 6.81 L19.2 6.43 L21.33 6.43 L23.47 6.05 L25.6 6.05 L27.73 6.05 L29.87 4.16 L32 3.41 L34.13 2.65 L36.27 2.65 L38.4 2.27 L40.53 4.92 L42.67 4.92 L44.8 4.92 L46.93 4.92 L49.07 4.92 L51.2 4.54 L53.33 4.54 L55.47 0.76 L57.6 0.76 L59.73 0.76 L61.87 0.76 L64 0 L64 14 L0 14 Z" fill="var(--cf-spark-bg)" stroke="none"/><path d="M0 14 L2.13 14 L4.27 7.95 L6.4 7.95 L8.53 7.95 L10.67 7.19 L12.8 6.81 L14.93 6.81 L17.07 6.81 L19.2 6.43 L21.33 6.43 L23.47 6.05 L25.6 6.05 L27.73 6.05 L29.87 4.16 L32 3.41 L34.13 2.65 L36.27 2.65 L38.4 2.27 L40.53 4.92 L42.67 4.92 L44.8 4.92 L46.93 4.92 L49.07 4.92 L51.2 4.54 L53.33 4.54 L55.47 0.76 L57.6 0.76 L59.73 0.76 L61.87 0.76 L64 0" fill="none" stroke="var(--cf-spark)" stroke-width="1.4" stroke-linecap="round" stroke-linejoin="round"/></svg></g></g><g transform="translate(154.8,46)"><text x="0" y="0" font-size="9" font-weight="600" fill="var(--cf-text-dim)" letter-spacing="0.8">FNS</text><text x="0" y="28" font-size="22" font-weight="700" fill="var(--cf-text)">15K</text><g transform="translate(0,40)"><svg width="64" height="14" viewBox="0 0 64 14" preserveAspectRatio="none"><path d="M0 14 L2.13 13.77 L4.27 7.56 L6.4 7.48 L8.53 7.48 L10.67 7.01 L12.8 6.97 L14.93 6.97 L17.07 6.97 L19.2 6.71 L21.33 6.5 L23.47 6.46 L25.6 6.44 L27.73 6.41 L29.87 4.92 L32 4.01 L34.13 3.35 L36.27 3.35 L38.4 2.92 L40.53 3.24 L42.67 3.24 L44.8 3.24 L46.93 3.24 L49.07 3.22 L51.2 2.98 L53.33 2.98 L55.47 0.51 L57.6 0.51 L59.73 0.62 L61.87 0.62 L64 0 L64 14 L0 14 Z" fill="var(--cf-spark-bg)" stroke="none"/><path d="M0 14 L2.13 13.77 L4.27 7.56 L6.4 7.48 L8.53 7.48 L10.67 7.01 L12.8 6.97 L14.93 6.97 L17.07 6.97 L19.2 6.71 L21.33 6.5 L23.47 6.46 L25.6 6.44 L27.73 6.41 L29.87 4.92 L32 4.01 L34.13 3.35 L36.27 3.35 L38.4 2.92 L40.53 3.24 L42.67 3.24 L44.8 3.24 L46.93 3.24 L49.07 3.22 L51.2 2.98 L53.33 2.98 L55.47 0.51 L57.6 0.51 L59.73 0.62 L61.87 0.62 L64 0" fill="none" stroke="var(--cf-spark)" stroke-width="1.4" stroke-linecap="round" stroke-linejoin="round"/></svg></g></g><g transform="translate(291.6,46)"><text x="0" y="0" font-size="9" font-weight="600" fill="var(--cf-text-dim)" letter-spacing="0.8">LOC</text><text x="0" y="28" font-size="22" font-weight="700" fill="var(--cf-text)">605.6K</text><g transform="translate(0,40)"><svg width="64" height="14" viewBox="0 0 64 14" preserveAspectRatio="none"><path d="M0 14 L2.13 13.71 L4.27 6.54 L6.4 6.58 L8.53 6.55 L10.67 6.08 L12.8 6 L14.93 5.99 L17.07 6 L19.2 5.81 L21.33 5.62 L23.47 5.55 L25.6 5.49 L27.73 5.46 L29.87 3.96 L32 2.77 L34.13 2.32 L36.27 2.31 L38.4 1.92 L40.53 3.77 L42.67 3.75 L44.8 3.74 L46.93 3.75 L49.07 3.61 L51.2 3.16 L53.33 3.14 L55.47 0.61 L57.6 0.59 L59.73 0.62 L61.87 0.58 L64 0 L64 14 L0 14 Z" fill="var(--cf-spark-bg)" stroke="none"/><path d="M0 14 L2.13 13.71 L4.27 6.54 L6.4 6.58 L8.53 6.55 L10.67 6.08 L12.8 6 L14.93 5.99 L17.07 6 L19.2 5.81 L21.33 5.62 L23.47 5.55 L25.6 5.49 L27.73 5.46 L29.87 3.96 L32 2.77 L34.13 2.32 L36.27 2.31 L38.4 1.92 L40.53 3.77 L42.67 3.75 L44.8 3.74 L46.93 3.75 L49.07 3.61 L51.2 3.16 L53.33 3.14 L55.47 0.61 L57.6 0.59 L59.73 0.62 L61.87 0.58 L64 0" fill="none" stroke="var(--cf-spark)" stroke-width="1.4" stroke-linecap="round" stroke-linejoin="round"/></svg></g></g><g transform="translate(428.40000000000003,46)"><text x="0" y="0" font-size="9" font-weight="600" fill="var(--cf-text-dim)" letter-spacing="0.8">LANGS</text><text x="0" y="28" font-size="22" font-weight="700" fill="var(--cf-text)">22</text><g transform="translate(0,40)"><svg width="64" height="14" viewBox="0 0 64 14" preserveAspectRatio="none"><path d="M0 7 L2.13 7 L4.27 7 L6.4 7 L8.53 7 L10.67 7 L12.8 7 L14.93 7 L17.07 7 L19.2 7 L21.33 7 L23.47 7 L25.6 7 L27.73 7 L29.87 7 L32 7 L34.13 7 L36.27 7 L38.4 7 L40.53 7 L42.67 7 L44.8 7 L46.93 7 L49.07 7 L51.2 7 L53.33 7 L55.47 7 L57.6 7 L59.73 7 L61.87 7 L64 7 L64 14 L0 14 Z" fill="var(--cf-spark-bg)" stroke="none"/><path d="M0 7 L2.13 7 L4.27 7 L6.4 7 L8.53 7 L10.67 7 L12.8 7 L14.93 7 L17.07 7 L19.2 7 L21.33 7 L23.47 7 L25.6 7 L27.73 7 L29.87 7 L32 7 L34.13 7 L36.27 7 L38.4 7 L40.53 7 L42.67 7 L44.8 7 L46.93 7 L49.07 7 L51.2 7 L53.33 7 L55.47 7 L57.6 7 L59.73 7 L61.87 7 L64 7" fill="none" stroke="var(--cf-spark)" stroke-width="1.4" stroke-linecap="round" stroke-linejoin="round"/></svg></g></g><g transform="translate(565.2,46)"><text x="0" y="0" font-size="9" font-weight="600" fill="var(--cf-text-dim)" letter-spacing="0.8">TESTS</text><text x="0" y="28" font-size="22" font-weight="700" fill="var(--cf-text)">231</text><g transform="translate(0,40)"><svg width="64" height="14" viewBox="0 0 64 14" preserveAspectRatio="none"><path d="M0 14 L2.13 14 L4.27 7 L6.4 7 L8.53 7 L10.67 5.6 L12.8 5.6 L14.93 5.6 L17.07 5.6 L19.2 4.9 L21.33 4.9 L23.47 4.9 L25.6 4.9 L27.73 4.9 L29.87 2.8 L32 2.1 L34.13 1.4 L36.27 1.4 L38.4 0.7 L40.53 0.7 L42.67 0.7 L44.8 0.7 L46.93 0.7 L49.07 0.7 L51.2 0.7 L53.33 0.7 L55.47 0.7 L57.6 0.7 L59.73 0.7 L61.87 0.7 L64 0 L64 14 L0 14 Z" fill="var(--cf-spark-bg)" stroke="none"/><path d="M0 14 L2.13 14 L4.27 7 L6.4 7 L8.53 7 L10.67 5.6 L12.8 5.6 L14.93 5.6 L17.07 5.6 L19.2 4.9 L21.33 4.9 L23.47 4.9 L25.6 4.9 L27.73 4.9 L29.87 2.8 L32 2.1 L34.13 1.4 L36.27 1.4 L38.4 0.7 L40.53 0.7 L42.67 0.7 L44.8 0.7 L46.93 0.7 L49.07 0.7 L51.2 0.7 L53.33 0.7 L55.47 0.7 L57.6 0.7 L59.73 0.7 L61.87 0.7 L64 0" fill="none" stroke="var(--cf-spark)" stroke-width="1.4" stroke-linecap="round" stroke-linejoin="round"/></svg></g></g><a href="https://github.com/braedonsaunders/codeflow" target="_blank"><text x="702" y="130" text-anchor="end" font-size="9" fill="var(--cf-text-faint)">powered by <tspan font-weight="600" fill="var(--cf-accent)">codeflow</tspan></text></a></svg>