<svg xmlns="http://www.w3.org/2000/svg" width="720" height="140" viewBox="0 0 720 140" font-family="-apple-system,BlinkMacSystemFont,Segoe UI,Helvetica,Arial,sans-serif"><style>svg{--cf-bg:#0d1117;--cf-bg-alt:#161b22;--cf-border:#21262d;--cf-text:#e6edf3;--cf-text-dim:#8b949e;--cf-text-faint:#6e7681;--cf-accent:#5eead4;--cf-accent-soft:rgba(94,234,212,0.16);--cf-green:#3fb950;--cf-amber:#d29922;--cf-red:#f85149;--cf-spark:#5eead4;--cf-spark-bg:rgba(94,234,212,0.18)}@media (prefers-color-scheme: light){svg{--cf-bg:#ffffff;--cf-bg-alt:#f6f8fa;--cf-border:#d0d7de;--cf-text:#1f2328;--cf-text-dim:#656d76;--cf-text-faint:#8c959f;--cf-accent:#0d9488;--cf-accent-soft:rgba(13,148,136,0.12);--cf-green:#1a7f37;--cf-amber:#9a6700;--cf-red:#cf222e;--cf-spark:#0d9488;--cf-spark-bg:rgba(13,148,136,0.12)}}</style><rect width="720" height="140" rx="12" fill="var(--cf-bg)" stroke="var(--cf-border)"/><text x="18" y="26" font-size="13" font-weight="600" fill="var(--cf-text)">braedonsaunders/homerun</text><text x="702" y="26" text-anchor="end" font-size="10" fill="var(--cf-text-faint)" font-family="ui-monospace,SFMono-Regular,Menlo,monospace">@f190ab0</text><g transform="translate(18,46)"><text x="0" y="0" font-size="9" font-weight="600" fill="var(--cf-text-dim)" letter-spacing="0.8">FILES</text><text x="0" y="28" font-size="22" font-weight="700" fill="var(--cf-text)">1.1K</text><g transform="translate(0,40)"><svg width="64" height="14" viewBox="0 0 64 14" preserveAspectRatio="none"><path d="M0 13.42 L2.13 12.83 L4.27 12.25 L6.4 12.25 L8.53 11.96 L10.67 14 L12.8 14 L14.93 14 L17.07 14 L19.2 14 L21.33 13.71 L23.47 13.71 L25.6 10.79 L27.73 10.79 L29.87 10.79 L32 10.79 L34.13 10.21 L36.27 0.88 L38.4 0.88 L40.53 0.88 L42.67 0.88 L44.8 0.88 L46.93 0.88 L49.07 0.58 L51.2 0 L53.33 0 L55.47 0 L57.6 0 L59.73 0 L61.87 0 L64 0 L64 14 L0 14 Z" fill="var(--cf-spark-bg)" stroke="none"/><path d="M0 13.42 L2.13 12.83 L4.27 12.25 L6.4 12.25 L8.53 11.96 L10.67 14 L12.8 14 L14.93 14 L17.07 14 L19.2 14 L21.33 13.71 L23.47 13.71 L25.6 10.79 L27.73 10.79 L29.87 10.79 L32 10.79 L34.13 10.21 L36.27 0.88 L38.4 0.88 L40.53 0.88 L42.67 0.88 L44.8 0.88 L46.93 0.88 L49.07 0.58 L51.2 0 L53.33 0 L55.47 0 L57.6 0 L59.73 0 L61.87 0 L64 0" fill="none" stroke="var(--cf-spark)" stroke-width="1.4" stroke-linecap="round" stroke-linejoin="round"/></svg></g></g><g transform="translate(154.8,46)"><text x="0" y="0" font-size="9" font-weight="600" fill="var(--cf-text-dim)" letter-spacing="0.8">FNS</text><text x="0" y="28" font-size="22" font-weight="700" fill="var(--cf-text)">15.2K</text><g transform="translate(0,40)"><svg width="64" height="14" viewBox="0 0 64 14" preserveAspectRatio="none"><path d="M0 14 L2.13 12.66 L4.27 11.7 L6.4 11.7 L8.53 11.08 L10.67 11.54 L12.8 11.54 L14.93 11.54 L17.07 11.54 L19.2 11.51 L21.33 11.17 L23.47 11.17 L25.6 7.56 L27.73 7.56 L29.87 7.72 L32 7.72 L34.13 6.81 L36.27 1.56 L38.4 1.49 L40.53 1.46 L42.67 1.15 L44.8 1.18 L46.93 1.18 L49.07 1 L51.2 0.34 L53.33 0.16 L55.47 0.16 L57.6 0.16 L59.73 0.12 L61.87 0 L64 0 L64 14 L0 14 Z" fill="var(--cf-spark-bg)" stroke="none"/><path d="M0 14 L2.13 12.66 L4.27 11.7 L6.4 11.7 L8.53 11.08 L10.67 11.54 L12.8 11.54 L14.93 11.54 L17.07 11.54 L19.2 11.51 L21.33 11.17 L23.47 11.17 L25.6 7.56 L27.73 7.56 L29.87 7.72 L32 7.72 L34.13 6.81 L36.27 1.56 L38.4 1.49 L40.53 1.46 L42.67 1.15 L44.8 1.18 L46.93 1.18 L49.07 1 L51.2 0.34 L53.33 0.16 L55.47 0.16 L57.6 0.16 L59.73 0.12 L61.87 0 L64 0" fill="none" stroke="var(--cf-spark)" stroke-width="1.4" stroke-linecap="round" stroke-linejoin="round"/></svg></g></g><g transform="translate(291.6,46)"><text x="0" y="0" font-size="9" font-weight="600" fill="var(--cf-text-dim)" letter-spacing="0.8">LOC</text><text x="0" y="28" font-size="22" font-weight="700" fill="var(--cf-text)">609K</text><g transform="translate(0,40)"><svg width="64" height="14" viewBox="0 0 64 14" preserveAspectRatio="none"><path d="M0 14 L2.13 11.7 L4.27 10.81 L6.4 10.79 L8.53 10.04 L10.67 13.63 L12.8 13.6 L14.93 13.58 L17.07 13.6 L19.2 13.32 L21.33 12.45 L23.47 12.42 L25.6 7.48 L27.73 7.45 L29.87 7.5 L32 7.44 L34.13 6.3 L36.27 2.42 L38.4 2.41 L40.53 2.34 L42.67 2.16 L44.8 2.17 L46.93 2.01 L49.07 1.8 L51.2 1.29 L53.33 0.95 L55.47 0.88 L57.6 0.87 L59.73 0.7 L61.87 0.17 L64 0 L64 14 L0 14 Z" fill="var(--cf-spark-bg)" stroke="none"/><path d="M0 14 L2.13 11.7 L4.27 10.81 L6.4 10.79 L8.53 10.04 L10.67 13.63 L12.8 13.6 L14.93 13.58 L17.07 13.6 L19.2 13.32 L21.33 12.45 L23.47 12.42 L25.6 7.48 L27.73 7.45 L29.87 7.5 L32 7.44 L34.13 6.3 L36.27 2.42 L38.4 2.41 L40.53 2.34 L42.67 2.16 L44.8 2.17 L46.93 2.01 L49.07 1.8 L51.2 1.29 L53.33 0.95 L55.47 0.88 L57.6 0.87 L59.73 0.7 L61.87 0.17 L64 0" fill="none" stroke="var(--cf-spark)" stroke-width="1.4" stroke-linecap="round" stroke-linejoin="round"/></svg></g></g><g transform="translate(428.40000000000003,46)"><text x="0" y="0" font-size="9" font-weight="600" fill="var(--cf-text-dim)" letter-spacing="0.8">LANGS</text><text x="0" y="28" font-size="22" font-weight="700" fill="var(--cf-text)">22</text><g transform="translate(0,40)"><svg width="64" height="14" viewBox="0 0 64 14" preserveAspectRatio="none"><path d="M0 7 L2.13 7 L4.27 7 L6.4 7 L8.53 7 L10.67 7 L12.8 7 L14.93 7 L17.07 7 L19.2 7 L21.33 7 L23.47 7 L25.6 7 L27.73 7 L29.87 7 L32 7 L34.13 7 L36.27 7 L38.4 7 L40.53 7 L42.67 7 L44.8 7 L46.93 7 L49.07 7 L51.2 7 L53.33 7 L55.47 7 L57.6 7 L59.73 7 L61.87 7 L64 7 L64 14 L0 14 Z" fill="var(--cf-spark-bg)" stroke="none"/><path d="M0 7 L2.13 7 L4.27 7 L6.4 7 L8.53 7 L10.67 7 L12.8 7 L14.93 7 L17.07 7 L19.2 7 L21.33 7 L23.47 7 L25.6 7 L27.73 7 L29.87 7 L32 7 L34.13 7 L36.27 7 L38.4 7 L40.53 7 L42.67 7 L44.8 7 L46.93 7 L49.07 7 L51.2 7 L53.33 7 L55.47 7 L57.6 7 L59.73 7 L61.87 7 L64 7" fill="none" stroke="var(--cf-spark)" stroke-width="1.4" stroke-linecap="round" stroke-linejoin="round"/></svg></g></g><g transform="translate(565.2,46)"><text x="0" y="0" font-size="9" font-weight="600" fill="var(--cf-text-dim)" letter-spacing="0.8">TESTS</text><text x="0" y="28" font-size="22" font-weight="700" fill="var(--cf-text)">246</text><g transform="translate(0,40)"><svg width="64" height="14" viewBox="0 0 64 14" preserveAspectRatio="none"><path d="M0 14 L2.13 13.26 L4.27 12.53 L6.4 12.53 L8.53 11.79 L10.67 11.79 L12.8 11.79 L14.93 11.79 L17.07 11.79 L19.2 11.79 L21.33 11.79 L23.47 11.79 L25.6 11.79 L27.73 11.79 L29.87 11.79 L32 11.79 L34.13 11.05 L36.27 1.47 L38.4 1.47 L40.53 1.47 L42.67 1.47 L44.8 1.47 L46.93 1.47 L49.07 0.74 L51.2 0 L53.33 0 L55.47 0 L57.6 0 L59.73 0 L61.87 0 L64 0 L64 14 L0 14 Z" fill="var(--cf-spark-bg)" stroke="none"/><path d="M0 14 L2.13 13.26 L4.27 12.53 L6.4 12.53 L8.53 11.79 L10.67 11.79 L12.8 11.79 L14.93 11.79 L17.07 11.79 L19.2 11.79 L21.33 11.79 L23.47 11.79 L25.6 11.79 L27.73 11.79 L29.87 11.79 L32 11.79 L34.13 11.05 L36.27 1.47 L38.4 1.47 L40.53 1.47 L42.67 1.47 L44.8 1.47 L46.93 1.47 L49.07 0.74 L51.2 0 L53.33 0 L55.47 0 L57.6 0 L59.73 0 L61.87 0 L64 0" fill="none" stroke="var(--cf-spark)" stroke-width="1.4" stroke-linecap="round" stroke-linejoin="round"/></svg></g></g><a href="https://github.com/braedonsaunders/codeflow" target="_blank"><text x="702" y="130" text-anchor="end" font-size="9" fill="var(--cf-text-faint)">powered by <tspan font-weight="600" fill="var(--cf-accent)">codeflow</tspan></text></a></svg>