<svg xmlns="http://www.w3.org/2000/svg" width="720" height="140" viewBox="0 0 720 140" font-family="-apple-system,BlinkMacSystemFont,Segoe UI,Helvetica,Arial,sans-serif"><style>svg{--cf-bg:#0d1117;--cf-bg-alt:#161b22;--cf-border:#21262d;--cf-text:#e6edf3;--cf-text-dim:#8b949e;--cf-text-faint:#6e7681;--cf-accent:#5eead4;--cf-accent-soft:rgba(94,234,212,0.16);--cf-green:#3fb950;--cf-amber:#d29922;--cf-red:#f85149;--cf-spark:#5eead4;--cf-spark-bg:rgba(94,234,212,0.18)}@media (prefers-color-scheme: light){svg{--cf-bg:#ffffff;--cf-bg-alt:#f6f8fa;--cf-border:#d0d7de;--cf-text:#1f2328;--cf-text-dim:#656d76;--cf-text-faint:#8c959f;--cf-accent:#0d9488;--cf-accent-soft:rgba(13,148,136,0.12);--cf-green:#1a7f37;--cf-amber:#9a6700;--cf-red:#cf222e;--cf-spark:#0d9488;--cf-spark-bg:rgba(13,148,136,0.12)}}</style><rect width="720" height="140" rx="12" fill="var(--cf-bg)" stroke="var(--cf-border)"/><text x="18" y="26" font-size="13" font-weight="600" fill="var(--cf-text)">braedonsaunders/homerun</text><text x="702" y="26" text-anchor="end" font-size="10" fill="var(--cf-text-faint)" font-family="ui-monospace,SFMono-Regular,Menlo,monospace">@a7d75bc</text><g transform="translate(18,46)"><text x="0" y="0" font-size="9" font-weight="600" fill="var(--cf-text-dim)" letter-spacing="0.8">FILES</text><text x="0" y="28" font-size="22" font-weight="700" fill="var(--cf-text)">853</text><g transform="translate(0,40)"><svg width="64" height="14" viewBox="0 0 64 14" preserveAspectRatio="none"><path d="M0 14 L3.05 14 L6.1 14 L9.14 14 L12.19 14 L15.24 12.08 L18.29 12.08 L21.33 12.08 L24.38 11.89 L27.43 11.89 L30.48 11.89 L33.52 11.89 L36.57 2.49 L39.62 2.11 L42.67 2.11 L45.71 2.11 L48.76 2.11 L51.81 2.11 L54.86 1.92 L57.9 1.92 L60.95 1.92 L64 0 L64 14 L0 14 Z" fill="var(--cf-spark-bg)" stroke="none"/><path d="M0 14 L3.05 14 L6.1 14 L9.14 14 L12.19 14 L15.24 12.08 L18.29 12.08 L21.33 12.08 L24.38 11.89 L27.43 11.89 L30.48 11.89 L33.52 11.89 L36.57 2.49 L39.62 2.11 L42.67 2.11 L45.71 2.11 L48.76 2.11 L51.81 2.11 L54.86 1.92 L57.9 1.92 L60.95 1.92 L64 0" fill="none" stroke="var(--cf-spark)" stroke-width="1.4" stroke-linecap="round" stroke-linejoin="round"/></svg></g></g><g transform="translate(154.8,46)"><text x="0" y="0" font-size="9" font-weight="600" fill="var(--cf-text-dim)" letter-spacing="0.8">FNS</text><text x="0" y="28" font-size="22" font-weight="700" fill="var(--cf-text)">12.4K</text><g transform="translate(0,40)"><svg width="64" height="14" viewBox="0 0 64 14" preserveAspectRatio="none"><path d="M0 14 L3.05 14 L6.1 14 L9.14 14 L12.19 14 L15.24 12.33 L18.29 12.33 L21.33 12.33 L24.38 12.22 L27.43 12.17 L30.48 12.15 L33.52 12.15 L36.57 1.52 L39.62 0.99 L42.67 0.97 L45.71 0.94 L48.76 0.94 L51.81 0.94 L54.86 0.67 L57.9 0.67 L60.95 0.66 L64 0 L64 14 L0 14 Z" fill="var(--cf-spark-bg)" stroke="none"/><path d="M0 14 L3.05 14 L6.1 14 L9.14 14 L12.19 14 L15.24 12.33 L18.29 12.33 L21.33 12.33 L24.38 12.22 L27.43 12.17 L30.48 12.15 L33.52 12.15 L36.57 1.52 L39.62 0.99 L42.67 0.97 L45.71 0.94 L48.76 0.94 L51.81 0.94 L54.86 0.67 L57.9 0.67 L60.95 0.66 L64 0" fill="none" stroke="var(--cf-spark)" stroke-width="1.4" stroke-linecap="round" stroke-linejoin="round"/></svg></g></g><g transform="translate(291.6,46)"><text x="0" y="0" font-size="9" font-weight="600" fill="var(--cf-text-dim)" letter-spacing="0.8">LOC</text><text x="0" y="28" font-size="22" font-weight="700" fill="var(--cf-text)">467.6K</text><g transform="translate(0,40)"><svg width="64" height="14" viewBox="0 0 64 14" preserveAspectRatio="none"><path d="M0 13.9 L3.05 13.99 L6.1 14 L9.14 14 L12.19 14 L15.24 8.65 L18.29 8.64 L21.33 8.63 L24.38 8.39 L27.43 9.06 L30.48 8.99 L33.52 8.99 L36.57 6.34 L39.62 3.64 L42.67 3.61 L45.71 3.49 L48.76 3.49 L51.81 3.47 L54.86 2.62 L57.9 3.14 L60.95 3.13 L64 0 L64 14 L0 14 Z" fill="var(--cf-spark-bg)" stroke="none"/><path d="M0 13.9 L3.05 13.99 L6.1 14 L9.14 14 L12.19 14 L15.24 8.65 L18.29 8.64 L21.33 8.63 L24.38 8.39 L27.43 9.06 L30.48 8.99 L33.52 8.99 L36.57 6.34 L39.62 3.64 L42.67 3.61 L45.71 3.49 L48.76 3.49 L51.81 3.47 L54.86 2.62 L57.9 3.14 L60.95 3.13 L64 0" fill="none" stroke="var(--cf-spark)" stroke-width="1.4" stroke-linecap="round" stroke-linejoin="round"/></svg></g></g><g transform="translate(428.40000000000003,46)"><text x="0" y="0" font-size="9" font-weight="600" fill="var(--cf-text-dim)" letter-spacing="0.8">LANGS</text><text x="0" y="28" font-size="22" font-weight="700" fill="var(--cf-text)">19</text><g transform="translate(0,40)"><svg width="64" height="14" viewBox="0 0 64 14" preserveAspectRatio="none"><path d="M0 7 L3.05 7 L6.1 7 L9.14 7 L12.19 7 L15.24 7 L18.29 7 L21.33 7 L24.38 7 L27.43 7 L30.48 7 L33.52 7 L36.57 7 L39.62 7 L42.67 7 L45.71 7 L48.76 7 L51.81 7 L54.86 7 L57.9 7 L60.95 7 L64 7 L64 14 L0 14 Z" fill="var(--cf-spark-bg)" stroke="none"/><path d="M0 7 L3.05 7 L6.1 7 L9.14 7 L12.19 7 L15.24 7 L18.29 7 L21.33 7 L24.38 7 L27.43 7 L30.48 7 L33.52 7 L36.57 7 L39.62 7 L42.67 7 L45.71 7 L48.76 7 L51.81 7 L54.86 7 L57.9 7 L60.95 7 L64 7" fill="none" stroke="var(--cf-spark)" stroke-width="1.4" stroke-linecap="round" stroke-linejoin="round"/></svg></g></g><g transform="translate(565.2,46)"><text x="0" y="0" font-size="9" font-weight="600" fill="var(--cf-text-dim)" letter-spacing="0.8">TESTS</text><text x="0" y="28" font-size="22" font-weight="700" fill="var(--cf-text)">186</text><g transform="translate(0,40)"><svg width="64" height="14" viewBox="0 0 64 14" preserveAspectRatio="none"><path d="M0 14 L3.05 14 L6.1 14 L9.14 14 L12.19 14 L15.24 11.67 L18.29 11.67 L21.33 11.67 L24.38 11.67 L27.43 11.67 L30.48 11.67 L33.52 11.67 L36.57 0 L39.62 0 L42.67 0 L45.71 0 L48.76 0 L51.81 0 L54.86 0 L57.9 0 L60.95 0 L64 0 L64 14 L0 14 Z" fill="var(--cf-spark-bg)" stroke="none"/><path d="M0 14 L3.05 14 L6.1 14 L9.14 14 L12.19 14 L15.24 11.67 L18.29 11.67 L21.33 11.67 L24.38 11.67 L27.43 11.67 L30.48 11.67 L33.52 11.67 L36.57 0 L39.62 0 L42.67 0 L45.71 0 L48.76 0 L51.81 0 L54.86 0 L57.9 0 L60.95 0 L64 0" fill="none" stroke="var(--cf-spark)" stroke-width="1.4" stroke-linecap="round" stroke-linejoin="round"/></svg></g></g><a href="https://github.com/braedonsaunders/codeflow" target="_blank"><text x="702" y="130" text-anchor="end" font-size="9" fill="var(--cf-text-faint)">powered by <tspan font-weight="600" fill="var(--cf-accent)">codeflow</tspan></text></a></svg>