<svg xmlns="http://www.w3.org/2000/svg" width="720" height="140" viewBox="0 0 720 140" font-family="-apple-system,BlinkMacSystemFont,Segoe UI,Helvetica,Arial,sans-serif"><style>svg{--cf-bg:#0d1117;--cf-bg-alt:#161b22;--cf-border:#21262d;--cf-text:#e6edf3;--cf-text-dim:#8b949e;--cf-text-faint:#6e7681;--cf-accent:#5eead4;--cf-accent-soft:rgba(94,234,212,0.16);--cf-green:#3fb950;--cf-amber:#d29922;--cf-red:#f85149;--cf-spark:#5eead4;--cf-spark-bg:rgba(94,234,212,0.18)}@media (prefers-color-scheme: light){svg{--cf-bg:#ffffff;--cf-bg-alt:#f6f8fa;--cf-border:#d0d7de;--cf-text:#1f2328;--cf-text-dim:#656d76;--cf-text-faint:#8c959f;--cf-accent:#0d9488;--cf-accent-soft:rgba(13,148,136,0.12);--cf-green:#1a7f37;--cf-amber:#9a6700;--cf-red:#cf222e;--cf-spark:#0d9488;--cf-spark-bg:rgba(13,148,136,0.12)}}</style><rect width="720" height="140" rx="12" fill="var(--cf-bg)" stroke="var(--cf-border)"/><text x="18" y="26" font-size="13" font-weight="600" fill="var(--cf-text)">braedonsaunders/homerun</text><text x="702" y="26" text-anchor="end" font-size="10" fill="var(--cf-text-faint)" font-family="ui-monospace,SFMono-Regular,Menlo,monospace">@a2b930e</text><g transform="translate(18,46)"><text x="0" y="0" font-size="9" font-weight="600" fill="var(--cf-text-dim)" letter-spacing="0.8">FILES</text><text x="0" y="28" font-size="22" font-weight="700" fill="var(--cf-text)">990</text><g transform="translate(0,40)"><svg width="64" height="14" viewBox="0 0 64 14" preserveAspectRatio="none"><path d="M0 14 L2.13 14 L4.27 14 L6.4 14 L8.53 14 L10.67 14 L12.8 14 L14.93 12.56 L17.07 12.56 L19.2 12.56 L21.33 12.56 L23.47 12.56 L25.6 11.85 L27.73 10.77 L29.87 10.77 L32 10.41 L34.13 10.41 L36.27 10.41 L38.4 10.41 L40.53 10.41 L42.67 10.41 L44.8 10.41 L46.93 10.41 L49.07 1.79 L51.2 1.79 L53.33 1.08 L55.47 0.72 L57.6 0.36 L59.73 0 L61.87 0 L64 0 L64 14 L0 14 Z" fill="var(--cf-spark-bg)" stroke="none"/><path d="M0 14 L2.13 14 L4.27 14 L6.4 14 L8.53 14 L10.67 14 L12.8 14 L14.93 12.56 L17.07 12.56 L19.2 12.56 L21.33 12.56 L23.47 12.56 L25.6 11.85 L27.73 10.77 L29.87 10.77 L32 10.41 L34.13 10.41 L36.27 10.41 L38.4 10.41 L40.53 10.41 L42.67 10.41 L44.8 10.41 L46.93 10.41 L49.07 1.79 L51.2 1.79 L53.33 1.08 L55.47 0.72 L57.6 0.36 L59.73 0 L61.87 0 L64 0" fill="none" stroke="var(--cf-spark)" stroke-width="1.4" stroke-linecap="round" stroke-linejoin="round"/></svg></g></g><g transform="translate(154.8,46)"><text x="0" y="0" font-size="9" font-weight="600" fill="var(--cf-text-dim)" letter-spacing="0.8">FNS</text><text x="0" y="28" font-size="22" font-weight="700" fill="var(--cf-text)">14.2K</text><g transform="translate(0,40)"><svg width="64" height="14" viewBox="0 0 64 14" preserveAspectRatio="none"><path d="M0 14 L2.13 14 L4.27 13.85 L6.4 13.77 L8.53 13.77 L10.67 13.77 L12.8 13.77 L14.93 11.7 L17.07 11.7 L19.2 11.7 L21.33 11.52 L23.47 11.52 L25.6 10.59 L27.73 8.93 L29.87 8.93 L32 8.69 L34.13 8.69 L36.27 8.69 L38.4 8.69 L40.53 8.66 L42.67 8.66 L44.8 8.46 L46.93 8.46 L49.07 1.46 L51.2 1.46 L53.33 0.99 L55.47 0.85 L57.6 0.58 L59.73 0.23 L61.87 0.17 L64 0 L64 14 L0 14 Z" fill="var(--cf-spark-bg)" stroke="none"/><path d="M0 14 L2.13 14 L4.27 13.85 L6.4 13.77 L8.53 13.77 L10.67 13.77 L12.8 13.77 L14.93 11.7 L17.07 11.7 L19.2 11.7 L21.33 11.52 L23.47 11.52 L25.6 10.59 L27.73 8.93 L29.87 8.93 L32 8.69 L34.13 8.69 L36.27 8.69 L38.4 8.69 L40.53 8.66 L42.67 8.66 L44.8 8.46 L46.93 8.46 L49.07 1.46 L51.2 1.46 L53.33 0.99 L55.47 0.85 L57.6 0.58 L59.73 0.23 L61.87 0.17 L64 0" fill="none" stroke="var(--cf-spark)" stroke-width="1.4" stroke-linecap="round" stroke-linejoin="round"/></svg></g></g><g transform="translate(291.6,46)"><text x="0" y="0" font-size="9" font-weight="600" fill="var(--cf-text-dim)" letter-spacing="0.8">LOC</text><text x="0" y="28" font-size="22" font-weight="700" fill="var(--cf-text)">588.7K</text><g transform="translate(0,40)"><svg width="64" height="14" viewBox="0 0 64 14" preserveAspectRatio="none"><path d="M0 14 L2.13 13.95 L4.27 13.45 L6.4 13.28 L8.53 13.25 L10.67 13.26 L12.8 13.25 L14.93 11.32 L17.07 11.17 L19.2 11.14 L21.33 11.08 L23.47 11.07 L25.6 10.34 L27.73 8.69 L29.87 8.68 L32 8.49 L34.13 8.41 L36.27 8.31 L38.4 8.3 L40.53 8.13 L42.67 8.1 L44.8 7.73 L46.93 7.78 L49.07 1.13 L51.2 1.13 L53.33 0.76 L55.47 0.51 L57.6 0.43 L59.73 0.25 L61.87 0.19 L64 0 L64 14 L0 14 Z" fill="var(--cf-spark-bg)" stroke="none"/><path d="M0 14 L2.13 13.95 L4.27 13.45 L6.4 13.28 L8.53 13.25 L10.67 13.26 L12.8 13.25 L14.93 11.32 L17.07 11.17 L19.2 11.14 L21.33 11.08 L23.47 11.07 L25.6 10.34 L27.73 8.69 L29.87 8.68 L32 8.49 L34.13 8.41 L36.27 8.31 L38.4 8.3 L40.53 8.13 L42.67 8.1 L44.8 7.73 L46.93 7.78 L49.07 1.13 L51.2 1.13 L53.33 0.76 L55.47 0.51 L57.6 0.43 L59.73 0.25 L61.87 0.19 L64 0" fill="none" stroke="var(--cf-spark)" stroke-width="1.4" stroke-linecap="round" stroke-linejoin="round"/></svg></g></g><g transform="translate(428.40000000000003,46)"><text x="0" y="0" font-size="9" font-weight="600" fill="var(--cf-text-dim)" letter-spacing="0.8">LANGS</text><text x="0" y="28" font-size="22" font-weight="700" fill="var(--cf-text)">22</text><g transform="translate(0,40)"><svg width="64" height="14" viewBox="0 0 64 14" preserveAspectRatio="none"><path d="M0 7 L2.13 7 L4.27 7 L6.4 7 L8.53 7 L10.67 7 L12.8 7 L14.93 7 L17.07 7 L19.2 7 L21.33 7 L23.47 7 L25.6 7 L27.73 7 L29.87 7 L32 7 L34.13 7 L36.27 7 L38.4 7 L40.53 7 L42.67 7 L44.8 7 L46.93 7 L49.07 7 L51.2 7 L53.33 7 L55.47 7 L57.6 7 L59.73 7 L61.87 7 L64 7 L64 14 L0 14 Z" fill="var(--cf-spark-bg)" stroke="none"/><path d="M0 7 L2.13 7 L4.27 7 L6.4 7 L8.53 7 L10.67 7 L12.8 7 L14.93 7 L17.07 7 L19.2 7 L21.33 7 L23.47 7 L25.6 7 L27.73 7 L29.87 7 L32 7 L34.13 7 L36.27 7 L38.4 7 L40.53 7 L42.67 7 L44.8 7 L46.93 7 L49.07 7 L51.2 7 L53.33 7 L55.47 7 L57.6 7 L59.73 7 L61.87 7 L64 7" fill="none" stroke="var(--cf-spark)" stroke-width="1.4" stroke-linecap="round" stroke-linejoin="round"/></svg></g></g><g transform="translate(565.2,46)"><text x="0" y="0" font-size="9" font-weight="600" fill="var(--cf-text-dim)" letter-spacing="0.8">TESTS</text><text x="0" y="28" font-size="22" font-weight="700" fill="var(--cf-text)">210</text><g transform="translate(0,40)"><svg width="64" height="14" viewBox="0 0 64 14" preserveAspectRatio="none"><path d="M0 14 L2.13 14 L4.27 14 L6.4 14 L8.53 14 L10.67 14 L12.8 14 L14.93 10.89 L17.07 10.89 L19.2 10.89 L21.33 10.89 L23.47 10.89 L25.6 10.89 L27.73 10.89 L29.87 10.89 L32 10.89 L34.13 10.89 L36.27 10.89 L38.4 10.89 L40.53 10.89 L42.67 10.89 L44.8 10.89 L46.93 10.89 L49.07 4.67 L51.2 4.67 L53.33 3.11 L55.47 3.11 L57.6 1.56 L59.73 0 L61.87 0 L64 0 L64 14 L0 14 Z" fill="var(--cf-spark-bg)" stroke="none"/><path d="M0 14 L2.13 14 L4.27 14 L6.4 14 L8.53 14 L10.67 14 L12.8 14 L14.93 10.89 L17.07 10.89 L19.2 10.89 L21.33 10.89 L23.47 10.89 L25.6 10.89 L27.73 10.89 L29.87 10.89 L32 10.89 L34.13 10.89 L36.27 10.89 L38.4 10.89 L40.53 10.89 L42.67 10.89 L44.8 10.89 L46.93 10.89 L49.07 4.67 L51.2 4.67 L53.33 3.11 L55.47 3.11 L57.6 1.56 L59.73 0 L61.87 0 L64 0" fill="none" stroke="var(--cf-spark)" stroke-width="1.4" stroke-linecap="round" stroke-linejoin="round"/></svg></g></g><a href="https://github.com/braedonsaunders/codeflow" target="_blank"><text x="702" y="130" text-anchor="end" font-size="9" fill="var(--cf-text-faint)">powered by <tspan font-weight="600" fill="var(--cf-accent)">codeflow</tspan></text></a></svg>