<svg xmlns="http://www.w3.org/2000/svg" width="720" height="140" viewBox="0 0 720 140" font-family="-apple-system,BlinkMacSystemFont,Segoe UI,Helvetica,Arial,sans-serif"><style>svg{--cf-bg:#0d1117;--cf-bg-alt:#161b22;--cf-border:#21262d;--cf-text:#e6edf3;--cf-text-dim:#8b949e;--cf-text-faint:#6e7681;--cf-accent:#5eead4;--cf-accent-soft:rgba(94,234,212,0.16);--cf-green:#3fb950;--cf-amber:#d29922;--cf-red:#f85149;--cf-spark:#5eead4;--cf-spark-bg:rgba(94,234,212,0.18)}@media (prefers-color-scheme: light){svg{--cf-bg:#ffffff;--cf-bg-alt:#f6f8fa;--cf-border:#d0d7de;--cf-text:#1f2328;--cf-text-dim:#656d76;--cf-text-faint:#8c959f;--cf-accent:#0d9488;--cf-accent-soft:rgba(13,148,136,0.12);--cf-green:#1a7f37;--cf-amber:#9a6700;--cf-red:#cf222e;--cf-spark:#0d9488;--cf-spark-bg:rgba(13,148,136,0.12)}}</style><rect width="720" height="140" rx="12" fill="var(--cf-bg)" stroke="var(--cf-border)"/><text x="18" y="26" font-size="13" font-weight="600" fill="var(--cf-text)">braedonsaunders/homerun</text><text x="702" y="26" text-anchor="end" font-size="10" fill="var(--cf-text-faint)" font-family="ui-monospace,SFMono-Regular,Menlo,monospace">@41510a9</text><g transform="translate(18,46)"><text x="0" y="0" font-size="9" font-weight="600" fill="var(--cf-text-dim)" letter-spacing="0.8">FILES</text><text x="0" y="28" font-size="22" font-weight="700" fill="var(--cf-text)">1.1K</text><g transform="translate(0,40)"><svg width="64" height="14" viewBox="0 0 64 14" preserveAspectRatio="none"><path d="M0 12.25 L2.13 12.25 L4.27 11.96 L6.4 14 L8.53 14 L10.67 14 L12.8 14 L14.93 14 L17.07 13.71 L19.2 13.71 L21.33 10.79 L23.47 10.79 L25.6 10.79 L27.73 10.79 L29.87 10.21 L32 0.88 L34.13 0.88 L36.27 0.88 L38.4 0.88 L40.53 0.88 L42.67 0.88 L44.8 0.58 L46.93 0 L49.07 0 L51.2 0 L53.33 0 L55.47 0 L57.6 0 L59.73 0 L61.87 0 L64 0 L64 14 L0 14 Z" fill="var(--cf-spark-bg)" stroke="none"/><path d="M0 12.25 L2.13 12.25 L4.27 11.96 L6.4 14 L8.53 14 L10.67 14 L12.8 14 L14.93 14 L17.07 13.71 L19.2 13.71 L21.33 10.79 L23.47 10.79 L25.6 10.79 L27.73 10.79 L29.87 10.21 L32 0.88 L34.13 0.88 L36.27 0.88 L38.4 0.88 L40.53 0.88 L42.67 0.88 L44.8 0.58 L46.93 0 L49.07 0 L51.2 0 L53.33 0 L55.47 0 L57.6 0 L59.73 0 L61.87 0 L64 0" fill="none" stroke="var(--cf-spark)" stroke-width="1.4" stroke-linecap="round" stroke-linejoin="round"/></svg></g></g><g transform="translate(154.8,46)"><text x="0" y="0" font-size="9" font-weight="600" fill="var(--cf-text-dim)" letter-spacing="0.8">FNS</text><text x="0" y="28" font-size="22" font-weight="700" fill="var(--cf-text)">15.2K</text><g transform="translate(0,40)"><svg width="64" height="14" viewBox="0 0 64 14" preserveAspectRatio="none"><path d="M0 14 L2.13 14 L4.27 13.26 L6.4 13.81 L8.53 13.81 L10.67 13.81 L12.8 13.81 L14.93 13.78 L17.07 13.37 L19.2 13.37 L21.33 9.05 L23.47 9.05 L25.6 9.23 L27.73 9.23 L29.87 8.15 L32 1.86 L34.13 1.79 L36.27 1.75 L38.4 1.38 L40.53 1.41 L42.67 1.41 L44.8 1.19 L46.93 0.41 L49.07 0.19 L51.2 0.19 L53.33 0.19 L55.47 0.15 L57.6 0 L59.73 0 L61.87 0 L64 0 L64 14 L0 14 Z" fill="var(--cf-spark-bg)" stroke="none"/><path d="M0 14 L2.13 14 L4.27 13.26 L6.4 13.81 L8.53 13.81 L10.67 13.81 L12.8 13.81 L14.93 13.78 L17.07 13.37 L19.2 13.37 L21.33 9.05 L23.47 9.05 L25.6 9.23 L27.73 9.23 L29.87 8.15 L32 1.86 L34.13 1.79 L36.27 1.75 L38.4 1.38 L40.53 1.41 L42.67 1.41 L44.8 1.19 L46.93 0.41 L49.07 0.19 L51.2 0.19 L53.33 0.19 L55.47 0.15 L57.6 0 L59.73 0 L61.87 0 L64 0" fill="none" stroke="var(--cf-spark)" stroke-width="1.4" stroke-linecap="round" stroke-linejoin="round"/></svg></g></g><g transform="translate(291.6,46)"><text x="0" y="0" font-size="9" font-weight="600" fill="var(--cf-text-dim)" letter-spacing="0.8">LOC</text><text x="0" y="28" font-size="22" font-weight="700" fill="var(--cf-text)">609K</text><g transform="translate(0,40)"><svg width="64" height="14" viewBox="0 0 64 14" preserveAspectRatio="none"><path d="M0 11.11 L2.13 11.09 L4.27 10.32 L6.4 14 L8.53 13.96 L10.67 13.95 L12.8 13.96 L14.93 13.68 L17.07 12.79 L19.2 12.75 L21.33 7.71 L23.47 7.68 L25.6 7.73 L27.73 7.66 L29.87 6.5 L32 2.53 L34.13 2.52 L36.27 2.45 L38.4 2.27 L40.53 2.27 L42.67 2.11 L44.8 1.9 L46.93 1.38 L49.07 1.03 L51.2 0.96 L53.33 0.95 L55.47 0.78 L57.6 0.23 L59.73 0.06 L61.87 0.02 L64 0 L64 14 L0 14 Z" fill="var(--cf-spark-bg)" stroke="none"/><path d="M0 11.11 L2.13 11.09 L4.27 10.32 L6.4 14 L8.53 13.96 L10.67 13.95 L12.8 13.96 L14.93 13.68 L17.07 12.79 L19.2 12.75 L21.33 7.71 L23.47 7.68 L25.6 7.73 L27.73 7.66 L29.87 6.5 L32 2.53 L34.13 2.52 L36.27 2.45 L38.4 2.27 L40.53 2.27 L42.67 2.11 L44.8 1.9 L46.93 1.38 L49.07 1.03 L51.2 0.96 L53.33 0.95 L55.47 0.78 L57.6 0.23 L59.73 0.06 L61.87 0.02 L64 0" fill="none" stroke="var(--cf-spark)" stroke-width="1.4" stroke-linecap="round" stroke-linejoin="round"/></svg></g></g><g transform="translate(428.40000000000003,46)"><text x="0" y="0" font-size="9" font-weight="600" fill="var(--cf-text-dim)" letter-spacing="0.8">LANGS</text><text x="0" y="28" font-size="22" font-weight="700" fill="var(--cf-text)">22</text><g transform="translate(0,40)"><svg width="64" height="14" viewBox="0 0 64 14" preserveAspectRatio="none"><path d="M0 7 L2.13 7 L4.27 7 L6.4 7 L8.53 7 L10.67 7 L12.8 7 L14.93 7 L17.07 7 L19.2 7 L21.33 7 L23.47 7 L25.6 7 L27.73 7 L29.87 7 L32 7 L34.13 7 L36.27 7 L38.4 7 L40.53 7 L42.67 7 L44.8 7 L46.93 7 L49.07 7 L51.2 7 L53.33 7 L55.47 7 L57.6 7 L59.73 7 L61.87 7 L64 7 L64 14 L0 14 Z" fill="var(--cf-spark-bg)" stroke="none"/><path d="M0 7 L2.13 7 L4.27 7 L6.4 7 L8.53 7 L10.67 7 L12.8 7 L14.93 7 L17.07 7 L19.2 7 L21.33 7 L23.47 7 L25.6 7 L27.73 7 L29.87 7 L32 7 L34.13 7 L36.27 7 L38.4 7 L40.53 7 L42.67 7 L44.8 7 L46.93 7 L49.07 7 L51.2 7 L53.33 7 L55.47 7 L57.6 7 L59.73 7 L61.87 7 L64 7" fill="none" stroke="var(--cf-spark)" stroke-width="1.4" stroke-linecap="round" stroke-linejoin="round"/></svg></g></g><g transform="translate(565.2,46)"><text x="0" y="0" font-size="9" font-weight="600" fill="var(--cf-text-dim)" letter-spacing="0.8">TESTS</text><text x="0" y="28" font-size="22" font-weight="700" fill="var(--cf-text)">246</text><g transform="translate(0,40)"><svg width="64" height="14" viewBox="0 0 64 14" preserveAspectRatio="none"><path d="M0 14 L2.13 14 L4.27 13.18 L6.4 13.18 L8.53 13.18 L10.67 13.18 L12.8 13.18 L14.93 13.18 L17.07 13.18 L19.2 13.18 L21.33 13.18 L23.47 13.18 L25.6 13.18 L27.73 13.18 L29.87 12.35 L32 1.65 L34.13 1.65 L36.27 1.65 L38.4 1.65 L40.53 1.65 L42.67 1.65 L44.8 0.82 L46.93 0 L49.07 0 L51.2 0 L53.33 0 L55.47 0 L57.6 0 L59.73 0 L61.87 0 L64 0 L64 14 L0 14 Z" fill="var(--cf-spark-bg)" stroke="none"/><path d="M0 14 L2.13 14 L4.27 13.18 L6.4 13.18 L8.53 13.18 L10.67 13.18 L12.8 13.18 L14.93 13.18 L17.07 13.18 L19.2 13.18 L21.33 13.18 L23.47 13.18 L25.6 13.18 L27.73 13.18 L29.87 12.35 L32 1.65 L34.13 1.65 L36.27 1.65 L38.4 1.65 L40.53 1.65 L42.67 1.65 L44.8 0.82 L46.93 0 L49.07 0 L51.2 0 L53.33 0 L55.47 0 L57.6 0 L59.73 0 L61.87 0 L64 0" fill="none" stroke="var(--cf-spark)" stroke-width="1.4" stroke-linecap="round" stroke-linejoin="round"/></svg></g></g><a href="https://github.com/braedonsaunders/codeflow" target="_blank"><text x="702" y="130" text-anchor="end" font-size="9" fill="var(--cf-text-faint)">powered by <tspan font-weight="600" fill="var(--cf-accent)">codeflow</tspan></text></a></svg>